<?xml version="1.0" encoding="utf-8"?>
<!-- Generator: Adobe Illustrator 16.0.0, SVG Export Plug-In . SVG Version: 6.00 Build 0)  -->
<!DOCTYPE svg PUBLIC "-//W3C//DTD SVG 1.1//EN" "http://www.w3.org/Graphics/SVG/1.1/DTD/svg11.dtd">
<svg version="1.1" id="Layer_1" xmlns="http://www.w3.org/2000/svg" xmlns:xlink="http://www.w3.org/1999/xlink" x="0px" y="0px"
	 width="150px" height="150px" viewBox="0 0 150 150" enable-background="new 0 0 150 150" xml:space="preserve">
<path fill="#3A599F" d="M0,0v150h150V0H0z M91.264,66.076c-0.17,1.978-0.39,3.952-0.527,5.932c-0.063,0.897-0.447,1.221-1.332,1.208
	c-2.207-0.037-4.416-0.014-6.623-0.008c-1.83,0.006-1.836,0.008-1.836,1.793c-0.004,9.845-0.002,19.688-0.004,29.532
	c0,2.056,0,2.06-2.117,2.06c-3.487,0-6.976-0.043-10.463,0.022c-1.173,0.021-1.485-0.368-1.48-1.52
	c0.042-9.977,0.023-19.953,0.023-29.93C66.9,74.602,66.9,74.041,66.9,73.282c-2.149,0-4.046-0.036-5.938,0.017
	c-0.901,0.024-1.246-0.25-1.23-1.192c0.048-3.001,0.056-6.004-0.004-9.005c-0.021-1.027,0.363-1.295,1.314-1.249
	c1.319,0.065,2.646,0.016,3.972,0.015c1.885-0.001,1.886-0.002,1.889-1.824c0.002-2.429-0.029-4.857,0.01-7.285
	c0.123-7.376,3.959-11.682,11.3-12.281c4.081-0.333,8.2-0.201,12.303-0.22c0.344-0.001,0.989,0.433,0.993,0.673
	c0.064,3.612,0.046,7.224,0.046,10.956c-0.722,0.045-1.324,0.109-1.929,0.115c-2.075,0.02-4.149-0.022-6.226,0.04
	c-1.528,0.045-2.338,0.77-2.401,2.269c-0.097,2.248-0.026,4.501-0.049,6.752c-0.009,0.784,0.491,0.805,1.061,0.805
	c2.605-0.004,5.209,0,7.813,0c0.519,0,1.035,0,1.75,0C91.464,63.387,91.38,64.733,91.264,66.076z"/>
</svg>
