<?xml version="1.0" standalone="no"?>
<!DOCTYPE svg PUBLIC "-//W3C//DTD SVG 20010904//EN"
 "http://www.w3.org/TR/2001/REC-SVG-20010904/DTD/svg10.dtd">
<svg version="1.0" xmlns="http://www.w3.org/2000/svg"
 width="384.000000pt" height="384.000000pt" viewBox="0 0 384.000000 384.000000"
 preserveAspectRatio="xMidYMid meet">
<metadata>
Created by potrace 1.11, written by Peter Selinger 2001-2013
</metadata>
<g transform="translate(0.000000,384.000000) scale(0.100000,-0.100000)"
fill="#000000" stroke="none">
<path d="M1660 3825 c-433 -54 -798 -238 -1106 -556 -639 -663 -737 -1641
-241 -2398 397 -605 1095 -938 1805 -860 590 64 1142 408 1448 901 286 462
355 1094 176 1633 -47 143 -164 375 -249 495 -125 175 -328 369 -518 495 -362
241 -848 348 -1315 290z m591 -364 c206 -44 360 -109 534 -225 350 -234 587
-582 676 -996 20 -90 23 -135 24 -315 0 -237 -14 -337 -70 -511 -162 -497
-608 -891 -1155 -1021 -157 -37 -427 -44 -599 -14 -493 84 -925 408 -1151 866
-112 225 -160 430 -160 675 0 427 163 805 484 1125 226 225 477 361 763 414
160 30 153 30 363 26 149 -3 218 -9 291 -24z"/>
<path d="M1795 3020 c-69 -11 -172 -43 -225 -70 -111 -57 -223 -171 -293 -300
-202 -371 -202 -1089 0 -1460 137 -252 347 -374 643 -374 296 0 506 122 643
374 172 316 202 898 67 1301 -93 278 -267 452 -512 513 -83 21 -242 28 -323
16z m203 -433 c27 -22 43 -68 36 -100 -6 -27 -414 -789 -434 -810 -13 -14 -23
197 -17 343 16 353 97 530 265 576 50 14 128 9 150 -9z m258 -592 c16 -415
-60 -664 -225 -738 -135 -61 -320 11 -294 114 3 13 117 215 252 449 l246 424
7 -39 c4 -22 10 -116 14 -210z"/>
</g>
</svg>
