<?xml version="1.0" encoding="utf-8"?>
<!-- Generator: Adobe Illustrator 16.0.0, SVG Export Plug-In . SVG Version: 6.00 Build 0)  -->
<!DOCTYPE svg PUBLIC "-//W3C//DTD SVG 1.1//EN" "http://www.w3.org/Graphics/SVG/1.1/DTD/svg11.dtd">
<svg version="1.1" id="Space" xmlns="http://www.w3.org/2000/svg" xmlns:xlink="http://www.w3.org/1999/xlink" x="0px" y="0px"
	 width="128px" height="120.881px" viewBox="0 0 128 120.881" enable-background="new 0 0 128 120.881" xml:space="preserve">
<g>
	<path fill="#FFFFFF" d="M64.927,103.364c-0.688,0-1.371-0.016-2.037-0.049l0.026-0.51c0.656,0.033,1.333,0.049,2.009,0.049h0.168
		v0.51h-0.164C64.929,103.364,64.928,103.364,64.927,103.364z M69.156,103.153l-0.053-0.51c0.674-0.068,1.345-0.152,1.993-0.25
		l0.076,0.504C70.515,102.997,69.836,103.083,69.156,103.153z M58.843,102.925c-0.676-0.1-1.352-0.215-2.005-0.346l0.1-0.5
		c0.646,0.127,1.313,0.242,1.979,0.34L58.843,102.925z M75.161,102.099l-0.126-0.494c0.643-0.162,1.295-0.344,1.936-0.541l0.15,0.49
		C76.471,101.751,75.81,101.937,75.161,102.099z M52.893,101.603c-0.656-0.199-1.31-0.412-1.938-0.637l0.172-0.48
		c0.621,0.221,1.265,0.434,1.914,0.627L52.893,101.603z M80.945,100.175l-0.195-0.473c0.604-0.25,1.222-0.523,1.832-0.814
		l0.219,0.461C82.182,99.644,81.558,99.921,80.945,100.175z M47.193,99.417c-0.608-0.285-1.224-0.594-1.821-0.912l0.239-0.451
		c0.592,0.314,1.196,0.619,1.8,0.9L47.193,99.417z M86.384,97.427l-0.263-0.439c0.563-0.338,1.135-0.699,1.696-1.074l0.282,0.426
		C87.534,96.718,86.955,97.083,86.384,97.427z M41.878,96.423c-0.565-0.373-1.127-0.768-1.67-1.166l0.303-0.41
		c0.536,0.393,1.091,0.781,1.648,1.15L41.878,96.423z M91.368,93.915l-0.323-0.395c0.51-0.418,1.022-0.857,1.523-1.311l0.343,0.379
		C92.403,93.048,91.884,93.493,91.368,93.915z M37.052,92.69c-0.498-0.447-0.997-0.916-1.481-1.395l0.358-0.363
		c0.479,0.473,0.973,0.936,1.464,1.377L37.052,92.69z M95.793,89.722l-0.377-0.344c0.454-0.496,0.896-1.008,1.319-1.518l0.393,0.324
		C96.703,88.702,96.252,89.22,95.793,89.722z M32.818,88.304c-0.432-0.52-0.856-1.053-1.265-1.594l0.407-0.307
		c0.403,0.531,0.823,1.063,1.25,1.572L32.818,88.304z M99.569,84.931l-0.423-0.285c0.37-0.549,0.735-1.117,1.086-1.691l0.438,0.266
		C100.314,83.802,99.944,84.378,99.569,84.931z M29.263,83.351c-0.354-0.576-0.694-1.168-1.02-1.756l0.447-0.246
		c0.319,0.582,0.658,1.166,1.008,1.736L29.263,83.351z M102.61,79.646l-0.46-0.223c0.291-0.605,0.569-1.225,0.827-1.834l0.472,0.197
		C103.188,78.405,102.906,79.03,102.61,79.646z M26.465,77.935c-0.267-0.625-0.521-1.26-0.752-1.885l0.479-0.178
		c0.229,0.617,0.479,1.242,0.741,1.863L26.465,77.935z M104.846,73.968l-0.485-0.15c0.196-0.637,0.383-1.287,0.55-1.934l0.494,0.127
		C105.236,72.665,105.048,73.323,104.846,73.968z M24.489,72.173c-0.172-0.656-0.329-1.322-0.468-1.98l0.497-0.105
		c0.14,0.65,0.294,1.309,0.466,1.957L24.489,72.173z M106.225,68.028l-0.505-0.08c0.104-0.654,0.19-1.326,0.263-1.992l0.509,0.055
		C106.417,66.687,106.329,67.364,106.225,68.028z M23.379,66.177c-0.075-0.674-0.134-1.355-0.175-2.027l0.512-0.029
		c0.039,0.662,0.099,1.336,0.17,2.002L23.379,66.177z M106.722,61.95l-0.511-0.004l0.003-0.381c0-0.547-0.012-1.088-0.032-1.629
		l0.512-0.021c0.021,0.547,0.03,1.098,0.03,1.65L106.722,61.95z M23.663,60.103l-0.511-0.02c0.022-0.678,0.064-1.359,0.121-2.029
		l0.509,0.041C23.726,58.759,23.688,59.433,23.663,60.103z M105.832,55.937c-0.092-0.664-0.199-1.33-0.322-1.984l0.504-0.094
		c0.123,0.662,0.231,1.336,0.324,2.008L105.832,55.937z M24.311,54.112l-0.503-0.092c0.122-0.664,0.263-1.334,0.416-1.99
		l0.497,0.117C24.57,52.796,24.431,53.456,24.311,54.112z M104.58,50.046c-0.188-0.643-0.393-1.285-0.61-1.914l0.483-0.168
		c0.219,0.637,0.427,1.289,0.617,1.938L104.58,50.046z M25.828,48.286l-0.483-0.166c0.223-0.648,0.459-1.293,0.705-1.914
		l0.477,0.189C26.281,47.009,26.046,47.646,25.828,48.286z M102.475,44.401c-0.281-0.611-0.578-1.219-0.882-1.803l0.453-0.236
		c0.308,0.592,0.607,1.205,0.892,1.824L102.475,44.401z M28.185,42.737l-0.454-0.232c0.313-0.605,0.642-1.209,0.977-1.787
		l0.443,0.256C28.818,41.546,28.494,42.14,28.185,42.737z M99.572,39.13c-0.357-0.553-0.74-1.109-1.135-1.656l0.414-0.299
		c0.399,0.553,0.786,1.119,1.148,1.678L99.572,39.13z M31.326,37.595l-0.414-0.297c0.387-0.541,0.799-1.088,1.224-1.625l0.4,0.316
		C32.117,36.521,31.708,37.06,31.326,37.595z M95.932,34.329c-0.449-0.51-0.909-1.006-1.362-1.477l0.366-0.354
		c0.459,0.475,0.924,0.977,1.38,1.494L95.932,34.329z M35.178,32.962l-0.368-0.354c0.472-0.492,0.957-0.973,1.444-1.432l0.352,0.371
		C36.123,32.003,35.643,32.478,35.178,32.962z M91.637,30.106c-0.497-0.424-1.021-0.848-1.563-1.264l0.312-0.406
		c0.547,0.422,1.079,0.852,1.582,1.281L91.637,30.106z M39.657,28.935l-0.313-0.404c0.536-0.416,1.086-0.82,1.638-1.207l0.293,0.418
		C40.729,28.122,40.185,28.522,39.657,28.935z M86.775,26.548c-0.562-0.354-1.144-0.699-1.729-1.027l0.249-0.445
		c0.593,0.332,1.184,0.682,1.751,1.039L86.775,26.548z M44.669,25.597l-0.252-0.445c0.589-0.334,1.192-0.656,1.793-0.959
		l0.229,0.457C45.847,24.948,45.25,25.267,44.669,25.597z M81.451,23.729c-0.615-0.268-1.241-0.525-1.863-0.764l0.182-0.477
		c0.631,0.24,1.266,0.5,1.888,0.771L81.451,23.729z M50.113,23.024l-0.185-0.477c0.636-0.246,1.28-0.477,1.915-0.686l0.16,0.484
		C51.376,22.554,50.741,22.782,50.113,23.024z M75.767,21.722c-0.647-0.176-1.305-0.338-1.95-0.48l0.108-0.5
		c0.655,0.146,1.319,0.309,1.976,0.488L75.767,21.722z M55.875,21.276l-0.112-0.498c0.663-0.148,1.333-0.281,1.995-0.396
		l0.088,0.502C57.192,20.999,56.529,21.132,55.875,21.276z M69.857,20.571c-0.659-0.08-1.333-0.143-2.001-0.189l0.035-0.51
		c0.678,0.049,1.358,0.113,2.024,0.191L69.857,20.571z M61.833,20.394l-0.038-0.51c0.67-0.049,1.354-0.084,2.031-0.104l0.015,0.512
		C63.171,20.31,62.496,20.345,61.833,20.394z"/>
	<path fill="#FFFFFF" d="M65.064,93.151h-0.14c-0.688,0-1.384-0.021-2.063-0.066l0.035-0.51c0.668,0.043,1.352,0.066,2.028,0.066
		h0.14V93.151L65.064,93.151z M69.182,92.864l-0.066-0.506c0.671-0.092,1.346-0.205,2.003-0.338l0.102,0.5
		C70.551,92.657,69.866,92.772,69.182,92.864z M58.768,92.55c-0.661-0.131-1.339-0.289-2.011-0.469l0.132-0.492
		c0.661,0.176,1.327,0.33,1.979,0.461L58.768,92.55z M75.203,91.437l-0.167-0.482c0.642-0.221,1.28-0.467,1.896-0.725l0.197,0.471
		C76.503,90.964,75.855,91.212,75.203,91.437z M52.846,90.751c-0.631-0.264-1.265-0.551-1.882-0.854l0.226-0.459
		c0.608,0.301,1.231,0.584,1.853,0.842L52.846,90.751z M80.819,88.854l-0.259-0.441c0.576-0.336,1.154-0.697,1.72-1.08l0.286,0.424
		C81.992,88.144,81.404,88.515,80.819,88.854z M47.389,87.825c-0.567-0.383-1.134-0.787-1.678-1.205l0.313-0.404
		c0.534,0.412,1.091,0.811,1.65,1.186L47.389,87.825z M85.83,85.229l-0.34-0.385c0.509-0.447,1.006-0.918,1.478-1.395l0.362,0.359
		C86.85,84.296,86.344,84.771,85.83,85.229z M42.608,83.897c-0.484-0.484-0.96-0.992-1.412-1.506l0.384-0.338
		c0.445,0.506,0.912,1.004,1.39,1.48L42.608,83.897z M90.042,80.698l-0.405-0.311c0.408-0.533,0.806-1.092,1.183-1.656l0.424,0.283
		C90.86,79.591,90.457,80.155,90.042,80.698z M38.678,79.118c-0.382-0.566-0.75-1.154-1.094-1.75l0.442-0.256
		c0.338,0.584,0.698,1.162,1.073,1.723L38.678,79.118z M93.3,75.437l-0.458-0.227c0.298-0.607,0.579-1.232,0.835-1.855l0.475,0.195
		C93.89,74.183,93.604,74.815,93.3,75.437z M35.751,73.673c-0.263-0.631-0.509-1.279-0.729-1.93l0.482-0.164
		c0.218,0.639,0.459,1.275,0.717,1.898L35.751,73.673z M95.467,69.634l-0.495-0.131c0.172-0.648,0.324-1.314,0.455-1.979
		l0.501,0.098C95.796,68.296,95.641,68.974,95.467,69.634z M33.95,67.759c-0.134-0.672-0.247-1.357-0.337-2.039l0.506-0.064
		c0.088,0.668,0.2,1.342,0.332,2.004L33.95,67.759z M96.452,63.524l-0.511-0.031C95.98,62.854,96,62.206,96,61.565v-0.104h0.511
		v0.104C96.51,62.216,96.491,62.876,96.452,63.524z M33.339,61.601v-0.033c0-0.668,0.022-1.352,0.065-2.027l0.509,0.031
		c-0.042,0.666-0.063,1.338-0.063,1.996L33.339,61.601z M95.722,57.409c-0.087-0.654-0.2-1.33-0.336-2.002l0.501-0.102
		c0.139,0.684,0.253,1.369,0.341,2.039L95.722,57.409z M34.438,55.542l-0.503-0.098c0.132-0.668,0.287-1.344,0.468-2.014
		l0.491,0.131C34.719,54.222,34.566,54.888,34.438,55.542z M94.322,51.487c-0.214-0.625-0.457-1.264-0.722-1.895l0.472-0.197
		c0.269,0.641,0.515,1.289,0.732,1.926L94.322,51.487z M36.2,49.716l-0.474-0.195c0.266-0.641,0.553-1.275,0.854-1.885l0.457,0.227
		C36.742,48.462,36.46,49.085,36.2,49.716z M91.79,45.96c-0.34-0.582-0.704-1.16-1.079-1.721l0.423-0.285
		c0.382,0.568,0.751,1.156,1.097,1.748L91.79,45.96z M39.072,44.345l-0.426-0.283c0.379-0.568,0.784-1.133,1.202-1.682l0.405,0.311
		C39.842,43.229,39.445,43.786,39.072,44.345z M88.226,41.028c-0.445-0.506-0.913-1.004-1.394-1.479l0.36-0.361
		c0.485,0.482,0.962,0.988,1.416,1.502L88.226,41.028z M42.931,39.636l-0.36-0.361c0.483-0.486,0.989-0.963,1.505-1.414l0.337,0.383
		C43.906,38.688,43.408,39.155,42.931,39.636z M83.775,36.874c-0.541-0.412-1.099-0.811-1.655-1.182l0.283-0.424
		c0.565,0.377,1.132,0.781,1.681,1.201L83.775,36.874z M47.628,35.763l-0.285-0.422c0.565-0.381,1.154-0.75,1.748-1.096l0.258,0.441
		C48.763,35.026,48.184,35.39,47.628,35.763z M78.599,33.665c-0.61-0.301-1.233-0.582-1.854-0.838l0.196-0.473
		c0.629,0.26,1.263,0.547,1.884,0.852L78.599,33.665z M52.984,32.878l-0.197-0.471c0.638-0.268,1.287-0.512,1.928-0.73l0.166,0.482
		C54.25,32.374,53.612,32.614,52.984,32.878z M72.895,31.526c-0.652-0.174-1.318-0.326-1.979-0.457l0.097-0.5
		c0.672,0.131,1.351,0.287,2.015,0.465L72.895,31.526z M58.8,31.097l-0.1-0.5c0.678-0.137,1.364-0.25,2.037-0.338l0.065,0.506
		C60.142,30.851,59.468,30.964,58.8,31.097z M66.887,30.554c-0.655-0.041-1.315-0.063-1.962-0.063h-0.067v-0.51h0.067
		c0.655,0,1.326,0.021,1.994,0.063L66.887,30.554z"/>
	<path fill="#FFFFFF" d="M65.964,82.913l-0.022-0.51c0.664-0.033,1.327-0.096,1.974-0.188l0.074,0.504
		C67.327,82.815,66.646,82.88,65.964,82.913z M61.908,82.728c-0.668-0.094-1.339-0.223-1.997-0.379l0.12-0.498
		c0.642,0.154,1.297,0.279,1.949,0.371L61.908,82.728z M71.935,81.763l-0.168-0.482c0.617-0.215,1.236-0.463,1.841-0.74l0.214,0.467
		C73.202,81.288,72.567,81.544,71.935,81.763z M56.072,81.022c-0.609-0.277-1.217-0.59-1.808-0.93l0.255-0.443
		c0.575,0.332,1.17,0.639,1.765,0.908L56.072,81.022z M77.333,78.97l-0.297-0.414c0.538-0.387,1.063-0.801,1.558-1.23l0.335,0.387
		C78.423,78.149,77.885,78.573,77.333,78.97z M50.955,77.739c-0.512-0.441-1.007-0.914-1.475-1.4l0.369-0.354
		c0.456,0.477,0.939,0.936,1.438,1.367L50.955,77.739z M81.73,74.771l-0.4-0.316c0.408-0.518,0.795-1.061,1.152-1.613l0.428,0.273
		C82.545,73.683,82.148,74.239,81.73,74.771z M46.964,73.151c-0.369-0.57-0.713-1.162-1.021-1.758l0.451-0.234
		c0.303,0.58,0.638,1.158,0.997,1.717L46.964,73.151z M84.775,69.505L84.3,69.315c0.245-0.613,0.463-1.242,0.647-1.873l0.49,0.145
		C85.249,68.229,85.025,68.878,84.775,69.505z M44.424,67.628c-0.188-0.643-0.351-1.307-0.479-1.977l0.501-0.098
		c0.127,0.654,0.285,1.303,0.471,1.928L44.424,67.628z M86.201,63.599l-0.509-0.049c0.063-0.654,0.095-1.32,0.095-1.982v-0.088h0.51
		v0.088C86.296,62.245,86.265,62.929,86.201,63.599z M43.693,61.599l-0.139-0.014c-0.001-0.678,0.03-1.346,0.092-2.006l0.508,0.049
		c-0.061,0.643-0.089,1.295-0.089,1.938L43.693,61.599z M85.396,57.536c-0.127-0.645-0.285-1.293-0.474-1.928l0.488-0.145
		c0.192,0.648,0.355,1.313,0.485,1.975L85.396,57.536z M44.891,55.731l-0.489-0.141c0.186-0.643,0.406-1.287,0.658-1.922
		l0.476,0.188C45.29,54.478,45.072,55.108,44.891,55.731z M83.434,51.937c-0.301-0.58-0.638-1.156-0.999-1.715l0.429-0.277
		c0.372,0.57,0.716,1.162,1.023,1.756L83.434,51.937z M47.345,50.329l-0.429-0.273c0.362-0.568,0.759-1.125,1.175-1.658l0.402,0.314
		C48.087,49.231,47.702,49.776,47.345,50.329z M79.971,47.114c-0.456-0.475-0.939-0.934-1.439-1.361l0.333-0.389
		c0.512,0.439,1.009,0.91,1.476,1.398L79.971,47.114z M51.222,45.837l-0.335-0.387c0.506-0.439,1.042-0.863,1.594-1.262l0.297,0.416
		C52.24,44.991,51.716,45.405,51.222,45.837z M75.294,43.462c-0.577-0.33-1.172-0.637-1.767-0.904l0.212-0.465
		c0.607,0.273,1.217,0.586,1.809,0.926L75.294,43.462z M56.205,42.608l-0.213-0.463c0.613-0.283,1.247-0.539,1.885-0.762
		l0.167,0.482C57.422,42.083,56.804,42.331,56.205,42.608z M69.777,41.272c-0.646-0.154-1.302-0.277-1.949-0.367l0.07-0.506
		c0.664,0.092,1.336,0.219,1.995,0.375L69.777,41.272z M61.894,40.925l-0.073-0.504c0.67-0.1,1.35-0.166,2.022-0.199l0.025,0.51
		C63.211,40.765,62.547,40.829,61.894,40.925z"/>
	<circle fill="#148C66" cx="35.146" cy="32.692" r="5.957"/>
	<path fill="#3ABA77" d="M40.923,31.263c-0.559-2.266-2.409-4.018-4.729-4.43c-2.267,0.174-4.052,2.064-4.052,4.373
		c0,2.428,1.967,4.393,4.392,4.393C38.942,35.599,40.894,33.661,40.923,31.263z"/>
	<circle fill="#299CB9" cx="63.882" cy="82.632" r="3.725"/>
	<path fill="#43CEE2" d="M67.494,81.737c-0.35-1.416-1.507-2.512-2.957-2.77c-1.417,0.107-2.533,1.291-2.533,2.734
		c0,1.518,1.229,2.746,2.746,2.746C66.254,84.45,67.475,83.237,67.494,81.737z"/>
	<circle fill="#7B65BF" cx="95.095" cy="65.146" r="5.171"/>
	<path fill="#B8A3E4" d="M100.11,63.905c-0.485-1.967-2.093-3.486-4.106-3.846c-1.967,0.152-3.517,1.793-3.517,3.799
		c0,2.105,1.707,3.813,3.813,3.813C98.389,67.671,100.083,65.989,100.11,63.905z"/>
	<path fill="#000121" d="M72.186,54.259c-0.067-0.066-0.144-0.127-0.214-0.193c0.07,0.066,0.136,0.137,0.203,0.205L72.186,54.259z"
		/>
	<path fill="#000121" d="M66.738,51.433c0.229,0.041,0.453,0.092,0.676,0.146C67.191,51.522,66.966,51.474,66.738,51.433z"/>
	<path fill="#000121" d="M69.576,52.382c0.203,0.104,0.401,0.215,0.599,0.33C69.979,52.597,69.78,52.483,69.576,52.382z"/>
	<path fill="#000121" d="M67.552,51.614c0.701,0.186,1.373,0.439,2.008,0.76C68.925,52.054,68.253,51.8,67.552,51.614z"/>
	<path fill="#EC8B2C" d="M59.73,58.997c0-3.994,3.088-7.264,7.008-7.564c-0.59-0.104-1.193-0.168-1.813-0.168
		c-5.688,0-10.303,4.611-10.303,10.303c0,2.832,1.146,5.398,2.996,7.26l4.398-4.398C60.608,63.048,59.73,61.128,59.73,58.997z"/>
	<path fill="#000121" d="M70.273,52.772c0.604,0.369,1.171,0.797,1.686,1.279C71.443,53.569,70.878,53.142,70.273,52.772z"/>
	<path fill="#454A6D" d="M69.56,52.374c0.006,0.002,0.011,0.006,0.017,0.008C69.57,52.38,69.565,52.376,69.56,52.374z"/>
	<path fill="#454A6D" d="M70.174,52.712c0.033,0.021,0.066,0.041,0.1,0.061C70.241,52.753,70.208,52.731,70.174,52.712z"/>
	<path fill="#454A6D" d="M71.958,54.052c0.005,0.006,0.01,0.01,0.014,0.014C71.968,54.062,71.963,54.058,71.958,54.052z"/>
	<path fill="#454A6D" d="M66.738,51.433L66.738,51.433L66.738,51.433z"/>
	<path fill="#454A6D" d="M67.414,51.579c0.046,0.012,0.092,0.023,0.139,0.035C67.505,51.603,67.459,51.591,67.414,51.579z"/>
	<path fill="#FFAF3B" d="M59.73,58.997c0,2.131,0.878,4.051,2.287,5.43l10.157-10.156c-0.067-0.068-0.133-0.139-0.203-0.205
		c-0.004-0.004-0.009-0.008-0.014-0.014c-0.515-0.48-1.08-0.91-1.686-1.279c-0.032-0.02-0.065-0.039-0.1-0.061
		c-0.196-0.115-0.396-0.229-0.599-0.33c-0.006-0.002-0.011-0.006-0.017-0.008c-0.635-0.32-1.307-0.574-2.008-0.76
		c-0.047-0.012-0.093-0.023-0.139-0.035c-0.223-0.057-0.447-0.105-0.676-0.146l0,0C62.818,51.733,59.73,55.003,59.73,58.997z"/>
	<path fill="#C96811" d="M64.925,71.868c5.69,0,10.303-4.611,10.303-10.303c0-0.854-0.113-1.678-0.311-2.473
		c-0.052,4.15-3.429,7.5-7.591,7.5c-2.067,0-3.938-0.826-5.31-2.166l-4.398,4.398C59.485,70.704,62.069,71.868,64.925,71.868z"/>
	<path fill="#454A6D" d="M72.508,54.608c1.146,1.248,1.989,2.781,2.409,4.484C74.498,57.392,73.656,55.858,72.508,54.608z"/>
	<path fill="#454A6D" d="M72.468,54.563c-0.094-0.102-0.184-0.207-0.282-0.305l-0.011,0.01
		C72.274,54.366,72.375,54.464,72.468,54.563z"/>
	<path fill="#454A6D" d="M74.917,59.095v-0.002V59.095z"/>
	<path fill="#454A6D" d="M72.468,54.563c0.015,0.016,0.026,0.029,0.04,0.045C72.495,54.595,72.482,54.579,72.468,54.563z"/>
	<path fill="#EC8B2C" d="M62.018,64.427c1.37,1.34,3.241,2.168,5.31,2.168c4.162,0,7.539-3.352,7.591-7.5v-0.002
		c-0.42-1.701-1.263-3.234-2.409-4.484c-0.014-0.014-0.025-0.029-0.04-0.043c-0.094-0.102-0.193-0.197-0.293-0.295L62.018,64.427z"
		/>
</g>
</svg>
