<?xml version="1.0" encoding="utf-8"?>
<!-- Generator: Adobe Illustrator 16.0.0, SVG Export Plug-In . SVG Version: 6.00 Build 0)  -->
<!DOCTYPE svg PUBLIC "-//W3C//DTD SVG 1.1//EN" "http://www.w3.org/Graphics/SVG/1.1/DTD/svg11.dtd">
<svg version="1.1" id="Space" xmlns="http://www.w3.org/2000/svg" xmlns:xlink="http://www.w3.org/1999/xlink" x="0px" y="0px"
	 width="128px" height="120.881px" viewBox="0 0 128 120.881" enable-background="new 0 0 128 120.881" xml:space="preserve">
<g>
	<path fill="#B3C193" d="M53.601,55.918c0-8.596,6.641-15.623,15.069-16.271c-1.269-0.227-2.564-0.363-3.896-0.363
		c-12.238,0-22.159,9.92-22.159,22.156c0,6.094,2.462,11.609,6.442,15.615l9.463-9.463C55.488,64.627,53.601,60.494,53.601,55.918z"
		/>
	<path fill="#D2E0B6" d="M53.601,55.918c0,4.576,1.887,8.709,4.92,11.674l21.846-21.846c-0.146-0.146-0.285-0.297-0.437-0.439
		c-0.01-0.01-0.021-0.018-0.03-0.027c-1.107-1.035-2.322-1.959-3.625-2.752c-0.07-0.043-0.142-0.088-0.213-0.129
		c-0.421-0.25-0.85-0.488-1.287-0.713c-0.013-0.006-0.023-0.01-0.035-0.016c-1.363-0.689-2.81-1.236-4.317-1.633
		c-0.101-0.027-0.199-0.053-0.3-0.078c-0.479-0.117-0.961-0.227-1.452-0.313l0,0C60.242,40.295,53.601,47.322,53.601,55.918z"/>
	<path fill="#7F895F" d="M64.774,83.598c12.236,0,22.156-9.922,22.156-22.158c0-1.838-0.248-3.611-0.669-5.316
		c-0.11,8.926-7.373,16.131-16.326,16.131c-4.444,0-8.47-1.781-11.416-4.662l-9.463,9.463C53.072,81.094,58.63,83.598,64.774,83.598
		z"/>
	<path fill="#B3C193" d="M58.521,67.592c2.945,2.881,6.971,4.662,11.416,4.662c8.953,0,16.215-7.205,16.326-16.131
		c0-0.002-0.001-0.002-0.001-0.002c-0.903-3.66-2.715-6.959-5.181-9.646c-0.028-0.029-0.057-0.063-0.084-0.092
		c-0.203-0.219-0.418-0.426-0.629-0.637L58.521,67.592z"/>
	<path fill="#B3C193" d="M72.377,59c0,1.055-0.855,1.91-1.911,1.91H59.144c-1.056,0-1.911-0.855-1.911-1.91l0,0
		c0-1.057,0.855-1.91,1.911-1.91h11.322C71.521,57.09,72.377,57.943,72.377,59L72.377,59z"/>
	<path fill="#D2E0B6" d="M80.094,53.619c0,0.914-0.74,1.652-1.653,1.652h-9.803c-0.913,0-1.654-0.738-1.654-1.652l0,0
		c0-0.914,0.741-1.654,1.654-1.654h9.803C79.353,51.965,80.094,52.705,80.094,53.619L80.094,53.619z"/>
	<path fill="#7F895F" d="M63.215,52.805c0,1.055-0.855,1.91-1.91,1.91H49.982c-1.055,0-1.911-0.855-1.911-1.91l0,0
		c0-1.055,0.855-1.91,1.911-1.91h11.323C62.36,50.895,63.215,51.75,63.215,52.805L63.215,52.805z"/>
	<path fill="#FFAF3B" d="M86.559,57.363c0.095,0.498,0.175,1,0.238,1.51c5.257,0.766,8.495,1.805,8.495,2.951
		c0,2.354-13.649,4.262-30.486,4.262S34.32,64.178,34.32,61.824c0-1.146,3.236-2.186,8.492-2.949c0.06-0.51,0.139-1.014,0.232-1.512
		c-13.63,0.961-22.849,2.789-22.849,4.893c0,3.096,19.973,5.604,44.61,5.604c24.638,0,44.61-2.51,44.61-5.604
		C109.415,60.152,100.194,58.322,86.559,57.363z"/>
</g>
</svg>
