<?xml version="1.0" encoding="utf-8"?>
<!-- Generator: Adobe Illustrator 16.0.0, SVG Export Plug-In . SVG Version: 6.00 Build 0)  -->
<!DOCTYPE svg PUBLIC "-//W3C//DTD SVG 1.1//EN" "http://www.w3.org/Graphics/SVG/1.1/DTD/svg11.dtd">
<svg version="1.1" id="Space" xmlns="http://www.w3.org/2000/svg" xmlns:xlink="http://www.w3.org/1999/xlink" x="0px" y="0px"
	 width="128px" height="120.881px" viewBox="0 0 128 120.881" enable-background="new 0 0 128 120.881" xml:space="preserve">
<g>
	<path fill="#FFFFFF" d="M109.525,61.015c0-5.828-7.621-10.849-19.348-13.752c0.643-2.222,1.155-4.378,1.516-6.436
		c1.545-8.799,0.216-14.903-3.74-17.188c-1.087-0.627-2.342-0.947-3.729-0.947c-4.937,0-11.358,4.055-17.869,10.828
		c-6.51-6.773-12.932-10.828-17.871-10.828c-1.385,0-2.641,0.32-3.728,0.947c-5.044,2.914-5.58,12.021-2.229,23.625
		c-11.723,2.904-19.34,7.924-19.34,13.752s7.619,10.848,19.346,13.752c-0.643,2.221-1.154,4.379-1.516,6.436
		c-1.543,8.799-0.217,14.902,3.739,17.189c1.087,0.627,2.341,0.946,3.728,0.946c4.938,0,11.361-4.055,17.871-10.827
		c6.51,6.772,12.932,10.827,17.867,10.827c1.387,0,2.643-0.319,3.729-0.946c3.956-2.287,5.284-8.391,3.741-17.188
		c-0.361-2.058-0.875-4.214-1.517-6.437C101.906,71.864,109.525,66.843,109.525,61.015z M84.225,24.711
		c1.028,0,1.941,0.228,2.719,0.677c3.121,1.803,4.127,7.303,2.761,15.09c-0.354,2.021-0.86,4.145-1.497,6.334
		c-3.852-0.845-8.079-1.476-12.607-1.836c-2.559-3.707-5.209-7.064-7.867-9.981C73.85,28.593,79.818,24.711,84.225,24.711z
		 M78.816,68.215c-1.39,2.404-2.844,4.7-4.332,6.894c-2.637,0.195-5.354,0.297-8.127,0.297s-5.49-0.102-8.127-0.297
		c-1.489-2.193-2.943-4.489-4.334-6.894c-1.392-2.409-2.666-4.821-3.82-7.209c1.162-2.392,2.438-4.796,3.82-7.19
		c1.39-2.403,2.845-4.699,4.334-6.893c2.637-0.193,5.354-0.296,8.127-0.296s5.492,0.103,8.127,0.295
		c1.488,2.194,2.943,4.49,4.332,6.894c1.385,2.397,2.662,4.807,3.826,7.201C81.479,63.409,80.201,65.817,78.816,68.215z
		 M83.723,63.345c1.541,3.381,2.838,6.704,3.865,9.906c-3.253,0.704-6.781,1.253-10.514,1.62c1.191-1.815,2.359-3.692,3.49-5.646
		C81.693,67.269,82.734,65.306,83.723,63.345z M73.029,77.217c-2.184,3.06-4.43,5.843-6.672,8.32
		c-2.242-2.478-4.489-5.261-6.672-8.32c2.176,0.124,4.392,0.207,6.672,0.207C68.639,77.424,70.854,77.34,73.029,77.217z
		 M55.639,74.871c-3.731-0.367-7.261-0.917-10.514-1.621c1.027-3.202,2.324-6.524,3.866-9.905c0.981,1.946,2.017,3.905,3.157,5.881
		C53.277,71.179,54.449,73.056,55.639,74.871z M48.999,58.671c-1.547-3.408-2.833-6.73-3.851-9.896
		c3.248-0.701,6.768-1.25,10.49-1.615c-1.189,1.814-2.361,3.691-3.49,5.646C51.021,54.757,49.984,56.716,48.999,58.671z
		 M59.684,44.813c2.185-3.059,4.43-5.842,6.674-8.32c2.242,2.479,4.488,5.262,6.672,8.32c-2.176-0.123-4.393-0.207-6.672-0.207
		C64.076,44.606,61.861,44.69,59.684,44.813z M80.563,52.806c-1.129-1.955-2.299-3.832-3.489-5.646
		c3.731,0.366,7.261,0.916,10.514,1.62c-1.026,3.201-2.323,6.525-3.866,9.904C82.734,56.726,81.693,54.763,80.563,52.806z
		 M45.77,25.388c0.776-0.449,1.691-0.676,2.717-0.676c4.41,0,10.38,3.883,16.494,10.283c-2.657,2.917-5.308,6.275-7.867,9.98
		c-4.518,0.361-8.736,0.99-12.58,1.832C41.436,36.194,41.602,27.795,45.77,25.388z M25.209,61.015c0-4.813,7.189-9.16,17.928-11.787
		c1.194,3.744,2.76,7.709,4.703,11.797c-1.906,4.021-3.48,7.982-4.689,11.781C32.404,70.181,25.209,65.831,25.209,61.015z
		 M48.486,97.319c-1.024,0-1.939-0.229-2.717-0.676c-3.123-1.804-4.129-7.304-2.762-15.09c0.355-2.023,0.859-4.145,1.497-6.336
		c3.851,0.846,8.08,1.477,12.608,1.838c2.561,3.705,5.209,7.064,7.867,9.981C58.866,93.438,52.896,97.319,48.486,97.319z
		 M89.705,81.554c1.367,7.785,0.361,13.285-2.762,15.088c-0.776,0.45-1.689,0.676-2.717,0.676c-4.408,0-10.377-3.881-16.492-10.282
		c2.658-2.917,5.308-6.274,7.865-9.981c4.529-0.361,8.758-0.992,12.608-1.837C88.844,77.408,89.35,79.53,89.705,81.554z
		 M89.564,72.808c-1.211-3.804-2.785-7.77-4.696-11.793c1.911-4.022,3.485-7.988,4.696-11.791
		c10.746,2.627,17.941,6.977,17.941,11.791C107.506,65.831,100.311,70.181,89.564,72.808z"/>
	<circle fill="#EF4F4D" cx="58.781" cy="93.873" r="5.465"/>
	<circle fill="#EF4F4D" cx="41.588" cy="36.094" r="5.465"/>
	<circle fill="#EF4F4D" cx="100.227" cy="51.81" r="5.465"/>
	<circle fill="#F8AB1F" cx="66.357" cy="61.016" r="9.128"/>
	<path fill="#FF6A1D" d="M75.486,61.015c0-5.041-4.088-9.127-9.129-9.127v18.256C71.398,70.144,75.486,66.056,75.486,61.015z"/>
	<path fill="#A73935" d="M47.053,36.095c0-3.019-2.445-5.466-5.465-5.466V41.56C44.607,41.56,47.053,39.112,47.053,36.095z"/>
	<path fill="#A73935" d="M64.246,93.874c0-3.018-2.447-5.466-5.465-5.466v10.931C61.799,99.339,64.246,96.892,64.246,93.874z"/>
	<path fill="#A73935" d="M105.691,51.81c0-3.018-2.445-5.465-5.465-5.465v10.93C103.246,57.274,105.691,54.828,105.691,51.81z"/>
</g>
</svg>
