<?xml version="1.0" encoding="utf-8"?>
<!-- Generator: Adobe Illustrator 16.0.0, SVG Export Plug-In . SVG Version: 6.00 Build 0)  -->
<!DOCTYPE svg PUBLIC "-//W3C//DTD SVG 1.1//EN" "http://www.w3.org/Graphics/SVG/1.1/DTD/svg11.dtd">
<svg version="1.1" id="Space" xmlns="http://www.w3.org/2000/svg" xmlns:xlink="http://www.w3.org/1999/xlink" x="0px" y="0px"
	 width="128px" height="120.881px" viewBox="0 0 128 120.881" enable-background="new 0 0 128 120.881" xml:space="preserve">
<g>
	<path fill="#000121" d="M91.316,85.98c-0.057-0.057-0.121-0.105-0.18-0.162c0.059,0.057,0.111,0.115,0.17,0.172L91.316,85.98z"/>
	<path fill="#000121" d="M86.756,83.615c0.189,0.033,0.379,0.076,0.563,0.121C87.133,83.691,86.945,83.648,86.756,83.615z"/>
	<path fill="#000121" d="M89.131,84.41c0.17,0.086,0.338,0.18,0.5,0.275C89.469,84.59,89.301,84.496,89.131,84.41z"/>
	<path fill="#000121" d="M87.438,83.768c0.586,0.154,1.148,0.367,1.68,0.635C88.584,84.135,88.023,83.922,87.438,83.768z"/>
	<path fill="#DD3930" d="M80.889,89.947c0-3.344,2.586-6.08,5.867-6.332c-0.494-0.088-0.998-0.143-1.52-0.143
		c-4.762,0-8.623,3.861-8.623,8.625c0,2.371,0.957,4.518,2.506,6.078l3.686-3.686C81.623,93.338,80.889,91.729,80.889,89.947z"/>
	<path fill="#000121" d="M89.715,84.736c0.506,0.311,0.979,0.668,1.41,1.07C90.693,85.404,90.221,85.047,89.715,84.736z"/>
	<path fill="#454A6D" d="M89.115,84.402c0.004,0.002,0.01,0.006,0.014,0.008C89.125,84.408,89.119,84.404,89.115,84.402z"/>
	<path fill="#454A6D" d="M89.631,84.686c0.027,0.018,0.057,0.033,0.084,0.051C89.688,84.721,89.658,84.703,89.631,84.686z"/>
	<path fill="#454A6D" d="M91.125,85.807c0.004,0.004,0.008,0.008,0.012,0.012C91.133,85.814,91.129,85.811,91.125,85.807z"/>
	<path fill="#454A6D" d="M86.756,83.615L86.756,83.615L86.756,83.615z"/>
	<path fill="#454A6D" d="M87.318,83.736c0.039,0.012,0.078,0.021,0.117,0.031C87.398,83.758,87.359,83.748,87.318,83.736z"/>
	<path fill="#FF5436" d="M80.889,89.947c0,1.781,0.734,3.391,1.916,4.545l8.502-8.502c-0.059-0.057-0.111-0.115-0.17-0.172
		c-0.004-0.004-0.008-0.008-0.012-0.012c-0.432-0.402-0.904-0.762-1.412-1.07c-0.025-0.018-0.055-0.033-0.082-0.051
		c-0.162-0.098-0.33-0.189-0.502-0.275c-0.004-0.002-0.01-0.006-0.014-0.008c-0.529-0.268-1.092-0.48-1.68-0.635
		c-0.039-0.012-0.078-0.021-0.117-0.031c-0.186-0.045-0.373-0.088-0.564-0.121l0,0C83.475,83.867,80.889,86.604,80.889,89.947z"/>
	<path fill="#AD2623" d="M85.236,100.723c4.764,0,8.625-3.861,8.625-8.625c0-0.715-0.096-1.406-0.26-2.07
		c-0.043,3.477-2.871,6.279-6.355,6.279c-1.729,0-3.297-0.693-4.441-1.814l-3.686,3.684
		C80.684,99.748,82.848,100.723,85.236,100.723z"/>
	<path fill="#454A6D" d="M91.584,86.273c0.959,1.045,1.664,2.328,2.018,3.754C93.248,88.602,92.547,87.32,91.584,86.273z"/>
	<path fill="#454A6D" d="M91.553,86.236c-0.08-0.086-0.154-0.174-0.236-0.256l-0.01,0.01C91.389,86.07,91.473,86.152,91.553,86.236z
		"/>
	<path fill="#454A6D" d="M93.602,90.027L93.602,90.027L93.602,90.027z"/>
	<path fill="#454A6D" d="M91.553,86.236c0.01,0.014,0.02,0.025,0.031,0.037C91.572,86.262,91.563,86.25,91.553,86.236z"/>
	<path fill="#DD3930" d="M82.805,94.492c1.145,1.121,2.713,1.814,4.441,1.814c3.484,0,6.313-2.805,6.355-6.279H93.6
		c-0.352-1.426-1.057-2.709-2.016-3.754c-0.012-0.012-0.021-0.023-0.033-0.037c-0.078-0.084-0.162-0.166-0.244-0.246L82.805,94.492z
		"/>
	<polygon fill="#F8AB1F" points="74.074,84.086 83.744,77.904 70.207,39.002 67.693,46.945 58.796,22.158 59.763,54.652 	"/>
	<polygon fill="#FFFFFF" points="74.074,84.086 79.119,80.859 63.244,44.648 61.117,48.656 55.315,40.623 54.541,45.637
		31.332,26.779 45.258,54.053 37.328,50.451 	"/>
	<path fill="#FFFFFF" d="M91.859,77.045c0,0.404-0.328,0.732-0.734,0.732l0,0c-0.404,0-0.732-0.328-0.732-0.732v-4.596
		c0-0.404,0.328-0.734,0.732-0.734l0,0c0.406,0,0.734,0.33,0.734,0.734V77.045z"/>
	<path fill="#FFFFFF" d="M97.115,78.668c-0.113,0.389-0.521,0.609-0.912,0.496l0,0c-0.389-0.113-0.609-0.521-0.496-0.912
		l2.191-7.426c0.113-0.391,0.521-0.611,0.912-0.496l0,0c0.389,0.113,0.609,0.521,0.494,0.91L97.115,78.668z"/>
	<path fill="#FFFFFF" d="M68.396,90.926c0.385,0.129,0.801-0.078,0.93-0.463l0,0c0.129-0.385-0.078-0.801-0.463-0.93l-4.355-1.461
		c-0.387-0.129-0.801,0.078-0.93,0.465l0,0c-0.131,0.385,0.078,0.801,0.461,0.93L68.396,90.926z"/>
	<path fill="#FFFFFF" d="M68.266,96.428c0.402,0.014,0.746-0.303,0.76-0.707l0,0c0.016-0.406-0.301-0.746-0.707-0.76l-7.738-0.285
		c-0.404-0.014-0.745,0.303-0.761,0.707l0,0c-0.015,0.404,0.302,0.746,0.707,0.76L68.266,96.428z"/>
	<circle fill="#FFFFFF" cx="87.896" cy="87.795" r="2.521"/>
</g>
</svg>
