<?xml version="1.0" encoding="utf-8"?>
<!-- Generator: Adobe Illustrator 16.0.0, SVG Export Plug-In . SVG Version: 6.00 Build 0)  -->
<!DOCTYPE svg PUBLIC "-//W3C//DTD SVG 1.1//EN" "http://www.w3.org/Graphics/SVG/1.1/DTD/svg11.dtd">
<svg version="1.1" id="Space" xmlns="http://www.w3.org/2000/svg" xmlns:xlink="http://www.w3.org/1999/xlink" x="0px" y="0px"
	 width="128px" height="120.881px" viewBox="0 0 128 120.881" enable-background="new 0 0 128 120.881" xml:space="preserve">
<g>
	<path fill="#148C66" d="M89.567,70.265c-0.138-0.127-0.271-0.252-0.411-0.381l0,0l-1.022-0.953c-0.269-0.248-0.539-0.5-0.803-0.744
		L76.339,48.896c-0.24-0.188-6.791-4.623-6.791-4.623l-10.981-1.012L34.004,50.3H27.26h-2.504H9.009
		C8.396,53.653,8.06,57.104,8.06,60.636c0,6.191,0.999,12.146,2.817,17.729h19.202v0.008h29.615
		c4.383,4.074,10.479,9.74,11.318,10.521c1.246,1.158,2.909,1.77,4.535,0.02c1.627-1.75,0.217-3.238,0.21-3.422
		c-0.007-0.186-0.384-0.455-0.078-0.785c0.306-0.328,0.816-0.045,1.146,0.26c0.33,0.307,2.433,1.52,4.106-0.283
		c1.674-1.801-0.054-3.764-0.296-3.988s-0.677-0.66-0.29-1.076c0.386-0.416,1.111,0.227,1.72,0.791
		c0.605,0.563,2.664,1.928,4.5-0.047c1.836-1.977-0.6-4.045-1.084-4.496c-0.486-0.451-0.951-0.854-0.533-1.305
		c0.345-0.369,1.17,0.406,1.453,0.695c0,0,1.851,1.502,3.663-0.445C91.88,72.864,90.47,71.104,89.567,70.265z"/>
	<path fill="#E7BE86" d="M102.361,72.874H96.63l-6.648-4.012c0,0-9.402-1.264-13.07-8.369c-3.669-7.109-5.389-9.977-5.389-9.977
		L57.765,48.11l-11.121,7.338c0,0-6.076,3.553-11.58-0.803c6.421-5.904,19.72-17.887,19.72-17.887h23.274l21.783,8.943h4.127
		l1.49,27.172H102.361L102.361,72.874z"/>

		<rect x="90.264" y="52.503" transform="matrix(8.203545e-004 -1 1 8.203545e-004 50.4084 165.6959)" fill="#FFFFFF" width="35.713" height="10.24"/>

		<rect x="99.184" y="61.431" transform="matrix(8.203545e-004 -1 1 8.203545e-004 41.4709 174.6085)" fill="#A7DAE9" width="17.855" height="10.241"/>
	<g>
		<path fill="#E7BE86" d="M47.167,64.808c-1.584-1.035-3.709-0.59-4.745,0.994L35.124,76.97c-1.035,1.584-0.592,3.709,0.993,4.746
			c1.587,1.035,3.712,0.59,4.746-0.994l7.298-11.168C49.197,67.968,48.753,65.845,47.167,64.808z"/>
		<path fill="#E7BE86" d="M69.915,73.708c-1.519-0.99-3.552-0.564-4.544,0.953l-3.653,5.592c-0.222-0.203-0.438-0.406-0.654-0.607
			l3.592-5.496c1.082-1.654,0.617-3.873-1.037-4.955c-1.654-1.08-3.873-0.615-4.955,1.039l-5.318,8.141h-1.259l4.27-6.533
			c1.082-1.654,0.617-3.873-1.038-4.955c-1.654-1.08-3.872-0.615-4.954,1.039l-6.828,10.449h-0.063
			c-0.022,0.055-0.048,0.113-0.081,0.176c-0.014,0.025-0.01,0.049-0.018,0.072l-0.629,0.959c-1.08,1.656-0.615,3.873,1.039,4.955
			c1.654,1.08,3.872,0.617,4.953-1.039l2.438-3.727c0.276-0.301,0.541-0.326,0.729-0.23c0.229,0.113,0.443,0.371-0.043,1.104
			l-0.813,1.246c-1.082,1.654-0.617,3.873,1.037,4.955c1.654,1.08,3.873,0.615,4.955-1.039l1.629-2.492l0,0l0,0l0.054-0.082
			c0.116-0.17,0.415-0.537,0.72-0.381c0.355,0.182,0.246,0.488,0.152,0.654l-1.207,1.848c-0.992,1.518-0.565,3.553,0.952,4.543
			c1.518,0.992,3.552,0.564,4.543-0.951l6.985-10.691C71.857,76.733,71.433,74.7,69.915,73.708z"/>
	</g>
	<path fill="#57A6FF" d="M122.501,60.636c0-8.521-1.868-16.607-5.211-23.875l-6.177-0.002l-0.066,41.73l8.603,0.004
		C121.497,72.874,122.501,66.874,122.501,60.636z"/>
	<path fill="#3469D3" d="M122.501,60.636c0-1.01-0.032-2.01-0.084-3.008l-11.336-0.004l-0.034,20.865l8.603,0.004
		C121.497,72.874,122.501,66.874,122.501,60.636z"/>
	<path fill="#A7DAE9" d="M119.647,46.81c0.4,0.021,0.778-0.08,1.102-0.27c-0.316-1.246-0.679-2.473-1.073-3.686
		c-1.016,0.039-1.852,0.836-1.905,1.869C117.714,45.819,118.554,46.751,119.647,46.81z"/>
	<circle opacity="0.3" fill="#FFFFFF" enable-background="new    " cx="17.209" cy="60.529" r="4.362"/>
	<circle opacity="0.1" fill="#FFFFFF" enable-background="new    " cx="29.534" cy="69.271" r="4.035"/>
	<circle fill="#39BD7A" cx="64.215" cy="58.852" r="4.034"/>
</g>
</svg>
