<?xml version="1.0" encoding="utf-8"?>
<!-- Generator: Adobe Illustrator 16.0.0, SVG Export Plug-In . SVG Version: 6.00 Build 0)  -->
<!DOCTYPE svg PUBLIC "-//W3C//DTD SVG 1.1//EN" "http://www.w3.org/Graphics/SVG/1.1/DTD/svg11.dtd">
<svg version="1.1" id="Space" xmlns="http://www.w3.org/2000/svg" xmlns:xlink="http://www.w3.org/1999/xlink" x="0px" y="0px"
	 width="128px" height="120.881px" viewBox="0 0 128 120.881" enable-background="new 0 0 128 120.881" xml:space="preserve">
<g>
	<path fill="#DD3930" d="M49.348,54.255c0-11.184,8.642-20.33,19.607-21.172c-1.646-0.293-3.336-0.475-5.068-0.475
		c-15.924,0-28.832,12.908-28.832,28.834c0,7.928,3.203,15.104,8.383,20.316L55.75,69.446
		C51.805,65.587,49.348,60.212,49.348,54.255z"/>
	<path fill="#FF5436" d="M49.348,54.255c0,5.957,2.457,11.332,6.402,15.191l28.425-28.426c-0.191-0.189-0.371-0.389-0.568-0.572
		c-0.014-0.014-0.025-0.023-0.039-0.035c-1.439-1.352-3.021-2.549-4.717-3.582c-0.092-0.057-0.184-0.113-0.277-0.168
		c-0.547-0.324-1.104-0.637-1.674-0.928c-0.016-0.006-0.031-0.014-0.045-0.02c-1.773-0.896-3.656-1.609-5.619-2.127
		c-0.129-0.033-0.258-0.066-0.389-0.1c-0.623-0.154-1.252-0.295-1.893-0.408l0,0C57.99,33.925,49.348,43.071,49.348,54.255z"/>
	<path fill="#AD2623" d="M63.887,90.272c15.923,0,28.832-12.908,28.832-28.832c0-2.391-0.322-4.697-0.871-6.92
		c-0.145,11.615-9.594,20.99-21.242,20.99c-5.785,0-11.022-2.316-14.855-6.064L43.438,81.759
		C48.659,87.015,55.892,90.272,63.887,90.272z"/>
	<path fill="#DD3930" d="M55.75,69.446c3.832,3.748,9.07,6.064,14.855,6.064c11.648,0,21.098-9.375,21.242-20.99v-0.002
		c-1.176-4.762-3.533-9.053-6.742-12.551c-0.037-0.039-0.072-0.08-0.109-0.121c-0.264-0.285-0.545-0.553-0.82-0.826L55.75,69.446z"
		/>
	<circle opacity="0.2" enable-background="new    " cx="49.348" cy="52.886" r="6.219"/>
	<circle opacity="0.2" enable-background="new    " cx="47.287" cy="68.713" r="3.849"/>
	<circle opacity="0.2" enable-background="new    " cx="66.762" cy="70.386" r="2.41"/>
	<circle opacity="0.3" fill="#FFAF3B" enable-background="new    " cx="62.834" cy="80.813" r="3.927"/>
	<circle opacity="0.4" fill="#FFFFFF" enable-background="new    " cx="68.078" cy="44.646" r="2.41"/>
	<circle opacity="0.3" fill="#FFAF3B" enable-background="new    " cx="60.542" cy="43.943" r="3.112"/>
	<circle opacity="0.2" enable-background="new    " cx="79.66" cy="72.757" r="3.246"/>
</g>
</svg>
