<?xml version="1.0" encoding="utf-8"?>
<!-- Generator: Adobe Illustrator 16.0.0, SVG Export Plug-In . SVG Version: 6.00 Build 0)  -->
<!DOCTYPE svg PUBLIC "-//W3C//DTD SVG 1.1//EN" "http://www.w3.org/Graphics/SVG/1.1/DTD/svg11.dtd">
<svg version="1.1" id="Space" xmlns="http://www.w3.org/2000/svg" xmlns:xlink="http://www.w3.org/1999/xlink" x="0px" y="0px"
	 width="128px" height="120.881px" viewBox="0 0 128 120.881" enable-background="new 0 0 128 120.881" xml:space="preserve">
<g>
	<path fill="#EC8B2C" d="M50.054,56.178c0-11.496,8.884-20.898,20.159-21.768c-1.695-0.301-3.43-0.484-5.211-0.484
		c-16.372,0-29.643,13.271-29.643,29.643c0,8.148,3.295,15.529,8.619,20.889l12.659-12.66C52.578,67.83,50.054,62.301,50.054,56.178
		z"/>
	<path fill="#FFAF3B" d="M50.054,56.178c0,6.123,2.523,11.65,6.582,15.619l29.223-29.225c-0.195-0.193-0.383-0.398-0.584-0.59
		c-0.014-0.012-0.027-0.023-0.041-0.035c-1.48-1.389-3.105-2.619-4.85-3.684c-0.094-0.057-0.188-0.115-0.283-0.172
		c-0.563-0.334-1.137-0.654-1.723-0.951c-0.016-0.008-0.031-0.016-0.045-0.021c-1.824-0.922-3.758-1.654-5.777-2.186
		c-0.133-0.035-0.266-0.068-0.398-0.104c-0.641-0.158-1.287-0.303-1.945-0.42l0,0C58.938,35.279,50.054,44.682,50.054,56.178z"/>
	<path fill="#C96811" d="M65,93.209c16.371,0,29.641-13.271,29.641-29.643c0-2.455-0.332-4.83-0.895-7.113
		c-0.148,11.941-9.863,21.58-21.84,21.58c-5.947,0-11.333-2.385-15.271-6.236l-12.659,12.66C49.346,89.859,56.781,93.209,65,93.209z
		"/>
	<path fill="#EC8B2C" d="M56.636,71.797c3.939,3.854,9.325,6.236,15.272,6.236c11.977,0,21.689-9.639,21.84-21.58l-0.002-0.002
		c-1.207-4.896-3.631-9.309-6.93-12.902c-0.039-0.041-0.076-0.084-0.113-0.125c-0.271-0.293-0.561-0.568-0.844-0.85L56.636,71.797z"
		/>
</g>
</svg>
