<?xml version="1.0" encoding="utf-8"?>
<!-- Generator: Adobe Illustrator 16.0.0, SVG Export Plug-In . SVG Version: 6.00 Build 0)  -->
<!DOCTYPE svg PUBLIC "-//W3C//DTD SVG 1.1//EN" "http://www.w3.org/Graphics/SVG/1.1/DTD/svg11.dtd">
<svg version="1.1" id="Layer_1" xmlns="http://www.w3.org/2000/svg" xmlns:xlink="http://www.w3.org/1999/xlink" x="0px" y="0px"
	 width="150px" height="150px" viewBox="0 0 150 150" enable-background="new 0 0 150 150" xml:space="preserve">
<path fill="#0975B5" d="M0,0v150h150V0H0z M55.593,101.911c0,0.884-0.007,0.889-0.927,0.889c-4.527,0.001-9.055,0.001-13.583,0
	c-0.905,0-0.91-0.005-0.91-0.905c-0.001-7.971,0-15.938,0-23.908c0-7.899,0-15.8,0-23.701c0-1.024,0.002-1.027,0.995-1.027
	c4.505-0.001,9.01-0.001,13.515,0c0.898,0,0.91,0.01,0.91,0.909C55.594,70.082,55.594,85.996,55.593,101.911z M47.846,46.589
	c-4.91-0.043-8.954-4.146-8.894-9.023c0.061-4.949,4.091-8.937,9.003-8.908c4.918,0.029,8.954,4.09,8.928,8.983
	C56.857,42.596,52.781,46.632,47.846,46.589z M112.326,102.8c-4.482,0.001-8.965,0-13.446,0c-1.089,0-1.091-0.001-1.091-1.065
	c-0.002-8.442,0-16.887-0.009-25.33c-0.003-2.044-0.192-4.067-0.856-6.021c-0.947-2.784-2.861-4.412-5.795-4.711
	c-2.511-0.257-4.943,0.011-7.036,1.615c-1.321,1.013-2.108,2.405-2.622,3.96c-0.732,2.221-0.879,4.521-0.879,6.837
	c0.002,7.9,0.001,15.8,0,23.7c0,1.014-0.002,1.016-1.006,1.016c-4.504,0-9.009-0.012-13.514,0.013c-0.673,0.004-0.9-0.179-0.9-0.875
	c0.017-15.937,0.017-31.873,0.001-47.809c0-0.686,0.21-0.89,0.893-0.886c4.324,0.027,8.647,0.013,12.971,0.015
	c0.906,0,0.916,0.011,0.917,0.904c0.002,1.72-0.001,3.44,0.003,5.161c0.001,0.211,0.036,0.422,0.066,0.766
	c0.191-0.203,0.297-0.283,0.362-0.388c2.587-4.165,6.378-6.582,11.151-7.328c4.65-0.727,9.227-0.326,13.469,1.928
	c3.33,1.769,5.362,4.646,6.564,8.155c1.295,3.771,1.669,7.685,1.68,11.638c0.025,9.257,0.016,18.517,0.02,27.775
	C113.27,102.797,113.268,102.8,112.326,102.8z"/>
</svg>
