<?xml version="1.0" encoding="utf-8"?>
<!-- Generator: Adobe Illustrator 16.0.0, SVG Export Plug-In . SVG Version: 6.00 Build 0)  -->
<!DOCTYPE svg PUBLIC "-//W3C//DTD SVG 1.1//EN" "http://www.w3.org/Graphics/SVG/1.1/DTD/svg11.dtd">
<svg version="1.1" id="Layer_1" xmlns="http://www.w3.org/2000/svg" xmlns:xlink="http://www.w3.org/1999/xlink" x="0px" y="0px"
	 width="1005px" height="1005px" viewBox="0 0 1005 1005" enable-background="new 0 0 1005 1005" xml:space="preserve">
<g>
	<defs>
		<circle id="SVGID_1_" cx="502.5" cy="502.5" r="500"/>
	</defs>
	<clipPath id="SVGID_2_">
		<use xlink:href="#SVGID_1_"  overflow="visible"/>
	</clipPath>
	<g clip-path="url(#SVGID_2_)">
		<g>
			<path fill="#FFFFFF" d="M742.744,132.314c0.667,0,1.334,0.667,0.667,2l-2,2l-0.667,0.667l0.667,2.667
				c0,0.667-0.667,1.333-1.333,0.667l-2.667-1.333h-0.667l-2.666,1.333c-0.667,0.667-1.334-0.667-1.334-0.667l0.667-2.667
				l-0.667-0.667l-2-2c-0.666-0.667-0.666-1.333,0.667-2l2.667-0.667l0.666-0.667l1.334-2.667c0.666-0.667,1.333-0.667,2,0
				l1.333,2.667"/>
			<circle fill="#FFFFFF" cx="498.744" cy="97.648" r="3.333"/>
			<circle fill="#FFFFFF" cx="308.744" cy="169.648" r="5.333"/>
			<g>
				<g>
					<defs>
						<circle id="SVGID_3_" cx="502.078" cy="502.314" r="500"/>
					</defs>
					<clipPath id="SVGID_4_">
						<use xlink:href="#SVGID_3_"  overflow="visible"/>
					</clipPath>
					<circle clip-path="url(#SVGID_4_)" fill="#1D2A47" cx="502.078" cy="502.314" r="500"/>
				</g>
			</g>
			<g>
				<g>
					<defs>
						<circle id="SVGID_5_" cx="502.078" cy="502.314" r="500"/>
					</defs>
					<clipPath id="SVGID_6_">
						<use xlink:href="#SVGID_5_"  overflow="visible"/>
					</clipPath>
					<path clip-path="url(#SVGID_6_)" fill="#273856" d="M1036.078,654.314H915.411c-10,0-18.667-10.666-18.667-20.666
						s8.667-20.668,18.667-20.668h53.333c12,0,17.334-7.333,17.334-19.332v-2c0-12-5.334-20.668-17.334-20.668h-168
						c-12,0-24,8.668-24,20.668v2c0,11.999,12,19.332,24,19.332h20c12,0,21.334,9.334,21.334,20.668
						c0,11.332-9.334,20.666-21.334,20.666H388.078c-12,0-22,12.666-22,24v4c0,12,10.666,22,22,22h166.666
						c12,0,21.334,9.333,21.334,20.667c0,11.333-9.334,20.666-21.334,20.666h-56c-12,0-21.333,9.334-21.333,20.667
						s9.333,20.667,21.333,20.667h330.667c12,0,21.333-9.334,21.333-20.667s-9.333-20.667-21.333-20.667h-94
						c-10,0-18.667-10.666-18.667-20.666s8.667-20.667,18.667-20.667h300c12,0,20.667-9.333,20.667-22v-4
						C1057.411,666.314,1048.078,654.314,1036.078,654.314z"/>
				</g>
			</g>
			<g>
				<g>
					<defs>
						<circle id="SVGID_7_" cx="502.078" cy="502.314" r="500"/>
					</defs>
					<clipPath id="SVGID_8_">
						<use xlink:href="#SVGID_7_"  overflow="visible"/>
					</clipPath>
					<path clip-path="url(#SVGID_8_)" fill="#273856" d="M614.744,216.981H494.078c-10,0-18.667-10.667-18.667-20.667
						s8.667-20.667,18.667-20.667h53.333c12,0,17.333-7.333,17.333-19.333v-2c0-12-5.333-20.667-17.333-20.667h-168
						c-12,0-24,8.667-24,20.667v1.333c0,12,12,19.333,24,19.333h20c12,0,21.333,9.333,21.333,20.667
						c0,12-9.333,20.667-21.333,20.667H-33.256c-12,0-22,12.667-22,24v4c0,12,10.667,22,22,22h166.667
						c12,0,21.333,9.333,21.333,20.667c0,12-9.333,20.667-21.333,20.667h-56c-12,0-21.333,9.333-21.333,20.667
						c0,12,9.333,20.667,21.333,20.667h331.333c12,0,21.333-9.333,21.333-20.667c0-12-9.333-20.667-21.333-20.667h-94
						c-10,0-18.666-10.667-18.666-20.667s8.666-20.667,18.666-20.667h300c12,0,20.667-9.333,20.667-22v-4
						C636.078,228.981,626.744,216.981,614.744,216.981z"/>
				</g>
			</g>
			<g>
				<g>
					<defs>
						<circle id="SVGID_9_" cx="502.078" cy="502.314" r="500"/>
					</defs>
					<clipPath id="SVGID_10_">
						<use xlink:href="#SVGID_9_"  overflow="visible"/>
					</clipPath>
					<circle clip-path="url(#SVGID_10_)" fill="#FFFFFF" cx="805.411" cy="508.314" r="3.334"/>
				</g>
			</g>
			<g>
				<g>
					<defs>
						<circle id="SVGID_11_" cx="502.078" cy="502.314" r="500"/>
					</defs>
					<clipPath id="SVGID_12_">
						<use xlink:href="#SVGID_11_"  overflow="visible"/>
					</clipPath>
					<circle clip-path="url(#SVGID_12_)" fill="#FFFFFF" cx="339.411" cy="433.648" r="3.333"/>
				</g>
			</g>
			<g>
				<g>
					<defs>
						<circle id="SVGID_13_" cx="502.078" cy="502.314" r="500"/>
					</defs>
					<clipPath id="SVGID_14_">
						<use xlink:href="#SVGID_13_"  overflow="visible"/>
					</clipPath>
					<circle clip-path="url(#SVGID_14_)" fill="#FFFFFF" cx="166.744" cy="557.647" r="5.333"/>
				</g>
			</g>
			<g>
				<g>
					<defs>
						<circle id="SVGID_15_" cx="502.078" cy="502.314" r="500"/>
					</defs>
					<clipPath id="SVGID_16_">
						<use xlink:href="#SVGID_15_"  overflow="visible"/>
					</clipPath>
					<circle clip-path="url(#SVGID_16_)" fill="#FFFFFF" cx="853.411" cy="308.314" r="5.333"/>
				</g>
			</g>
			<g>
				<g>
					<defs>
						<circle id="SVGID_17_" cx="502.078" cy="502.314" r="500"/>
					</defs>
					<clipPath id="SVGID_18_">
						<use xlink:href="#SVGID_17_"  overflow="visible"/>
					</clipPath>
					<circle clip-path="url(#SVGID_18_)" fill="#FFFFFF" cx="561.411" cy="919.648" r="5.333"/>
				</g>
			</g>
			<g>
				<g>
					<defs>
						<circle id="SVGID_19_" cx="502.078" cy="502.314" r="500"/>
					</defs>
					<clipPath id="SVGID_20_">
						<use xlink:href="#SVGID_19_"  overflow="visible"/>
					</clipPath>
					<circle clip-path="url(#SVGID_20_)" fill="#FFFFFF" cx="356.744" cy="856.314" r="3.333"/>
				</g>
			</g>
			<g>
				<g>
					<defs>
						<circle id="SVGID_21_" cx="502.078" cy="502.314" r="500"/>
					</defs>
					<clipPath id="SVGID_22_">
						<use xlink:href="#SVGID_21_"  overflow="visible"/>
					</clipPath>
					<circle clip-path="url(#SVGID_22_)" fill="#FFFFFF" cx="103.411" cy="676.981" r="5.333"/>
				</g>
			</g>
			<g>
				<g>
					<defs>
						<circle id="SVGID_23_" cx="502.078" cy="502.314" r="500"/>
					</defs>
					<clipPath id="SVGID_24_">
						<use xlink:href="#SVGID_23_"  overflow="visible"/>
					</clipPath>
					<circle clip-path="url(#SVGID_24_)" fill="#FFFFFF" cx="636.078" cy="100.981" r="5.333"/>
				</g>
			</g>
			<g>
				<g>
					<defs>
						<circle id="SVGID_25_" cx="502.078" cy="502.314" r="500"/>
					</defs>
					<clipPath id="SVGID_26_">
						<use xlink:href="#SVGID_25_"  overflow="visible"/>
					</clipPath>
					<circle clip-path="url(#SVGID_26_)" fill="#FFFFFF" cx="534.078" cy="518.314" r="3.334"/>
				</g>
			</g>
			<g>
				<g>
					<defs>
						<circle id="SVGID_27_" cx="502.078" cy="502.314" r="500"/>
					</defs>
					<clipPath id="SVGID_28_">
						<use xlink:href="#SVGID_27_"  overflow="visible"/>
					</clipPath>
					<g clip-path="url(#SVGID_28_)">
						<path fill="#1D2A47" d="M595.578,443.481c4.5-5.167,10-8.833,16-11c-9.334,1.167-18.167,5.5-24.834,13.167
							c-14.666,16-14.666,41.333,0.667,56.667c4.167,3,13.5,4.666,17,1.666c-1.333-0.332-6.833-2.832-8.167-3.832
							C580.911,484.814,580.911,459.481,595.578,443.481z"/>
					</g>
				</g>
			</g>
			<g>
				<g>
					<defs>
						<circle id="SVGID_29_" cx="502.078" cy="502.314" r="500"/>
					</defs>
					<clipPath id="SVGID_30_">
						<use xlink:href="#SVGID_29_"  overflow="visible"/>
					</clipPath>
					<g clip-path="url(#SVGID_30_)">
						<path fill="#CDCCCC" d="M787.411,666.98"/>
					</g>
				</g>
			</g>
		</g>
		<g id="XMLID_302_">
			<path id="XMLID_301_" fill="#3888BF" d="M684.49,314.816l-17.348-46.529H248.872c-22.858,0-41.341,18.482-41.341,41.341v653.345
				c0,22.859,18.482,41.341,41.341,41.341h524.297c22.86,0,41.341-18.481,41.341-41.341V436.406l-94.03-53.824L684.49,314.816z"/>
			<polygon id="XMLID_300_" fill="#2B7CAA" points="723.561,324.706 697.136,410.953 814.51,478.234 814.51,415.493 			"/>
			<path id="XMLID_299_" fill="#489DCC" d="M718.858,415.656c-28.532,0-51.554-23.021-51.554-51.554l-0.162-95.814L814.51,415.493
				L718.858,415.656z"/>
			<path id="XMLID_298_" fill="#E0E0DF" d="M290.698,401.389h-14.752c-2.271,0-4.216-1.946-4.216-4.216v-0.161
				c0-2.271,1.945-4.216,4.216-4.216h14.752c2.271,0,4.217,1.946,4.217,4.216v0.161
				C294.915,399.443,293.131,401.389,290.698,401.389z"/>
			<path id="XMLID_297_" fill="#E0E0DF" d="M290.698,428.95h-14.752c-2.271,0-4.216-1.946-4.216-4.216v-0.161
				c0-2.271,1.945-4.217,4.216-4.217h14.752c2.271,0,4.217,1.946,4.217,4.217v0.161C294.915,427.004,293.131,428.95,290.698,428.95z
				"/>
			<path id="XMLID_296_" fill="#3D4F5B" d="M388.782,578.424H314.37c-2.271,0-4.054-1.783-4.054-4.054v-0.16
				c0-2.271,1.783-4.054,4.054-4.054h74.412c2.27,0,4.053,1.783,4.053,4.054v0.16C392.835,576.479,391.052,578.424,388.782,578.424z
				"/>
			<path id="XMLID_295_" fill="#44B5D2" d="M512.967,630.627h-74.414c-2.27,0-4.053-1.782-4.053-4.053v-0.162
				c0-2.271,1.783-4.053,4.053-4.053h74.414c2.269,0,4.054,1.782,4.054,4.053v0.162
				C517.021,628.845,515.235,630.627,512.967,630.627z"/>
			<path id="XMLID_294_" fill="#44B5D2" d="M653.362,630.627h-74.413c-2.27,0-4.054-1.782-4.054-4.053v-0.162
				c0-2.271,1.784-4.053,4.054-4.053h74.413c2.27,0,4.054,1.782,4.054,4.053v0.162C657.416,628.845,655.632,630.627,653.362,630.627
				z"/>
			<path id="XMLID_293_" fill="#44B5D2" d="M563.872,675.049H438.553c-2.27,0-4.053-1.785-4.053-4.054v-0.163
				c0-2.269,1.783-4.053,4.053-4.053h125.319c2.271,0,4.053,1.784,4.053,4.053v0.163
				C567.925,673.264,566.143,675.049,563.872,675.049z"/>
			<path id="XMLID_292_" fill="#44B5D2" d="M609.266,652.677H438.553c-2.27,0-4.053-1.785-4.053-4.054v-0.163
				c0-2.269,1.783-4.053,4.053-4.053h170.713c2.271,0,4.053,1.784,4.053,4.053v0.163
				C613.318,650.892,611.536,652.677,609.266,652.677z"/>
			<path id="XMLID_291_" fill="#E0E0DF" d="M290.698,453.916h-14.752c-2.271,0-4.216-1.946-4.216-4.214v-0.163
				c0-2.27,1.945-4.215,4.216-4.215h14.752c2.271,0,4.217,1.946,4.217,4.215v0.163C294.915,451.97,293.131,453.916,290.698,453.916z
				"/>
			<path id="XMLID_290_" fill="#E0E0DF" d="M290.698,478.883h-14.752c-2.271,0-4.216-1.945-4.216-4.216v-0.162
				c0-2.271,1.945-4.214,4.216-4.214h14.752c2.271,0,4.217,1.943,4.217,4.214v0.162
				C294.915,476.938,293.131,478.883,290.698,478.883z"/>
			<path id="XMLID_289_" fill="#E0E0DF" d="M290.698,501.094h-14.752c-2.271,0-4.216-1.945-4.216-4.217v-0.161
				c0-2.271,1.945-4.216,4.216-4.216h14.752c2.271,0,4.217,1.945,4.217,4.216v0.161
				C294.915,499.148,293.131,501.094,290.698,501.094z"/>
			<path id="XMLID_288_" fill="#E0E0DF" d="M290.698,526.223h-14.752c-2.271,0-4.216-1.946-4.216-4.217v-0.162
				c0-2.269,1.945-4.215,4.216-4.215h14.752c2.271,0,4.217,1.946,4.217,4.215v0.162
				C294.915,524.276,293.131,526.223,290.698,526.223z"/>
			<path id="XMLID_287_" fill="#E0E0DF" d="M290.698,551.513h-14.752c-2.271,0-4.216-1.946-4.216-4.215v-0.163
				c0-2.269,1.945-4.215,4.216-4.215h14.752c2.271,0,4.217,1.946,4.217,4.215v0.163
				C294.915,549.566,293.131,551.513,290.698,551.513z"/>
			<path id="XMLID_286_" fill="#E0E0DF" d="M290.698,578.262h-14.752c-2.271,0-4.216-1.945-4.216-4.214v-0.163
				c0-2.27,1.945-4.215,4.216-4.215h14.752c2.271,0,4.217,1.945,4.217,4.215v0.163C294.915,576.479,293.131,578.262,290.698,578.262
				z"/>
			<path id="XMLID_285_" fill="#E0E0DF" d="M290.698,602.741h-14.752c-2.271,0-4.216-1.944-4.216-4.214v-0.162
				c0-2.27,1.945-4.215,4.216-4.215h14.752c2.271,0,4.217,1.945,4.217,4.215v0.162C294.915,600.797,293.131,602.741,290.698,602.741
				z"/>
			<path id="XMLID_284_" fill="#E0E0DF" d="M290.698,629.816h-14.752c-2.271,0-4.216-1.945-4.216-4.214v-0.164
				c0-2.269,1.945-4.214,4.216-4.214h14.752c2.271,0,4.217,1.945,4.217,4.214v0.164
				C294.915,628.033,293.131,629.816,290.698,629.816z"/>
			<path id="XMLID_283_" fill="#E0E0DF" d="M290.698,654.945h-14.752c-2.271,0-4.216-1.946-4.216-4.215v-0.163
				c0-2.269,1.945-4.215,4.216-4.215h14.752c2.271,0,4.217,1.946,4.217,4.215v0.163
				C294.915,653.162,293.131,654.945,290.698,654.945z"/>
			<path id="XMLID_282_" fill="#E0E0DF" d="M374.029,630.79h-32.587c-2.269,0-4.215-1.945-4.215-4.216v-0.162
				c0-2.271,1.946-4.216,4.215-4.216h32.587c2.269,0,4.215,1.945,4.215,4.216v0.162C378.244,628.845,376.298,630.79,374.029,630.79z
				"/>
			<path id="XMLID_281_" fill="#3D4F5B" d="M423.476,630.79h-32.587c-2.269,0-4.214-1.945-4.214-4.216v-0.162
				c0-2.271,1.945-4.216,4.214-4.216h32.587c2.27,0,4.215,1.945,4.215,4.216v0.162C427.69,628.845,425.908,630.79,423.476,630.79z"
				/>
			<path id="XMLID_280_" fill="#888AC3" d="M560.79,630.79h-32.584c-2.271,0-4.216-1.945-4.216-4.216v-0.162
				c0-2.271,1.945-4.216,4.216-4.216h32.584c2.271,0,4.217,1.945,4.217,4.216v0.162C565.007,628.845,563.061,630.79,560.79,630.79z"
				/>
			<path id="XMLID_279_" fill="#E0E0DF" d="M704.592,630.79h-32.586c-2.271,0-4.215-1.945-4.215-4.216v-0.162
				c0-2.271,1.944-4.216,4.215-4.216h32.586c2.271,0,4.217,1.945,4.217,4.216v0.162C708.809,628.845,706.862,630.79,704.592,630.79z
				"/>
			<path id="XMLID_278_" fill="#E0E0DF" d="M611.858,675.21h-32.585c-2.271,0-4.215-1.946-4.215-4.215v-0.163
				c0-2.269,1.944-4.215,4.215-4.215h32.585c2.271,0,4.217,1.946,4.217,4.215v0.163C616.075,673.264,614.291,675.21,611.858,675.21z
				"/>
			<path id="XMLID_277_" fill="#E0E0DF" d="M661.145,675.21h-32.586c-2.271,0-4.216-1.946-4.216-4.215v-0.163
				c0-2.269,1.945-4.215,4.216-4.215h32.586c2.271,0,4.214,1.946,4.214,4.215v0.163C665.358,673.264,663.415,675.21,661.145,675.21z
				"/>
			<path id="XMLID_276_" fill="#56B781" d="M665.358,652.837h-32.586c-2.271,0-4.214-1.945-4.214-4.214v-0.163
				c0-2.269,1.943-4.214,4.214-4.214h32.586c2.271,0,4.217,1.945,4.217,4.214v0.163
				C669.575,650.892,667.629,652.837,665.358,652.837z"/>
			<path id="XMLID_275_" fill="#44B5D2" d="M718.048,652.837h-32.586c-2.271,0-4.215-1.945-4.215-4.214v-0.163
				c0-2.269,1.944-4.214,4.215-4.214h32.586c2.271,0,4.216,1.945,4.216,4.214v0.163
				C722.264,650.892,720.318,652.837,718.048,652.837z"/>
			<path id="XMLID_274_" fill="#44B5D2" d="M512.967,801.017h-74.414c-2.27,0-4.053-1.785-4.053-4.054v-0.162
				c0-2.269,1.783-4.054,4.053-4.054h74.414c2.269,0,4.054,1.785,4.054,4.054v0.162
				C517.021,799.231,515.235,801.017,512.967,801.017z"/>
			<path id="XMLID_273_" fill="#44B5D2" d="M653.362,801.017h-74.413c-2.27,0-4.054-1.785-4.054-4.054v-0.162
				c0-2.269,1.784-4.054,4.054-4.054h74.413c2.27,0,4.054,1.785,4.054,4.054v0.162C657.416,799.231,655.632,801.017,653.362,801.017
				z"/>
			<path id="XMLID_272_" fill="#44B5D2" d="M563.872,845.437H438.553c-2.27,0-4.053-1.783-4.053-4.053v-0.162
				c0-2.271,1.783-4.053,4.053-4.053h125.319c2.271,0,4.053,1.782,4.053,4.053v0.162
				C567.925,843.49,566.143,845.437,563.872,845.437z"/>
			<path id="XMLID_271_" fill="#44B5D2" d="M568.086,823.063H438.714c-2.268,0-4.053-1.782-4.053-4.053v-0.161
				c0-2.271,1.785-4.054,4.053-4.054h129.372c2.271,0,4.054,1.783,4.054,4.054v0.161
				C572.14,821.118,570.194,823.063,568.086,823.063z"/>
			<path id="XMLID_270_" fill="#888AC3" d="M560.79,801.178h-32.584c-2.271,0-4.216-1.946-4.216-4.215v-0.162
				c0-2.269,1.945-4.215,4.216-4.215h32.584c2.271,0,4.217,1.946,4.217,4.215v0.162C565.007,799.231,563.061,801.178,560.79,801.178
				z"/>
			<path id="XMLID_269_" fill="#E0E0DF" d="M704.592,801.178h-32.586c-2.271,0-4.215-1.946-4.215-4.215v-0.162
				c0-2.269,1.944-4.215,4.215-4.215h32.586c2.271,0,4.217,1.946,4.217,4.215v0.162
				C708.809,799.231,706.862,801.178,704.592,801.178z"/>
			<path id="XMLID_268_" fill="#E0E0DF" d="M611.858,845.599h-32.585c-2.271,0-4.215-1.945-4.215-4.215v-0.162
				c0-2.271,1.944-4.216,4.215-4.216h32.585c2.271,0,4.217,1.945,4.217,4.216v0.162
				C616.075,843.653,614.291,845.599,611.858,845.599z"/>
			<path id="XMLID_267_" fill="#E0E0DF" d="M621.587,823.226h-32.586c-2.271,0-4.215-1.944-4.215-4.215v-0.161
				c0-2.271,1.943-4.217,4.215-4.217h32.586c2.27,0,4.216,1.946,4.216,4.217v0.161C625.803,821.281,623.856,823.226,621.587,823.226
				z"/>
			<path id="XMLID_266_" fill="#E0E0DF" d="M661.145,845.599h-32.586c-2.271,0-4.216-1.945-4.216-4.215v-0.162
				c0-2.271,1.945-4.216,4.216-4.216h32.586c2.271,0,4.214,1.945,4.214,4.216v0.162
				C665.358,843.653,663.415,845.599,661.145,845.599z"/>
			<path id="XMLID_265_" fill="#56B781" d="M665.358,823.226h-32.586c-2.271,0-4.214-1.944-4.214-4.215v-0.161
				c0-2.271,1.943-4.217,4.214-4.217h32.586c2.271,0,4.217,1.946,4.217,4.217v0.161
				C669.575,821.281,667.629,823.226,665.358,823.226z"/>
			<path id="XMLID_264_" fill="#44B5D2" d="M718.048,823.226h-32.586c-2.271,0-4.215-1.944-4.215-4.215v-0.161
				c0-2.271,1.944-4.217,4.215-4.217h32.586c2.271,0,4.216,1.946,4.216,4.217v0.161
				C722.264,821.281,720.318,823.226,718.048,823.226z"/>
			<path id="XMLID_263_" fill="#E0E0DF" d="M374.029,652.837h-32.587c-2.269,0-4.215-1.945-4.215-4.214v-0.163
				c0-2.269,1.946-4.214,4.215-4.214h32.587c2.269,0,4.215,1.945,4.215,4.214v0.163
				C378.244,650.892,376.298,652.837,374.029,652.837z"/>
			<path id="XMLID_262_" fill="#3D4F5B" d="M423.476,652.837h-32.587c-2.269,0-4.214-1.945-4.214-4.214v-0.163
				c0-2.269,1.945-4.214,4.214-4.214h32.587c2.27,0,4.215,1.945,4.215,4.214v0.163C427.69,650.892,425.908,652.837,423.476,652.837z
				"/>
			<path id="XMLID_261_" fill="#E0E0DF" d="M374.029,673.751h-32.587c-2.269,0-4.215-1.944-4.215-4.216v-0.161
				c0-2.271,1.946-4.216,4.215-4.216h32.587c2.269,0,4.215,1.945,4.215,4.216v0.161
				C378.244,671.968,376.298,673.751,374.029,673.751z"/>
			<path id="XMLID_260_" fill="#3D4F5B" d="M423.476,673.751h-32.587c-2.269,0-4.214-1.944-4.214-4.216v-0.161
				c0-2.271,1.945-4.216,4.214-4.216h32.587c2.27,0,4.215,1.945,4.215,4.216v0.161C427.69,671.968,425.908,673.751,423.476,673.751z
				"/>
			<path id="XMLID_259_" fill="#E0E0DF" d="M374.029,802.8h-32.587c-2.269,0-4.215-1.946-4.215-4.216v-0.162
				c0-2.27,1.946-4.216,4.215-4.216h32.587c2.269,0,4.215,1.946,4.215,4.216v0.162C378.244,801.017,376.298,802.8,374.029,802.8z"/>
			<path id="XMLID_258_" fill="#E0E0DF" d="M423.476,802.8h-32.587c-2.269,0-4.214-1.946-4.214-4.216v-0.162
				c0-2.27,1.945-4.216,4.214-4.216h32.587c2.27,0,4.215,1.946,4.215,4.216v0.162C427.69,801.017,425.908,802.8,423.476,802.8z"/>
			<path id="XMLID_257_" fill="#E0E0DF" d="M374.029,824.847h-32.587c-2.269,0-4.215-1.944-4.215-4.214v-0.162
				c0-2.271,1.946-4.217,4.215-4.217h32.587c2.269,0,4.215,1.946,4.215,4.217v0.162
				C378.244,822.902,376.298,824.847,374.029,824.847z"/>
			<path id="XMLID_256_" fill="#E0E0DF" d="M423.476,824.847h-32.587c-2.269,0-4.214-1.944-4.214-4.214v-0.162
				c0-2.271,1.945-4.217,4.214-4.217h32.587c2.27,0,4.215,1.946,4.215,4.217v0.162C427.69,822.902,425.908,824.847,423.476,824.847z
				"/>
			<path id="XMLID_255_" fill="#E0E0DF" d="M374.029,845.761h-32.587c-2.269,0-4.215-1.945-4.215-4.214v-0.163
				c0-2.27,1.946-4.215,4.215-4.215h32.587c2.269,0,4.215,1.945,4.215,4.215v0.163C378.244,843.979,376.298,845.761,374.029,845.761
				z"/>
			<path id="XMLID_254_" fill="#E0E0DF" d="M423.476,845.761h-32.587c-2.269,0-4.214-1.945-4.214-4.214v-0.163
				c0-2.27,1.945-4.215,4.214-4.215h32.587c2.27,0,4.215,1.945,4.215,4.215v0.163C427.69,843.979,425.908,845.761,423.476,845.761z"
				/>
			<path id="XMLID_253_" fill="#3D4F5B" d="M389.431,748.488h-76.683c-2.27,0-4.216-1.945-4.216-4.214v-0.163
				c0-2.269,1.946-4.214,4.216-4.214h76.683c2.27,0,4.215,1.945,4.215,4.214v0.163C393.646,746.543,391.862,748.488,389.431,748.488
				z"/>
			<path id="XMLID_252_" fill="#E0E0DF" d="M290.698,676.995h-14.752c-2.271,0-4.216-1.946-4.216-4.218v-0.16
				c0-2.271,1.945-4.217,4.216-4.217h14.752c2.271,0,4.217,1.946,4.217,4.217v0.16C294.915,675.21,293.131,676.995,290.698,676.995z
				"/>
			<path id="XMLID_251_" fill="#E0E0DF" d="M290.698,699.691h-14.752c-2.271,0-4.216-1.946-4.216-4.217v-0.162
				c0-2.27,1.945-4.215,4.216-4.215h14.752c2.271,0,4.217,1.945,4.217,4.215v0.162C294.915,697.907,293.131,699.691,290.698,699.691
				z"/>
			<path id="XMLID_250_" fill="#E0E0DF" d="M290.698,728.548h-14.752c-2.271,0-4.216-1.945-4.216-4.216v-0.162
				c0-2.27,1.945-4.214,4.216-4.214h14.752c2.271,0,4.217,1.944,4.217,4.214v0.162C294.915,726.764,293.131,728.548,290.698,728.548
				z"/>
			<path id="XMLID_249_" fill="#E0E0DF" d="M290.698,750.596h-14.752c-2.271,0-4.216-1.945-4.216-4.214v-0.164
				c0-2.269,1.945-4.214,4.216-4.214h14.752c2.271,0,4.217,1.945,4.217,4.214v0.164
				C294.915,748.813,293.131,750.596,290.698,750.596z"/>
			<path id="XMLID_248_" fill="#E0E0DF" d="M290.698,772.645h-14.752c-2.271,0-4.216-1.945-4.216-4.216v-0.161
				c0-2.271,1.945-4.216,4.216-4.216h14.752c2.271,0,4.217,1.945,4.217,4.216v0.161
				C294.915,770.699,293.131,772.645,290.698,772.645z"/>
			<path id="XMLID_247_" fill="#E0E0DF" d="M290.698,801.502h-14.752c-2.271,0-4.216-1.945-4.216-4.216v-0.161
				c0-2.271,1.945-4.215,4.216-4.215h14.752c2.271,0,4.217,1.944,4.217,4.215v0.161
				C294.915,799.718,293.131,801.502,290.698,801.502z"/>
			<path id="XMLID_246_" fill="#E0E0DF" d="M290.698,824.847h-14.752c-2.271,0-4.216-1.944-4.216-4.214v-0.162
				c0-2.271,1.945-4.217,4.216-4.217h14.752c2.271,0,4.217,1.946,4.217,4.217v0.162
				C294.915,822.902,293.131,824.847,290.698,824.847z"/>
			<path id="XMLID_245_" fill="#E0E0DF" d="M290.698,849.003h-14.752c-2.271,0-4.216-1.945-4.216-4.214v-0.163
				c0-2.27,1.945-4.215,4.216-4.215h14.752c2.271,0,4.217,1.945,4.217,4.215v0.163C294.915,847.221,293.131,849.003,290.698,849.003
				z"/>
			<path id="XMLID_244_" fill="#E0E0DF" d="M290.698,870.079h-14.752c-2.271,0-4.216-1.946-4.216-4.214v-0.164
				c0-2.269,1.945-4.214,4.216-4.214h14.752c2.271,0,4.217,1.945,4.217,4.214v0.164
				C294.915,868.133,293.131,870.079,290.698,870.079z"/>
			<path id="XMLID_243_" fill="#E0E0DF" d="M290.698,895.369h-14.752c-2.271,0-4.216-1.943-4.216-4.215v-0.161
				c0-2.271,1.945-4.216,4.216-4.216h14.752c2.271,0,4.217,1.945,4.217,4.216v0.161
				C294.915,893.426,293.131,895.369,290.698,895.369z"/>
			<path id="XMLID_242_" fill="#E0E0DF" d="M330.257,870.079h-14.754c-2.269,0-4.215-1.946-4.215-4.214v-0.164
				c0-2.269,1.946-4.214,4.215-4.214h14.754c2.269,0,4.214,1.945,4.214,4.214v0.164
				C334.471,868.133,332.688,870.079,330.257,870.079z"/>
			<path id="XMLID_241_" fill="#E0E0DF" d="M417.639,748.488h-14.753c-2.27,0-4.214-1.945-4.214-4.214v-0.163
				c0-2.269,1.944-4.214,4.214-4.214h14.753c2.271,0,4.216,1.945,4.216,4.214v0.163C421.854,746.543,420.07,748.488,417.639,748.488
				z"/>
			<path id="XMLID_240_" fill="#E0E0DF" d="M330.257,704.392h-14.754c-2.269,0-4.215-1.946-4.215-4.214v-0.163
				c0-2.27,1.946-4.216,4.215-4.216h14.754c2.269,0,4.214,1.946,4.214,4.216v0.163C334.471,702.445,332.688,704.392,330.257,704.392
				z"/>
			<path id="XMLID_239_" fill="#E0E0DF" d="M416.667,578.587h-14.753c-2.271,0-4.216-1.946-4.216-4.217v-0.16
				c0-2.271,1.945-4.216,4.216-4.216h14.753c2.27,0,4.215,1.945,4.215,4.216v0.16C421.044,576.641,419.099,578.587,416.667,578.587z
				"/>
			<path id="XMLID_238_" fill="#3D4F5B" d="M388.782,400.415H314.37c-2.271,0-4.054-1.782-4.054-4.052v-0.162
				c0-2.271,1.783-4.054,4.054-4.054h74.412c2.27,0,4.053,1.783,4.053,4.054v0.162C392.835,398.633,391.052,400.415,388.782,400.415
				z"/>
			<path id="XMLID_237_" fill="#44B5D2" d="M512.967,452.781h-74.414c-2.27,0-4.053-1.783-4.053-4.053v-0.162
				c0-2.27,1.783-4.052,4.053-4.052h74.414c2.269,0,4.054,1.783,4.054,4.052v0.162C517.021,450.836,515.235,452.781,512.967,452.781
				z"/>
			<path id="XMLID_236_" fill="#44B5D2" d="M563.872,497.041H438.553c-2.27,0-4.053-1.785-4.053-4.055v-0.162
				c0-2.269,1.783-4.052,4.053-4.052h125.319c2.271,0,4.053,1.784,4.053,4.052v0.162
				C567.925,495.256,566.143,497.041,563.872,497.041z"/>
			<path id="XMLID_235_" fill="#44B5D2" d="M561.115,474.667H390.403c-2.27,0-4.054-1.783-4.054-4.054v-0.162
				c0-2.27,1.784-4.052,4.054-4.052h170.712c2.271,0,4.054,1.783,4.054,4.052v0.162
				C565.169,472.884,563.386,474.667,561.115,474.667z"/>
			<path id="XMLID_234_" fill="#E0E0DF" d="M374.029,452.781h-32.587c-2.269,0-4.215-1.945-4.215-4.215l0,0
				c0-2.27,1.946-4.214,4.215-4.214h32.587c2.269,0,4.215,1.944,4.215,4.214v0.162C378.244,450.998,376.298,452.781,374.029,452.781
				z"/>
			<path id="XMLID_233_" fill="#3D4F5B" d="M423.476,452.781h-32.587c-2.269,0-4.214-1.945-4.214-4.215l0,0
				c0-2.27,1.945-4.214,4.214-4.214h32.587c2.27,0,4.215,1.944,4.215,4.214v0.162C427.69,450.998,425.908,452.781,423.476,452.781z"
				/>
			<path id="XMLID_232_" fill="#888AC3" d="M560.79,452.781h-32.584c-2.271,0-4.216-1.945-4.216-4.215l0,0
				c0-2.27,1.945-4.214,4.216-4.214h32.584c2.271,0,4.217,1.944,4.217,4.214v0.162C565.007,450.998,563.061,452.781,560.79,452.781z
				"/>
			<path id="XMLID_231_" fill="#E0E0DF" d="M614.291,452.781h-32.586c-2.271,0-4.215-1.945-4.215-4.215l0,0
				c0-2.27,1.944-4.214,4.215-4.214h32.586c2.271,0,4.216,1.944,4.216,4.214v0.162C618.507,450.998,616.562,452.781,614.291,452.781
				z"/>
			<path id="XMLID_230_" fill="#E0E0DF" d="M611.858,497.202h-32.585c-2.271,0-4.215-1.946-4.215-4.216v-0.162
				c0-2.269,1.944-4.214,4.215-4.214h32.585c2.271,0,4.217,1.946,4.217,4.214v0.162
				C616.075,495.256,614.291,497.202,611.858,497.202z"/>
			<path id="XMLID_229_" fill="#E0E0DF" d="M661.145,497.202h-32.586c-2.271,0-4.216-1.946-4.216-4.216v-0.162
				c0-2.269,1.945-4.214,4.216-4.214h32.586c2.271,0,4.214,1.946,4.214,4.214v0.162
				C665.358,495.256,663.415,497.202,661.145,497.202z"/>
			<path id="XMLID_228_" fill="#56B781" d="M614.291,474.83h-32.586c-2.271,0-4.215-1.946-4.215-4.216v-0.162
				c0-2.27,1.944-4.214,4.215-4.214h32.586c2.271,0,4.216,1.945,4.216,4.214v0.162C618.507,472.884,616.562,474.83,614.291,474.83z"
				/>
			<path id="XMLID_227_" fill="#44B5D2" d="M666.818,474.83h-32.585c-2.271,0-4.217-1.946-4.217-4.216v-0.162
				c0-2.27,1.946-4.214,4.217-4.214h32.585c2.271,0,4.215,1.945,4.215,4.214v0.162C671.033,472.884,669.25,474.83,666.818,474.83z"
				/>
			<path id="XMLID_226_" fill="#E0E0DF" d="M374.029,474.83h-32.587c-2.269,0-4.215-1.946-4.215-4.216v-0.162
				c0-2.27,1.946-4.214,4.215-4.214h32.587c2.269,0,4.215,1.945,4.215,4.214v0.162C378.244,472.884,376.298,474.83,374.029,474.83z"
				/>
			<path id="XMLID_225_" fill="#E0E0DF" d="M374.029,495.906h-32.587c-2.269,0-4.215-1.946-4.215-4.217v-0.162
				c0-2.27,1.946-4.214,4.215-4.214h32.587c2.269,0,4.215,1.944,4.215,4.214v0.162C378.244,493.96,376.298,495.906,374.029,495.906z
				"/>
			<path id="XMLID_224_" fill="#3D4F5B" d="M423.476,495.906h-32.587c-2.269,0-4.214-1.946-4.214-4.217v-0.162
				c0-2.27,1.945-4.214,4.214-4.214h32.587c2.27,0,4.215,1.944,4.215,4.214v0.162C427.69,493.96,425.908,495.906,423.476,495.906z"
				/>
			<path id="XMLID_223_" fill="#E0E0DF" d="M330.257,526.384h-14.754c-2.269,0-4.215-1.945-4.215-4.215v-0.163
				c0-2.269,1.946-4.214,4.215-4.214h14.754c2.269,0,4.214,1.945,4.214,4.214v0.163
				C334.471,524.601,332.688,526.384,330.257,526.384z"/>
			<path id="XMLID_13_" fill="#E0E0DF" d="M416.667,400.579h-14.753c-2.271,0-4.216-1.946-4.216-4.216v-0.162
				c0-2.271,1.945-4.216,4.216-4.216h14.753c2.27,0,4.215,1.946,4.215,4.216v0.162C421.044,398.633,419.099,400.579,416.667,400.579
				z"/>
		</g>
		<g>
			<g>
				<path fill="#F3F3F3" d="M646.521,713.29l55.309,55.312c1.987-4.519,4.878-8.677,8.493-12.472l12.472-12.652
					c3.796-3.615,7.954-6.507,12.473-8.498l-55.308-55.308c73.202-90.01,67.959-222.677-15.907-306.361
					c-89.468-89.469-234.604-89.469-324.073,0c-89.468,89.468-89.468,234.606,0,324.076
					c83.863,83.867,216.351,89.105,306.358,15.903 M668.189,693.07 M646.521,713.11 M626.457,693.049 M372.33,665.032
					c-71.753-71.755-71.753-187.794,0-259.55c71.758-71.756,187.795-71.756,259.55,0c71.757,71.756,71.757,187.795,0,259.55
					C560.125,736.787,443.908,736.787,372.33,665.032z"/>
				<path id="XMLID_33_" fill="#29353D" d="M783.705,743.478c-13.192-13.196-32.534-15.907-48.438-8.498l18.798,18.799
					l-33.621,33.617l-18.795-18.794c-7.413,15.903-4.518,35.425,8.493,48.437l163.754,163.755l73.382-73.382L783.705,743.478z"/>
				<path id="XMLID_31_" fill="#29353D" d="M754.065,753.778l-18.798-18.799c-4.519,1.991-8.677,4.883-12.473,8.498l-12.472,12.472
					c-3.615,3.615-6.506,7.95-8.493,12.468l18.798,18.8L754.065,753.778z"/>
			</g>
			<circle opacity="0.3" fill="#FFFFFF" cx="504.073" cy="536.998" r="186.998"/>
		</g>
	</g>
</g>
</svg>
