<?xml version="1.0" encoding="utf-8"?>
<!-- Generator: Adobe Illustrator 16.0.0, SVG Export Plug-In . SVG Version: 6.00 Build 0)  -->
<!DOCTYPE svg PUBLIC "-//W3C//DTD SVG 1.1//EN" "http://www.w3.org/Graphics/SVG/1.1/DTD/svg11.dtd">
<svg version="1.1" id="Space" xmlns="http://www.w3.org/2000/svg" xmlns:xlink="http://www.w3.org/1999/xlink" x="0px" y="0px"
	 width="128px" height="120.881px" viewBox="0 0 128 120.881" enable-background="new 0 0 128 120.881" xml:space="preserve">
<g>
	<path fill="#FDAB3C" d="M67.869,75.044c-0.422,0-0.839-0.191-1.109-0.559c-0.451-0.611-0.322-1.475,0.29-1.926l0.113-0.084
		c3.219-2.379,6.549-4.838,6.549-12.518c0-0.761,0.617-1.378,1.378-1.378c0.762,0,1.377,0.617,1.377,1.378
		c0,9.07-4.251,12.211-7.668,14.734l-0.111,0.084C68.439,74.956,68.154,75.044,67.869,75.044z"/>
	<polygon fill="#3A3A77" points="87.463,50.616 64.777,49.203 80.74,81.63 102.235,81.63 	"/>
	<polygon fill="#2A2761" points="65.549,50.773 80.74,81.63 91.762,81.63 77.416,51.512 	"/>
	<rect x="25.525" y="57.134" fill="#2A2761" width="6.578" height="1.489"/>
	<rect x="38.172" y="52.642" fill="#3A3A77" width="16.153" height="10.472"/>
	<path fill="#FDAB3C" d="M103.979,81.63H79.545c-1.376,0-2.492,1.115-2.492,2.492h29.419
		C106.472,82.745,105.356,81.63,103.979,81.63z"/>
	<path fill="#FF771B" d="M77.053,84.122c0,1.377,1.116,2.494,2.492,2.494h24.435c1.377,0,2.492-1.117,2.492-2.494H77.053z"/>
	<path fill="#FFAF3B" d="M34.98,51.704v12.35c0,1.764,1.429,3.191,3.191,3.191V48.511C36.409,48.511,34.98,49.941,34.98,51.704z"/>
	<path fill="#FF771B" d="M38.172,67.245c1.764,0,3.192-1.43,3.192-3.193V51.703c0-1.763-1.431-3.192-3.192-3.192V67.245z"/>
	<path fill="#FFAF3B" d="M44.389,51.704v12.35c0,1.764,1.43,3.191,3.191,3.191V48.511C45.818,48.511,44.389,49.941,44.389,51.704z"
		/>
	<path fill="#FF771B" d="M47.581,67.245c1.763,0,3.192-1.43,3.192-3.193V51.703c0-1.763-1.431-3.192-3.192-3.192V67.245z"/>
	<path fill="#57A6FF" d="M34.98,52.642c-2.893,0-5.236,2.344-5.236,5.236h5.236V52.642z"/>
	<path fill="#3469D3" d="M29.744,57.879c0,2.892,2.344,5.235,5.236,5.235v-5.235H29.744z"/>
	<path fill="#57A6FF" d="M87.629,64.202c0,1.719-1.395,3.111-3.111,3.111h-27.08c-1.719,0-3.111-1.393-3.111-3.111V51.624
		c0-1.719,1.393-3.112,3.111-3.112h27.08c1.719,0,3.111,1.394,3.111,3.112V64.202z"/>
	<path fill="#3469D3" d="M84.518,48.511H70.977v18.803h13.541c1.719,0,3.111-1.393,3.111-3.111V51.624
		C87.629,49.905,86.236,48.511,84.518,48.511z"/>
	<g opacity="0.3">
		<path d="M84.506,52.677c0,0.861-0.697,1.559-1.56,1.559H75.5c-0.859,0-1.559-0.698-1.559-1.559l0,0
			c0-0.861,0.697-1.559,1.559-1.559h7.446C83.809,51.118,84.506,51.816,84.506,52.677L84.506,52.677z"/>
		<path d="M84.506,57.913c0,0.861-0.697,1.559-1.56,1.559H75.5c-0.859,0-1.559-0.698-1.559-1.559l0,0
			c0-0.861,0.697-1.559,1.559-1.559h7.446C83.809,56.354,84.506,57.052,84.506,57.913L84.506,57.913z"/>
		<path d="M84.506,63.149c0,0.859-0.697,1.559-1.56,1.559H75.5c-0.859,0-1.559-0.699-1.559-1.559l0,0
			c0-0.861,0.697-1.561,1.559-1.561h7.446C83.809,61.589,84.506,62.288,84.506,63.149L84.506,63.149z"/>
	</g>
	<g>
		<circle fill="#FEEBB8" cx="59.986" cy="52.677" r="1.559"/>
		<circle fill="#FEEBB8" cx="59.986" cy="57.913" r="1.559"/>
		<circle fill="#FEEBB8" cx="59.986" cy="63.148" r="1.56"/>
		<circle fill="#FEEBB8" cx="65.314" cy="52.677" r="1.559"/>
		<circle fill="#FEEBB8" cx="65.314" cy="57.913" r="1.559"/>
		<circle fill="#FEEBB8" cx="65.314" cy="63.148" r="1.56"/>
	</g>
	<rect x="56.943" y="38.179" fill="#FFAF3B" width="28.068" height="5.42"/>
	<path fill="#57A6FF" d="M54.421,43.992c0,0.696,0.563,1.261,1.261,1.261l0,0c0.697,0,1.262-0.564,1.262-1.261v-6.205
		c0-0.697-0.563-1.261-1.262-1.261l0,0c-0.695,0-1.261,0.564-1.261,1.261V43.992z"/>
	<path fill="#3469D3" d="M85.012,43.992c0,0.696,0.563,1.261,1.26,1.261l0,0c0.696,0,1.262-0.564,1.262-1.261v-6.205
		c0-0.697-0.565-1.261-1.262-1.261l0,0c-0.696,0-1.26,0.564-1.26,1.261V43.992z"/>
	<rect x="56.943" y="40.889" fill="#FF771B" width="28.068" height="2.71"/>
	<g>
		<rect x="60.757" y="43.599" fill="#3A3A77" width="2.021" height="4.912"/>
		<rect x="79.176" y="43.599" fill="#3A3A77" width="2.021" height="4.912"/>
	</g>
	<circle fill="#FFAF3B" cx="24.145" cy="57.879" r="2.847"/>
	<circle fill="#FFFFFF" cx="23.282" cy="57.133" r="0.98"/>
	<path opacity="0.2" enable-background="new    " d="M94.604,69.757c0,0.686-0.556,1.24-1.24,1.24h-14.33
		c-0.686,0-1.24-0.555-1.24-1.24l0,0c0-0.684,0.557-1.238,1.24-1.238h14.33C94.049,68.519,94.604,69.073,94.604,69.757
		L94.604,69.757z"/>
	<path opacity="0.2" enable-background="new    " d="M96.598,73.983c0,0.686-0.555,1.24-1.24,1.24h-14.33
		c-0.686,0-1.24-0.555-1.24-1.24l0,0c0-0.686,0.555-1.24,1.24-1.24h14.33C96.042,72.743,96.598,73.298,96.598,73.983L96.598,73.983z
		"/>
	<path opacity="0.2" enable-background="new    " d="M98.614,78.21c0,0.686-0.557,1.24-1.24,1.24H83.043
		c-0.686,0-1.24-0.557-1.24-1.24l0,0c0-0.686,0.555-1.24,1.24-1.24h14.331C98.058,76.97,98.614,77.524,98.614,78.21L98.614,78.21z"
		/>
</g>
<g>
	<path fill="#939598" d="M373.229,823.003H372.6l-4.279-6.371v6.371h-0.633v-7.443h0.633l4.285,6.375v-6.375h0.623V823.003z"/>
	<path fill="#939598" d="M379.23,819.435h-3.48v3.035h4.003v0.533h-4.632v-7.443h4.605v0.535h-3.977v2.807h3.48V819.435z"/>
	<path fill="#939598" d="M381.705,819.97v3.033h-0.628v-7.443h2.534c0.41,0,0.771,0.053,1.082,0.162s0.574,0.262,0.785,0.459
		c0.211,0.195,0.371,0.43,0.478,0.701c0.108,0.273,0.161,0.572,0.161,0.9c0,0.344-0.053,0.65-0.161,0.922
		c-0.106,0.271-0.267,0.5-0.476,0.689c-0.209,0.188-0.472,0.33-0.785,0.43c-0.313,0.1-0.674,0.146-1.084,0.146H381.705z
		 M381.705,819.438h1.906c0.332,0,0.615-0.043,0.854-0.125c0.239-0.084,0.435-0.201,0.583-0.348c0.15-0.148,0.262-0.324,0.332-0.525
		c0.072-0.201,0.108-0.416,0.108-0.648c0-0.229-0.036-0.445-0.108-0.65c-0.07-0.207-0.182-0.387-0.332-0.543
		c-0.148-0.154-0.344-0.277-0.583-0.367c-0.237-0.092-0.522-0.137-0.854-0.137h-1.906V819.438z"/>
	<path fill="#939598" d="M392.574,816.095h-2.551v6.908h-0.629v-6.908h-2.547v-0.535h5.727V816.095L392.574,816.095z"/>
	<path fill="#939598" d="M398.902,815.56v5.045c0,0.42-0.068,0.785-0.207,1.096c-0.139,0.314-0.324,0.572-0.563,0.781
		c-0.236,0.207-0.515,0.363-0.833,0.467c-0.317,0.105-0.659,0.156-1.02,0.156c-0.372,0-0.718-0.053-1.036-0.156
		s-0.596-0.26-0.83-0.467c-0.234-0.209-0.42-0.469-0.553-0.781c-0.133-0.311-0.199-0.676-0.199-1.096v-5.045h0.624v5.045
		c0,0.328,0.049,0.613,0.147,0.859c0.1,0.244,0.237,0.449,0.414,0.611c0.178,0.164,0.387,0.287,0.631,0.371s0.511,0.125,0.801,0.125
		c0.289,0,0.556-0.041,0.8-0.125c0.243-0.084,0.453-0.207,0.628-0.371c0.175-0.162,0.313-0.367,0.412-0.611
		c0.099-0.246,0.148-0.531,0.148-0.859v-5.045H398.902z"/>
	<path fill="#939598" d="M406.198,823.003h-0.63l-4.277-6.371v6.371h-0.634v-7.443h0.634l4.284,6.375v-6.375h0.623V823.003z"/>
	<path fill="#939598" d="M412.2,819.435h-3.481v3.035h4.004v0.533h-4.633v-7.443h4.605v0.535h-3.978v2.807h3.481L412.2,819.435
		L412.2,819.435z"/>
</g>
<g>
	<path fill="#939598" d="M542.356,821.173c0-0.205-0.033-0.389-0.101-0.545c-0.066-0.158-0.179-0.305-0.337-0.436
		c-0.159-0.131-0.367-0.252-0.627-0.359c-0.259-0.109-0.583-0.219-0.971-0.328c-0.375-0.105-0.713-0.221-1.014-0.346
		c-0.3-0.125-0.555-0.27-0.765-0.438c-0.209-0.166-0.371-0.359-0.485-0.578c-0.113-0.217-0.171-0.473-0.171-0.766
		c0-0.287,0.062-0.549,0.185-0.783s0.295-0.438,0.517-0.605c0.223-0.168,0.485-0.299,0.792-0.393
		c0.308-0.094,0.644-0.141,1.008-0.141c0.393,0,0.745,0.057,1.062,0.174c0.313,0.113,0.584,0.273,0.805,0.475
		c0.223,0.201,0.394,0.438,0.512,0.705c0.119,0.27,0.18,0.561,0.18,0.869h-0.634c0-0.242-0.044-0.465-0.128-0.672
		c-0.086-0.207-0.211-0.385-0.373-0.533c-0.163-0.15-0.364-0.268-0.604-0.354c-0.238-0.086-0.512-0.129-0.817-0.129
		c-0.307,0-0.576,0.037-0.811,0.109c-0.234,0.074-0.428,0.172-0.583,0.297s-0.272,0.271-0.353,0.438
		c-0.082,0.168-0.12,0.346-0.12,0.531c0,0.178,0.032,0.342,0.1,0.49c0.066,0.15,0.178,0.289,0.335,0.418
		c0.156,0.127,0.363,0.246,0.618,0.357c0.255,0.109,0.571,0.215,0.946,0.313c0.392,0.109,0.739,0.23,1.048,0.359
		c0.307,0.129,0.564,0.281,0.775,0.457c0.212,0.176,0.372,0.377,0.481,0.605c0.107,0.229,0.163,0.492,0.163,0.791
		c0,0.305-0.064,0.576-0.191,0.816c-0.128,0.24-0.306,0.443-0.532,0.611c-0.226,0.166-0.495,0.295-0.81,0.383
		c-0.313,0.088-0.654,0.133-1.021,0.133c-0.223,0-0.444-0.02-0.667-0.057c-0.225-0.037-0.438-0.096-0.646-0.172
		c-0.206-0.076-0.397-0.176-0.578-0.295c-0.179-0.117-0.334-0.26-0.465-0.426s-0.235-0.354-0.312-0.566
		c-0.077-0.215-0.115-0.451-0.115-0.715h0.629c0,0.314,0.063,0.578,0.193,0.797c0.13,0.217,0.297,0.391,0.5,0.521
		c0.205,0.135,0.437,0.23,0.691,0.289c0.255,0.061,0.511,0.09,0.768,0.09c0.288,0,0.553-0.033,0.788-0.1
		c0.237-0.066,0.44-0.16,0.608-0.283c0.169-0.123,0.299-0.27,0.389-0.443C542.31,821.573,542.356,821.384,542.356,821.173z"/>
	<path fill="#939598" d="M549.396,816.095h-2.553v6.908h-0.628v-6.908h-2.547v-0.535h5.728V816.095z"/>
	<path fill="#939598" d="M554.211,820.917h-3.38l-0.766,2.086h-0.66l2.815-7.443h0.6l2.815,7.443h-0.652L554.211,820.917z
		 M551.026,820.38h2.984l-1.492-4.055L551.026,820.38z"/>
	<path fill="#939598" d="M559.513,819.903h-2.162v3.1h-0.635v-7.443h2.418c0.39,0,0.738,0.047,1.052,0.143
		c0.312,0.096,0.577,0.236,0.798,0.422c0.22,0.186,0.388,0.414,0.506,0.688s0.177,0.586,0.177,0.941
		c0,0.244-0.038,0.477-0.113,0.691c-0.074,0.217-0.181,0.412-0.315,0.586c-0.138,0.174-0.299,0.324-0.488,0.449
		c-0.188,0.127-0.397,0.223-0.627,0.291l1.861,3.166v0.066h-0.67L559.513,819.903z M557.351,819.366h1.927
		c0.291,0,0.545-0.045,0.765-0.133s0.403-0.207,0.55-0.354c0.147-0.148,0.257-0.32,0.33-0.518c0.072-0.195,0.109-0.398,0.109-0.611
		c0-0.256-0.04-0.484-0.122-0.689s-0.204-0.379-0.366-0.521c-0.161-0.143-0.36-0.252-0.595-0.328
		c-0.235-0.078-0.507-0.115-0.813-0.115h-1.783L557.351,819.366L557.351,819.366z"/>
	<path fill="#939598" d="M567.59,821.173c0-0.205-0.033-0.389-0.101-0.545c-0.066-0.158-0.18-0.305-0.337-0.436
		c-0.158-0.131-0.367-0.252-0.626-0.359c-0.259-0.109-0.583-0.219-0.973-0.328c-0.374-0.105-0.712-0.221-1.012-0.346
		s-0.555-0.27-0.765-0.438c-0.209-0.166-0.371-0.359-0.485-0.578c-0.114-0.217-0.171-0.473-0.171-0.766
		c0-0.287,0.061-0.549,0.184-0.783s0.295-0.438,0.517-0.605s0.485-0.299,0.793-0.393c0.307-0.094,0.643-0.141,1.007-0.141
		c0.392,0,0.746,0.057,1.063,0.174c0.313,0.113,0.582,0.273,0.805,0.475c0.222,0.203,0.393,0.438,0.512,0.705
		c0.119,0.27,0.179,0.561,0.179,0.869h-0.634c0-0.242-0.043-0.465-0.128-0.672s-0.21-0.385-0.374-0.533
		c-0.163-0.15-0.364-0.268-0.603-0.354s-0.512-0.129-0.818-0.129s-0.577,0.037-0.81,0.109c-0.234,0.074-0.429,0.172-0.584,0.297
		c-0.154,0.125-0.271,0.271-0.354,0.438c-0.079,0.168-0.12,0.346-0.12,0.531c0,0.178,0.033,0.342,0.102,0.49
		c0.065,0.15,0.178,0.289,0.334,0.418c0.156,0.127,0.362,0.246,0.619,0.357c0.256,0.109,0.57,0.215,0.945,0.313
		c0.392,0.109,0.74,0.23,1.048,0.359c0.307,0.129,0.565,0.281,0.776,0.457c0.212,0.176,0.372,0.377,0.479,0.605
		c0.109,0.229,0.164,0.492,0.164,0.791c0,0.305-0.063,0.576-0.19,0.816c-0.128,0.24-0.306,0.443-0.532,0.611
		c-0.226,0.166-0.497,0.295-0.811,0.383s-0.654,0.133-1.022,0.133c-0.221,0-0.442-0.02-0.667-0.057
		c-0.224-0.037-0.438-0.096-0.644-0.172c-0.207-0.076-0.399-0.176-0.578-0.295c-0.179-0.117-0.334-0.26-0.465-0.426
		s-0.235-0.354-0.313-0.566c-0.076-0.215-0.114-0.451-0.114-0.715h0.63c0,0.314,0.063,0.578,0.192,0.797
		c0.13,0.217,0.297,0.391,0.501,0.521c0.205,0.135,0.437,0.23,0.69,0.289c0.256,0.061,0.511,0.09,0.767,0.09
		c0.29,0,0.555-0.033,0.79-0.1c0.237-0.066,0.44-0.16,0.608-0.283c0.169-0.123,0.299-0.27,0.389-0.443
		C567.544,821.573,567.59,821.384,567.59,821.173z"/>
</g>
<g>
	<path fill="#939598" d="M704.021,820.681c-0.041,0.379-0.13,0.719-0.267,1.018c-0.136,0.301-0.317,0.555-0.549,0.764
		c-0.231,0.207-0.506,0.365-0.828,0.477s-0.688,0.166-1.097,0.166c-0.423,0-0.807-0.08-1.15-0.24
		c-0.344-0.158-0.64-0.387-0.885-0.682s-0.436-0.648-0.567-1.061c-0.132-0.414-0.198-0.869-0.198-1.371v-0.936
		c0-0.502,0.065-0.959,0.198-1.373s0.324-0.768,0.571-1.061s0.545-0.521,0.896-0.684c0.353-0.16,0.745-0.242,1.183-0.242
		c0.395,0,0.752,0.055,1.067,0.164c0.316,0.107,0.591,0.268,0.815,0.479c0.229,0.209,0.409,0.465,0.548,0.768
		c0.138,0.301,0.226,0.643,0.262,1.023h-0.634c-0.037-0.299-0.104-0.566-0.204-0.805c-0.099-0.236-0.23-0.438-0.399-0.598
		c-0.169-0.158-0.373-0.281-0.613-0.367c-0.241-0.084-0.521-0.127-0.842-0.127c-0.348,0-0.658,0.066-0.932,0.201
		c-0.271,0.135-0.505,0.324-0.694,0.57c-0.191,0.244-0.336,0.541-0.438,0.887c-0.101,0.348-0.15,0.73-0.15,1.152v0.945
		c0,0.41,0.048,0.787,0.143,1.133c0.097,0.346,0.235,0.645,0.419,0.896c0.186,0.25,0.411,0.443,0.682,0.584
		c0.27,0.141,0.576,0.211,0.926,0.211c0.657,0,1.153-0.158,1.487-0.475c0.334-0.314,0.54-0.787,0.617-1.418H704.021L704.021,820.681
		z"/>
	<path fill="#939598" d="M711.051,819.685c0,0.52-0.067,0.992-0.205,1.414c-0.136,0.42-0.329,0.779-0.579,1.076
		c-0.25,0.295-0.556,0.523-0.913,0.688c-0.357,0.162-0.757,0.242-1.195,0.242c-0.438,0-0.832-0.08-1.188-0.242
		c-0.355-0.162-0.663-0.393-0.918-0.688c-0.256-0.297-0.453-0.656-0.593-1.076c-0.141-0.422-0.21-0.895-0.21-1.414v-0.797
		c0-0.521,0.069-0.994,0.21-1.416c0.14-0.424,0.335-0.783,0.588-1.082c0.252-0.299,0.557-0.529,0.913-0.689
		c0.356-0.162,0.751-0.242,1.188-0.242c0.438,0,0.839,0.08,1.195,0.242c0.358,0.16,0.664,0.393,0.918,0.689
		c0.255,0.299,0.449,0.658,0.585,1.082c0.138,0.422,0.205,0.895,0.205,1.416L711.051,819.685L711.051,819.685z M710.422,818.876
		c0-0.439-0.052-0.838-0.153-1.191c-0.103-0.354-0.251-0.654-0.444-0.902c-0.194-0.246-0.434-0.438-0.715-0.57
		c-0.283-0.137-0.604-0.203-0.963-0.203c-0.351,0-0.666,0.066-0.946,0.203c-0.281,0.135-0.521,0.324-0.716,0.57
		c-0.196,0.248-0.347,0.549-0.449,0.902c-0.104,0.354-0.157,0.752-0.157,1.191v0.809c0,0.443,0.053,0.842,0.158,1.195
		c0.104,0.354,0.257,0.656,0.455,0.904c0.197,0.248,0.438,0.439,0.719,0.572s0.597,0.199,0.948,0.199
		c0.361,0,0.683-0.066,0.964-0.199s0.519-0.324,0.711-0.572s0.339-0.551,0.439-0.904c0.1-0.354,0.149-0.752,0.149-1.195V818.876
		L710.422,818.876z"/>
	<path fill="#939598" d="M713.469,815.56l2.745,6.568l2.756-6.568h0.838v7.443h-0.629v-3.252l0.052-3.314l-2.771,6.564h-0.485
		l-2.761-6.539l0.052,3.287v3.252h-0.629v-7.443h0.833V815.56z"/>
	<path fill="#939598" d="M725.805,819.435h-3.48v3.035h4.002v0.533h-4.631v-7.443h4.604v0.535h-3.977v2.807h3.48L725.805,819.435
		L725.805,819.435z"/>
	<path fill="#939598" d="M732.804,816.095h-2.552v6.908h-0.629v-6.908h-2.546v-0.535h5.727V816.095L732.804,816.095z"/>
</g>
<g>
	<path fill="#939598" d="M820.95,819.685c0,0.52-0.068,0.992-0.205,1.414c-0.136,0.42-0.331,0.779-0.581,1.076
		c-0.25,0.295-0.554,0.523-0.911,0.688c-0.358,0.162-0.757,0.242-1.196,0.242c-0.437,0-0.834-0.08-1.188-0.242
		c-0.356-0.162-0.661-0.393-0.917-0.688c-0.256-0.297-0.454-0.656-0.593-1.076c-0.142-0.422-0.21-0.895-0.21-1.414v-0.797
		c0-0.521,0.068-0.994,0.21-1.416c0.139-0.424,0.335-0.783,0.588-1.082c0.252-0.299,0.555-0.529,0.912-0.689
		c0.354-0.162,0.752-0.242,1.188-0.242c0.44,0,0.839,0.08,1.196,0.242c0.357,0.16,0.663,0.393,0.917,0.689
		c0.254,0.299,0.45,0.658,0.586,1.082c0.137,0.422,0.205,0.895,0.205,1.416V819.685L820.95,819.685z M820.321,818.876
		c0-0.439-0.053-0.838-0.153-1.191c-0.104-0.354-0.251-0.654-0.445-0.902c-0.192-0.246-0.433-0.438-0.716-0.57
		c-0.282-0.137-0.603-0.203-0.961-0.203c-0.351,0-0.668,0.066-0.948,0.203c-0.28,0.135-0.521,0.324-0.717,0.57
		c-0.195,0.248-0.346,0.549-0.449,0.902s-0.154,0.752-0.154,1.191v0.809c0,0.443,0.053,0.842,0.157,1.195
		c0.105,0.354,0.259,0.656,0.455,0.904c0.198,0.248,0.438,0.439,0.719,0.572c0.28,0.133,0.598,0.199,0.948,0.199
		c0.361,0,0.683-0.066,0.963-0.199c0.281-0.133,0.519-0.324,0.712-0.572c0.19-0.248,0.339-0.551,0.438-0.904
		s0.151-0.752,0.151-1.195V818.876L820.321,818.876z"/>
	<path fill="#939598" d="M827.662,815.56v5.045c0,0.42-0.07,0.785-0.208,1.096c-0.138,0.314-0.325,0.572-0.563,0.781
		c-0.236,0.207-0.516,0.363-0.834,0.467c-0.317,0.105-0.656,0.156-1.019,0.156c-0.372,0-0.718-0.053-1.036-0.156
		s-0.595-0.26-0.83-0.467c-0.235-0.209-0.419-0.469-0.553-0.781c-0.132-0.311-0.199-0.676-0.199-1.096v-5.045h0.624v5.045
		c0,0.328,0.05,0.613,0.148,0.859c0.098,0.244,0.236,0.449,0.414,0.611c0.177,0.164,0.387,0.287,0.63,0.371
		c0.244,0.084,0.512,0.125,0.802,0.125s0.556-0.041,0.799-0.125c0.244-0.084,0.453-0.207,0.629-0.371
		c0.177-0.162,0.313-0.367,0.413-0.611c0.099-0.246,0.147-0.531,0.147-0.859v-5.045H827.662z"/>
	<path fill="#939598" d="M834.466,816.095h-2.551v6.908h-0.629v-6.908h-2.546v-0.535h5.726V816.095L834.466,816.095z"/>
	<path fill="#939598" d="M839.778,819.435h-3.481v3.035h4.003v0.533h-4.632v-7.443h4.606v0.535h-3.979v2.807h3.481L839.778,819.435
		L839.778,819.435z"/>
	<path fill="#939598" d="M844.405,819.903h-2.163v3.1h-0.633v-7.443h2.417c0.39,0,0.737,0.047,1.05,0.143s0.578,0.236,0.798,0.422
		s0.389,0.414,0.507,0.688c0.117,0.273,0.176,0.586,0.176,0.941c0,0.244-0.037,0.477-0.11,0.691
		c-0.075,0.217-0.183,0.412-0.317,0.586c-0.137,0.174-0.3,0.324-0.489,0.449c-0.188,0.127-0.396,0.223-0.625,0.291l1.86,3.166v0.066
		h-0.669L844.405,819.903z M842.242,819.366h1.928c0.289,0,0.543-0.045,0.764-0.133s0.403-0.207,0.552-0.354
		c0.146-0.148,0.255-0.32,0.327-0.518c0.073-0.197,0.111-0.398,0.111-0.611c0-0.256-0.041-0.484-0.123-0.689
		s-0.205-0.379-0.366-0.521s-0.359-0.252-0.595-0.328c-0.234-0.078-0.506-0.115-0.813-0.115h-1.784L842.242,819.366L842.242,819.366
		z"/>
	<path fill="#939598" d="M855.028,821.173c0-0.205-0.034-0.389-0.102-0.545c-0.066-0.158-0.179-0.305-0.338-0.436
		c-0.158-0.131-0.365-0.252-0.625-0.359c-0.259-0.109-0.582-0.219-0.971-0.328c-0.375-0.105-0.713-0.221-1.013-0.346
		c-0.301-0.125-0.557-0.27-0.766-0.438c-0.21-0.166-0.372-0.359-0.486-0.578c-0.113-0.217-0.17-0.473-0.17-0.766
		c0-0.287,0.062-0.549,0.185-0.783s0.295-0.438,0.517-0.605c0.223-0.168,0.485-0.299,0.792-0.393
		c0.308-0.094,0.644-0.141,1.008-0.141c0.393,0,0.744,0.057,1.061,0.174c0.314,0.113,0.585,0.273,0.806,0.475
		c0.224,0.201,0.394,0.438,0.513,0.705c0.118,0.27,0.179,0.561,0.179,0.869h-0.634c0-0.242-0.043-0.465-0.128-0.672
		s-0.21-0.385-0.373-0.533c-0.163-0.15-0.364-0.268-0.604-0.354c-0.237-0.086-0.511-0.129-0.816-0.129
		c-0.307,0-0.578,0.037-0.813,0.109c-0.234,0.074-0.428,0.172-0.583,0.297s-0.271,0.271-0.353,0.438
		c-0.081,0.168-0.119,0.346-0.119,0.531c0,0.178,0.031,0.342,0.099,0.49c0.066,0.15,0.179,0.289,0.336,0.418
		c0.156,0.127,0.363,0.246,0.619,0.357c0.255,0.109,0.57,0.215,0.945,0.313c0.392,0.109,0.74,0.23,1.048,0.359
		c0.307,0.129,0.564,0.281,0.776,0.457c0.211,0.176,0.371,0.377,0.48,0.605c0.107,0.229,0.163,0.492,0.163,0.791
		c0,0.305-0.064,0.576-0.192,0.816s-0.305,0.443-0.531,0.611c-0.228,0.166-0.495,0.295-0.81,0.383
		c-0.313,0.088-0.654,0.133-1.021,0.133c-0.223,0-0.445-0.02-0.669-0.057s-0.438-0.096-0.645-0.172
		c-0.206-0.076-0.398-0.176-0.577-0.295c-0.18-0.117-0.334-0.26-0.466-0.426c-0.131-0.166-0.235-0.354-0.313-0.566
		c-0.076-0.215-0.113-0.451-0.113-0.715h0.629c0,0.314,0.064,0.578,0.193,0.797c0.131,0.217,0.298,0.391,0.501,0.521
		c0.204,0.135,0.436,0.23,0.69,0.289c0.255,0.061,0.511,0.09,0.767,0.09c0.289,0,0.553-0.033,0.788-0.1
		c0.237-0.066,0.44-0.16,0.609-0.283c0.168-0.123,0.298-0.27,0.389-0.443C854.982,821.573,855.028,821.384,855.028,821.173z"/>
	<path fill="#939598" d="M857.645,819.97v3.033h-0.628v-7.443h2.535c0.409,0,0.77,0.053,1.08,0.162
		c0.313,0.109,0.574,0.262,0.786,0.459c0.211,0.195,0.369,0.43,0.479,0.701c0.105,0.273,0.161,0.572,0.161,0.9
		c0,0.344-0.056,0.65-0.161,0.922c-0.108,0.271-0.268,0.5-0.478,0.689c-0.209,0.188-0.471,0.33-0.783,0.43s-0.675,0.146-1.084,0.146
		H857.645z M857.645,819.438h1.907c0.33,0,0.615-0.043,0.854-0.125c0.237-0.084,0.434-0.201,0.583-0.348
		c0.149-0.148,0.261-0.324,0.332-0.525c0.07-0.201,0.107-0.416,0.107-0.648c0-0.229-0.037-0.445-0.107-0.65
		c-0.071-0.207-0.183-0.387-0.332-0.543c-0.149-0.154-0.345-0.277-0.583-0.367c-0.238-0.092-0.523-0.137-0.854-0.137h-1.907V819.438
		z"/>
	<path fill="#939598" d="M866.776,820.917h-3.38l-0.767,2.086h-0.66l2.817-7.443h0.598l2.817,7.443h-0.654L866.776,820.917z
		 M863.591,820.38h2.985l-1.493-4.055L863.591,820.38z"/>
	<path fill="#939598" d="M874.511,820.681c-0.041,0.379-0.13,0.719-0.266,1.018c-0.137,0.301-0.32,0.555-0.551,0.764
		c-0.231,0.207-0.507,0.365-0.828,0.477c-0.322,0.111-0.688,0.166-1.097,0.166c-0.424,0-0.807-0.08-1.149-0.24
		c-0.343-0.158-0.64-0.387-0.885-0.682s-0.436-0.648-0.567-1.061c-0.134-0.412-0.2-0.869-0.2-1.371v-0.936
		c0-0.502,0.066-0.959,0.2-1.373c0.133-0.414,0.322-0.768,0.569-1.061c0.245-0.293,0.547-0.521,0.897-0.684
		c0.352-0.16,0.744-0.242,1.18-0.242c0.396,0,0.752,0.055,1.068,0.164c0.318,0.107,0.589,0.268,0.815,0.479
		c0.227,0.209,0.408,0.465,0.547,0.768c0.138,0.301,0.227,0.643,0.265,1.023h-0.635c-0.037-0.299-0.105-0.566-0.204-0.805
		c-0.099-0.236-0.233-0.438-0.401-0.598c-0.17-0.158-0.374-0.281-0.613-0.367c-0.24-0.084-0.521-0.127-0.842-0.127
		c-0.348,0-0.655,0.066-0.93,0.201c-0.273,0.135-0.504,0.324-0.695,0.57c-0.19,0.244-0.338,0.541-0.438,0.887
		c-0.102,0.348-0.15,0.73-0.15,1.152v0.945c0,0.41,0.047,0.787,0.145,1.133c0.095,0.346,0.234,0.645,0.419,0.896
		c0.184,0.25,0.41,0.443,0.68,0.584c0.271,0.141,0.578,0.211,0.926,0.211c0.658,0,1.153-0.158,1.487-0.475
		c0.334-0.314,0.54-0.787,0.618-1.418H874.511L874.511,820.681z"/>
	<path fill="#939598" d="M880.15,819.435h-3.481v3.035h4.003v0.533h-4.632v-7.443h4.606v0.535h-3.979v2.807h3.481L880.15,819.435
		L880.15,819.435z"/>
	<path fill="#939598" d="M888.641,819.524h-3.472v3.479h-0.629v-7.443h4.611v0.535h-3.982v2.895h3.472V819.524z"/>
	<path fill="#939598" d="M893.211,819.903h-2.163v3.1h-0.633v-7.443h2.418c0.389,0,0.737,0.047,1.049,0.143
		c0.313,0.096,0.578,0.236,0.799,0.422c0.22,0.186,0.389,0.414,0.507,0.688c0.116,0.273,0.177,0.586,0.177,0.941
		c0,0.244-0.038,0.477-0.112,0.691c-0.075,0.217-0.181,0.412-0.317,0.586c-0.136,0.174-0.3,0.324-0.488,0.449
		c-0.188,0.127-0.396,0.223-0.625,0.291l1.86,3.166v0.066h-0.67L893.211,819.903z M891.048,819.366h1.928
		c0.29,0,0.544-0.045,0.765-0.133s0.403-0.207,0.551-0.354c0.146-0.148,0.256-0.32,0.328-0.518c0.074-0.195,0.111-0.398,0.111-0.611
		c0-0.256-0.041-0.484-0.123-0.689s-0.205-0.379-0.366-0.521s-0.359-0.252-0.595-0.328c-0.234-0.078-0.507-0.115-0.813-0.115h-1.785
		V819.366L891.048,819.366z"/>
	<path fill="#939598" d="M897.843,823.003h-0.629v-7.443h0.629V823.003z"/>
	<path fill="#939598" d="M903.973,819.435h-3.48v3.035h4.002v0.533h-4.631v-7.443h4.604v0.535h-3.977v2.807h3.48L903.973,819.435
		L903.973,819.435z"/>
	<path fill="#939598" d="M911.361,823.003h-0.629l-4.279-6.371v6.371h-0.635v-7.443h0.635l4.284,6.375v-6.375h0.624V823.003z"/>
	<path fill="#939598" d="M913.251,823.003v-7.443h2.081c0.464,0,0.89,0.08,1.28,0.24c0.389,0.16,0.726,0.387,1.006,0.684
		c0.281,0.297,0.502,0.654,0.658,1.068c0.155,0.416,0.234,0.881,0.234,1.391v0.68c0,0.514-0.079,0.977-0.234,1.393
		c-0.156,0.416-0.377,0.77-0.66,1.064c-0.282,0.295-0.621,0.523-1.017,0.684s-0.832,0.24-1.31,0.24H913.251L913.251,823.003z
		 M913.88,816.095v6.375h1.411c0.399,0,0.759-0.068,1.079-0.207c0.32-0.137,0.593-0.332,0.817-0.582
		c0.226-0.25,0.396-0.551,0.519-0.9c0.122-0.348,0.182-0.734,0.182-1.158v-0.693c0-0.43-0.061-0.818-0.184-1.168
		s-0.297-0.646-0.521-0.893s-0.49-0.436-0.805-0.57c-0.313-0.135-0.663-0.201-1.048-0.201h-1.451V816.095z"/>
	<path fill="#939598" d="M924.32,821.173c0-0.205-0.034-0.389-0.101-0.545c-0.067-0.158-0.18-0.305-0.338-0.436
		c-0.159-0.131-0.367-0.252-0.626-0.359c-0.259-0.109-0.583-0.219-0.972-0.328c-0.374-0.105-0.712-0.221-1.012-0.346
		c-0.301-0.125-0.557-0.27-0.767-0.438c-0.209-0.166-0.371-0.359-0.484-0.578c-0.114-0.217-0.172-0.473-0.172-0.766
		c0-0.287,0.063-0.549,0.186-0.783s0.295-0.438,0.517-0.605s0.485-0.299,0.793-0.393s0.643-0.141,1.007-0.141
		c0.393,0,0.745,0.057,1.061,0.174c0.314,0.113,0.584,0.273,0.806,0.475c0.223,0.203,0.393,0.438,0.512,0.705
		c0.118,0.27,0.18,0.561,0.18,0.869h-0.634c0-0.242-0.042-0.465-0.128-0.672s-0.21-0.385-0.373-0.533
		c-0.164-0.15-0.365-0.268-0.604-0.354c-0.238-0.086-0.512-0.129-0.817-0.129c-0.307,0-0.577,0.037-0.812,0.109
		c-0.233,0.074-0.428,0.172-0.583,0.297s-0.271,0.271-0.353,0.438c-0.081,0.168-0.119,0.346-0.119,0.531
		c0,0.178,0.031,0.342,0.099,0.49c0.066,0.15,0.179,0.289,0.336,0.418c0.157,0.127,0.362,0.246,0.618,0.357
		c0.256,0.109,0.57,0.215,0.945,0.313c0.393,0.109,0.742,0.23,1.049,0.359s0.565,0.281,0.777,0.457
		c0.211,0.176,0.37,0.377,0.479,0.605s0.163,0.492,0.163,0.791c0,0.305-0.064,0.576-0.192,0.816s-0.305,0.443-0.53,0.611
		c-0.227,0.166-0.496,0.295-0.812,0.383c-0.313,0.088-0.654,0.133-1.021,0.133c-0.224,0-0.445-0.02-0.668-0.057
		c-0.225-0.037-0.438-0.096-0.646-0.172c-0.206-0.076-0.397-0.176-0.578-0.295c-0.179-0.117-0.334-0.26-0.465-0.426
		s-0.234-0.354-0.313-0.566c-0.075-0.215-0.112-0.451-0.112-0.715h0.629c0,0.314,0.063,0.578,0.193,0.797
		c0.13,0.217,0.297,0.391,0.502,0.521c0.204,0.135,0.434,0.23,0.688,0.289c0.255,0.061,0.512,0.09,0.769,0.09
		c0.289,0,0.552-0.033,0.789-0.1c0.235-0.066,0.438-0.16,0.606-0.283c0.17-0.123,0.299-0.27,0.389-0.443
		C924.274,821.573,924.32,821.384,924.32,821.173z"/>
	<path fill="#939598" d="M931.825,823.003h-0.634v-3.568h-4.254v3.568h-0.63v-7.443h0.63v3.342h4.254v-3.342h0.634V823.003z"/>
	<path fill="#939598" d="M934.483,823.003h-0.628v-7.443h0.628V823.003z"/>
	<path fill="#939598" d="M937.13,819.97v3.033h-0.629v-7.443h2.537c0.408,0,0.768,0.053,1.08,0.162
		c0.312,0.109,0.574,0.262,0.785,0.459c0.211,0.195,0.37,0.43,0.478,0.701c0.107,0.273,0.161,0.572,0.161,0.9
		c0,0.344-0.054,0.65-0.161,0.922c-0.106,0.271-0.267,0.5-0.476,0.689c-0.209,0.188-0.472,0.33-0.784,0.43
		c-0.313,0.1-0.675,0.146-1.083,0.146H937.13z M937.13,819.438h1.908c0.33,0,0.615-0.043,0.854-0.125
		c0.238-0.084,0.434-0.201,0.582-0.348c0.15-0.148,0.263-0.324,0.333-0.525c0.071-0.201,0.107-0.416,0.107-0.648
		c0-0.229-0.036-0.445-0.107-0.65c-0.07-0.207-0.183-0.387-0.333-0.543c-0.148-0.154-0.344-0.277-0.582-0.367
		c-0.237-0.092-0.522-0.137-0.854-0.137h-1.908V819.438z"/>
</g>
</svg>
