<?xml version="1.0" encoding="utf-8"?>
<!-- Generator: Adobe Illustrator 16.0.0, SVG Export Plug-In . SVG Version: 6.00 Build 0)  -->
<!DOCTYPE svg PUBLIC "-//W3C//DTD SVG 1.1//EN" "http://www.w3.org/Graphics/SVG/1.1/DTD/svg11.dtd">
<svg version="1.1" id="Space" xmlns="http://www.w3.org/2000/svg" xmlns:xlink="http://www.w3.org/1999/xlink" x="0px" y="0px"
	 width="128px" height="120.881px" viewBox="0 0 128 120.881" enable-background="new 0 0 128 120.881" xml:space="preserve">
<g>
	<rect x="53.876" y="22.947" fill="#EF4F4D" width="1.021" height="11.496"/>
	<rect x="73.67" y="22.947" fill="#A73935" width="1.021" height="11.496"/>
	<path fill="#EF4F4D" d="M57.417,48.27c0,0.436-0.353,0.789-0.788,0.789H45.323c-0.436,0-0.789-0.353-0.789-0.789v-8.397
		c0-0.436,0.354-0.789,0.789-0.789h11.306c0.437,0,0.788,0.353,0.788,0.789V48.27z"/>
	<path fill="#A73935" d="M84.032,48.27c0,0.436-0.354,0.789-0.789,0.789H71.938c-0.437,0-0.788-0.353-0.788-0.789v-8.397
		c0-0.436,0.353-0.789,0.788-0.789h11.306c0.437,0,0.789,0.353,0.789,0.789V48.27z"/>
	<path fill="#EF4F4D" d="M47.99,85.657v12.523c0,2.342,1.898,4.24,4.241,4.24V85.657H47.99z"/>
	<path fill="#A73935" d="M52.232,85.657v16.766c2.342,0,4.24-1.899,4.24-4.241V85.657H52.232z"/>
	<path fill="#EF4F4D" d="M72.096,85.657v12.523c0,2.342,1.897,4.24,4.239,4.24V85.657H72.096z"/>
	<path fill="#A73935" d="M76.335,85.657v16.766c2.344,0,4.241-1.899,4.241-4.241V85.657H76.335z"/>
	<path fill="#EF4F4D" d="M60.042,85.657v12.523c0,2.342,1.898,4.24,4.241,4.24V85.657H60.042z"/>
	<path fill="#A73935" d="M64.283,85.657v16.766c2.343,0,4.241-1.899,4.241-4.241V85.657H64.283z"/>
	<path fill="#FFFFFF" d="M43.75,60.138c-2.147,0-3.891,1.742-3.891,3.891s1.742,3.891,3.891,3.891V60.138z"/>
	<rect x="64.283" y="53.925" fill="#A73935" width="16.293" height="5.491"/>
	<rect x="64.283" y="49.847" fill="#2A2761" width="12.349" height="4.079"/>
	<rect x="47.99" y="53.925" fill="#EF4F4D" width="16.293" height="5.491"/>
	<rect x="64.283" y="59.417" fill="#C5C5C5" width="16.294" height="34.029"/>
	<rect x="47.99" y="59.417" fill="#FFFFFF" width="16.293" height="34.029"/>
	<rect x="51.936" y="49.847" fill="#3A3A77" width="12.349" height="4.079"/>
	<path fill="#C5C5C5" d="M64.283,28.783v16.293v4.771h16.293v-4.771C80.576,36.077,73.281,28.783,64.283,28.783z"/>
	<path fill="#FFFFFF" d="M47.99,45.076v4.771h16.293v-4.771V28.783C55.285,28.783,47.99,36.077,47.99,45.076z"/>
	<circle opacity="0.2" enable-background="new    " cx="64.283" cy="76.432" r="12.437"/>
	<path fill="#A73935" d="M73.367,76.432c0-5.017-4.066-9.083-9.084-9.083v9.083H73.367z"/>
	<path fill="#EF4F4D" d="M64.283,67.348c-5.017,0-9.083,4.067-9.083,9.083h9.083V67.348z"/>
	<path fill="#A73935" d="M55.2,76.432c0,5.017,4.066,9.083,9.083,9.083v-9.083H55.2z"/>
	<path fill="#7F2D2D" d="M64.283,76.432v9.083c5.018,0,9.084-4.066,9.084-9.083H64.283z"/>
	<path fill="#EF4F4D" d="M47.99,83.38c0,1.172-0.949,2.121-2.12,2.121l0,0c-1.171,0-2.12-0.949-2.12-2.121V60.04
		c0-1.17,0.949-2.121,2.12-2.121l0,0c1.171,0,2.12,0.949,2.12,2.121V83.38z"/>
	<path fill="#EF4F4D" d="M50.866,90.78c-0.926,0-1.677-0.75-1.677-1.677c0-1.831-1.489-3.319-3.319-3.319s-3.318,1.488-3.318,3.319
		c0,0.927-0.751,1.677-1.678,1.677c-0.926,0-1.676-0.75-1.676-1.677c0-3.681,2.993-6.673,6.672-6.673
		c3.681,0,6.673,2.992,6.673,6.673C52.543,90.03,51.792,90.78,50.866,90.78z"/>
	<path fill="#C5C5C5" d="M84.854,60.138c2.147,0,3.891,1.742,3.891,3.891s-1.742,3.891-3.891,3.891V60.138z"/>
	<path fill="#A73935" d="M80.613,83.38c0,1.172,0.949,2.121,2.119,2.121l0,0c1.171,0,2.121-0.949,2.121-2.121V60.04
		c0-1.17-0.95-2.121-2.121-2.121l0,0c-1.17,0-2.119,0.949-2.119,2.121V83.38z"/>
	<path fill="#A73935" d="M87.729,90.78c-0.927,0-1.677-0.75-1.677-1.677c0-1.831-1.489-3.319-3.32-3.319
		c-1.83,0-3.319,1.488-3.319,3.319c0,0.927-0.75,1.677-1.677,1.677c-0.926,0-1.676-0.75-1.676-1.677
		c0-3.681,2.992-6.673,6.672-6.673s6.673,2.992,6.673,6.673C89.405,90.03,88.655,90.78,87.729,90.78z"/>
	<path fill="#57A6FF" d="M57.704,36.66c-2.667,0-4.83,2.163-4.83,4.831v8.356h11.409v-4.771V36.66H57.704z"/>
	<path fill="#3469D3" d="M70.863,36.66c2.667,0,4.83,2.163,4.83,4.831v8.356h-11.41v-4.771V36.66H70.863z"/>
	<circle fill="#FFFFFF" cx="54.387" cy="21.038" r="2.58"/>
	<circle fill="#C5C5C5" cx="74.182" cy="21.038" r="2.58"/>
	<circle fill="#FFFFFF" cx="56.731" cy="41.003" r="1.689"/>
	<circle fill="#FFFFFF" cx="63.366" cy="41.19" r="2.88"/>
</g>
</svg>
