<?xml version="1.0" encoding="utf-8"?>
<!-- Generator: Adobe Illustrator 16.0.0, SVG Export Plug-In . SVG Version: 6.00 Build 0)  -->
<!DOCTYPE svg PUBLIC "-//W3C//DTD SVG 1.1//EN" "http://www.w3.org/Graphics/SVG/1.1/DTD/svg11.dtd">
<svg version="1.1" id="Space" xmlns="http://www.w3.org/2000/svg" xmlns:xlink="http://www.w3.org/1999/xlink" x="0px" y="0px"
	 width="128px" height="120.881px" viewBox="0 0 128 120.881" enable-background="new 0 0 128 120.881" xml:space="preserve">
<g>
	<circle fill="#57A6FF" cx="63.204" cy="60.914" r="31.263"/>
	<path fill="#3469D3" d="M93.523,53.411c-0.157,12.596-10.402,22.76-23.035,22.76c-12.729,0-23.049-10.318-23.049-23.051
		c0-12.125,9.369-22.043,21.262-22.959l0.018-0.018c-1.792-0.318-3.633-0.494-5.516-0.494c-17.266,0-31.264,13.998-31.264,31.264
		c0,17.268,13.998,31.264,31.264,31.264c17.268,0,31.264-13.996,31.264-31.264c0-2.617-0.327-5.16-0.934-7.592L93.523,53.411z"/>
	<path fill="#3469D3" d="M93.523,53.411c-0.157,12.596-10.402,22.76-23.035,22.76c-12.729,0-23.049-10.318-23.049-23.051
		c0-12.125,9.369-22.043,21.262-22.959l0.018-0.018c-1.792-0.318-3.633-0.494-5.516-0.494c-17.266,0-31.264,13.998-31.264,31.264
		c0,17.268,13.998,31.264,31.264,31.264c17.268,0,31.264-13.996,31.264-31.264c0-2.617-0.327-5.16-0.934-7.592L93.523,53.411z"/>
	<g>
		<path fill="#FFFFFF" d="M88.971,62.985c-0.226-0.398-0.589-0.135-0.949-0.123C88.339,63.446,88.507,63.126,88.971,62.985z"/>
		<path fill="#FFFFFF" d="M74.148,66.937C74.225,67.667,74.85,66.581,74.148,66.937L74.148,66.937z"/>
		<path fill="#FFFFFF" d="M74.377,66.524C74.503,67.401,75.146,66.155,74.377,66.524L74.377,66.524z"/>
		<path fill="#FFFFFF" d="M67.189,41.858c0.24-0.244,0.762-0.229,0.949-0.471c0.293-0.381,0.006-0.672-0.248-0.896
			c-0.377-0.334-0.586-0.236-0.783-0.754c-0.158-0.416,0.633-0.25,0.791-0.166c0.56,0.299,0.512,0.326,0.94-0.145
			c-0.165-0.07-0.309-0.215-0.479-0.271c0.297-0.398,0.593-0.801,0.889-1.201c0.249-0.336-0.102-0.924-0.543-0.814
			c0.023-0.498,1.586-1.438,1.979-1.779c-0.646-0.699-1.623-0.566-2.283,0.094c0.093-0.205,0.187-0.412,0.279-0.619
			c-0.479-0.119-0.673-0.264-0.861,0.289c-0.301-0.445-0.832-0.232-1.275-0.184c0.178-0.604,1.531-0.35,2.03-0.367
			c-0.603-0.803-0.837-0.781-1.834-0.969c-0.358-0.066-1.718-0.332-1.455,0.352c-0.335-0.111-0.731-0.088-0.597-0.518
			c-0.396,0.082-0.815,0.047-0.861,0.551c0.175,0.063,0.352,0.123,0.525,0.186c-0.346,0.35-0.424,0.342-0.711,0.016
			c-0.226-0.254-0.541-0.275-0.863-0.369c0.007,0.338-0.035,0.488-0.348,0.488c-0.431,0-0.246-0.455-0.543-0.5
			c-0.437-0.064-1.68-0.357-1.591,0.465c-0.55-0.072-1.122-0.176-1.085,0.512c0.025,0.484-0.798,0.373-1.051,0.086
			c-0.492,0.801,0.052,0.957,0.822,0.863c0.008,0.635-0.961-0.137-1.186,0.426c0.025-0.063,0.285,0.699,0.313,0.732
			c0.359,0.469,0.269,0.285,0.799,0.213c0.609-0.082,1.072,0.209,1.302,0.828c0.353,0.947,0.402,1.057-0.034,1.963
			c0.338-0.057,0.963-0.27,0.902,0.301c-0.246,0.012-0.493,0.021-0.739,0.033c0.25,0.25,0.448,0.564,0.836,0.561
			c-0.683,0.91-1.22,1.457-0.853,2.615c0.057,0.18-0.163,0.336-0.105,0.514c0.08,0.248,0.127,0.576,0.258,0.801
			c0.211,0.361,0.543,0.748,0.969,0.5c-0.067,0.529,0.201,0.752,0.67,0.715c0.232-0.018,0.271-0.922,0.379-1.129
			c0.494-0.965,1.251-1.217,2.186-1.586c0.231-0.289,0.465-0.578,0.697-0.867c0.133-0.166,0.6,0.043,0.866,0.043
			C66.755,42.396,66.822,42.233,67.189,41.858z"/>
		<path fill="#FFFFFF" d="M67.645,40.122c0.213,0.107,0.429,0.217,0.644,0.322c0.036-0.502,0.137-0.555-0.345-0.697
			C67.661,39.663,67.318,39.856,67.645,40.122z"/>
		<path fill="#FFFFFF" d="M89.609,73.565c-0.07,0.094-0.185,0.193-0.229,0.301c-0.01,0.125,0.037,0.27,0.055,0.396
			c0.174-0.145,0.35-0.285,0.522-0.428C89.893,73.743,89.715,73.608,89.609,73.565z"/>
		<path fill="#FFFFFF" d="M88.699,73.983c-0.18,0.486,0.314,0.439,0.592,0.227C89.163,73.987,88.941,73.901,88.699,73.983z"/>
		<path fill="#FFFFFF" d="M86.751,71.954c-0.159,0.279-1.085-0.086-1.056,0.57c0.016,0.316,0.029,0.631,0.046,0.945
			c0.01,0.221-0.356,0.359-0.427,0.557c-0.119,0.332,0.043,1.229,0.459,1.365c0.595,0.199,0.974-0.391,0.884-0.848
			c-0.072-0.361,0.604-1.156,0.786-1.471c0.113-0.193,0.257-0.281,0.099-0.453c-0.327-0.355,0.263-0.346,0.267-0.354
			c0.215-0.43-0.08-1.107-0.242-1.541C87.184,70.774,86.936,71.63,86.751,71.954z"/>
		<path fill="#FFFFFF" d="M85.703,70.599c0.055,0.334,0.797,1.021,0.799,0.244c-0.113,0.043-0.254,0.01-0.365,0.053
			c0.063-0.094,0.063-0.229,0.123-0.324C86.074,70.579,85.889,70.589,85.703,70.599z"/>
		<path fill="#FFFFFF" d="M88.835,69.386c-0.124-0.066-0.262-0.184-0.397-0.215C88.158,69.489,88.62,69.837,88.835,69.386z"/>
		<path fill="#FFFFFF" d="M89.65,68.753c-0.073-0.191-0.147-0.385-0.221-0.574c-0.104,0.074-0.254,0.141-0.334,0.236
			C89.17,68.692,89.375,68.827,89.65,68.753z"/>
		<path fill="#FFFFFF" d="M89.693,69.278c0.259-0.801-0.682-0.416-0.297-0.055C89.496,69.243,89.594,69.263,89.693,69.278z"/>
		<path fill="#FFFFFF" d="M63.344,54.146c0.124,0.105,0.305,0.172,0.445,0.25C63.971,53.985,63.578,53.722,63.344,54.146z"/>
		<path fill="#FFFFFF" d="M64.104,54.005c0.19,0.104,0.183,0.186,0.389,0.172c-0.159,0.217-0.167,0.453,0.049,0.621
			c0.361-0.15,0.211-0.404-0.02-0.629c0.084-0.021,0.166-0.043,0.25-0.064C64.578,53.839,64.338,53.716,64.104,54.005z"/>
		<path fill="#FFFFFF" d="M65.666,54.847c-0.266-0.174-0.512-0.232-0.584,0.1C65.26,55.173,65.471,55.052,65.666,54.847z"/>
		<path fill="#FFFFFF" d="M67.247,56.228c0.108,0.262,0.305,0.277,0.507,0.084c-0.051-0.107-0.197-0.281-0.297-0.35
			C67.391,56.046,67.292,56.132,67.247,56.228z"/>
		<path fill="#FFFFFF" d="M68.182,58.276c0.088-0.172,0.178-0.344,0.266-0.516c-0.164,0.094-0.329,0.189-0.493,0.285
			C68.025,58.118,68.096,58.224,68.182,58.276z"/>
		<path fill="#FFFFFF" d="M67.251,57.978c0.078,0.24,0.265,0.357,0.511,0.293c0.008-0.371-0.187-0.479-0.508-0.297
			c0.023-0.055,0.047-0.109,0.071-0.162c-0.212-0.146-0.412-0.09-0.533,0.137c0.069,0.1,0.233,0.248,0.343,0.297
			C67.173,58.155,67.212,58.065,67.251,57.978z"/>
		<path fill="#FFFFFF" d="M65.462,62.108c-0.131-0.301-0.353-0.299-0.571-0.064C65.046,62.269,65.261,62.296,65.462,62.108z"/>
		<path fill="#FFFFFF" d="M65.505,62.276c0.08,0.326,0.304,0.326,0.548,0.113C65.904,62.108,65.697,61.999,65.505,62.276z"/>
		<path fill="#FFFFFF" d="M65.158,62.591c0.109,0.289,0.297,0.438,0.544,0.223c-0.034-0.113-0.152-0.324-0.236-0.408
			C65.372,62.462,65.232,62.509,65.158,62.591z"/>
		<path fill="#FFFFFF" d="M67.001,44.511c0.39,0.035,0.726,0.307,1.108,0.26c0.373-0.045,0.979-0.58,0.986-0.953
			c0.006-0.363-0.054-0.363-0.332-0.6c-0.378-0.32-0.181,0.125-0.455,0.105c-0.189-0.012-0.173-0.199-0.388-0.18
			c-0.241,0.023-0.427,0.246-0.587,0.422c0.611-1.229-1.695,0.199-0.57,0.146C66.396,44.231,67.146,43.976,67.001,44.511z"/>
		<path fill="#FFFFFF" d="M75.34,37.177c0.038-0.135,0.162-0.275,0.233-0.398c0.032,0.023,0.065,0.047,0.097,0.07
			c-0.236,0.408-0.277,0.795,0.045,1.16c0.225-0.377,0.436-0.732,0.713-1.07c0.217-0.262,0.342-0.268,0.081-0.494
			c-0.024-0.02-0.112-0.088-0.21-0.16c0.061,0.006,0.135-0.002,0.221-0.027c0.362,0.486,0.762,0.404,1.188,0.041
			c0.563-0.48-0.154-1.014-0.452-0.609c-0.206-0.27-0.413-0.186-0.491,0.146c-0.392-0.773-0.834-0.063-0.692,0.285
			c-0.056-0.035-0.097-0.063-0.108-0.063c-0.119-0.012-1.234,0.338-1.22,0.283C74.636,36.745,74.766,37.319,75.34,37.177z"/>
		<path fill="#FFFFFF" d="M76.768,37.062c-0.591,0.246,0.133,0.775,0.516,0.375C77.68,37.021,77.07,36.569,76.768,37.062z"/>
		<path fill="#FFFFFF" d="M84.471,40.03c0.188,0.002,0.504,0.566,0.709,0.172c0.26-0.498-0.199-0.367-0.326-0.811
			c-0.174-0.596-0.184-0.549-0.801-0.615c0.088,0.305,0.1,0.609-0.279,0.611C83.688,39.917,84.055,40.026,84.471,40.03z"/>
		<path fill="#FFFFFF" d="M81.82,55.931c0.168-0.158,0.334-0.316,0.5-0.475c-0.244-0.301-0.512,0.002-0.83,0.021
			C81.18,55.497,81.486,55.976,81.82,55.931z"/>
		<path fill="#FFFFFF" d="M70.909,47.673c0.014,0.123-0.011,0.258-0.017,0.383c-0.188-0.295-0.412-0.041-0.632-0.094
			c0.105,0.025-0.604,0.547-0.599,0.439c-0.002,0.045,0.081,0.514,0.079,0.521c-0.038,0.096-0.414,0.168-0.418,0.266
			c-0.015,0.324,0.317,0.492,0.62,0.377c0.334-0.127,0.85-0.162,0.906-0.539c0.027-0.184,0.022-0.678,0.2-0.762
			c0.441-0.209,0.503,0.488,0.327,0.51c-0.309,0.037-0.398,0.559-0.604,0.857c0.16-0.008,0.324,0.061,0.483,0.047
			c-0.262,0.15-0.524,0.305-0.786,0.455c0.42,0.385,0.809,0.049,1.235-0.146c0.407-0.186,0.792,0.23,1.077-0.342
			c-0.055-0.031-0.109-0.063-0.164-0.096c0.699-0.326-0.184-0.674-0.276-0.889c-0.114-0.268-0.237-0.521-0.372-0.781
			c-0.111-0.219,0.012-0.486-0.029-0.609c-0.056-0.168,0.125-0.307-0.118-0.307c-0.069,0-0.315,0.043-0.368-0.041
			c-0.047-0.076,0.441-0.461-0.025-0.531c-0.514-0.078-0.707,1.037-0.785,1.303C70.732,47.687,70.82,47.679,70.909,47.673z"/>
		<path fill="#FFFFFF" d="M78.277,46.554c-0.109-0.156-0.43-0.283-0.512,0.004C77.686,46.835,78.18,46.747,78.277,46.554z"/>
		<path fill="#FFFFFF" d="M73.527,54.077C72.688,53.419,73.043,54.931,73.527,54.077L73.527,54.077z"/>
		<path fill="#FFFFFF" d="M74.648,54.354c0.425,0.189,0.8-0.506,0.515-0.771C74.622,53.075,74.631,54.146,74.648,54.354z"/>
		<path fill="#FFFFFF" d="M75.119,53.108c0-0.119-0.053-0.25-0.078-0.369C74.293,53.231,75.18,53.788,75.119,53.108z"/>
		<path fill="#FFFFFF" d="M75.552,48.163C75.924,47.03,74.288,48.487,75.552,48.163L75.552,48.163z"/>
		<path fill="#FFFFFF" d="M77.268,46.622c-0.354,0.152-0.416,0.398-0.175,0.699C77.395,47.163,77.466,46.901,77.268,46.622z"/>
		<path fill="#FFFFFF" d="M76.434,54.468c-0.25,0.039-0.779-0.023-0.601,0.355c0.071,0.152,0.653,0.348,0.826,0.377
			C76.654,54.894,76.764,54.589,76.434,54.468z"/>
		<path fill="#FFFFFF" d="M76.348,55.728c0.327,0.131,0.409,0.029,0.325-0.289C76.611,55.2,76.264,55.437,76.348,55.728z"/>
		<path fill="#FFFFFF" d="M79.868,55.794c0.437-0.477-0.722-0.469-0.83-0.207C79.271,55.86,79.521,55.806,79.868,55.794z"/>
		<path fill="#FFFFFF" d="M73.578,48.966c0.008,0.014,0.016,0.025,0.023,0.039c0.002-0.002,0.004-0.004,0.006-0.006
			C73.598,48.987,73.588,48.979,73.578,48.966z"/>
		<path fill="#FFFFFF" d="M86.826,40.433c-0.178-0.023-0.352-0.045-0.516-0.074c-0.324-0.061-0.113,0.291-0.318,0.438
			c-0.237,0.168-0.643,0.23-0.916,0.332c-0.139,0.049-0.153-0.303-0.252-0.248c-0.301,0.166-0.6,0.332-0.898,0.496
			c-0.142,0.078-0.554,0.207-0.563,0.389c-0.018,0.307,0.029,0.533-0.377,0.475c0.426-0.758-0.332-1.121-0.959-0.766
			c0.178,0.342,0.559,0.82,0.55,1.209c-0.149-0.098-0.279-0.035-0.417-0.18c-0.247,0.264-0.684,0.502-0.32,0.85
			c-0.316-0.01-0.632-0.018-0.947-0.027c0.101,0.133,0.433,0.404,0.324,0.57c-0.117,0.178-0.646-0.119-0.727-0.223
			c-0.122-0.162,0.049-0.646-0.161-0.727c-0.254-0.096-0.451-0.1-0.522-0.328c0.432,0.088,2.654,0.689,2.027-0.447
			c-0.375-0.68-1.766-0.994-2.475-0.818c-0.06-0.086-0.131-0.281-0.143-0.377c0.389-0.205-0.139-0.375-0.451-0.4
			c-0.369-0.029-0.906-0.045-0.918,0.398c-0.106-0.18-0.23-0.238-0.447-0.229c-0.325,0.02-0.264,0.203-0.359,0.447
			c-0.036-0.072-0.072-0.146-0.109-0.219c-0.309,0.248-0.619,0.498-0.928,0.746c0.048,0.055,0.098,0.109,0.145,0.164
			c-0.443,0.129-0.756,1.053-0.908,1.453c-0.059,0.152-0.502,0.242-0.118,0.438c0.299,0.15-0.188,0.277-0.38-0.002
			c-0.197,0.266-0.436,0.637-0.623,0.826c-0.221,0.221-0.342-0.057-0.457,0.303c-0.07,0.225-0.133,0.361-0.104,0.588
			c0.051,0.396,0.041,0.994,0.342,1.297c0.392,0.396,0.957-0.281,1.149-0.605c0.015,0.539,0.205,0.662,0.517,1.139
			c0.096,0.146,0.041,0.617,0.164,0.693c0.355,0.227,0.369-0.307,0.567-0.373c0.433-0.15,0.404-0.121,0.394-0.58
			c-0.01-0.486,0.082-0.398,0.324-0.764c0.508-0.77-0.685-0.738-0.201-1.553c0.158-0.266,0.308-0.195,0.482-0.441
			c0.098-0.137,0.26-0.732,0.314-0.771c0.648-0.453,0.939-0.168,0.408,0.412c-0.318,0.35-0.916,1.135-0.324,1.578
			c0.42,0.313,0.438,0.439,0.902,0.219c0.309-0.146,0.549-0.223,0.896-0.25c0.018,0.26-0.028,0.189,0.199,0.377
			c-0.328,0.215-0.762-0.066-1.069,0.121c-0.767,0.469,0.067,0.512-0.073,1.176c-0.066,0.002-0.132,0.004-0.197,0.008
			c0.012-0.51-0.646-0.355-0.793,0.051c-0.092,0.246,0.432,1.01-0.24,1c0.037-0.076,0.074-0.152,0.113-0.229
			c-0.215,0.008-0.398,0.059-0.6,0.125c-0.198,0.066-0.52,0.424-0.666,0.438c-0.189,0.018-0.325-0.377-0.611-0.254
			c-0.227,0.1-0.369,0.146-0.537-0.084c-0.229-0.318,0.554-1.129-0.002-1.381c-0.49-0.221-0.723,0.768-0.598,1.092
			c0.229,0.596,0.115,0.508-0.311,0.717c-0.27,0.133-0.4,0.236-0.502,0.354c0.053,0.053,0.099,0.068,0.096,0.162
			c-0.033-0.053-0.066-0.104-0.102-0.156c-0.117,0.139-0.197,0.297-0.422,0.549c-0.109,0.125-0.681,0.777-0.865,0.791
			c-0.213,0.016-0.366-0.32-0.486,0.055c-0.085,0.268-0.518,0.158-0.773,0.164c-0.06,0.688,1.504,0.707,1.006,1.58
			c-0.31,0.545-0.416,0.438-1.047,0.438c-0.244,0-0.998-0.191-1.097,0.014c-0.161,0.338-0.056,0.561-0.082,0.91
			c-0.017,0.23-0.26,0.904-0.239,1.016c0.063,0.346,0.047,0.504,0.27,0.67c0.048,0.037,0.996,0.146,1.111,0.156
			c0.822,0.057,1.463-0.422,1.478-1.232c0.005-0.299,0.582-0.518,0.745-0.756c0.113-0.166,0.145-0.957,0.619-0.52
			c0.373,0.346,0.57-0.264,0.781-0.293c0.487-0.064,0.594,0.236,0.896,0.59c0.357,0.416,0.531,0.309,0.936,0.594
			c0.394,0.279,0.336,0.637,0.387,1.082c0.347-0.105,0.509-0.492,0.439-0.826c0.844-0.002-0.548-0.73-0.753-0.934
			c-0.192-0.188-1.226-1.197-0.431-1.186c-0.256,0.598,0.322,0.248,0.4,0.521c0.104,0.357,0.678,0.77,1.008,0.605
			c0.172,0.107,0.302,0.227,0.302,0.461c0,0.24,0.021,0.535,0.263,0.578c-0.055,0.332,0.398,0.418,0.671,0.529
			c-0.728-0.047-0.214,0.721,0.304,0.734c-0.078-0.422,0.348-0.584,0.1-0.877c-0.069-0.082-0.639-0.887-0.221-0.551
			c0.148,0.119,0.496-0.213,0.804-0.211c0.202,0.002,0.432-0.07,0.631-0.186c-0.058,0.488-0.685,0.006-0.903,0.527
			c-0.018,0.039,0.131,0.775,0.162,0.836c0.54-0.248,0.135,0.258,0.387,0.465c0.281,0.23,1.117,0.146,1.098-0.27
			c0.537,0.217,0.836,0.389,1.348,0.035c-0.09,0.418-0.053,1.707-0.666,1.707c-0.177,0-0.29-0.15-0.469-0.15
			c-0.246,0-0.382,0.25-0.66,0.268c-0.271,0.016-1.133-0.143-1.414-0.246c-0.281-0.105-0.097-0.32-0.465-0.32
			c-0.391,0-0.443,0.004-0.734,0.254c-0.115,0.098,0.351,0.941-0.269,0.658c-0.521-0.238-0.834-0.662-1.333-0.807
			c-0.223-0.064-0.458-0.117-0.669-0.191c-0.401-0.141-0.21-0.1-0.21-0.43c0-0.146,0.01-0.865-0.059-0.91
			c-0.262-0.17-0.34-0.066-0.636,0.053c-0.333,0.133-0.378-0.053-0.711-0.063c-0.554-0.016-1.208,0.229-1.754,0.33
			c-0.233,0.045-0.347,0.281-0.56,0.355c-0.256,0.092-0.705,0-0.976,0c-0.503,0-0.593,0.553-1.103,0.795
			c-0.413,0.195-0.256,1.127-0.704,1.396c-0.578,0.344-0.757,0.486-1.099,1.049c-0.285,0.473-0.582,1.203-0.982,1.549
			c0.029,0.02,0.031,0.041,0.005,0.064c0.543,0.291,0.263,1.262,0.226,1.742c-0.029,0.396-0.072,0.375,0.043,0.736
			c0.035,0.105,0.127,0.432,0.217,0.613c0.223,0.449,0.52,0.852,0.895,1.215c0.48,0.465,1.211,0.771,1.637,1.258
			c0.322-0.221,0.713-0.574,1.176-0.475c0.688,0.146,0.688,0.164,1.314-0.133c0.266-0.127,0.95-0.469,1.211-0.178
			c0.252,0.279,0.383,0.5,0.75,0.586c0.268,0.063,0.43-0.33,0.697,0.016c-1.086-0.072,0.533,0.984,0.016,0.016
			c0.24,0.236,0.148,0.762,0.004,1.043c-0.129,0.252-0.401,0.506-0.194,0.732c0.264,0.291,0.573,0.568,0.805,0.885
			c0.354,0.484,0.713,1.428,0.699,2.102c-0.007,0.367-0.149,0.447-0.404,0.721c-0.202,0.217-0.164,0.438-0.188,0.734
			c-0.055,0.629-0.031,1.012,0.34,1.563c0.395,0.584,0.053,0.836,0.285,1.416c0.244,0.609,0.486,1.215,0.703,1.834
			c0.078,0.225,0.496,0.471,0.516,0.633c0.033,0.283-0.398,0.215-0.237,0.58c0.159,0.357,0.177,0.373,0.541,0.514
			c0.378,0.145,0.349-0.281,0.675-0.279c0.646,0.004,1.063-0.076,1.645-0.18c0.477-0.084,1.158-1.088,1.496-1.424
			c0.115-0.115,0.375-0.277,0.371-0.451c-0.002-0.15-0.078-0.617-0.014-0.723c0.129-0.215,0.577-0.229,0.719-0.436
			c0.129-0.186,0.125-0.623,0.125-0.857c0-0.922,0.19-0.953,0.914-1.549c0.297-0.244,1.063-0.43,1.021-0.961
			c-0.03-0.389,0.026-0.988-0.137-1.305c-0.261-0.504-0.619-1.057-0.402-1.652c0.353-0.965,1.247-1.676,1.972-2.451
			c0.858-0.92,1.611-1.625,1.67-2.963c0.023-0.527-2.927,1.195-2.482-0.326c0.332,0.277,1.509-0.449,1.891-0.605
			c0.313-0.127,0.625-0.256,0.938-0.383c0.077-0.031-0.015-0.297,0.045-0.324c0.153-0.074,0.414,0.061,0.563-0.02
			c0.295-0.158,1.197-1.543,1.197-1.877c0-0.705-1.482-0.51-1.05-1.449c-0.285,0.035-0.46,0.104-0.61,0.33
			c-0.266,0.4-0.313,0.365-0.799,0.387c0.021-0.217,0.148-0.527-0.04-0.664c-0.296-0.215-0.454,0.236-0.42,0.482
			c-0.226-0.314-0.636-0.699-0.762-1.063c-0.079-0.227-0.154-0.865,0.346-0.633c0.236,0.111,0.222,0.215,0.229,0.453
			c0.006,0.199,0.307,0.285,0.464,0.379c0.413,0.246,0.835,0.607,1.267,0.221c0.268-0.24,0.439,0.322,0.788,0.371
			c0.513,0.07,0.911,0.123,1.392,0.092c0.248-0.02,0.736-0.23,0.961-0.037c0.405,0.346,0.668,0.768,1.213,0.586
			c-0.082,0.074-0.178,0.205-0.354,0.27c0.271,0.516,0.848,0.986,1.135,0.188c0.173-0.486,0.058,0.941,0.078,0.984
			c0.137,0.283,0.271,0.564,0.407,0.848c0.004-0.215,0.008-0.43,0.008-0.645C94.468,53.079,91.586,45.919,86.826,40.433z
			 M82.676,50.958c0.029,0.229-0.313,0.402-0.385,0.678c-0.037-0.33-0.46-0.061-0.551-0.328
			C82.141,51.37,82.402,51.255,82.676,50.958z M82.107,52.97c-0.807-0.021-1.7,0.988-1.959-0.223
			c-0.078-0.365,0.55-0.512,0.438-0.844c-0.107-0.318,0.41-0.732,0.708-0.447c-0.229,0.182-0.151,0.639,0.136,0.748
			c0.452,0.176,0.404-0.348,0.805-0.35c0.142,0.643,0.941,0.568,1.316,1.059C84.066,53.587,82.382,53.134,82.107,52.97z
			 M85.271,62.704c-0.303-0.227-0.604-0.449-0.906-0.676c-0.145-0.107-0.307-0.672-0.405-0.854
			c-0.149-0.271-0.791-1.545-1.005-1.439c-0.039-0.975-1.202-1.424-1.153-2.361c0.125,0.145,0.123,0.527,0.269,0.676
			c0.205,0.205,0.332-0.037,0.457,0.115c0.406,0.488,1.162,1.102,1.396,1.688c0.098,0.242-0.031,0.434,0.119,0.68
			c0.125,0.205,0.408,0.191,0.545,0.416C84.915,61.485,85.363,62.034,85.271,62.704z M86.994,53.669
			c0.04,0.137,0.404,0.172,0.449,0.309c-0.012-0.037-0.17,0.67-0.149,0.652c-0.313,0.262-0.842-0.193-1.067-0.357
			c-0.297-0.217-0.151-0.799,0.293-0.592c0.006-0.398-0.396-0.611-0.651-0.857c-0.252-0.242-0.37-0.289-0.37-0.631
			c0-0.326-0.285-0.268-0.266-0.443c0.035-0.307,0.236-0.662,0.524-0.785c0.638-0.271,0.8-0.303,0.833,0.418
			c-1.229-0.146,0.285,1.354,0.262,1.537c0.262-0.109,0.493-0.396,0.64-0.039C87.506,53.45,86.77,52.909,86.994,53.669z"/>
	</g>
	<g>
		<path fill="#A7DAE9" d="M60.54,41.198c0.213-0.381,0.058-0.854-0.382-0.666C59.742,40.712,60.188,41.269,60.54,41.198z"/>
		<path fill="#A7DAE9" d="M53.496,61.788c0.079-0.066,0.197-0.135,0.255-0.221c-0.063-0.139-0.188-0.268-0.274-0.393
			c-0.022,0.023-0.043,0.051-0.061,0.076c-0.055-0.059-0.111-0.137-0.177-0.18c-0.278,0.043-0.324,0.186-0.158,0.41
			c0.089-0.027,0.231-0.117,0.313-0.193C53.294,61.466,53.316,61.646,53.496,61.788z"/>
		<path fill="#A7DAE9" d="M53.822,62.228c0.078-0.023,0.156-0.047,0.236-0.07c-0.033-0.117-0.144-0.305-0.228-0.395
			c-0.253,0.139-0.179,0.715-0.043,0.891c-0.241,0.17-0.179,0.145-0.072,0.395c-0.768-0.014,0.371,0.656,0.081,0.049
			c0.098-0.027,0.176-0.119,0.271-0.152c-0.082-0.064-0.111-0.193-0.194-0.26c0.088-0.047,0.176-0.094,0.265-0.141
			C54.038,62.442,53.941,62.3,53.822,62.228z"/>
		<path fill="#A7DAE9" d="M53.686,63.513c-0.293,0.137-0.137,0.408,0.155,0.572C54.059,63.831,54.128,63.13,53.686,63.513z"/>
		<path fill="#A7DAE9" d="M51.992,60.94c0.063,0.074,0.127,0.146,0.189,0.221c0.146,0.057,0.344,0.053,0.5,0.074
			C52.852,60.729,52.288,60.622,51.992,60.94z"/>
		<path fill="#A7DAE9" d="M50.909,61.347c0.188-0.309,0.554-0.354,0.875-0.221c0.289-0.572-1.296-1.254-1.66-0.619
			c0.176,0.068,0.208,0.201,0.286,0.25c-0.146-0.027-0.316,0.066-0.463,0.041c0.019,0.104,0.016,0.238,0.061,0.332
			C50.253,61.253,50.753,60.903,50.909,61.347z"/>
		<path fill="#A7DAE9" d="M56.309,85.378c-0.132,0.043-0.261,0.176-0.377,0.256c0.051,0.102,0.223,0.281,0.318,0.346
			c0.173-0.184,0.348-0.367,0.521-0.551C56.625,85.413,56.456,85.364,56.309,85.378z"/>
		<path fill="#A7DAE9" d="M56.736,85.604c-0.211,0.1-0.309,0.25-0.242,0.461c0.335-0.129,0.633-0.189,0.813-0.531
			c-0.104-0.105-0.314-0.254-0.451-0.309C56.818,85.345,56.744,85.479,56.736,85.604z"/>
		<path fill="#A7DAE9" d="M50.202,60.12c-0.604-0.287-1.171-0.654-1.75-0.992c-0.21-0.123-0.554-0.08-0.772-0.006
			c-0.052,0.02-0.971,0.463-0.523,0.471c0.654,0.012,1.117-0.199,1.668,0.297c0.166,0.148,0.113,0.574,0.234,0.604
			c0.361,0.092,0.539,0.115,0.873-0.102C50.034,60.329,50.117,60.206,50.202,60.12z"/>
		<path fill="#A7DAE9" d="M48.995,58.786c0.217,0.201,0.297,0.395,0.481,0.648c0.203-0.164,0.198-0.385,0.053-0.596
			c-0.075,0.043-0.152,0.086-0.229,0.129c0.252-0.252,0.012-0.531-0.29-0.574C49.006,58.519,48.969,58.669,48.995,58.786z"/>
		<path fill="#A7DAE9" d="M49.809,59.048c0.018,0.205,0.102,0.387,0.248,0.537C50.42,59.351,50.206,58.968,49.809,59.048z"/>
		<path fill="#A7DAE9" d="M49.668,57.796c-0.208-0.129-0.37-0.074-0.493,0.141c0.284,0.137,0.229,0.271,0.529,0.367
			c-0.478,0.186,0.073,0.645,0.381,0.699c0.034-0.311-0.146-0.4-0.271-0.652C49.71,58.14,50.031,57.94,49.668,57.796z"/>
		<path fill="#A7DAE9" d="M48.657,60.991c0.27,0.256,0.647,0.305,0.815-0.08C49.26,60.657,48.625,60.563,48.657,60.991z"/>
		<path fill="#A7DAE9" d="M44.34,66.962c-0.002,0.119-0.391,0.918-0.014,0.77C44.748,67.563,44.768,67.171,44.34,66.962z"/>
		<path fill="#A7DAE9" d="M48.197,34.726c-0.229,0.174-0.172,0.402,0.008,0.623c0.502-0.225,1.121-0.588,1.363,0.141
			c0.363-0.363,0.619-0.486,0.377-1.016c-0.09,0.061-0.231,0.053-0.322,0.115c-0.08-0.264-0.002-0.529,0.188-0.729
			c-0.758-0.145-0.604,0.748-0.926,0.721c-0.015,0-0.412-0.609-0.554-0.723c-0.339-0.271-0.642,0.02-1.022,0.182
			C47.184,34.548,47.829,34.583,48.197,34.726z"/>
		<path fill="#A7DAE9" d="M50.373,33.479c0.415-0.24-0.505-0.379-0.6-0.395c0.248-0.016,0.494-0.031,0.74-0.049
			c0.018-0.354-0.322-0.461-0.631-0.35c-0.438,0.158-0.209,0.348-0.408,0.73C49.912,33.63,49.96,33.718,50.373,33.479z"/>
		<path fill="#A7DAE9" d="M51.785,34.011c0.707,0.084-0.081-0.873-0.229-1.043c-0.412-0.473-0.797,0.393-0.729,0.727
			C51.296,33.511,51.445,33.714,51.785,34.011z"/>
		<path fill="#A7DAE9" d="M52.211,34.011c0.01,0.139,0.105,0.297,0.153,0.43c0.299-0.168,0.712-0.24,0.635-0.643
			c-0.083-0.434-0.567-0.449-0.884-0.344C52.357,33.603,52.414,33.81,52.211,34.011z"/>
		<path fill="#A7DAE9" d="M53.609,33.411c0.267,0.299-0.291,0.225-0.539,0.258c0.658,0.896,0.986,0.84,1.974,0.404
			c-0.295-0.445-0.59-0.893-0.885-1.338c-0.041-0.063-0.229-0.449-0.31-0.467c-0.233-0.051-0.445,0.32-0.416,0.498
			c-0.229-0.17-0.561-0.088-0.539,0.236C52.928,33.554,53.077,33.411,53.609,33.411z"/>
		<path fill="#A7DAE9" d="M49.518,38.063c-0.115-0.359-0.392-0.086-0.384-0.572c0.011-0.668,0.201-1.143-0.405-1.525
			c-0.119,0.16-0.238,0.32-0.357,0.48c-0.691-0.598-1.003-1.074-1.943-0.588c-0.496,0.258-0.568,0.51-0.523,1
			c0.021,0.221,0.728,0.311,0.936,0.373c-0.014,0.094-0.088,0.252-0.146,0.328c-0.229-0.145-0.459-0.289-0.69-0.432
			c-0.423,0.799,0.239,0.336,0.212,0.9c-0.027,0.6,0.184,0.5,0.744,0.656c0.35-0.021,0.854,0.102,1.007-0.26
			c0.122,0.137,0.416,0.621,0.585,0.658c0.354,0.076,0.628-0.273,0.583-0.586c0.085,0.094,0.232,0.129,0.318,0.223
			C49.469,38.546,49.568,38.229,49.518,38.063z"/>
		<path fill="#A7DAE9" d="M51.279,36.521c-0.289-0.348-0.969-0.459-1.016,0.125c-0.232-0.195-0.428-0.105-0.531,0.174
			c0.285,0.451,0.355,0.637,0.381,1.172c0.203-0.121,0.754-0.318,0.865-0.52C51.182,37.099,50.785,36.812,51.279,36.521z"/>
		<path fill="#A7DAE9" d="M51.928,37.312c0.334,0.467,0.867-0.215,1.141-0.445c-0.873-0.291-1.993-0.693-1.674,0.664
			C51.632,37.601,51.857,37.554,51.928,37.312z"/>
		<path fill="#A7DAE9" d="M52.05,34.933c0.062,0.494,0.737,0.455,0.396,0.979c-0.372-0.145-0.78-0.482-0.879,0.105
			c0.356,0.131,0.73,0.428,0.883-0.092c-0.105,0.721,1.197,0.813,1.701,0.979c0.731,0.24,0.802,0.266,1.404-0.256
			c-0.171-0.139-0.488-0.521-0.697-0.563c-0.233-0.047-0.562,0.152-0.832,0.127c-1.027-0.098-0.371-0.5-0.795-1.107
			C53.033,34.821,51.967,34.261,52.05,34.933z"/>
		<path fill="#A7DAE9" d="M51.783,35.085c-0.455-0.582-0.861-0.273-1.327,0.16c0.217,0.01,0.435,0.018,0.651,0.027
			c-0.045,0.115-0.072,0.271-0.145,0.371C51.186,36.409,51.925,35.269,51.783,35.085z"/>
		<path fill="#A7DAE9" d="M54.693,37.778c0.149,0.525,0.817,0.42,1.252,0.475C55.656,37.944,55.083,37.089,54.693,37.778z"/>
		<path fill="#A7DAE9" d="M55.423,33.036c-0.394,0.928,1.111,0.508,1.454,0.422c0.045,0.275-0.619,0.701-0.814,0.551
			c-0.451-0.354-0.528-0.354-1.099-0.295c0.167,0.236,0.335,0.473,0.503,0.711c-0.391,0.102-0.303-0.383-0.755-0.074
			c-0.257,0.174,0.213,0.738,0.556,0.633c-0.037,0.725-0.572-0.209-0.75-0.248c-0.158-0.035-0.396,0.021-0.396,0.178
			c0,0.213-0.378,0.197-0.563,0.24c0.17,0.521,0.812,0.604,1.279,0.652c0.285,0.031,0.418,0.154,0.657,0.324
			c0.169,0.119,0.517-0.182,0.688-0.273c-0.104-0.072-0.17-0.211-0.279-0.273c0.285,0.063,0.777-0.342,1.143-0.4
			c0.378-0.064-0.479-0.682-0.188-0.635c1.057,0.178,1.619-0.125,2.625-0.518c-0.219-0.061-0.438-0.121-0.657-0.184
			c0.46-0.223,1.188,0.223,1.489-0.377c-0.881-0.314-1.762-0.629-2.642-0.943c-0.501-0.18-0.817,0.408-1.133,0.146
			c-0.263-0.217-1.085-0.844-0.993-0.035c-0.348-0.449-0.55-0.297-1.027-0.145C54.545,32.999,55.04,32.954,55.423,33.036z"/>
		<path fill="#A7DAE9" d="M51.543,42.065c-0.012,0.262-0.023,0.523-0.036,0.785c0.313-0.191,0.548-0.385,0.937-0.305
			c0.558,0.113,0.174,0.512,0.802,0.008c-0.394-0.385-0.786-0.77-1.179-1.152C51.893,41.624,51.718,41.845,51.543,42.065z"/>
		<path fill="#A7DAE9" d="M57.666,48.888c-0.227,0.217-1.23,0.91-1.25,1.195c-0.034,0.525,1.168,0.715,1.508,0.84
			c0.487,0.182,0.4-1.066,0.166-1.037C57.016,50.021,58.174,49.425,57.666,48.888z"/>
		<path fill="#A7DAE9" d="M37.792,45.827c0.343-0.229-0.042-0.754,0.344-1.143c-0.237-0.805-0.892,0.043-0.454,0.426
			C37.389,45.231,37.564,45.657,37.792,45.827z"/>
		<path fill="#A7DAE9" d="M54.116,85.987c-0.185,0.406-0.37,0.813-0.556,1.219c0.885,0.094,1.328,0.209,2.096-0.299
			c-0.385-0.08-0.799-0.086-1.098-0.361C54.43,86.358,54.266,86.169,54.116,85.987z"/>
		<path fill="#A7DAE9" d="M51.893,82.011c-0.056-0.082-0.162-0.146-0.235-0.213C51.227,82.212,51.725,83.11,51.893,82.011z"/>
		<path fill="#A7DAE9" d="M61.852,69.083c0.026-0.707-3.506-1.574-4.067-1.75c-0.312-0.031-0.624-0.063-0.937-0.094
			c0.213-0.443,0.233-0.598,0.191-1.088c-0.041-0.475-0.17-0.369-0.539-0.6c-0.434-0.27-0.486-0.338-0.947-0.391
			c-0.328-0.037-0.275,0.262-0.603-0.035c-0.603-0.547-1.183-0.928-1.692-1.555c-0.109-0.135-0.75,0.119-0.998,0.053
			c-0.539-0.146-0.654-0.223-1.014-0.645c-0.273,0.281-0.548,0.479-0.516,0.914c-0.633-0.094-0.021-0.783,0.15-1.021
			c-0.553-0.211-1.162,0.605-1.537,0.912c-0.303,0.25-0.277,0.303-0.646,0.15c-0.489-0.201-0.325-0.061-0.764-0.002
			c-0.494,0.064-0.744,0.156-1.012-0.396c-0.059-0.123,0.313-1.352,0.323-1.355c-0.21-0.25-0.333-0.557-0.67-0.543
			c-0.369,0.014-0.806,0.148-1.009-0.174c0.193-0.326,1.469-2.156,0.408-1.912c-0.778,0.178-0.916,0.1-1.174,0.85
			c-0.115,0.332-1.195,0.105-1.277-0.162c-0.354-1.127-0.209-1.895,0.338-2.916c0.113-0.211,0.91-0.84,1.139-0.861
			c0.163-0.018,0.521,0.242,0.673,0.313c0.22,0.104,0.55,0.066,0.79,0.088c-0.162-0.682,0.805-0.396,1.229-0.389
			c0.601,0.012,0.154,1.066,0.16,1.283c0.012,0.473,0.447,1.148,0.83,0.555c0.211-0.328,0.388-0.42,0.203-0.764
			c-0.099-0.184-0.205-0.506-0.199-0.709c0.016-0.621,0.51-0.938,0.927-1.295c0.327-0.281,1.274-0.473,1.231-0.797
			c-0.113-0.813,0.268-0.982,0.829-1.59c0.353-0.379,0.919-0.338,1.419-0.42c-0.166-0.625-0.265-0.625,0.295-0.941
			c0.346-0.197,0.674-0.426,1.064-0.518c-0.698,0.426-0.006,1.168,0.411,0.555c0.207-0.303,0.391-0.229,0.757-0.246
			c0.197-0.01,0.406-0.633,0.501-0.809c-0.517-0.15-1.043,0.828-1.099-0.266c-0.015-0.291,0.3-0.572,0.099-0.814
			c-0.194-0.234-0.778,0.014-1.072,0.084c0.737-0.572,1.019-0.51,1.914-0.305c0.466,0.104,0.489-0.066,0.824-0.422
			c0.213-0.227,0.823-0.25,1.122-0.326c0.588-0.148-0.854-1.744-0.93-1.834c-0.315-0.381-0.26-1.559-0.338-2.059
			c-0.228,0.154-0.852,0.76-1.109,0.746c-0.659-0.031-0.059-0.666-0.104-0.957c-0.09-0.576-1.563-1.639-1.886-1.01
			c-0.254,0.498-0.508,0.994-0.762,1.49c-0.152,0.297,0.055,0.738-0.101,1.039c-0.063,0.117-0.156,0.438-0.267,0.512
			c-0.146,0.096-0.583-0.096-0.699,0.027c-0.237,0.252,0.07,0.965-0.188,1.307c-0.788,1.041-0.099-1.41-0.3-1.498
			c-0.936-0.41-1.7-0.74-2.099-1.742c-0.155-0.393-0.819-0.115-0.378-0.703c0.268-0.357,0.508-0.795,0.862-1.068
			c0.418-0.326,0.692-0.586,1.202-0.703c0.395-0.09,0.926-0.404,0.635-0.895c0.244-0.053,0.754-0.273,0.979-0.166
			c0.549,0.264,0.564,0.223,1.106-0.074c0.229-0.127,0.26-0.916,0.315-1.172c0.039-0.18-0.519-0.613-0.666-0.766
			c0.412,0.066,0.75,0.189,1.24,0.43c0.494,0.242,0.541,1.047,1.232,0.816c-0.115,0.6-0.84,2.385-1.646,1.357
			c-0.563,0.756-0.117,1.293,0.715,0.768c0.102,0.26,0.221,0.938,0.451,1.086c0.145,0.094,1.077,0.777,1.146,0.689
			c0.12-0.15,0.85-0.904,0.763-1.045c-0.216-0.354-0.863-0.945-0.338-1.262c0.166,0.279,0.331,0.557,0.497,0.834
			c0.207-0.18,0.97-0.641,1.021-0.893c0.129-0.641-0.576-0.361-0.836-0.281c-0.303-0.83-0.459-0.977-0.007-1.727
			c0.08-0.133-0.528-0.648-0.635-0.762c-0.274-0.293-0.344-0.244-0.668,0.051c-0.263-0.574-0.217-0.938-0.867-0.852
			c-0.714,0.096-0.562-0.479-0.696-1.119c-0.272,0.188-0.545,0.375-0.815,0.564c-0.259,0.178,0.135,0.756-0.377,0.635
			c-0.06-0.549,0.386-0.977,0.671-1.398c-0.52-0.051-1.112-0.109-1.459,0.365c-0.182,0.246-0.38,1.662-0.087,1.678
			c0.264,0.012,0.481,0.029,0.684,0.063c-0.229,0.361-0.542,1.305-1.054,1.039c0.1-0.172,0.46-0.566,0.266-0.686
			c-0.295-0.18-0.438-0.16-0.66,0.166c-0.024-0.873,0.291-2.398-0.947-1.775c-0.59,0.297,0.006,0.652-0.014,1.033
			c-0.027,0.578-0.361,0.605-0.629,1.074c-0.029-0.273,0.168-0.486,0.303-0.725c0.162-0.285,0.021-0.445-0.092-0.752
			c-0.18,0.109-0.356,0.219-0.535,0.328c-0.181,0.111,0.017,0.42-0.09,0.568c-0.291,0.41-0.57,0.205-0.968,0.02
			c-0.194-0.092-0.833-0.77-0.851-0.766c-0.658,0.174-0.562,0.256-0.629,0.934c-0.279-0.047-0.193-0.217-0.207-0.488
			c-0.01-0.186-0.57-0.197-0.73-0.23c-0.674-0.137-0.627-0.133-0.266-0.711c-0.416-0.256-0.697-0.441-1.012-0.813
			c-0.322-0.377-0.547-0.869-1.117-0.766c0.082,0.281-0.209,0.578-0.232,0.367c-0.02-0.168-0.04-0.336-0.061-0.504
			c-2.272,1.826-4.287,3.961-5.975,6.346c0.02,0.078,0.055,0.148,0.12,0.201c0.427,0.344,0.36-0.814,0.413-0.898
			c0.016,0.625,0.031,1.25,0.046,1.875c0.005,0.199-0.012,0.324,0.013,0.521c0.037,0.295,0.281,0.381,0.317,0.641
			c0.06,0.43-0.353,0.967,0.036,1.318c0.418,0.379,0.916,0.766,0.615,1.398c-0.088-0.043-0.213-0.119-0.28-0.193
			c0.78-0.027-0.345-1.598-0.864-1.191c0.409,0.355,0.324,0.855,0.745,1.172c-0.33,0.006-1.213,2.582-1.385,2.969
			c-0.431,0.969-0.036,2.064,0.104,3.098c0.022,0.17,0.233,0.205,0.375,0.277c0.181,0.092,0.113,0.574,0.151,0.766
			c0.1,0.492,0.32,1.053,0.48,1.557c0.08,0.248-0.199,0.119-0.186,0.359c0.029,0.453,0.298,0.301,0.472,0.654
			c0.091,0.184-0.116,0.537,0.042,0.689c0.238,0.227,0.477,0.451,0.713,0.678c-0.119-0.795-0.201-1.588-0.434-2.355
			c-0.133-0.438-0.146-0.65-0.096-1.107c0.017-0.148,0.166-0.043,0.203,0.041c0.084,0.193-0.014,0.453-0.045,0.656
			c-0.086,0.582,0.938,1.904,1.209,2.43c0.198,0.385,0.205,0.547,0.205,0.996c0,0.516,0.237,0.672,0.575,1.074
			c0.306,0.363,1.401,1.551,1.941,1.234c0.569-0.334,0.604-0.078,1.11,0.318c0.227,0.178,0.522,0.412,0.77,0.561
			c0.22,0.133,0.639,0.211,0.799,0.393c0.195,0.225,0.092,0.691,0.251,0.84c0.634,0.588,0.963,0.795,1.819,0.943
			c-0.08-0.545,0.435-0.699,0.701-0.26c0.195,0.32,0.101,0.979-0.036,1.313c-0.263,0.643-0.318,0.883-0.897,1.242
			c-0.287,0.18-0.174,0.887,0.09,1.021c-0.658,0.607-0.287,0.992,0.115,1.727c0.402,0.732,0.821,2.105,1.54,2.57
			c0.619,0.398,1.715,0.715,1.75,1.506c0.056,1.266,0.111,2.529,0.167,3.795c0.053,1.188,0.105,2.375,0.157,3.563
			c0.019,0.4-0.004,0.377,0.368,0.59c0.383,0.217,0.15,1.002,0.132,1.406c-0.015,0.326-0.782,0.344-0.192,0.779
			c0.434,0.32,0.53,0.428,0.146,0.926c-0.37,0.479,1.361,1.775,1.701,1.969c-0.031-0.516,0.229-0.725,0.521-1.063
			c-0.57-0.387-0.098-0.766,0.139-1.225c0.113-0.221,0.188-0.467,0.281-0.693c0.076-0.188-0.451-0.316-0.499-0.48
			c-0.134-0.469,0.488-1.043,0.335-1.586c-0.119-0.418,0.162-0.361,0.543-0.502c0.157-0.057-0.021-0.563-0.049-0.721
			c0.584,0.074,0.817-0.193,1.081-0.646c0.354-0.615,0.161-0.623-0.295-1.172c0.271,0.078,0.58,0.289,0.792,0.076
			c0.279-0.281,0.634-0.551,0.868-0.871c0.446-0.609,0.677-1.326,0.692-2.086c0.014-0.563,0.916-1.141,1.475-1.141
			c0.859,0,1.055-0.918,1.097-1.666c0.021-0.371,0.089-0.771,0.063-1.145c-0.036-0.535-0.35-0.318,0.131-0.756
			c0.258-0.236,0.826-0.574,0.979-0.891C61.945,70.06,61.838,69.419,61.852,69.083z M51.973,51.081
			c-0.07,0.051-0.212,0.152-0.315,0.219C51.762,51.228,51.867,51.153,51.973,51.081z M49.93,68.005
			c0.006,0.01,0.012,0.02,0.008,0.016C49.934,68.013,49.932,68.009,49.93,68.005z"/>
		<path fill="#A7DAE9" d="M45.382,36.331c0.17-0.127,0.205-0.477,0.411-0.555c0.616-0.229,1.061-0.322,1.718-0.365
			c-0.3-0.328-0.556-0.924-0.958-0.621c-0.207,0.156-0.208-0.047-0.273-0.168c-0.61,0.396-1.207,0.811-1.788,1.244
			c0.008,0.152,0.075,0.34,0.17,0.66C44.859,36.474,45.219,36.452,45.382,36.331z"/>
		<path fill="#A7DAE9" d="M62.777,33.819c0.007,0.34-0.035,0.49-0.348,0.49c-0.431,0-0.246-0.457-0.543-0.502
			c-0.437-0.064-1.68-0.357-1.591,0.465c-0.55-0.072-1.122-0.174-1.085,0.512c0.025,0.484-0.798,0.373-1.051,0.086
			c-0.492,0.803,0.052,0.957,0.822,0.863c0.008,0.637-0.961-0.137-1.186,0.428c0.025-0.064,0.285,0.697,0.313,0.73
			c0.359,0.471,0.269,0.287,0.799,0.215c0.609-0.084,1.072,0.207,1.302,0.826c0.353,0.949,0.402,1.057-0.034,1.963
			c0.338-0.057,0.963-0.268,0.902,0.301c-0.246,0.014-0.493,0.023-0.739,0.035c0.25,0.248,0.448,0.563,0.836,0.559
			c-0.683,0.91-1.22,1.459-0.853,2.617c0.057,0.18-0.163,0.336-0.105,0.514c0.08,0.248,0.127,0.574,0.258,0.799
			c0.211,0.361,0.543,0.75,0.969,0.5c-0.067,0.531,0.201,0.752,0.67,0.717c0.232-0.018,0.271-0.922,0.379-1.131
			c0.197-0.385,0.438-0.654,0.712-0.865V33.933C63.068,33.892,62.923,33.862,62.777,33.819z"/>
	</g>
</g>
</svg>
