<?xml version="1.0" encoding="utf-8"?>
<!-- Generator: Adobe Illustrator 16.0.0, SVG Export Plug-In . SVG Version: 6.00 Build 0)  -->
<!DOCTYPE svg PUBLIC "-//W3C//DTD SVG 1.1//EN" "http://www.w3.org/Graphics/SVG/1.1/DTD/svg11.dtd">
<svg version="1.1" id="Space" xmlns="http://www.w3.org/2000/svg" xmlns:xlink="http://www.w3.org/1999/xlink" x="0px" y="0px"
	 width="128px" height="120.881px" viewBox="0 0 128 120.881" enable-background="new 0 0 128 120.881" xml:space="preserve">
<g>
	<path fill="#FFB03B" d="M81.031,32.733c-0.191-0.188-0.499-0.188-0.688,0.002l-4.021,4.045c-0.189,0.191-0.188,0.498,0.003,0.688
		l0,0c0.189,0.189,0.499,0.189,0.688-0.002l4.021-4.043C81.222,33.231,81.221,32.923,81.031,32.733L81.031,32.733z"/>
	<path fill="#FFB03B" d="M94.425,26.138c-0.189-0.189-0.498-0.188-0.688,0.002l-4.021,4.045c-0.188,0.191-0.188,0.498,0.002,0.688
		l0,0c0.19,0.189,0.499,0.189,0.688-0.002l4.02-4.043C94.618,26.636,94.617,26.327,94.425,26.138L94.425,26.138z"/>
	<path fill="#FFB03B" d="M98.539,37.751c-0.19-0.189-0.499-0.188-0.688,0.002l-4.02,4.045c-0.189,0.189-0.188,0.498,0.002,0.688l0,0
		c0.19,0.189,0.499,0.188,0.688-0.002l4.02-4.045C98.73,38.251,98.73,37.94,98.539,37.751L98.539,37.751z"/>
	<path fill="#000121" d="M73.803,52.823c-0.168-0.166-0.353-0.313-0.524-0.477c0.173,0.162,0.331,0.336,0.499,0.504L73.803,52.823z"
		/>
	<path fill="#000121" d="M60.4,45.872c0.562,0.1,1.114,0.225,1.662,0.359C61.513,46.097,60.961,45.972,60.4,45.872z"/>
	<path fill="#000121" d="M67.381,48.206c0.501,0.254,0.991,0.527,1.473,0.813C68.373,48.733,67.883,48.462,67.381,48.206z"/>
	<path fill="#000121" d="M62.404,46.319c1.725,0.453,3.379,1.08,4.938,1.867C65.782,47.397,64.128,46.772,62.404,46.319z"/>
	<path fill="#DD3930" d="M43.166,64.481c0-9.828,7.595-17.869,17.234-18.609c-1.449-0.258-2.934-0.416-4.456-0.416
		c-13.996,0-25.344,11.348-25.344,25.344c0,6.969,2.816,13.277,7.368,17.857l10.823-10.822
		C45.324,74.442,43.166,69.718,43.166,64.481z"/>
	<path fill="#000121" d="M69.097,49.169c1.49,0.906,2.88,1.961,4.146,3.146C71.976,51.13,70.587,50.075,69.097,49.169z"/>
	<path fill="#454A6D" d="M67.342,48.188c0.014,0.006,0.026,0.012,0.039,0.018C67.369,48.198,67.355,48.192,67.342,48.188z"/>
	<path fill="#454A6D" d="M68.854,49.021c0.082,0.049,0.163,0.098,0.243,0.148C69.017,49.118,68.936,49.067,68.854,49.021z"/>
	<path fill="#454A6D" d="M73.243,52.315c0.012,0.01,0.022,0.021,0.035,0.031C73.266,52.337,73.254,52.325,73.243,52.315z"/>
	<path fill="#454A6D" d="M60.4,45.872L60.4,45.872L60.4,45.872z"/>
	<path fill="#454A6D" d="M62.063,46.231c0.113,0.027,0.228,0.057,0.342,0.088C62.29,46.288,62.176,46.261,62.063,46.231z"/>
	<path fill="#FF5436" d="M43.166,64.481c0,5.236,2.158,9.961,5.627,13.354l24.984-24.984c-0.168-0.166-0.326-0.342-0.499-0.504
		c-0.013-0.01-0.023-0.021-0.035-0.031c-1.267-1.186-2.655-2.24-4.146-3.146c-0.08-0.051-0.161-0.1-0.242-0.148
		c-0.481-0.285-0.973-0.559-1.474-0.813c-0.013-0.008-0.025-0.014-0.039-0.02c-1.56-0.787-3.214-1.414-4.938-1.867
		c-0.114-0.031-0.229-0.061-0.342-0.088c-0.548-0.137-1.102-0.26-1.662-0.359l0,0C50.76,46.612,43.166,54.653,43.166,64.481z"/>
	<path fill="#AD2623" d="M55.944,96.142c13.995,0,25.342-11.346,25.342-25.342c0-2.102-0.283-4.131-0.766-6.082
		c-0.128,10.209-8.433,18.449-18.672,18.449c-5.084,0-9.688-2.037-13.057-5.332L37.969,88.657
		C42.56,93.278,48.917,96.142,55.944,96.142z"/>
	<path fill="#454A6D" d="M74.595,53.685c2.819,3.072,4.893,6.846,5.925,11.031C79.487,60.528,77.419,56.761,74.595,53.685z"/>
	<path fill="#454A6D" d="M74.498,53.575c-0.232-0.25-0.452-0.51-0.694-0.752l-0.025,0.027
		C74.019,53.091,74.265,53.325,74.498,53.575z"/>
	<polygon fill="#454A6D" points="80.521,64.718 80.52,64.716 80.521,64.718 	"/>
	<path fill="#454A6D" d="M74.498,53.575c0.033,0.037,0.064,0.072,0.098,0.107C74.563,53.647,74.531,53.612,74.498,53.575z"/>
	<path fill="#DD3930" d="M48.792,77.835c3.368,3.295,7.973,5.332,13.057,5.332c10.239,0,18.544-8.24,18.673-18.449l-0.002-0.002
		c-1.032-4.188-3.104-7.959-5.925-11.031c-0.032-0.035-0.063-0.072-0.098-0.107c-0.232-0.25-0.479-0.484-0.721-0.727L48.792,77.835z
		"/>
	<polygon opacity="0.5" fill="#F8AB1F" enable-background="new    " points="63.857,57.747 53.175,56.866 63.151,51.108
		60.53,44.729 66.847,47.204 69.168,40.993 73.746,49.62 79.667,53.546 82.038,65.175 77.06,62.974 76.07,67.394 71.015,62.56
		57.492,68.688 	"/>
	<polygon fill="#FFFFFF" points="72.294,50.938 69.469,45.612 67.951,49.677 63.975,48.118 65.539,51.923 59.388,55.474
		67.011,56.103 62.123,64.507 71.4,60.3 74.953,63.696 75.714,60.3 79.443,61.948 77.963,54.692 	"/>
	<path fill="#F8AB1F" d="M70.601,56.103c-2.444-2.445-1.863-7.564,2.212-11.639c4.829-4.83,10.686-6.986,21.298-11.871
		L70.601,56.103z"/>
	<path fill="#FF6A1D" d="M70.601,56.103c2.445,2.445,7.563,1.863,11.639-2.213c4.83-4.828,6.984-10.686,11.871-21.297L70.601,56.103
		z"/>
	<path fill="#681F19" d="M70.601,56.103c-1.727-1.729-1.544-5.113,1.009-7.666c3.025-3.025,6.842-4.229,13.717-7.061L70.601,56.103z
		"/>
	<path fill="#4F1710" d="M70.601,56.103c1.728,1.727,5.113,1.543,7.666-1.01c3.024-3.025,4.228-6.84,7.06-13.717L70.601,56.103z"/>
	<circle opacity="0.2" enable-background="new    " cx="44.139" cy="62.781" r="5.228"/>
	<circle opacity="0.2" enable-background="new    " cx="40.021" cy="77.919" r="3.85"/>
	<circle opacity="0.2" enable-background="new    " cx="58.822" cy="77.185" r="2.41"/>
	<circle opacity="0.2" enable-background="new    " cx="69.148" cy="80.431" r="3.246"/>
</g>
</svg>
