<?xml version="1.0" encoding="utf-8"?>
<!-- Generator: Adobe Illustrator 16.0.0, SVG Export Plug-In . SVG Version: 6.00 Build 0)  -->
<!DOCTYPE svg PUBLIC "-//W3C//DTD SVG 1.1//EN" "http://www.w3.org/Graphics/SVG/1.1/DTD/svg11.dtd">
<svg version="1.1" id="Space" xmlns="http://www.w3.org/2000/svg" xmlns:xlink="http://www.w3.org/1999/xlink" x="0px" y="0px"
	 width="128px" height="120.881px" viewBox="0 0 128 120.881" enable-background="new 0 0 128 120.881" xml:space="preserve">
<g>
	<path fill="#7B65BF" d="M52.599,56.386c0-9.758,7.54-17.738,17.109-18.475c-1.438-0.256-2.911-0.412-4.423-0.412
		c-13.894,0-25.159,11.264-25.159,25.156c0,6.92,2.796,13.182,7.315,17.73l10.744-10.744C54.742,66.272,52.599,61.583,52.599,56.386
		z"/>
	<path fill="#B8A3E4" d="M52.599,56.386c0,5.197,2.143,9.889,5.586,13.256l24.803-24.803c-0.167-0.166-0.325-0.34-0.496-0.5
		c-0.011-0.01-0.021-0.021-0.034-0.031c-1.257-1.178-2.637-2.225-4.116-3.125c-0.08-0.049-0.16-0.098-0.24-0.146
		c-0.479-0.283-0.965-0.557-1.463-0.809c-0.013-0.006-0.026-0.012-0.039-0.018c-1.547-0.783-3.189-1.404-4.901-1.855
		c-0.112-0.029-0.226-0.059-0.339-0.086c-0.543-0.135-1.092-0.258-1.65-0.357l0,0C60.139,38.646,52.599,46.628,52.599,56.386z"/>
	<path fill="#594A99" d="M65.285,87.813c13.895,0,25.157-11.264,25.157-25.158c0-2.086-0.281-4.1-0.759-6.037
		c-0.127,10.137-8.371,18.314-18.537,18.314c-5.047,0-9.616-2.021-12.96-5.293L47.442,80.384
		C51.998,84.972,58.309,87.813,65.285,87.813z"/>
	<path fill="#7B65BF" d="M58.186,69.64c3.344,3.271,7.914,5.293,12.96,5.293c10.166,0,18.41-8.18,18.537-18.314l-0.002-0.002
		c-1.024-4.154-3.082-7.898-5.881-10.951c-0.033-0.035-0.064-0.07-0.098-0.105c-0.23-0.248-0.475-0.482-0.715-0.721L58.186,69.64z"
		/>
	<circle opacity="0.2" fill="#140A3A" enable-background="new    " cx="50.145" cy="56.618" r="3.805"/>
	<circle opacity="0.2" fill="#140A3A" enable-background="new    " cx="76.551" cy="58.941" r="3.806"/>
	<circle opacity="0.3" fill="#140A3A" enable-background="new    " cx="80.635" cy="51.798" r="2.494"/>
	<circle opacity="0.3" fill="#FFFFFF" enable-background="new    " cx="62.229" cy="52.813" r="2.493"/>
	<circle opacity="0.6" fill="#FFFFFF" enable-background="new    " cx="68.958" cy="46.167" r="3.656"/>
	<circle opacity="0.3" fill="#140A3A" enable-background="new    " cx="73.936" cy="75.583" r="3.486"/>
	<circle opacity="0.3" fill="#140A3A" enable-background="new    " cx="52.982" cy="74.933" r="5.541"/>
</g>
</svg>
