<?xml version="1.0" encoding="utf-8"?>
<!-- Generator: Adobe Illustrator 16.0.0, SVG Export Plug-In . SVG Version: 6.00 Build 0)  -->
<!DOCTYPE svg PUBLIC "-//W3C//DTD SVG 1.1//EN" "http://www.w3.org/Graphics/SVG/1.1/DTD/svg11.dtd">
<svg version="1.1" id="Space" xmlns="http://www.w3.org/2000/svg" xmlns:xlink="http://www.w3.org/1999/xlink" x="0px" y="0px"
	 width="128px" height="120.881px" viewBox="0 0 128 120.881" enable-background="new 0 0 128 120.881" xml:space="preserve">
<g>
	<g>
		<path fill="#4F1710" d="M92.799,74.876c1.766-1.607,3.089-3.271,2.033-5.965c-0.67-1.709-1.91-3.102-2.897-4.629
			c-0.821-1.27-1.326-2.742-2.21-3.971c-2.217-3.078-5.721-3.891-8.628-6.188c-2.565-2.025-5.667-4.35-8.919-5.117
			c-1.857-0.439-3.467-0.594-5.262,0.137c-1.799,0.734-2.688,1.949-4.736,2.129c-3.053,0.268-6.036,0.828-8.633,2.537
			c-4.98,3.277-4.26,9.721-4.889,14.855c-0.101,0.824,0.258,1.467,0.813,1.9c0.047,0.064,0.112,0.111,0.198,0.145
			c0.002,0.002,0.004,0.004,0.006,0.004l0,0l0,0c0.105,0.068,0.219,0.129,0.334,0.184c1.806,1.193,7.115,7.189,11.027,8.117
			c0.889,1.455,1.496,2.982,1.772,4.75c0.162,1.027,0.172,1.904,0.278,2.754c-0.125,0.875-0.194,1.748-0.043,2.627
			c0.144,0.838,0.769,1.148,1.479,1.16c7.519,3.152,19.106,12.021,26.476,3.891c2.738-3.021,3.6-6.992,3.192-11
			C93.929,80.608,93.666,77.538,92.799,74.876z"/>
		<path fill="#681F19" d="M94.023,81.548c-0.23-2.186-0.535-4.557-1.227-6.672c1.767-1.607,3.09-3.271,2.035-5.965
			c-0.672-1.709-1.912-3.102-2.898-4.629c-0.82-1.27-1.326-2.742-2.21-3.971c-2.217-3.078-5.72-3.891-8.628-6.188
			c-2.566-2.025-5.667-4.35-8.919-5.117c-1.856-0.439-3.468-0.594-5.261,0.137c-1.799,0.734-2.689,1.949-4.737,2.129
			c-3.052,0.268-6.036,0.828-8.634,2.537c-1.575,1.035-2.577,2.393-3.235,3.92c0.384,2.313,1.087,4.639,1.487,6.809
			c0.15,0.816,0.683,1.32,1.345,1.57c0.063,0.045,0.142,0.072,0.231,0.078c0.002,0,0.004,0.002,0.006,0.002l0,0l0,0
			c0.123,0.033,0.248,0.057,0.375,0.074c2.08,0.6,8.939,4.73,12.951,4.447c1.281,1.121,2.317,2.396,3.111,4.002
			c0.461,0.932,0.733,1.766,1.09,2.545c0.143,0.871,0.338,1.727,0.743,2.518c0.388,0.76,1.077,0.867,1.761,0.666
			C79.213,80.983,87.875,83.688,94.023,81.548z"/>
		<circle fill="#FF4F38" cx="80.869" cy="73.089" r="4.822"/>
		<circle fill="#FFB03B" cx="71.076" cy="60.54" r="3.33"/>
		<circle fill="#FFB03B" cx="72.759" cy="86.113" r="2.212"/>
		<circle fill="#FF4F38" cx="58.229" cy="62.752" r="2.212"/>
		<circle fill="#FF4F38" cx="84.248" cy="86.637" r="1.69"/>
	</g>
	<g>
		<path fill="#FFB03B" d="M35.111,25.554c-0.379,0.318-0.428,0.881-0.109,1.26L50.861,45.69c0.318,0.377,0.883,0.428,1.262,0.109
			l0,0c0.379-0.318,0.428-0.883,0.108-1.262l-15.86-18.875C36.055,25.284,35.49,25.235,35.111,25.554L35.111,25.554z"/>
		<g>
			<path fill="#FFB03B" d="M36.515,41.644c-0.378,0.318-0.427,0.883-0.108,1.262l6.74,8.021c0.316,0.379,0.883,0.428,1.262,0.109
				l0,0c0.377-0.316,0.426-0.883,0.108-1.26l-6.741-8.023C37.457,41.376,36.893,41.327,36.515,41.644L36.515,41.644z"/>
			<path fill="#FFB03B" d="M50.721,29.71c-0.379,0.316-0.428,0.881-0.11,1.26l6.741,8.023c0.318,0.379,0.882,0.428,1.26,0.107l0,0
				c0.379-0.316,0.428-0.881,0.11-1.26l-6.741-8.023C51.662,29.44,51.099,29.39,50.721,29.71L50.721,29.71z"/>
		</g>
	</g>
</g>
</svg>
