<?xml version="1.0" encoding="utf-8"?>
<!-- Generator: Adobe Illustrator 16.0.0, SVG Export Plug-In . SVG Version: 6.00 Build 0)  -->
<!DOCTYPE svg PUBLIC "-//W3C//DTD SVG 1.1//EN" "http://www.w3.org/Graphics/SVG/1.1/DTD/svg11.dtd">
<svg version="1.1" id="Space" xmlns="http://www.w3.org/2000/svg" xmlns:xlink="http://www.w3.org/1999/xlink" x="0px" y="0px"
	 width="128px" height="120.881px" viewBox="0 0 128 120.881" enable-background="new 0 0 128 120.881" xml:space="preserve">
<g>
	<path fill="#3469D3" d="M50.054,54.053c0-11.498,8.885-20.9,20.159-21.768c-1.694-0.303-3.431-0.486-5.212-0.486
		c-16.37,0-29.643,13.27-29.643,29.641c0,8.152,3.295,15.531,8.619,20.891l12.659-12.66C52.579,65.703,50.054,60.176,50.054,54.053z
		"/>
	<path fill="#57A6FF" d="M50.054,54.053c0,6.123,2.524,11.65,6.582,15.617L85.86,40.445c-0.197-0.193-0.383-0.398-0.584-0.588
		c-0.015-0.014-0.027-0.023-0.041-0.037c-1.48-1.387-3.106-2.619-4.85-3.682c-0.095-0.059-0.188-0.117-0.283-0.174
		c-0.563-0.334-1.138-0.654-1.724-0.951c-0.017-0.008-0.031-0.016-0.046-0.021c-1.824-0.922-3.76-1.654-5.775-2.186
		c-0.134-0.035-0.267-0.07-0.4-0.104c-0.641-0.158-1.286-0.303-1.943-0.42l0,0C58.938,33.15,50.054,42.555,50.054,54.053z"/>
	<path fill="#25569E" d="M65.001,91.082c16.37,0,29.641-13.271,29.641-29.643c0-2.457-0.33-4.83-0.895-7.113
		c-0.149,11.941-9.862,21.578-21.84,21.578c-5.946,0-11.332-2.383-15.271-6.234L43.978,82.33
		C49.346,87.732,56.78,91.082,65.001,91.082z"/>
	<path fill="#3469D3" d="M56.636,69.67c3.939,3.854,9.324,6.234,15.271,6.234c11.977,0,21.689-9.637,21.839-21.578l-0.001-0.002
		c-1.208-4.896-3.633-9.309-6.93-12.902c-0.039-0.041-0.076-0.084-0.115-0.125c-0.271-0.293-0.56-0.568-0.842-0.85L56.636,69.67z"/>
	<path fill="#57A6FF" d="M60.899,58.176c0,1.512-1.226,2.736-2.736,2.736H41.946c-1.512,0-2.736-1.227-2.736-2.736l0,0
		c0-1.512,1.225-2.736,2.736-2.736h16.216C59.673,55.439,60.899,56.664,60.899,58.176L60.899,58.176z"/>
	<path fill="#3469D3" d="M69.31,47.453c0,1.512-1.226,2.736-2.736,2.736H50.356c-1.511,0-2.735-1.227-2.735-2.736l0,0
		c0-1.512,1.225-2.736,2.735-2.736h16.217C68.084,44.717,69.31,45.941,69.31,47.453L69.31,47.453z"/>
	<path fill="#57A6FF" d="M76.868,63.068c0,1.514-1.225,2.736-2.737,2.736H57.916c-1.511,0-2.736-1.225-2.736-2.736l0,0
		c0-1.51,1.226-2.734,2.736-2.734h16.216C75.644,60.334,76.868,61.559,76.868,63.068L76.868,63.068z"/>
	<path fill="#3469D3" d="M67.957,80.26c0,1.143-0.927,2.07-2.07,2.07H53.618c-1.143,0-2.07-0.93-2.07-2.07l0,0
		c0-1.145,0.928-2.07,2.07-2.07h12.269C67.03,78.188,67.957,79.115,67.957,80.26L67.957,80.26z"/>
	<circle fill="#57A6FF" cx="81.702" cy="63.069" r="2.735"/>
</g>
</svg>
