<?xml version="1.0" encoding="utf-8"?>
<!-- Generator: Adobe Illustrator 16.0.0, SVG Export Plug-In . SVG Version: 6.00 Build 0)  -->
<!DOCTYPE svg PUBLIC "-//W3C//DTD SVG 1.1//EN" "http://www.w3.org/Graphics/SVG/1.1/DTD/svg11.dtd">
<svg version="1.1" id="Space" xmlns="http://www.w3.org/2000/svg" xmlns:xlink="http://www.w3.org/1999/xlink" x="0px" y="0px"
	 width="128px" height="120.881px" viewBox="0 0 128 120.881" enable-background="new 0 0 128 120.881" xml:space="preserve">
<g>
	<g>
		<path fill="#C5C5C5" d="M76.744,91.69H58.651c-1.683,0-3.047,1.363-3.047,3.047h21.14V91.69L76.744,91.69z"/>
		<path fill="#A3A3A3" d="M76.744,94.737h-21.14c0,1.684,1.364,3.047,3.047,3.047h18.093V94.737z"/>
		<path fill="#C5C5C5" d="M76.744,97.784h18.092c1.683,0,3.047-1.363,3.047-3.047h-21.14L76.744,97.784L76.744,97.784z"/>
		<path fill="#FFFFFF" d="M76.744,94.737h21.14c0-1.684-1.363-3.047-3.047-3.047H76.745L76.744,94.737L76.744,94.737z"/>
		<path fill="#EF4F4D" d="M90.177,84.354c0-7.419-6.015-13.435-13.434-13.435v13.435H90.177z"/>
		<path fill="#A73935" d="M76.744,70.921c-7.419,0-13.435,6.014-13.435,13.434h13.435V70.921z"/>
		<polygon fill="#C5C5C5" points="44.599,66.073 43.5,66.542 32.909,41.671 39.658,35.082 40.493,35.937 34.328,41.957 		"/>

			<rect x="44.696" y="34.777" transform="matrix(0.7149 -0.6992 0.6992 0.7149 -14.414 42.7259)" fill="#A73935" width="0.992" height="8.526"/>
		<path fill="#A73935" d="M57.303,50.735L41.974,65.704c-1.109,1.082-1.131,2.858-0.048,3.967l17.337-16.929L57.303,50.735z"/>
		<path fill="#7F2D2D" d="M59.263,52.742L41.926,69.671c1.082,1.108,2.859,1.131,3.968,0.047l15.33-14.968L59.263,52.742z"/>
		<path fill="#A73935" d="M38.923,31.913c-1.334,1.303-1.359,3.441-0.057,4.776c1.303,1.334,3.441,1.36,4.775,0.057L38.923,31.913z"
			/>
		<path fill="#C5C5C5" d="M65.797,74.769c4.134,4.232,10.916,4.314,15.149,0.181l-7.484-7.665L65.797,74.769z"/>
		<path fill="#C5C5C5" d="M46.649,39.825c-2.116,2.066-2.156,5.458-0.09,7.574l3.834-3.742L46.649,39.825z"/>
		<polygon fill="#C5C5C5" points="61.414,70.279 69.079,62.796 61.224,54.75 45.894,69.72 		"/>
		<polygon fill="#C5C5C5" points="48.438,49.323 52.271,45.582 57.303,50.735 48.634,59.199 		"/>

			<rect x="60.98" y="66.084" transform="matrix(-0.7155 0.6986 -0.6986 -0.7155 161.063 69.7126)" fill="#A73935" width="10.713" height="3.137"/>

			<rect x="63.179" y="68.342" transform="matrix(-0.7154 0.6987 -0.6987 -0.7154 166.4119 72.0447)" fill="#7F2D2D" width="10.712" height="3.138"/>

			<rect x="46.731" y="45.14" transform="matrix(-0.7155 0.6986 -0.6986 -0.7155 117.2362 45.2255)" fill="#A73935" width="5.356" height="2.689"/>
		<polygon fill="#FFFFFF" points="72.94,38.4 73.435,37.313 48.823,26.131 42.074,32.722 42.909,33.577 49.074,27.557 		"/>

			<rect x="45.397" y="34.079" transform="matrix(-0.7159 0.6982 -0.6982 -0.7159 105.5191 33.7478)" fill="#EF4F4D" width="0.993" height="8.526"/>
		<path fill="#EF4F4D" d="M57.303,50.735l15.33-14.969c1.109-1.083,2.886-1.062,3.968,0.047L59.265,52.742L57.303,50.735z"/>
		<path fill="#A73935" d="M59.263,52.742l17.338-16.929c1.082,1.108,1.062,2.885-0.048,3.968L61.224,54.75L59.263,52.742z"/>
		<path fill="#EF4F4D" d="M38.923,31.913c1.335-1.303,3.475-1.277,4.776,0.057c1.304,1.334,1.278,3.473-0.058,4.776L38.923,31.913z"
			/>
		<path fill="#FFFFFF" d="M81.127,59.8c4.133,4.233,4.054,11.017-0.181,15.149l-7.484-7.665L81.127,59.8z"/>
		<path fill="#FFFFFF" d="M46.649,39.825c2.117-2.067,5.509-2.026,7.574,0.09l-3.832,3.742L46.649,39.825z"/>
		<polygon fill="#FFFFFF" points="76.744,55.312 69.079,62.796 61.224,54.75 76.553,39.781 		"/>
		<polygon fill="#FFFFFF" points="56.103,41.839 52.271,45.582 57.303,50.735 65.972,42.271 		"/>

			<rect x="68.645" y="58.594" transform="matrix(0.7156 -0.6986 0.6986 0.7156 -20.9773 68.8073)" fill="#EF4F4D" width="10.713" height="3.137"/>

			<rect x="70.844" y="60.852" transform="matrix(0.7155 -0.6986 0.6986 0.7155 -21.9289 70.9891)" fill="#A73935" width="10.714" height="3.137"/>

			<rect x="50.578" y="41.412" transform="matrix(0.7154 -0.6987 0.6987 0.7154 -14.7183 49.3748)" fill="#EF4F4D" width="5.356" height="2.689"/>
		<rect x="63.31" y="84.354" fill="#7F2D2D" width="13.435" height="7.336"/>
		<rect x="76.744" y="84.354" fill="#A73935" width="13.434" height="7.336"/>
		<g>
			<circle fill="#FFFFFF" cx="65.987" cy="89.489" r="1.135"/>
			<circle fill="#FFFFFF" cx="70.026" cy="89.489" r="1.135"/>
			<circle fill="#FFFFFF" cx="74.067" cy="89.489" r="1.135"/>
		</g>
		<g>
			<circle fill="#FFFFFF" cx="79.42" cy="89.489" r="1.135"/>
			<circle fill="#FFFFFF" cx="83.46" cy="89.489" r="1.135"/>
			<circle fill="#FFFFFF" cx="87.501" cy="89.489" r="1.135"/>
		</g>
		<circle fill="#FFFFFF" cx="41.127" cy="33.307" r="1.502"/>
	</g>
	<path opacity="0.2" fill="#FFFFFF" enable-background="new    " d="M42.883,25.274c-5.58,0.375-10.03,4.412-10.95,9.927
		c-0.092,0.552,0.465,1.049,0.975,1.074c0.605,0.03,0.982-0.423,1.074-0.974c0.72-4.318,4.434-7.685,8.802-7.979
		c0.557-0.038,1.044-0.368,1.073-0.974C43.881,25.838,43.44,25.236,42.883,25.274L42.883,25.274z"/>
	<path opacity="0.2" fill="#FFFFFF" enable-background="new    " d="M42.835,21.443c-3.646,0.192-7.053,1.552-9.784,3.989
		c-2.714,2.422-4.385,5.777-4.926,9.347c-0.084,0.554,0.458,1.049,0.974,1.074c0.601,0.03,0.991-0.422,1.074-0.974
		c0.943-6.222,6.277-11.058,12.563-11.389c0.558-0.029,1.045-0.374,1.074-0.974C43.834,22.002,43.396,21.415,42.835,21.443
		L42.835,21.443z"/>
</g>
</svg>
