<?xml version="1.0" encoding="utf-8"?>
<!-- Generator: Adobe Illustrator 16.0.0, SVG Export Plug-In . SVG Version: 6.00 Build 0)  -->
<!DOCTYPE svg PUBLIC "-//W3C//DTD SVG 1.1//EN" "http://www.w3.org/Graphics/SVG/1.1/DTD/svg11.dtd">
<svg version="1.1" id="Space" xmlns="http://www.w3.org/2000/svg" xmlns:xlink="http://www.w3.org/1999/xlink" x="0px" y="0px"
	 width="128px" height="120.881px" viewBox="0 0 128 120.881" enable-background="new 0 0 128 120.881" xml:space="preserve">
<g>
	<path fill="#F8AB1F" d="M57.346,68.474l-0.089,6.164l1.945-1.05c0,0,1.104,20.327,1.123,19.935
		c0.021-0.395,3.069-10.512,3.069-10.512s2.982,25.33,3.114,24.413c0.131-0.918,2.623-27.334,2.623-27.334l2.36,2.065l-1.049-13.682
		H57.346L57.346,68.474z"/>
	<g>
		<polygon fill="#FFFFFF" points="50.194,62.839 58.226,60.051 57.806,49.879 47.565,56.358 		"/>
		<rect x="63.604" y="15.515" fill="#A73935" width="0.67" height="7.531"/>
		<path fill="#EF4F4D" d="M56.134,69.583c0,0.707,3.494,1.279,7.804,1.279v-1.279H56.134z"/>
		<path fill="#FFFFFF" d="M63.938,19.284v43.473h-6.681c0,0-4.576-6.406-4.576-17.664S61.833,19.284,63.938,19.284z"/>
		<path fill="#F8AB1F" d="M58.226,26.618c1.677,0.746,3.628,1.177,5.712,1.177v-8.511C62.982,19.284,60.572,22.286,58.226,26.618z"
			/>
		<polygon fill="#EF4F4D" points="52.153,71.53 52.849,68.647 47.565,56.358 45.111,57.835 		"/>
		<path opacity="0.2" enable-background="new    " d="M63.938,38.336c-3.014,0-5.455,2.442-5.455,5.457
			c0,3.013,2.441,5.456,5.455,5.456V38.336z"/>
		<path fill="#EF4F4D" d="M63.938,52.662H53.409c0.725,3.657,1.849,6.388,2.694,8.082h7.834V52.662z"/>
		<path fill="#57A6FF" d="M63.938,38.912c-2.694,0-4.881,2.185-4.881,4.881h4.881V38.912z"/>
		<path fill="#3469D3" d="M59.057,43.793c0,2.694,2.187,4.881,4.881,4.881v-4.881H59.057z"/>
		<path opacity="0.2" enable-background="new    " d="M63.938,30.433c-1.935,0-3.503,1.568-3.503,3.504
			c0,1.935,1.568,3.502,3.503,3.502V30.433z"/>
		<path fill="#57A6FF" d="M63.938,31.05c-1.594,0-2.886,1.292-2.886,2.887h2.886V31.05z"/>
		<path fill="#3469D3" d="M61.052,33.937c0,1.594,1.292,2.885,2.886,2.885v-2.885H61.052z"/>
		<rect x="57.257" y="62.756" fill="#F8AB1F" width="6.682" height="2.949"/>
		<polygon fill="#FFFFFF" points="56.099,69.595 63.938,69.595 63.938,65.706 57.257,65.706 		"/>
		<circle fill="#FFFFFF" cx="57.692" cy="54.923" r="1.214"/>
		<circle fill="#FFFFFF" cx="60.331" cy="57.958" r="1.82"/>
		<polygon fill="#C5C5C5" points="77.682,62.839 69.65,60.051 70.07,49.879 80.313,56.358 		"/>
		<path fill="#A73935" d="M71.742,69.583c0,0.707-3.493,1.279-7.805,1.279v-1.279H71.742z"/>
		<path fill="#C5C5C5" d="M63.938,19.284v43.473h6.683c0,0,4.575-6.406,4.575-17.664S66.043,19.284,63.938,19.284z"/>
		<path fill="#FF6A1D" d="M69.65,26.618c-1.676,0.746-3.626,1.177-5.712,1.177v-8.511C64.894,19.284,67.304,22.286,69.65,26.618z"/>
		<polygon fill="#A73935" points="75.724,71.53 75.028,68.647 80.313,56.358 82.765,57.835 		"/>
		<path opacity="0.2" enable-background="new    " d="M63.938,38.336c3.015,0,5.457,2.442,5.457,5.457
			c0,3.013-2.442,5.456-5.457,5.456V38.336z"/>
		<path fill="#A73935" d="M63.938,52.662h10.53c-0.726,3.657-1.849,6.388-2.694,8.082h-7.836V52.662z"/>
		<path fill="#3469D3" d="M63.938,38.912c2.696,0,4.882,2.185,4.882,4.881h-4.882V38.912z"/>
		<path fill="#2A508C" d="M68.819,43.793c0,2.694-2.186,4.881-4.882,4.881v-4.881H68.819z"/>
		<path opacity="0.2" enable-background="new    " d="M63.938,30.433c1.936,0,3.504,1.568,3.504,3.504
			c0,1.935-1.568,3.502-3.504,3.502V30.433z"/>
		<path fill="#3469D3" d="M63.938,31.05c1.596,0,2.887,1.292,2.887,2.887h-2.887V31.05z"/>
		<path fill="#2A508C" d="M66.824,33.937c0,1.594-1.291,2.885-2.887,2.885v-2.885H66.824z"/>
		<rect x="63.938" y="62.756" fill="#FF6A1D" width="6.683" height="2.949"/>
		<polygon fill="#C5C5C5" points="71.778,69.595 63.938,69.595 63.938,65.706 70.62,65.706 		"/>
		<circle fill="#F8AB1F" cx="63.938" cy="14.264" r="1.69"/>
		<circle fill="#FFFFFF" cx="63.613" cy="13.964" r="0.66"/>
		<circle fill="#FFFFFF" cx="63.384" cy="33.381" r="0.889"/>
		<circle fill="#FFFFFF" cx="63.021" cy="42.877" r="1.524"/>
	</g>
</g>
</svg>
