<?xml version="1.0" encoding="utf-8"?>
<!-- Generator: Adobe Illustrator 16.0.0, SVG Export Plug-In . SVG Version: 6.00 Build 0)  -->
<!DOCTYPE svg PUBLIC "-//W3C//DTD SVG 1.1//EN" "http://www.w3.org/Graphics/SVG/1.1/DTD/svg11.dtd">
<svg version="1.1" id="Space" xmlns="http://www.w3.org/2000/svg" xmlns:xlink="http://www.w3.org/1999/xlink" x="0px" y="0px"
	 width="128px" height="120.881px" viewBox="0 0 128 120.881" enable-background="new 0 0 128 120.881" xml:space="preserve">
<g>
	<polygon fill="#A73935" points="66.348,62.914 64.33,60.729 81.32,45.035 103.072,52.23 102.137,55.053 82.051,48.408 	"/>
	<polygon fill="#A73935" points="58.919,41.711 52.381,44.5 52.381,47.039 58.919,49.828 	"/>
	<path fill="#D1D1D1" d="M62.715,61.418H44.792c-3.704,0-6.707,3.003-6.707,6.707h24.628L62.715,61.418L62.715,61.418z"/>
	<rect x="47.625" y="32.468" fill="#A5A5A5" width="0.905" height="10.198"/>
	<rect x="34.887" y="58.311" fill="#A5A5A5" width="0.905" height="10.197"/>
	<path fill="#FF6A1D" d="M78.142,43.178c-1.957,1.958-1.957,5.131,0,7.087c1.958,1.957,5.13,1.957,7.087,0L78.142,43.178z"/>
	<path fill="#F8AB1F" d="M85.229,50.266c1.957-1.957,1.957-5.13,0-7.087s-5.13-1.957-7.087,0L85.229,50.266z"/>
	<path fill="#F8AB1F" d="M80.457,72.833h-50.03c-3.704,0-6.707,3.003-6.707,6.707h63.444C87.164,75.836,84.16,72.833,80.457,72.833z
		"/>
	<path fill="#FF6A1D" d="M23.72,79.54c0,3.704,3.003,6.707,6.707,6.707h50.03c3.703,0,6.707-3.003,6.707-6.707H23.72z"/>
	<path fill="#EF4F4D" d="M58.919,49.852c1.13,0,2.047-0.916,2.047-2.046v-4.048c0-1.13-0.917-2.047-2.047-2.047V49.852z"/>
	<path fill="#F8AB1F" d="M101.873,55.344c-0.493,0-0.975-0.245-1.258-0.693c-0.845-1.336-1.117-2.922-0.77-4.465
		c0.35-1.541,1.275-2.855,2.613-3.701c2.76-1.742,6.424-0.914,8.166,1.846c0.438,0.693,0.232,1.613-0.463,2.052
		c-0.694,0.438-1.613,0.231-2.053-0.463c-0.867-1.374-2.688-1.786-4.063-0.918c-0.665,0.42-1.127,1.073-1.301,1.841
		c-0.172,0.768-0.037,1.557,0.384,2.221c0.438,0.695,0.231,1.613-0.464,2.053C102.421,55.27,102.146,55.344,101.873,55.344z"/>
	<path fill="#FF6A1D" d="M101.849,64.229c-0.021,0-0.04,0-0.062-0.002c-3.262-0.132-5.808-2.894-5.674-6.154
		c0.129-3.18,2.758-5.68,5.912-5.68c0.08,0,0.16,0,0.242,0.004c0.82,0.033,1.459,0.727,1.426,1.547
		c-0.033,0.799-0.691,1.426-1.484,1.426c-0.021,0-0.041,0-0.063,0c-1.623-0.069-2.996,1.201-3.063,2.822
		c-0.065,1.623,1.201,2.996,2.822,3.063c0.821,0.033,1.459,0.727,1.426,1.546C103.302,63.602,102.643,64.229,101.849,64.229z"/>
	<path fill="#EF4F4D" d="M55.442,66.126H37.521c-3.704,0-6.707,3.003-6.707,6.707h24.628V66.126z"/>
	<path fill="#A73935" d="M55.442,66.126h17.921c3.705,0,6.707,3.003,6.707,6.707H55.442V66.126z"/>
	<path fill="#D1D1D1" d="M42.26,85.477c0-3.82-3.098-6.919-6.919-6.919v6.919H42.26z"/>
	<path fill="#FFFFFF" d="M35.341,78.557c-3.822,0-6.92,3.098-6.92,6.92h6.92V78.557z"/>
	<path fill="#D1D1D1" d="M28.421,85.477c0,3.822,3.098,6.92,6.92,6.92v-6.92H28.421z"/>
	<path fill="#A5A5A5" d="M35.341,85.477v6.92c3.821,0,6.919-3.098,6.919-6.92H35.341z"/>
	<path opacity="0.2" enable-background="new    " d="M35.341,88.719c-1.788,0-3.242-1.454-3.242-3.242
		c0-1.787,1.454-3.242,3.242-3.242c1.787,0,3.242,1.455,3.242,3.242C38.582,87.265,37.128,88.719,35.341,88.719z"/>
	<circle fill="#A73935" cx="35.34" cy="85.477" r="2.746"/>
	<path fill="#D1D1D1" d="M62.361,85.477c0-3.82-3.098-6.919-6.919-6.919v6.919H62.361z"/>
	<path fill="#FFFFFF" d="M55.442,78.557c-3.821,0-6.919,3.098-6.919,6.92h6.919V78.557z"/>
	<path fill="#D1D1D1" d="M48.523,85.477c0,3.822,3.098,6.92,6.919,6.92v-6.92H48.523z"/>
	<path fill="#A5A5A5" d="M55.442,85.477v6.92c3.822,0,6.919-3.098,6.919-6.92H55.442z"/>
	<path opacity="0.2" enable-background="new    " d="M55.442,88.719c-1.787,0-3.241-1.454-3.241-3.242
		c0-1.787,1.454-3.242,3.241-3.242c1.788,0,3.242,1.455,3.242,3.242C58.684,87.265,57.229,88.719,55.442,88.719z"/>
	<circle fill="#A73935" cx="55.442" cy="85.477" r="2.746"/>
	<path fill="#D1D1D1" d="M82.464,85.477c0-3.82-3.097-6.919-6.919-6.919v6.919H82.464z"/>
	<path fill="#FFFFFF" d="M75.545,78.557c-3.822,0-6.92,3.098-6.92,6.92h6.92V78.557z"/>
	<path fill="#D1D1D1" d="M68.625,85.477c0,3.822,3.098,6.92,6.919,6.92v-6.92H68.625z"/>
	<path fill="#A5A5A5" d="M75.545,85.477v6.92c3.822,0,6.919-3.098,6.919-6.92H75.545z"/>
	<path opacity="0.2" enable-background="new    " d="M75.545,88.719c-1.788,0-3.242-1.454-3.242-3.242
		c0-1.787,1.455-3.242,3.242-3.242s3.242,1.455,3.242,3.242C78.787,87.265,77.332,88.719,75.545,88.719z"/>
	<circle fill="#A73935" cx="75.545" cy="85.477" r="2.746"/>
	<rect x="46.038" y="50.457" fill="#A73935" width="3.461" height="10.961"/>
	<rect x="42.26" y="41.082" fill="#FF6A1D" width="11.637" height="9.375"/>
	<path fill="#F8AB1F" d="M49.424,44.656c0,1.449-1.175,2.623-2.625,2.623h-4.54v-6.197h2.593h4.571L49.424,44.656L49.424,44.656z"/>
	<circle fill="#FFFFFF" cx="45.789" cy="43.951" r="1.285"/>
	<polygon opacity="0.2" enable-background="new    " points="53.896,47.686 55.161,48.225 55.161,43.314 53.896,43.854 	"/>
	<path fill="#A5A5A5" d="M99.637,52.027c-1.021,1.022-1.021,2.681,0,3.703c1.021,1.021,2.68,1.021,3.702,0L99.637,52.027z"/>
	<path fill="#FFFFFF" d="M103.339,55.73c1.022-1.022,1.022-2.681,0-3.703c-1.022-1.021-2.681-1.021-3.702,0L103.339,55.73z"/>
	<rect x="46.038" y="50.457" opacity="0.2" enable-background="new    " width="3.461" height="1.667"/>
	<path opacity="0.2" enable-background="new    " d="M38.389,66.126h18.783v-1.667H39.18C38.845,64.971,38.575,65.529,38.389,66.126
		z"/>
	<path fill="#A5A5A5" d="M62.727,56.709v7.283v2.134h7.284v-2.134C70.011,59.97,66.75,56.709,62.727,56.709z"/>
	<path fill="#FFFFFF" d="M55.442,63.992v2.134h7.285v-2.134v-7.283C58.704,56.709,55.442,59.97,55.442,63.992z"/>
	<path fill="#FFFFFF" d="M48.879,75.449c0,0.681-0.553,1.232-1.233,1.232H30.199c-0.681,0-1.233-0.552-1.233-1.232l0,0
		c0-0.682,0.552-1.233,1.233-1.233h17.447C48.326,74.216,48.879,74.768,48.879,75.449L48.879,75.449z"/>
	<circle fill="#FFFFFF" cx="51.195" cy="75.449" r="1.233"/>
	<circle fill="#FFFFFF" cx="55.056" cy="75.449" r="1.233"/>
	<circle fill="#FFFFFF" cx="58.917" cy="75.449" r="1.233"/>
	<circle fill="#D1D1D1" cx="48.078" cy="30.773" r="2.289"/>
	<circle fill="#D1D1D1" cx="35.34" cy="56.615" r="2.289"/>
	<circle fill="#FFFFFF" cx="34.887" cy="56.194" r="1.042"/>
	<circle fill="#FFFFFF" cx="47.625" cy="30.44" r="1.042"/>
</g>
</svg>
