<?xml version="1.0" encoding="utf-8"?>
<!-- Generator: Adobe Illustrator 16.0.0, SVG Export Plug-In . SVG Version: 6.00 Build 0)  -->
<!DOCTYPE svg PUBLIC "-//W3C//DTD SVG 1.1//EN" "http://www.w3.org/Graphics/SVG/1.1/DTD/svg11.dtd">
<svg version="1.1" id="Space" xmlns="http://www.w3.org/2000/svg" xmlns:xlink="http://www.w3.org/1999/xlink" x="0px" y="0px"
	 width="128px" height="120.881px" viewBox="0 0 128 120.881" enable-background="new 0 0 128 120.881" xml:space="preserve">
<g>
	<path fill="#EF4F4D" d="M55.244,35.868h9.1v-18.71C60.179,17.158,56.636,24.941,55.244,35.868z"/>
	<rect x="55.105" y="35.868" fill="#A73935" width="9.237" height="40.211"/>
	<path fill="#FFFFFF" d="M50.75,39.089v1.5h2.904v-1.5v-5.123C52.049,33.966,50.75,36.26,50.75,39.089z"/>
	<path fill="#C5C5C5" d="M56.558,39.089v1.5h-2.903v-1.5v-5.123C55.257,33.966,56.558,36.26,56.558,39.089z"/>
	<rect x="50.75" y="40.589" fill="#C5C5C5" width="5.809" height="58.898"/>
	<rect x="50.75" y="46.381" opacity="0.2" enable-background="new    " width="5.809" height="0.979"/>
	<rect x="50.75" y="52.173" opacity="0.2" enable-background="new    " width="5.809" height="0.979"/>
	<rect x="50.75" y="40.589" opacity="0.2" enable-background="new    " width="5.809" height="0.979"/>
	<rect x="50.75" y="57.965" opacity="0.2" enable-background="new    " width="5.809" height="0.979"/>
	<rect x="50.75" y="63.757" opacity="0.2" enable-background="new    " width="5.809" height="0.979"/>
	<rect x="50.75" y="69.549" opacity="0.2" enable-background="new    " width="5.809" height="0.979"/>
	<rect x="50.75" y="75.341" opacity="0.2" enable-background="new    " width="5.809" height="0.979"/>
	<rect x="50.75" y="92.717" opacity="0.2" enable-background="new    " width="5.809" height="0.979"/>
	<rect x="50.75" y="98.509" opacity="0.2" enable-background="new    " width="5.809" height="0.979"/>
	<path fill="#FFFFFF" d="M61.66,59.627v-2.362V49.2c-2.231,0-4.04,3.611-4.04,8.065c0,19.361-11.052,20.763-12.79,24.861
		c-0.786,1.782-1.344,3.986-1.344,3.986l15.598,5.455l3.998-2.629L61.66,59.627z"/>
	<path fill="#A73935" d="M43.486,86.112l15.597,5.455l3.999-2.629l-0.248-5.094H44.169C43.75,85.073,43.486,86.112,43.486,86.112z"
		/>
	<path fill="#FFFFFF" d="M60.303,46.838V49.2h4.04v-2.362v-8.065C62.113,38.773,60.303,42.384,60.303,46.838z"/>
	<path fill="#FFFFFF" d="M58.04,90.879v2.146h6.304v-2.146v-7.327C61.419,83.552,58.04,86.833,58.04,90.879z"/>
	<path fill="#EF4F4D" d="M59.639,98.604c0,0.977,1.055,1.768,2.354,1.768s2.354-0.792,2.354-1.768H59.639z"/>
	<rect x="60.303" y="49.2" fill="#C5C5C5" width="4.04" height="36.263"/>
	<rect x="58.04" y="93.024" fill="#C5C5C5" width="6.304" height="0.781"/>
	<rect x="59.639" y="93.806" fill="#FFFFFF" width="4.704" height="4.799"/>
	<path fill="#C5C5C5" d="M60.568,43.986h3.774v-5.213C62.616,38.773,61.146,40.942,60.568,43.986z"/>
	<rect x="61.689" y="45.945" fill="#333860" width="1.27" height="1.473"/>
	<path fill="#EF4F4D" d="M51.843,83.845h-7.675c-0.419,1.229-0.683,2.268-0.683,2.268l8.356,2.924L51.843,83.845L51.843,83.845z"/>
	<polygon fill="#EF4F4D" points="49.046,103.604 53.654,103.604 53.654,99.487 50.75,99.487 	"/>
	<rect x="50.75" y="103.604" fill="#FFFFFF" width="2.904" height="2.576"/>
	<polygon fill="#A73935" points="58.26,103.604 53.654,103.604 53.654,99.487 56.558,99.487 	"/>
	<rect x="53.654" y="103.604" fill="#C5C5C5" width="2.903" height="2.576"/>
	<path fill="#A73935" d="M73.447,35.868h-9.102v-18.71C68.51,17.158,72.053,24.941,73.447,35.868z"/>
	<rect x="64.346" y="35.868" fill="#7F2D2D" width="9.238" height="40.211"/>
	<path fill="#C5C5C5" d="M77.941,39.089v1.5h-2.904v-1.5v-5.123C76.64,33.966,77.941,36.26,77.941,39.089z"/>
	<path fill="#FFFFFF" d="M72.132,39.089v1.5h2.904v-1.5v-5.123C73.433,33.966,72.132,36.26,72.132,39.089z"/>
	<rect x="72.132" y="40.589" fill="#C5C5C5" width="5.81" height="58.898"/>
	<rect x="72.132" y="46.381" opacity="0.2" enable-background="new    " width="5.81" height="0.979"/>
	<rect x="72.132" y="52.173" opacity="0.2" enable-background="new    " width="5.81" height="0.979"/>
	<rect x="72.132" y="40.589" opacity="0.2" enable-background="new    " width="5.81" height="0.979"/>
	<rect x="72.132" y="57.965" opacity="0.2" enable-background="new    " width="5.81" height="0.979"/>
	<rect x="72.132" y="63.757" opacity="0.2" enable-background="new    " width="5.81" height="0.979"/>
	<rect x="72.132" y="69.549" opacity="0.2" enable-background="new    " width="5.81" height="0.979"/>
	<rect x="72.132" y="75.341" opacity="0.2" enable-background="new    " width="5.81" height="0.979"/>
	<rect x="72.132" y="92.717" opacity="0.2" enable-background="new    " width="5.81" height="0.979"/>
	<rect x="72.132" y="98.509" opacity="0.2" enable-background="new    " width="5.81" height="0.979"/>
	<path fill="#FFFFFF" d="M67.031,59.627v-2.362V49.2c2.229,0,4.04,3.611,4.04,8.065c0,19.361,11.051,20.763,12.79,24.861
		c0.784,1.782,1.343,3.986,1.343,3.986l-15.597,5.455l-3.998-2.629L67.031,59.627z"/>
	<path fill="#A73935" d="M85.204,86.112l-15.597,5.455l-3.998-2.629l0.247-5.094h18.665C84.941,85.073,85.204,86.112,85.204,86.112z
		"/>
	<path fill="#C5C5C5" d="M68.386,46.838V49.2h-4.04v-2.362v-8.065C66.578,38.773,68.386,42.384,68.386,46.838z"/>
	<path fill="#C5C5C5" d="M70.65,90.879v2.146h-6.305v-2.146v-7.327C67.271,83.552,70.65,86.833,70.65,90.879z"/>
	<path fill="#A73935" d="M69.05,98.604c0,0.977-1.053,1.768-2.354,1.768c-1.3,0-2.354-0.792-2.354-1.768H69.05z"/>
	<rect x="64.346" y="49.2" fill="#AAAAAA" width="4.04" height="36.263"/>
	<rect x="64.346" y="93.024" fill="#AAAAAA" width="6.305" height="0.781"/>
	<rect x="64.346" y="93.806" fill="#C5C5C5" width="4.704" height="4.799"/>
	<path fill="#AAAAAA" d="M68.123,43.986h-3.776v-5.213C66.074,38.773,67.544,40.942,68.123,43.986z"/>
	<rect x="65.732" y="45.945" fill="#333860" width="1.27" height="1.473"/>
	<path fill="#EF4F4D" d="M76.847,83.845h7.675c0.42,1.229,0.683,2.268,0.683,2.268l-8.356,2.924L76.847,83.845L76.847,83.845z"/>
	<polygon fill="#A73935" points="79.644,103.604 75.037,103.604 75.037,99.487 77.941,99.487 	"/>
	<rect x="75.037" y="103.604" fill="#C5C5C5" width="2.904" height="2.576"/>
	<polygon fill="#EF4F4D" points="70.429,103.604 75.037,103.604 75.037,99.487 72.132,99.487 	"/>
	<rect x="72.132" y="103.604" fill="#FFFFFF" width="2.904" height="2.576"/>
	<rect x="63.709" y="45.945" fill="#333860" width="1.269" height="1.473"/>
	<circle fill="#FFFFFF" cx="61.299" cy="30.751" r="2.306"/>
	<circle fill="#FFFFFF" cx="63.534" cy="24.828" r="1.499"/>
</g>
</svg>
