<?xml version="1.0" encoding="utf-8"?>
<!-- Generator: Adobe Illustrator 16.0.0, SVG Export Plug-In . SVG Version: 6.00 Build 0)  -->
<!DOCTYPE svg PUBLIC "-//W3C//DTD SVG 1.1//EN" "http://www.w3.org/Graphics/SVG/1.1/DTD/svg11.dtd">
<svg version="1.1" id="Space" xmlns="http://www.w3.org/2000/svg" xmlns:xlink="http://www.w3.org/1999/xlink" x="0px" y="0px"
	 width="128px" height="120.881px" viewBox="0 0 128 120.881" enable-background="new 0 0 128 120.881" xml:space="preserve">
<g>
	<path fill="#3469D3" d="M60.87,64.86h8.67c0.788,0,1.427-0.639,1.427-1.428H59.443C59.441,64.222,60.081,64.86,60.87,64.86z"/>
	<path fill="#57A6FF" d="M70.966,63.433c0-0.789-0.639-1.427-1.427-1.427h-8.67c-0.789,0-1.428,0.64-1.428,1.427H70.966z"/>
	<path fill="#57A6FF" d="M65.205,96.948v-3.719v-1.088h-3.719v1.088C61.486,95.283,63.15,96.948,65.205,96.948z"/>
	<path fill="#3469D3" d="M68.922,93.229v-1.09h-3.718v1.09v3.717C67.258,96.948,68.922,95.283,68.922,93.229z"/>
	<path fill="#C5C5C5" d="M68.794,92.14c1.456,0,2.638-1.18,2.638-2.636v-6.577h-6.228v4.621v4.592H68.794L68.794,92.14z"/>
	<path fill="#FFFFFF" d="M61.614,92.14c-1.456,0-2.638-1.18-2.638-2.636v-6.577h6.229v4.621v4.592H61.614L61.614,92.14z"/>
	<path fill="#FFFFFF" d="M60.417,71.747c-1.94,0-3.517,1.574-3.517,3.516v8.771h8.305v-6.162v-6.125H60.417z"/>
	<path fill="#C5C5C5" d="M69.992,71.747c1.941,0,3.516,1.574,3.516,3.516v8.771h-8.303v-6.162v-6.125H69.992z"/>
	<path fill="#7F2D2D" d="M65.205,82.927v2.446c3.412,0,5.125,1.292,6.467,2.688c0.92,0.957,2.43,1,3.407,0.113
		c-0.858-0.973-1.644-1.809-1.644-1.809C71.602,84.458,69.234,82.927,65.205,82.927z"/>
	<path fill="#A73935" d="M65.205,82.927c4.029,0,6.396,1.531,8.23,3.439c0,0,0.785,0.836,1.644,1.809
		c0.017-0.016,0.036-0.029,0.053-0.045c0.499-0.48,0.751-1.122,0.751-1.764c0-0.61-0.227-1.221-0.683-1.695
		c-1.729-1.799-4.647-4.189-9.995-4.189V82.927L65.205,82.927z"/>
	<path fill="#A73935" d="M65.205,82.927v2.446c-3.413,0-5.125,1.292-6.469,2.688c-0.92,0.957-2.43,1-3.406,0.113
		c0.859-0.973,1.645-1.809,1.645-1.809C58.809,84.458,61.173,82.927,65.205,82.927z"/>
	<path fill="#EF4F4D" d="M65.205,82.927c-4.031,0-6.396,1.531-8.23,3.439c0,0-0.785,0.836-1.645,1.809
		c-0.018-0.016-0.035-0.029-0.053-0.045c-0.5-0.48-0.75-1.122-0.75-1.764c0-0.61,0.227-1.221,0.683-1.695
		c1.729-1.799,4.647-4.189,9.996-4.189L65.205,82.927L65.205,82.927z"/>
	<rect x="61.277" y="64.86" fill="#EF4F4D" width="3.928" height="6.887"/>
	<rect x="65.205" y="64.86" fill="#A73935" width="3.927" height="6.887"/>
	<path fill="#57A6FF" d="M69.54,55.161h-8.671c-0.788,0-1.428,0.639-1.428,1.427h11.524C70.966,55.8,70.328,55.161,69.54,55.161z"/>
	<path fill="#3469D3" d="M59.441,56.588c0,0.789,0.64,1.427,1.428,1.427h8.671c0.788,0,1.427-0.639,1.427-1.427H59.441z"/>
	<path fill="#3469D3" d="M65.204,23.073v3.718v1.089h3.718v-1.089C68.922,24.737,67.258,23.073,65.204,23.073z"/>
	<path fill="#57A6FF" d="M61.486,26.791v1.089h3.718v-1.089v-3.718C63.15,23.073,61.486,24.737,61.486,26.791z"/>
	<path fill="#FFFFFF" d="M61.614,27.88c-1.456,0-2.638,1.18-2.638,2.637v6.576h6.229v-4.621V27.88H61.614z"/>
	<path fill="#C5C5C5" d="M68.794,27.88c1.456,0,2.638,1.18,2.638,2.637v6.576h-6.228v-4.621V27.88H68.794z"/>
	<path fill="#C5C5C5" d="M69.992,48.272c1.941,0,3.516-1.573,3.516-3.516v-8.771h-8.303v6.162v6.125H69.992z"/>
	<path fill="#FFFFFF" d="M60.417,48.272c-1.94,0-3.517-1.573-3.517-3.516v-8.771h8.305v6.162v6.125H60.417z"/>
	<path fill="#EF4F4D" d="M65.205,37.093v-2.445c-3.413,0-5.125-1.293-6.469-2.688c-0.92-0.958-2.43-1.001-3.406-0.114
		c0.859,0.973,1.645,1.809,1.645,1.809C58.809,35.563,61.173,37.093,65.205,37.093z"/>
	<path fill="#A73935" d="M65.205,37.093c-4.031,0-6.396-1.531-8.23-3.439c0,0-0.785-0.836-1.645-1.809
		c-0.018,0.016-0.035,0.029-0.053,0.045c-0.5,0.48-0.75,1.123-0.75,1.764c0,0.611,0.227,1.222,0.683,1.695
		c1.729,1.799,4.647,4.19,9.996,4.19L65.205,37.093L65.205,37.093z"/>
	<path fill="#A73935" d="M65.205,37.093v-2.445c3.412,0,5.125-1.293,6.467-2.688c0.92-0.958,2.43-1.001,3.407-0.114
		c-0.858,0.973-1.644,1.809-1.644,1.809C71.602,35.563,69.234,37.093,65.205,37.093z"/>
	<path fill="#7F2D2D" d="M65.205,37.093c4.029,0,6.396-1.531,8.23-3.439c0,0,0.785-0.836,1.644-1.809
		c0.017,0.016,0.036,0.029,0.053,0.045c0.499,0.48,0.751,1.123,0.751,1.764c0,0.611-0.227,1.222-0.683,1.695
		c-1.729,1.799-4.647,4.19-9.995,4.19V37.093L65.205,37.093z"/>
	<rect x="65.205" y="48.272" fill="#A73935" width="3.927" height="6.888"/>
	<rect x="61.277" y="48.272" fill="#EF4F4D" width="3.928" height="6.888"/>
	<rect x="61.277" y="58.015" fill="#FFFFFF" width="3.928" height="3.99"/>
	<rect x="65.205" y="58.015" fill="#C5C5C5" width="3.927" height="3.99"/>
	<path fill="#FFFFFF" d="M106.861,48.272c0.844,0,1.527,0.686,1.527,1.528v20.417c0,0.844-0.685,1.528-1.527,1.528H77.464
		c-0.844,0-1.528-0.685-1.528-1.528V49.801c0-0.844,0.686-1.528,1.528-1.528H106.861z"/>
	<g>
		<g>
			<rect x="77.479" y="63.896" fill="#57A6FF" width="6.41" height="6.41"/>
			<rect x="77.479" y="56.806" fill="#57A6FF" width="6.41" height="6.41"/>
			<rect x="77.479" y="49.715" fill="#57A6FF" width="6.41" height="6.411"/>
		</g>
		<g>
			<rect x="85.13" y="63.896" fill="#57A6FF" width="6.411" height="6.41"/>
			<rect x="85.13" y="56.806" fill="#57A6FF" width="6.411" height="6.41"/>
			<rect x="85.13" y="49.715" fill="#57A6FF" width="6.411" height="6.411"/>
		</g>
		<g>
			<rect x="92.783" y="63.896" fill="#57A6FF" width="6.411" height="6.41"/>
			<rect x="92.783" y="56.806" fill="#57A6FF" width="6.411" height="6.41"/>
			<rect x="92.783" y="49.715" fill="#57A6FF" width="6.411" height="6.411"/>
		</g>
		<g>
			<rect x="100.435" y="63.896" fill="#57A6FF" width="6.411" height="6.41"/>
			<rect x="100.435" y="56.806" fill="#57A6FF" width="6.411" height="6.41"/>
			<rect x="100.435" y="49.715" fill="#57A6FF" width="6.411" height="6.411"/>
		</g>
	</g>
	<g>
		<rect x="69.132" y="66.569" fill="#7F2D2D" width="6.804" height="1.734"/>
		<rect x="69.132" y="51.717" fill="#7F2D2D" width="6.804" height="1.733"/>
	</g>
	<path fill="#FFFFFF" d="M23.548,71.747c-0.844,0-1.528-0.686-1.528-1.527V49.802c0-0.844,0.685-1.527,1.528-1.527h29.397
		c0.844,0,1.527,0.685,1.527,1.527V70.22c0,0.844-0.685,1.527-1.527,1.527H23.548z"/>
	<g>
		<g>
			<rect x="46.52" y="49.715" fill="#57A6FF" width="6.41" height="6.411"/>
			<rect x="46.52" y="56.806" fill="#57A6FF" width="6.41" height="6.41"/>
			<rect x="46.52" y="63.896" fill="#57A6FF" width="6.41" height="6.41"/>
		</g>
		<g>
			<rect x="38.867" y="49.715" fill="#57A6FF" width="6.41" height="6.411"/>
			<rect x="38.867" y="56.806" fill="#57A6FF" width="6.41" height="6.41"/>
			<rect x="38.867" y="63.896" fill="#57A6FF" width="6.41" height="6.41"/>
		</g>
		<g>
			<rect x="31.214" y="49.715" fill="#57A6FF" width="6.411" height="6.411"/>
			<rect x="31.214" y="56.806" fill="#57A6FF" width="6.411" height="6.41"/>
			<rect x="31.214" y="63.896" fill="#57A6FF" width="6.411" height="6.41"/>
		</g>
		<g>
			<rect x="23.563" y="49.715" fill="#57A6FF" width="6.41" height="6.411"/>
			<rect x="23.563" y="56.806" fill="#57A6FF" width="6.41" height="6.41"/>
			<rect x="23.563" y="63.896" fill="#57A6FF" width="6.41" height="6.41"/>
		</g>
	</g>
	<g>
		<rect x="54.473" y="51.717" fill="#A73935" width="6.805" height="1.733"/>
		<rect x="54.473" y="66.569" fill="#A73935" width="6.805" height="1.734"/>
	</g>
</g>
</svg>
