<?xml version="1.0" encoding="utf-8"?>
<!-- Generator: Adobe Illustrator 16.0.0, SVG Export Plug-In . SVG Version: 6.00 Build 0)  -->
<!DOCTYPE svg PUBLIC "-//W3C//DTD SVG 1.1//EN" "http://www.w3.org/Graphics/SVG/1.1/DTD/svg11.dtd">
<svg version="1.1" id="Space" xmlns="http://www.w3.org/2000/svg" xmlns:xlink="http://www.w3.org/1999/xlink" x="0px" y="0px"
	 width="128px" height="120.881px" viewBox="0 0 128 120.881" enable-background="new 0 0 128 120.881" xml:space="preserve">
<g>
	<polygon fill="#F8AB1F" points="46.525,81.937 49.678,83.595 49.075,80.085 51.626,77.601 48.102,77.087 46.525,73.896
		44.949,77.087 41.428,77.601 43.978,80.085 43.374,83.595 	"/>
	<polygon fill="#F8AB1F" points="80.771,36.499 83.185,37.769 82.724,35.081 84.675,33.181 81.978,32.788 80.771,30.345
		79.565,32.788 76.869,33.181 78.82,35.081 78.36,37.769 	"/>
	<polygon fill="#FFFFFF" points="73.831,95.722 76.243,96.989 75.782,94.304 77.733,92.403 75.037,92.011 73.831,89.567
		72.626,92.011 69.93,92.403 71.881,94.304 71.421,96.989 	"/>
	<polygon fill="#FFFFFF" points="31.793,63.999 34.203,65.267 33.743,62.581 35.694,60.681 32.999,60.286 31.793,57.845
		30.587,60.286 27.89,60.681 29.841,62.581 29.381,65.267 	"/>
	<polygon fill="#FFFFFF" points="69.296,56.94 77.733,61.556 69.296,66.171 64.68,74.61 60.063,66.171 51.626,61.556 60.063,56.94
		64.68,48.501 	"/>
	<polygon fill="#F8AB1F" points="100.113,60.562 104.015,62.694 100.113,64.827 97.98,68.728 95.849,64.827 91.947,62.694
		95.849,60.562 97.98,56.661 	"/>
	<polygon fill="#FFFFFF" points="45.354,44.505 47.978,45.938 45.354,47.372 43.922,49.993 42.486,47.372 39.865,45.938
		42.486,44.505 43.922,41.882 	"/>
	<polygon opacity="0.3" fill="#FFFFFF" enable-background="new    " points="83.363,48.745 84.675,49.462 83.363,50.181
		82.646,51.489 81.931,50.181 80.618,49.462 81.931,48.745 82.646,47.435 	"/>
	<polygon opacity="0.3" fill="#FFFFFF" enable-background="new    " points="81.336,84.905 82.646,85.62 81.336,86.337
		80.618,87.649 79.901,86.337 78.591,85.62 79.901,84.905 80.618,83.595 	"/>
	<polygon opacity="0.3" fill="#FFFFFF" enable-background="new    " points="84.47,78.028 85.779,78.743 84.47,79.46 83.753,80.772
		83.034,79.46 81.725,78.743 83.034,78.028 83.753,76.716 	"/>
	<polygon opacity="0.3" fill="#FFFFFF" enable-background="new    " points="42.61,33.339 43.922,34.056 42.61,34.774
		41.894,36.083 41.178,34.774 39.865,34.056 41.178,33.339 41.894,32.028 	"/>
	<polygon opacity="0.3" fill="#FFFFFF" enable-background="new    " points="63.021,82.876 64.334,83.595 63.021,84.312
		62.306,85.62 61.589,84.312 60.277,83.595 61.589,82.876 62.306,81.565 	"/>
	<polygon opacity="0.3" fill="#FFFFFF" enable-background="new    " points="57.743,35.366 59.055,36.083 57.743,36.8
		57.026,38.112 56.311,36.8 54.999,36.083 56.311,35.366 57.026,34.056 	"/>
</g>
</svg>
