<?xml version="1.0" encoding="utf-8"?>
<!-- Generator: Adobe Illustrator 16.0.0, SVG Export Plug-In . SVG Version: 6.00 Build 0)  -->
<!DOCTYPE svg PUBLIC "-//W3C//DTD SVG 1.1//EN" "http://www.w3.org/Graphics/SVG/1.1/DTD/svg11.dtd">
<svg version="1.1" id="Space" xmlns="http://www.w3.org/2000/svg" xmlns:xlink="http://www.w3.org/1999/xlink" x="0px" y="0px"
	 width="128px" height="120.881px" viewBox="0 0 128 120.881" enable-background="new 0 0 128 120.881" xml:space="preserve">
<g>
	<circle opacity="0.2" fill="#FFD41D" enable-background="new    " cx="63.204" cy="60.572" r="46.634"/>
	<circle opacity="0.2" fill="#FFD41D" enable-background="new    " cx="63.204" cy="60.573" r="39.23"/>
	<g>
		<path fill="#F99300" d="M47.564,52.843c0-12.031,9.297-21.871,21.095-22.779c-1.773-0.314-3.589-0.508-5.454-0.508
			c-17.131,0-31.02,13.887-31.02,31.018c0,8.531,3.446,16.252,9.019,21.861l13.248-13.248
			C50.206,65.034,47.564,59.251,47.564,52.843z"/>
		<path fill="#FFD13E" d="M47.564,52.843c0,6.408,2.642,12.191,6.888,16.344l30.581-30.582c-0.206-0.203-0.4-0.418-0.611-0.615
			c-0.014-0.014-0.027-0.025-0.043-0.039c-1.549-1.451-3.25-2.74-5.074-3.852c-0.099-0.063-0.197-0.123-0.298-0.182
			c-0.589-0.35-1.188-0.686-1.802-0.996c-0.018-0.008-0.033-0.016-0.048-0.023c-1.909-0.963-3.933-1.729-6.044-2.285
			c-0.141-0.037-0.278-0.074-0.418-0.107c-0.67-0.166-1.348-0.318-2.035-0.439l0,0C56.861,30.972,47.564,40.812,47.564,52.843z"/>
		<path fill="#C64012" d="M63.205,91.593c17.131,0,31.019-13.889,31.019-31.02c0-2.57-0.347-5.055-0.937-7.443
			c-0.156,12.496-10.321,22.582-22.854,22.582c-6.224,0-11.857-2.494-15.98-6.525L41.205,82.435
			C46.823,88.089,54.604,91.593,63.205,91.593z"/>
		<path fill="#F99300" d="M54.452,69.187c4.123,4.031,9.758,6.525,15.979,6.525c12.533,0,22.698-10.086,22.854-22.582
			c0,0-0.001-0.002-0.001-0.004c-1.266-5.123-3.801-9.738-7.252-13.5c-0.041-0.045-0.08-0.09-0.119-0.133
			c-0.284-0.307-0.586-0.594-0.882-0.889L54.452,69.187z"/>
		<path fill="#FFD13E" d="M65.666,44.935c0,1.467-1.189,2.656-2.658,2.656H42.673c-1.467,0-2.657-1.189-2.657-2.656l0,0
			c0-1.469,1.19-2.658,2.657-2.658h20.335C64.477,42.276,65.666,43.466,65.666,44.935L65.666,44.935z"/>
		<path fill="#FFD13E" d="M60.838,78.161c0,1.123-0.911,2.035-2.033,2.035H43.239c-1.124,0-2.034-0.912-2.034-2.035l0,0
			c0-1.123,0.911-2.033,2.034-2.033h15.565C59.927,76.128,60.838,77.038,60.838,78.161L60.838,78.161z"/>
		<path fill="#FFD13E" d="M92.127,65.563c0,1.045-0.847,1.891-1.893,1.891H75.76c-1.044,0-1.892-0.846-1.892-1.891l0,0
			c0-1.045,0.848-1.893,1.892-1.893h14.477C91.281,63.671,92.127,64.519,92.127,65.563L92.127,65.563z"/>
		<circle fill="#FFFFFF" cx="57.645" cy="52.817" r="3.193"/>
		<circle fill="#C64012" cx="41.205" cy="64.137" r="4.96"/>
		<circle fill="#FFFFFF" cx="67.354" cy="43.223" r="6.515"/>
	</g>
</g>
</svg>
