<?xml version="1.0" encoding="utf-8"?>
<!-- Generator: Adobe Illustrator 16.0.0, SVG Export Plug-In . SVG Version: 6.00 Build 0)  -->
<!DOCTYPE svg PUBLIC "-//W3C//DTD SVG 1.1//EN" "http://www.w3.org/Graphics/SVG/1.1/DTD/svg11.dtd">
<svg version="1.1" id="Space" xmlns="http://www.w3.org/2000/svg" xmlns:xlink="http://www.w3.org/1999/xlink" x="0px" y="0px"
	 width="128px" height="120.881px" viewBox="0 0 128 120.881" enable-background="new 0 0 128 120.881" xml:space="preserve">
<g>
	<g>

			<rect x="48.926" y="63.582" transform="matrix(-0.7526 -0.6585 0.6585 -0.7526 33.871 174.871)" fill="#C5C5C5" width="1.723" height="34.981"/>

			<rect x="65.919" y="80.243" transform="matrix(-0.6585 -0.7526 0.7526 -0.6585 77.2957 197.2854)" fill="#C5C5C5" width="34.982" height="1.723"/>
	</g>
	<rect x="65.742" y="67.259" fill="#C5C5C5" width="1.724" height="26.978"/>
	<rect x="60.573" y="59.211" fill="#57A6FF" width="12.062" height="6.055"/>
	<path opacity="0.2" enable-background="new    " d="M63.392,59.211c-0.405,0.789-0.514,1.732-0.219,2.64
		c0.462,1.427,1.779,2.384,3.277,2.384c0.36,0,0.718-0.057,1.063-0.168c2.026-0.656,3.893-2.476,5.039-4.855H63.392z"/>
	<rect x="58.941" y="65.266" fill="#3469D3" width="15.324" height="3.985"/>
	<path fill="#9E9E9E" d="M66.452,63.66c-1.212,0-2.339-0.771-2.731-1.986c-0.487-1.506,0.335-3.123,1.839-3.615
		c0.192-0.08,1.051-0.712,1.565-2.234c0.51-1.506,0.93-4.76-1.99-9.635c-0.813-1.361-0.371-3.125,0.989-3.938
		c1.359-0.815,3.124-0.373,3.939,0.987c4.236,7.078,3.305,12.307,2.372,14.793c-1.013,2.693-2.966,4.797-5.099,5.488
		C67.042,63.615,66.745,63.66,66.452,63.66z"/>
	<path opacity="0.2" enable-background="new    " d="M66.339,48.523c0.793,1.82,1.094,3.348,1.139,4.576l5.593,2.447
		c0.217-1.432,0.246-3.208-0.175-5.287l-6.141-2.688L66.339,48.523z"/>
	<path fill="#3469D3" d="M92.207,60.256c0.743,0.326,1.609-0.014,1.935-0.756l1.165-2.662c0.325-0.743-0.014-1.609-0.757-1.936
		L92.207,60.256z"/>

		<rect x="83.644" y="52.657" transform="matrix(-0.9161 -0.401 0.401 -0.9161 148.8804 139.399)" fill="#FFFFFF" width="10.768" height="2.923"/>

		<rect x="82.465" y="55.286" transform="matrix(-0.9161 -0.401 0.401 -0.9161 145.5739 143.9585)" fill="#C5C5C5" width="10.768" height="2.924"/>

		<rect x="83.485" y="50.646" transform="matrix(-0.9162 -0.4007 0.4007 -0.9162 139.7787 136.3722)" opacity="0.2" enable-background="new    " width="1.328" height="5.848"/>
	<path fill="#3469D3" d="M79.553,56.734c1.214,0.53,2.628-0.022,3.158-1.236l1.902-4.344c0.529-1.213-0.022-2.627-1.235-3.158
		L79.553,56.734z"/>

		<rect x="68.121" y="44.836" transform="matrix(-0.9161 -0.401 0.401 -0.9161 125.8891 120.7902)" fill="#FFFFFF" width="14.923" height="4.774"/>

		<rect x="66.207" y="49.209" transform="matrix(-0.9161 -0.401 0.401 -0.9161 120.4638 128.4038)" fill="#C5C5C5" width="14.923" height="4.774"/>

		<rect x="67.682" y="42.051" transform="matrix(-0.916 -0.4012 0.4012 -0.916 112.9658 117.3068)" opacity="0.2" enable-background="new    " width="2.169" height="9.547"/>
	<path fill="#57A6FF" d="M34.499,27.164c-0.508-0.223-1.683,1.342-2.624,3.494c-0.942,2.151-1.295,4.076-0.786,4.299L34.499,27.164z
		"/>
	<path fill="#57A6FF" d="M94.104,59.588c0.185,0.081,0.612-0.49,0.956-1.275c0.346-0.785,0.474-1.488,0.287-1.568L94.104,59.588z"/>
	<path fill="#3469D3" d="M93.738,46.645c0.742,0.325,1.523,0.182,1.745-0.322l0.788-1.805c0.222-0.504-0.202-1.176-0.945-1.501
		L93.738,46.645z"/>
	<path fill="#57A6FF" d="M85.46,38.697c-0.742-0.324-1.522-0.18-1.744,0.324l-0.79,1.803c-0.221,0.504,0.203,1.177,0.946,1.502
		L85.46,38.697z"/>

		<rect x="84.611" y="40.81" transform="matrix(-0.9161 -0.401 0.401 -0.9161 155.6745 116.1805)" fill="#FFFFFF" width="10.767" height="1.982"/>

		<rect x="83.816" y="42.625" transform="matrix(-0.9161 -0.401 0.401 -0.9161 153.4232 119.3412)" fill="#C5C5C5" width="10.767" height="1.983"/>
	<path fill="#57A6FF" d="M41.938,26.224c-2.062-0.901-4.464,0.038-5.365,2.099l-3.23,7.381c-0.9,2.061,0.038,4.463,2.101,5.365
		L41.938,26.224z"/>
	<path fill="#3469D3" d="M61.183,52.336c2.063,0.902,4.464-0.038,5.365-2.098l3.23-7.381c0.901-2.062-0.037-4.464-2.1-5.365
		L61.183,52.336z"/>

		<rect x="39.132" y="31.491" transform="matrix(-0.9161 -0.4009 0.4009 -0.9161 87.654 89.4247)" fill="#FFFFFF" width="28.1" height="8.102"/>

		<rect x="35.889" y="38.965" transform="matrix(-0.9161 -0.401 0.401 -0.9161 78.4383 102.4463)" fill="#C5C5C5" width="28.101" height="8.1"/>

		<rect x="32.72" y="27.258" transform="matrix(0.916 0.4012 -0.4012 0.916 15.4911 -10.9534)" fill="#FFFFFF" width="2.364" height="8.514"/>

		<rect x="38.588" y="25.97" transform="matrix(-0.9162 -0.4007 0.4007 -0.9162 62.3691 81.1846)" opacity="0.2" enable-background="new    " width="2.169" height="16.203"/>

		<rect x="88.903" y="45.239" transform="matrix(-0.9159 -0.4014 0.4014 -0.9159 152.3068 129.6215)" fill="#9E9E9E" width="1.657" height="7.237"/>
	<circle fill="#FFFFFF" cx="66.604" cy="60.814" r="1.424"/>
	<path fill="#3469D3" d="M43.234,97.644c0-2.508-2.033-4.542-4.542-4.542v4.542H43.234z"/>
	<path fill="#57A6FF" d="M38.692,93.102c-2.51,0-4.542,2.034-4.542,4.542h4.542V93.102z"/>
	<path fill="#3469D3" d="M71.146,97.644c0-2.508-2.033-4.542-4.544-4.542v4.542H71.146z"/>
	<path fill="#57A6FF" d="M66.604,93.102c-2.509,0-4.543,2.034-4.543,4.542h4.543V93.102z"/>
	<path fill="#3469D3" d="M99.09,97.644c0-2.508-2.034-4.542-4.542-4.542v4.542H99.09z"/>
	<path fill="#57A6FF" d="M94.548,93.102c-2.509,0-4.543,2.034-4.543,4.542h4.543V93.102z"/>
</g>
</svg>
