<?xml version="1.0" encoding="utf-8"?>
<!-- Generator: Adobe Illustrator 16.0.0, SVG Export Plug-In . SVG Version: 6.00 Build 0)  -->
<!DOCTYPE svg PUBLIC "-//W3C//DTD SVG 1.1//EN" "http://www.w3.org/Graphics/SVG/1.1/DTD/svg11.dtd">
<svg version="1.1" id="Space" xmlns="http://www.w3.org/2000/svg" xmlns:xlink="http://www.w3.org/1999/xlink" x="0px" y="0px"
	 width="128px" height="120.881px" viewBox="0 0 128 120.881" enable-background="new 0 0 128 120.881" xml:space="preserve">
<g>
	<path opacity="0.2" fill="#FFFFFF" enable-background="new    " d="M54.341,60.087l-18.814,44.848
		c8.528,5.049,18.472,7.955,29.1,7.955s20.572-2.906,29.1-7.955L74.912,60.087l-10.285,0.807l0,0L54.341,60.087z"/>
	<g>

			<rect x="75.942" y="87.616" transform="matrix(-0.9419 0.3359 -0.3359 -0.9419 179.5603 150.9942)" fill="#C69B73" width="1.561" height="6.818"/>

			<rect x="72.407" y="88.884" transform="matrix(-0.942 0.3357 -0.3357 -0.942 173.1104 154.6665)" fill="#AD8463" width="1.562" height="6.819"/>

			<rect x="64.149" y="91.823" transform="matrix(-0.9417 0.3364 -0.3364 -0.9417 158.1125 163.0707)" fill="#C69B73" width="1.562" height="6.818"/>

			<rect x="60.612" y="93.085" transform="matrix(-0.9419 0.3359 -0.3359 -0.9419 151.6273 166.7647)" fill="#AD8463" width="1.561" height="6.818"/>

			<rect x="77.497" y="93.197" transform="matrix(0.3368 0.9416 -0.9416 0.3368 140.0744 -10.9087)" fill="#784F27" width="0.568" height="1.562"/>

			<rect x="73.962" y="94.45" transform="matrix(0.3337 0.9427 -0.9427 0.3337 139.2398 -6.5396)" fill="#784F27" width="0.568" height="1.562"/>

			<rect x="65.703" y="97.393" transform="matrix(0.3368 0.9416 -0.9416 0.3368 136.2038 2.9789)" fill="#784F27" width="0.568" height="1.562"/>

			<rect x="62.17" y="98.658" transform="matrix(0.336 0.9419 -0.9419 0.336 135.1271 7.2034)" fill="#784F27" width="0.568" height="1.562"/>

			<ellipse transform="matrix(-0.3361 -0.9418 0.9418 -0.3361 10.1898 189.8995)" fill="#F9A0A0" cx="72.024" cy="91.358" rx="1.688" ry="2.465"/>
		<path fill="#E2C89A" d="M77.273,86.351c0.547,1.535-0.252,3.225-1.787,3.771l-13.261,4.73c-1.535,0.549-3.224-0.252-3.771-1.787
			L55.89,85.88c-0.548-1.535,0.253-3.225,1.788-3.771l13.261-4.73c1.535-0.548,3.223,0.252,3.771,1.788L77.273,86.351z"/>
		<g>
			<path fill="#E2C89A" d="M54.167,87.228c-0.039,1.455-0.542,2.996-1.454,4.11c-0.912,1.115-2.012,1.537-2.961,1.29
				c0.039-1.455,0.542-2.995,1.454-4.109C52.117,87.403,53.217,86.981,54.167,87.228z"/>
			<path fill="#C69B73" d="M52.713,91.337c0.912-1.115,1.415-2.654,1.454-4.109l-4.415,5.399
				C50.701,92.875,51.801,92.452,52.713,91.337z"/>
			<path fill="#C69B73" d="M58.078,85.832c0.951,1.103,2.315,1.976,3.727,2.261c1.411,0.286,2.531-0.084,3.109-0.875
				c-0.951-1.102-2.315-1.976-3.727-2.262S58.656,85.041,58.078,85.832z"/>
			<path fill="#AD8463" d="M61.805,88.093c-1.412-0.285-2.776-1.16-3.727-2.261l6.836,1.386
				C64.335,88.009,63.216,88.379,61.805,88.093z"/>
		</g>
		<path fill="#FFFFFF" d="M47.146,84.853c0,0,3.188,2.103,5.402,1.479c2.214-0.624,1.072,3.004,1.072,3.004
			S47.568,90.183,47.146,84.853z"/>
		<path fill="#FFFFFF" d="M62.394,79.413c0,0-1.137,3.645-3.246,4.563s1.072,3.004,1.072,3.004S65.441,83.806,62.394,79.413z"/>
		<path fill="#E2C89A" d="M62.269,90.036c0.548,1.535-0.253,3.225-1.788,3.771l-3.011,1.073c-1.535,0.548-3.224-0.252-3.771-1.788
			L51.84,87.88c-0.548-1.535,0.252-3.223,1.787-3.771l3.011-1.074c1.536-0.547,3.224,0.253,3.772,1.787L62.269,90.036z"/>
		<path fill="#C69B73" d="M56.638,83.036l-1.563,0.559l3.843,10.77l1.564-0.557c1.535-0.549,2.335-2.236,1.788-3.771l-1.859-5.212
			C59.861,83.289,58.173,82.487,56.638,83.036z"/>
		<path fill="#FFFFFF" d="M64.875,92.946c0.547,1.535-0.253,3.224-1.788,3.771l-5.907,2.107c-1.535,0.548-3.223-0.253-3.771-1.788
			l-0.285-0.799c-0.548-1.534,0.253-3.223,1.788-3.771l5.906-2.106c1.535-0.549,3.224,0.252,3.771,1.787L64.875,92.946z"/>
		<circle fill="#C69B73" cx="55.978" cy="96.194" r="1.104"/>
		<circle fill="#C69B73" cx="62.155" cy="93.99" r="1.104"/>
		<g>
			<circle fill="#58595B" cx="55.353" cy="88.717" r="0.62"/>
			<circle fill="#58595B" cx="58.102" cy="87.736" r="0.62"/>
		</g>
		<path fill="#F9A0A0" d="M73.048,93.327c0.06,0.166-0.026,0.347-0.192,0.406l0,0c-0.164,0.059-0.347-0.027-0.405-0.192
			l-0.255-0.714c-0.059-0.166,0.027-0.348,0.191-0.406l0,0c0.165-0.059,0.348,0.027,0.406,0.191L73.048,93.327z"/>
		<path fill="#F9A0A0" d="M71.702,93.459c0.06,0.166-0.027,0.347-0.192,0.405l0,0c-0.166,0.06-0.347-0.026-0.406-0.191l-0.254-0.714
			c-0.06-0.165,0.026-0.347,0.191-0.405l0,0c0.165-0.06,0.348,0.026,0.406,0.191L71.702,93.459z"/>
		<path fill="#F9A0A0" d="M74.107,92.601c0.059,0.166-0.027,0.348-0.192,0.406l0,0c-0.166,0.059-0.347-0.027-0.406-0.191
			l-0.255-0.715c-0.059-0.166,0.027-0.348,0.191-0.406l0,0c0.166-0.059,0.348,0.027,0.406,0.191L74.107,92.601z"/>
		<path fill="#E2C89A" d="M74.305,79.72l-0.188-0.527c0.734-0.262,1.178-0.649,1.316-1.151c0.279-1.019-0.718-2.24-0.728-2.252
			l0.433-0.356c0.049,0.059,1.191,1.457,0.836,2.756C75.784,78.876,75.223,79.392,74.305,79.72z"/>
		<path fill="#C69B73" d="M74.768,75.808l0.377-0.322l-0.104-1.297c0,0-1.173,0.014-1.659,1.254L74.768,75.808L74.768,75.808z"/>
		<path fill="#8C6D57" d="M67.975,86.909c0.229-2.107,2.494-2.262,3.241-3.373s2.673-0.564,3.292,0.289
			c0.62,0.854,0.748,3.209-1.479,4.791C70.8,90.198,67.716,89.274,67.975,86.909z"/>
		<path fill="#8C6D57" d="M64.064,81.544c-0.133,0.795-0.396,1.715,1.392,1.982c1.788,0.267,3.271-0.869,3.829-2.063
			c0.396-0.849-0.084-2.31-0.692-3.248L63.76,79.94C63.998,80.479,64.141,81.084,64.064,81.544z"/>
	</g>
	<g>

			<rect x="34.499" y="48.386" transform="matrix(-0.5621 -0.8271 0.8271 -0.5621 10.5102 112.3026)" fill="#3ABA77" width="0.973" height="9.967"/>
		<circle fill="#3ABA77" cx="30.757" cy="56.172" r="2.387"/>
		<circle fill="#FFFFFF" cx="30.258" cy="55.809" r="1.134"/>
		<rect x="64.174" y="18.156" fill="#3ABA77" width="0.854" height="6.33"/>
		<path fill="#57A6FF" d="M64.626,28.998H41.62c-2.14,0-3.875,1.735-3.875,3.875h26.882L64.626,28.998L64.626,28.998z"/>
		<path fill="#3469D3" d="M64.626,32.873H37.745c0,2.14,1.735,3.875,3.875,3.875h23.007L64.626,32.873L64.626,32.873z"/>
		<path fill="#3ABA77" d="M64.626,24.486c-9.729,0-17.615,2.02-17.615,4.512h17.615V24.486z"/>
		<path fill="#57A6FF" d="M33.663,46.678c0,7.851,13.863,14.215,30.964,14.215V46.678H33.663z"/>
		<polygon fill="#3ABA77" points="21.747,46.678 64.626,46.678 64.626,36.748 41.62,36.748 		"/>
		<circle fill="#3ABA77" cx="64.626" cy="16.219" r="2.387"/>
		<circle fill="#FFFFFF" cx="64.127" cy="15.855" r="1.134"/>
		<circle fill="#FFFFFF" cx="51.185" cy="41.815" r="2.192"/>
		<circle fill="#FFFFFF" cx="59.872" cy="41.815" r="2.192"/>
		<path fill="#FFFFFF" d="M54.341,60.087c3.219,0.52,6.679,0.807,10.285,0.807V55.81C60.218,55.81,56.38,57.534,54.341,60.087z"/>

			<rect x="93.785" y="48.386" transform="matrix(0.5616 -0.8274 0.8274 0.5616 -2.8307 101.3957)" fill="#009695" width="0.974" height="9.966"/>
		<path fill="#3469D3" d="M64.626,28.998h23.007c2.141,0,3.875,1.735,3.875,3.875H64.626V28.998z"/>
		<path fill="#275596" d="M64.626,32.873h26.882c0,2.14-1.734,3.875-3.875,3.875H64.626V32.873z"/>
		<path fill="#009695" d="M64.626,24.486c9.729,0,17.615,2.02,17.615,4.512H64.626V24.486z"/>
		<path fill="#3469D3" d="M95.59,46.678c0,7.851-13.863,14.215-30.964,14.215V46.678H95.59z"/>
		<polygon fill="#009695" points="107.507,46.678 64.626,46.678 64.626,36.748 87.633,36.748 		"/>
		<circle fill="#009695" cx="98.496" cy="56.172" r="2.387"/>
		<circle fill="#FFFFFF" cx="98.995" cy="55.809" r="1.135"/>
		<circle fill="#D0D5D8" cx="86.753" cy="41.815" r="2.191"/>
		<circle fill="#D0D5D8" cx="78.066" cy="41.815" r="2.192"/>
		<circle fill="#D0D5D8" cx="69.381" cy="41.815" r="2.191"/>
		<path fill="#D0D5D8" d="M74.912,60.087c-3.219,0.52-6.68,0.807-10.285,0.807V55.81C69.035,55.81,72.873,57.534,74.912,60.087z"/>
		<polygon opacity="0.2" enable-background="new    " points="64.6,37.908 39.296,37.908 41.62,36.748 64.6,36.748 		"/>
		<polygon opacity="0.2" enable-background="new    " points="64.6,37.908 89.904,37.908 87.581,36.748 64.6,36.748 		"/>
		<path fill="#FFFFFF" d="M83.59,32.873c0,0.596-0.482,1.079-1.08,1.079H46.743c-0.596,0-1.079-0.483-1.079-1.079l0,0
			c0-0.596,0.483-1.079,1.079-1.079H82.51C83.107,31.793,83.59,32.276,83.59,32.873L83.59,32.873z"/>
		<path opacity="0.2" enable-background="new    " d="M33.663,46.678c0,0.729,0.12,1.445,0.351,2.144h30.613v-2.144H33.663z"/>
		<path opacity="0.2" enable-background="new    " d="M95.59,46.678c0,0.729-0.121,1.445-0.352,2.144H64.626v-2.144H95.59z"/>
		<circle fill="#FFFFFF" cx="42.5" cy="41.815" r="2.191"/>
	</g>
</g>
</svg>
