<?xml version="1.0" encoding="utf-8"?>
<!-- Generator: Adobe Illustrator 16.0.0, SVG Export Plug-In . SVG Version: 6.00 Build 0)  -->
<!DOCTYPE svg PUBLIC "-//W3C//DTD SVG 1.1//EN" "http://www.w3.org/Graphics/SVG/1.1/DTD/svg11.dtd">
<svg version="1.1" id="Layer_1" xmlns="http://www.w3.org/2000/svg" xmlns:xlink="http://www.w3.org/1999/xlink" x="0px" y="0px"
	 width="1521px" height="997px" viewBox="0 0 1521 997" enable-background="new 0 0 1521 997" xml:space="preserve">
<g>
	<g>
		<g>
			<g>
				<path fill="#2C3134" d="M217.751,941.031c-27.522,0-49.879-22.356-49.879-49.879V68.567c0-27.52,22.356-49.878,49.879-49.878
					h1090.472c27.522,0,49.879,22.358,49.879,49.878v822.585c0,27.522-22.356,49.879-49.879,49.879H217.751z"/>
				<path fill="#A5A5A5" d="M1309.506,21.707c24.944,0,45.579,20.211,45.579,45.58v822.585c0,24.944-20.207,45.58-45.579,45.58
					H219.033c-24.944,0-45.579-20.208-45.579-45.58V67.287c0-24.939,20.207-45.58,45.579-45.58H1309.506 M1309.506,13.107H219.033
					c-29.672,0-54.179,24.079-54.179,54.179v822.585c0,29.673,24.079,54.18,54.179,54.18h1090.473
					c29.672,0,54.179-24.079,54.179-54.18V67.287C1363.256,37.618,1339.178,13.107,1309.506,13.107L1309.506,13.107z"/>
			</g>
			<path fill="#C9C9C9" d="M1482.366,965.123c0,4.728-3.867,8.171-8.167,8.171H50.472c-4.733,0-8.167-3.87-8.167-8.171v-53.322
				c0-4.729,3.867-8.166,8.167-8.166h1424.155c4.729,0,8.172,3.868,8.172,8.166v53.322H1482.366z"/>
			<path fill="#9B9B9B" d="M640.86,914.384c0,5.589,4.728,10.317,10.322,10.317H876.07c5.588,0,10.317-4.729,10.317-10.317l0,0
				c0-5.588-4.729-10.316-10.317-10.316H651.182C645.588,904.067,640.86,908.365,640.86,914.384L640.86,914.384z"/>
		</g>
		<path fill="#3E3E3E" d="M780.181,53.529c0,7.309-6.022,13.757-13.763,13.757l0,0c-7.31,0-13.76-6.019-13.76-13.757l0,0
			c0-7.311,6.021-13.762,13.76-13.762l0,0C773.73,40.198,780.181,46.218,780.181,53.529L780.181,53.529z"/>
	</g>
</g>
<g>
	<g>
		<path fill="#E1E1E1" d="M1305.665,844.835c0,8.272-6.989,15.247-15.294,15.247H242.431c-8.304,0-15.295-6.975-15.295-15.247
			V100.751c0-8.275,6.991-15.248,15.295-15.248h1048.38c8.299,0,15.294,6.972,15.294,15.248v744.083H1305.665z"/>
		<rect x="220.5" y="81.5" fill="#FFFFFF" stroke="#B3B3B3" stroke-width="3" stroke-miterlimit="10" width="1082" height="101"/>
		<rect x="376" y="118" fill="#E1E1E1" width="193" height="35"/>
		<rect x="569.089" y="117.886" fill="#8DC63F" width="34.325" height="34.325"/>
		<rect x="1072.954" y="117.886" fill="#8DC63F" width="34.325" height="34.325"/>
		<rect x="1114.403" y="117.886" fill="#FFBA00" width="34.325" height="34.325"/>
		<g>
			<rect x="940.5" y="239.5" fill="#FFFFFF" stroke="#B3B3B3" stroke-width="3" stroke-miterlimit="10" width="213" height="92"/>
			<rect x="942.5" y="358.5" fill="#FFFFFF" stroke="#B3B3B3" stroke-width="3" stroke-miterlimit="10" width="212" height="140"/>
			<circle fill="#4FB4E6" cx="977.75" cy="284.33" r="18.782"/>
			<rect x="964" y="385" fill="#E1E1E1" width="169" height="24"/>
			<g>
				<rect x="375" y="250" fill="#FFFFFF" width="494" height="523"/>
				<path fill="#B3B3B3" d="M868,251v521H376V251H868 M871,249H374v526h497V249L871,249z"/>
			</g>
			<g>
				<rect x="375" y="239" fill="#4FB4E6" width="494" height="277"/>
				<path fill="#B3B3B3" d="M868,240v275H377V240H868 M870,238H374v279h496V238L870,238z"/>
			</g>
			<g>
				<polygon fill="#C5C5C5" points="566.162,457.303 619.613,412.074 597.821,400.561 				"/>
				<polyline fill="#E7E7E7" points="564.105,395.218 592.475,410.019 697.323,479.917 763.109,285.846 455.969,343.409 				"/>
				<path fill="#7CC242" d="M566.162,457.303"/>
				<polygon fill="#DCDCDC" points="592.475,410.019 566.572,456.789 565.186,394.806 762.977,286.03 				"/>
			</g>
			<rect x="964.15" y="450.773" fill="#8DC63F" width="35.405" height="16.838"/>
			<rect x="1006.895" y="450.773" fill="#8DC63F" width="56.994" height="16.838"/>
			<rect x="1071.658" y="450.773" fill="#8DC63F" width="59.152" height="16.838"/>
			<rect x="943.5" y="527.5" fill="#FFFFFF" stroke="#B3B3B3" stroke-width="3" stroke-miterlimit="10" width="212" height="243"/>
			<rect x="401" y="551" fill="#E1E1E1" width="93" height="24"/>
			<rect x="401" y="592" fill="#E1E1E1" width="432" height="25"/>
			<rect x="401" y="633" fill="#E1E1E1" width="432" height="25"/>
			<rect x="401" y="674" fill="#E1E1E1" width="432" height="24"/>
			<rect x="401" y="715" fill="#E1E1E1" width="219" height="25"/>
			<linearGradient id="SVGID_1_" gradientUnits="userSpaceOnUse" x1="977" y1="594.5" x2="1122" y2="594.5">
				<stop  offset="0" style="stop-color:#FFFFFF"/>
				<stop  offset="1" style="stop-color:#FFFFFF;stop-opacity:0.6"/>
			</linearGradient>
			<rect x="977" y="554" opacity="0.22" fill="url(#SVGID_1_)" enable-background="new    " width="145" height="81"/>
		</g>
		<path fill="#2C3134" d="M188,871.739l1150,9.067V75.142L188,66.075V871.739z M235,103.054C235,94.885,242.121,88,250.292,88
			h1031.565c8.166,0,14.143,6.885,14.143,15.054V838h0.475c0,8-6.879,16-15.05,16H250.292c-8.171,0-15.292-8.343-15.292-16.51
			V103.054z"/>
	</g>
	<rect x="977.103" y="661.904" fill="#FFBA00" width="145.071" height="80.308"/>
	<rect x="977" y="557" fill="#D43231" width="145" height="80"/>
</g>
<g>
	<rect x="2181.646" y="843.895" fill="#D1D1D1" width="314.499" height="93.275"/>
	<rect x="2181.646" y="793.746" fill="#BABABA" width="314.499" height="58.172"/>
	<path fill="#EAEAEA" d="M2609.512,972.273c0,5.539-4.092,10.029-9.143,10.029h-522.947c-5.051,0-9.143-4.49-9.143-10.029v-26.076
		c0-5.539,4.092-10.03,9.143-10.03h522.947c5.051,0,9.143,4.491,9.143,10.03V972.273z"/>
	<path fill="#2C3134" d="M2931.979-128.979H1730.271c-35.49,0-64.262,33.425-64.262,74.656v727.714h1329.314V-54.324
		C2995.324-95.555,2967.467-128.979,2931.979-128.979z"/>
</g>
<linearGradient id="SVGID_2_" gradientUnits="userSpaceOnUse" x1="307.0654" y1="458" x2="1361" y2="458">
	<stop  offset="0" style="stop-color:#FFFFFF"/>
	<stop  offset="1" style="stop-color:#FFFFFF;stop-opacity:0.6"/>
</linearGradient>
<path opacity="0.22" fill="url(#SVGID_2_)" enable-background="new    " d="M1358.56,903c1.298-4,2.44-8.987,2.44-13.706V58h-0.871
	c0-24-20.211-45-45.582-45H307.065l896.065,890H1358.56z"/>
<g>
	<path fill="#E1E1E1" d="M2859.665,679.835c0,8.272-6.989,15.247-15.294,15.247h-1047.94c-8.304,0-15.296-6.975-15.296-15.247
		V-64.249c0-8.275,6.992-15.248,15.296-15.248h1048.38c8.299,0,15.294,6.972,15.294,15.248v744.083H2859.665z"/>
	<path fill="#E1E1E1" d="M2964.482,679.835c0,8.272-8.246,15.247-18.044,15.247H1710.047c-9.797,0-18.047-6.975-18.047-15.247
		V-64.249c0-8.275,8.25-15.248,18.047-15.248h1236.91c9.791,0,18.043,6.972,18.043,15.248v744.083H2964.482z"/>
	<rect x="1689" y="154" fill="#FFFFFF" stroke="#B3B3B3" stroke-width="2" stroke-miterlimit="10" width="1276" height="283"/>
	<g>
		<rect x="1694" y="-7" fill="#4FB4E6" width="1276" height="166"/>
		<path fill="#B3B3B3" d="M2969-5v162H1695V-5H2969 M2972-8H1692v168h1280V-8L2972-8z"/>
	</g>
	<g>
		<g>

				<rect x="1693.5" y="-83.5" fill="#FFFFFF" stroke="#B3B3B3" stroke-width="3" stroke-miterlimit="10" width="1271" height="101"/>
			<rect x="1930" y="-47" fill="#E1E1E1" width="193" height="35"/>
			<rect x="2123.09" y="-47.114" fill="#8DC63F" width="34.324" height="34.325"/>
			<rect x="2626.953" y="-47.114" fill="#8DC63F" width="34.326" height="34.325"/>
			<rect x="2668.402" y="-47.114" fill="#FFBA00" width="34.325" height="34.325"/>
		</g>
	</g>
	<rect x="1940" y="485" fill="#8DC63F" width="226" height="156"/>
	<rect x="2215" y="485" fill="#FFBA00" width="227" height="156"/>
	<rect x="2491" y="485" fill="#D43231" width="226" height="155"/>
	<rect x="2278" y="240" fill="#E1E1E1" width="93" height="24"/>
	<rect x="2216" y="277" fill="#E1E1E1" width="218" height="24"/>
	<rect x="2278" y="313" fill="#E1E1E1" width="93" height="24"/>
	<rect x="2207" y="388" fill="#8DC63F" width="235" height="8"/>
	<rect x="2278" y="347" fill="#E1E1E1" width="93" height="24"/>
	<g>
		<circle fill="#FFFFFF" stroke="#B3B3B3" stroke-width="3.0968" stroke-miterlimit="10" cx="2323.037" cy="153.609" r="51.998"/>
		<path fill="#CCCCCC" d="M2307.276,184.622c-5.397,1.924-10.813,3.866-16.04,6.212c-0.637,0.286-1.22,0.559-1.776,0.827
			c9.087,7.832,20.878,12.572,33.772,12.572c13.289,0,25.406-5.029,34.598-13.293c-0.1-0.045-0.188-0.087-0.29-0.132
			c-5.105-2.268-10.349-4.24-15.612-6.109c-6.842-2.43-8.832-8.05-5.219-14.529c1.488-2.669,2.287-5.721,3.524-8.541
			c2.838-6.464,2.998-13.272,3.419-20.207c0.635-10.396-5.096-18.273-15.774-19.919c-11.097-1.709-21.154,4.371-22.546,14.243
			c-0.71,5.041-1.007,10.47,0.093,15.363c1.503,6.686,4.109,13.217,6.986,19.467
			C2315.278,176.797,2313.529,182.392,2307.276,184.622z"/>
	</g>
</g>
<rect x="1669" y="627.595" fill="#2C3134" width="1326.5" height="45.405"/>
<rect x="2939" y="-106" fill="#2C3134" width="36" height="762"/>
<rect x="1690.667" y="-111" fill="#2C3134" width="1277.333" height="36"/>
<rect x="1685" y="-90" fill="#2C3134" width="36" height="762"/>
<circle fill="#3E3E3E" cx="2312.333" cy="-100.667" r="15"/>
<linearGradient id="SVGID_3_" gradientUnits="userSpaceOnUse" x1="1884" y1="273.5" x2="2996.3242" y2="273.5">
	<stop  offset="0" style="stop-color:#FFFFFF"/>
	<stop  offset="1" style="stop-color:#FFFFFF;stop-opacity:0.6"/>
</linearGradient>
<path opacity="0.22" fill="url(#SVGID_3_)" enable-background="new    " d="M1884-127l1055-1c0,0,56,8,56,66l1.324,736.391L2673,675
	L1884-127z"/>
<path fill="#EAEAEA" d="M1666.01,673.391V722.1c0,41.23,28.771,75.658,64.262,75.658h1201.707c35.488,0,63.346-34.428,63.346-75.658
	v-48.709H1666.01z"/>
<rect x="1019" y="273" fill="#E1E1E1" width="105" height="24"/>
</svg>
