<?xml version="1.0" encoding="utf-8"?>
<!-- Generator: Adobe Illustrator 16.0.0, SVG Export Plug-In . SVG Version: 6.00 Build 0)  -->
<!DOCTYPE svg PUBLIC "-//W3C//DTD SVG 1.1//EN" "http://www.w3.org/Graphics/SVG/1.1/DTD/svg11.dtd">
<svg version="1.1" id="Layer_1" xmlns="http://www.w3.org/2000/svg" xmlns:xlink="http://www.w3.org/1999/xlink" x="0px" y="0px"
	 width="24px" height="24px" viewBox="0 0 24 24" enable-background="new 0 0 24 24" xml:space="preserve">
<g>
	<g>
		<path d="M14.44,5.174l4.007,6.916h-3.729L10.71,5.174H14.44 M15.017,4.174H8.975l5.167,8.916h6.041L15.017,4.174L15.017,4.174z"/>
	</g>
	<g>
		<path d="M8.119,7.608l1.847,3.219l-4.02,7.001l-1.859-3.193L8.119,7.608 M8.119,5.599l-5.187,9.04l3.021,5.188l5.166-8.999
			L8.119,5.599L8.119,5.599z"/>
	</g>
	<g>
		<path d="M19.342,15.576l-1.863,3.25H9.813l1.882-3.25H19.342 M21.067,14.576h-9.948l-3.041,5.25h9.979L21.067,14.576
			L21.067,14.576z"/>
	</g>
</g>
</svg>
