<?xml version="1.0" encoding="utf-8"?>
<!-- Generator: Adobe Illustrator 16.0.0, SVG Export Plug-In . SVG Version: 6.00 Build 0)  -->
<!DOCTYPE svg PUBLIC "-//W3C//DTD SVG 1.1//EN" "http://www.w3.org/Graphics/SVG/1.1/DTD/svg11.dtd">
<svg version="1.1" id="Layer_1" xmlns="http://www.w3.org/2000/svg" xmlns:xlink="http://www.w3.org/1999/xlink" x="0px" y="0px"
	 width="24px" height="24px" viewBox="0 0 24 24" enable-background="new 0 0 24 24" xml:space="preserve">
<g>
	<path fill-rule="evenodd" clip-rule="evenodd" d="M17.718,9.285c0.688,0.516,1.359,1.02,2.031,1.524
		c0.204,0.153,0.409,0.306,0.613,0.46c0.297,0.226,0.284,0.524-0.035,0.721c-0.891,0.55-1.78,1.101-2.676,1.641
		c-0.148,0.09-0.206,0.184-0.205,0.358c0.01,0.999,0.001,1.998,0.008,2.996c0.002,0.22-0.078,0.363-0.266,0.478
		c-1.629,0.997-3.256,1.997-4.879,3.004c-0.221,0.137-0.402,0.133-0.622-0.003c-1.623-1.007-3.251-2.007-4.88-3.004
		c-0.18-0.109-0.262-0.247-0.26-0.461c0.006-1.017,0-2.034,0.006-3.051c0.001-0.142-0.045-0.218-0.163-0.289
		c-0.894-0.544-1.784-1.095-2.675-1.643c-0.379-0.233-0.391-0.515-0.031-0.784c0.813-0.61,1.626-1.22,2.439-1.831
		C6.171,9.366,6.217,9.328,6.278,9.28C6.215,9.232,6.164,9.191,6.111,9.152C5.289,8.534,4.465,7.917,3.643,7.299
		C3.344,7.074,3.351,6.772,3.667,6.578C5.318,5.56,6.972,4.545,8.623,3.526C8.83,3.398,9.005,3.427,9.192,3.568
		c0.883,0.668,1.773,1.328,2.655,2c0.124,0.094,0.196,0.081,0.311-0.006c0.873-0.662,1.751-1.317,2.628-1.975
		c0.264-0.198,0.359-0.202,0.642-0.028c1.621,0.998,3.243,1.995,4.864,2.993c0.37,0.228,0.382,0.512,0.032,0.775
		c-0.808,0.606-1.616,1.212-2.425,1.819C17.846,9.185,17.793,9.227,17.718,9.285z M12.001,12.889
		c-0.083,0.062-0.151,0.112-0.219,0.163c-0.847,0.636-1.694,1.271-2.542,1.906c-0.292,0.22-0.384,0.224-0.689,0.036
		c-0.357-0.22-0.714-0.44-1.072-0.659c-0.044-0.027-0.092-0.049-0.156-0.083c0,0.857-0.002,1.69,0.005,2.524
		c0,0.054,0.064,0.124,0.117,0.157c1.475,0.911,2.952,1.816,4.426,2.729c0.098,0.061,0.165,0.056,0.26-0.003
		c1.475-0.911,2.952-1.819,4.429-2.724c0.091-0.056,0.118-0.117,0.118-0.219c-0.004-0.773-0.002-1.547-0.003-2.32
		c0-0.044-0.009-0.087-0.016-0.149c-0.444,0.273-0.869,0.533-1.292,0.796c-0.182,0.113-0.354,0.111-0.523-0.021
		c-0.048-0.037-0.098-0.073-0.146-0.109C13.804,14.24,12.908,13.569,12.001,12.889z M16.316,9.286
		c-0.068-0.045-0.117-0.08-0.169-0.112c-1.33-0.819-2.661-1.637-3.989-2.461c-0.124-0.077-0.208-0.065-0.325,0.007
		c-1.328,0.823-2.659,1.641-3.989,2.46c-0.05,0.031-0.099,0.064-0.158,0.103c0.055,0.036,0.095,0.064,0.136,0.089
		c1.289,0.793,2.583,1.58,3.864,2.386c0.23,0.146,0.384,0.155,0.622,0.006C13.63,10.93,14.965,10.118,16.316,9.286z M19.48,6.984
		c-0.029-0.025-0.045-0.043-0.065-0.056c-1.393-0.858-2.786-1.714-4.177-2.575c-0.087-0.054-0.138-0.031-0.206,0.021
		c-0.743,0.561-1.489,1.118-2.233,1.677c-0.03,0.023-0.054,0.056-0.088,0.092c1.422,0.875,2.83,1.74,4.236,2.61
		c0.1,0.062,0.154,0.015,0.223-0.036c0.496-0.373,0.993-0.746,1.489-1.118C18.931,7.397,19.202,7.194,19.48,6.984z M11.299,12.439
		c-0.018-0.017-0.026-0.026-0.036-0.032c-1.403-0.864-2.806-1.727-4.207-2.594C6.958,9.753,6.905,9.792,6.833,9.846
		c-0.719,0.542-1.44,1.081-2.161,1.621c-0.05,0.037-0.099,0.077-0.16,0.126c1.433,0.882,2.845,1.752,4.262,2.616
		c0.045,0.027,0.15,0.005,0.2-0.031C9.5,13.793,10.019,13.4,10.54,13.01C10.792,12.82,11.044,12.631,11.299,12.439z M19.475,11.599
		c-0.018-0.025-0.021-0.038-0.031-0.045c-0.768-0.577-1.537-1.151-2.303-1.732c-0.091-0.069-0.149-0.038-0.227,0.009
		c-0.604,0.375-1.211,0.747-1.816,1.119c-0.796,0.491-1.593,0.981-2.4,1.479c0.051,0.041,0.091,0.075,0.134,0.107
		c0.725,0.544,1.452,1.084,2.172,1.634c0.109,0.083,0.181,0.074,0.287,0.008c0.504-0.317,1.013-0.626,1.521-0.938
		C17.695,12.695,18.579,12.15,19.475,11.599z M4.514,6.972c0.057,0.046,0.097,0.081,0.139,0.113c0.72,0.541,1.442,1.078,2.157,1.625
		C6.924,8.797,7,8.788,7.113,8.718c1.338-0.829,2.68-1.653,4.021-2.479c0.049-0.031,0.097-0.065,0.157-0.106
		c-0.048-0.042-0.083-0.074-0.121-0.102C10.447,5.486,9.72,4.945,8.999,4.396C8.896,4.317,8.826,4.313,8.715,4.381
		c-1.208,0.75-2.421,1.494-3.633,2.24C4.897,6.735,4.712,6.85,4.514,6.972z"/>
</g>
</svg>
