<?xml version="1.0" encoding="utf-8"?>
<svg xmlns="http://www.w3.org/2000/svg">
    <path d="M19.6 4H5.4C4.62 4 4 4.618 4 5.4v14.2c0 .78.62 1.4 1.4 1.4h8.17v-7.173h-2.6l.5.5V11.87l-.5.5h2.6v-2.238c-.02-1.745.942-2.717 2.56-2.735.746.017 1.536.072 1.84.116l.072-.495h-.5v2.156l.5-.5h-1.32c-1.186-.002-1.677.59-1.697 1.69v2.006h2.896l-.492-.56-.3 2.457.498-.44h-2.598V21H19.6c.78 0 1.4-.618 1.4-1.4V5.4c0-.782-.618-1.4-1.4-1.4v1c.23 0 .4.17.4.4v14.2c0 .23-.17.4-.4.4h-4.073l.5.5v-6.173l-.5.5h2.54l.054-.44.3-2.456.07-.56h-2.96l.5.5v-1.493c.01-.586.106-.7.697-.7h1.82v-3.09l-.428-.06c-.35-.05-1.178-.107-1.977-.126-2.185.024-3.594 1.446-3.57 3.74v1.733l.5-.5h-2.597v3.458h2.597l-.5-.5v6.17l.5-.5H5.4c-.228 0-.4-.17-.4-.4V5.4c0-.23.17-.4.4-.4h14.2V4z"></path>
</svg>
