<?xml version="1.0" encoding="utf-8"?>
<svg xmlns="http://www.w3.org/2000/svg">
    <path d="M12.5 21c-.117 0-.234-.04-.327-.122-.278-.24-.61-.517-.978-.826-2.99-2.5-7.995-6.684-7.995-10.565C3.2 6.462 5.578 4 8.5 4c1.55 0 3 .695 4 1.89 1-1.195 2.452-1.89 4-1.89 2.923 0 5.3 2.462 5.3 5.487 0 3.97-4.923 8.035-7.865 10.464-.42.35-.798.66-1.108.93-.094.08-.21.12-.327.12zM8.428 4.866c-2.414 0-4.378 2.05-4.378 4.568 0 3.475 5.057 7.704 7.774 9.975.243.2.47.39.676.56.245-.21.52-.43.813-.68 2.856-2.36 7.637-6.31 7.637-9.87 0-2.52-1.964-4.57-4.377-4.57-1.466 0-2.828.76-3.644 2.04-.1.14-.26.23-.43.23-.18 0-.34-.09-.43-.24-.82-1.27-2.18-2.03-3.65-2.03z" fill-rule="evenodd"></path>
</svg>
