<?xml version="1.0" encoding="utf-8"?>
<svg xmlns="http://www.w3.org/2000/svg">
    <path d="M19.074 21.117c-1.244 0-2.432-.37-3.532-1.096-.248-.16-.483-.34-.703-.52-.77.21-1.57.32-2.38.32-4.67 0-8.46-3.5-8.46-7.8C4 7.7 7.79 4.2 12.46 4.2c4.662 0 8.457 3.5 8.457 7.803 0 2.058-.85 3.984-2.403 5.448.023.17.06.35.118.55.192.69.537 1.38 1.026 2.04.15.21.172.48.058.7-.116.23-.35.38-.613.38h-.03zm0-1v.5l.023-.5h-.023zm-3.927-1.635l.215.2c.24.226.51.437.8.63.77.508 1.586.814 2.433.912-.376-.605-.653-1.224-.827-1.848-.078-.276-.127-.526-.155-.745-.018-.14-.022-.24-.022-.29v-.23l.18-.15c1.48-1.31 2.3-3.08 2.3-4.96 0-3.82-3.41-6.93-7.6-6.93-4.19 0-7.6 3.11-7.6 6.93 0 3.83 3.41 6.94 7.6 6.94.83 0 1.64-.12 2.41-.35l.28-.08z" fill-rule="evenodd"></path>
</svg>
