<?xml version="1.0" encoding="utf-8"?>
<svg xmlns="http://www.w3.org/2000/svg">
	<path d="M18.993 10.233c.016 5.17-4.018 9.75-9.75 9.75-1.894 0-3.707-.54-5.275-1.535l-.268.422-.038.498.164.013.147.01.52.046c1.827-.024 3.497-.608 4.86-1.647l1.116-.85-1.4-.048c-1.357-.047-2.52-.93-2.898-2.16l-.478.146-.055.497c.19.022.42.045.653.067.433-.02.776-.07 1.117-.14l2.326-.49-2.324-.49c-1.45-.306-2.505-1.58-2.502-3.056 0-.048 0-.006-.01.037l-.49-.1-.248.435c.563.32 1.2.5 1.845.517l1.697.04L6.3 11.24c-.84-.57-1.368-1.543-1.392-2.627.024-.522.18-1.067.452-1.55l-.824.07c1.906 2.358 4.72 3.82 7.775 3.988l.596.03-.07-.59-.002-.022c-.044-.38-.06-.55-.06-.755 0-1.716 1.396-3.11 3.112-3.11.876 0 1.688.363 2.276 1l.197.21.28-.06c.89-.2 1.71-.525 2.414-.97l-.265-.42-.48-.138c-.08.277-.04.763.074 1.174.183.67.525 1.12 1.134.83l-.213-.452-.42-.273c-.45.69-1.02 1.28-1.67 1.732l-.232.16.02.284c.01.17.01.298 0 .443v.04zm1 .037c.014-.196.013-.372 0-.587l-.5.033.285.41c.76-.524 1.418-1.208 1.94-2.006l.97-1.48-1.6.754c.152-.073.302-.012.352.054-.025-.033-.065-.125-.098-.248-.07-.25-.096-.57-.077-.636l.354-1.255-1.107.69c-.603.38-1.318.664-2.098.837l.475.15c-.774-.84-1.852-1.32-3.01-1.32-2.27 0-4.11 1.84-4.11 4.11 0 .255.017.45.066.87l.002.023.494-.057.028-.5C9.593 9.966 7.04 8.64 5.31 6.5l-.462-.57-.36.64c-.35.617-.55 1.315-.58 2.03.03 1.44.72 2.71 1.83 3.462l.293-.913c-.475-.01-.952-.148-1.372-.388l-.598-.34-.14.67c-.02.084-.02.157-.008.24-.01 1.88 1.382 3.562 3.292 3.964l.103-.49-.102-.49c-.294.063-.588.103-.895.122-.152-.02-.374-.044-.558-.064l-.758-.085.224.73c.506 1.64 2.04 2.804 3.816 2.865l-.285-.897c-1.198.91-2.66 1.42-4.22 1.443-.095-.01-.224-.02-.486-.04l-.147-.01-.16-.012-2-.15 1.693 1.074c1.727 1.096 3.726 1.69 5.813 1.69 6.314 0 10.767-5.054 10.75-10.752l-.002.04z"></path>
</svg>
