<?xml version="1.0" encoding="utf-8"?>
<!-- Generator: Adobe Illustrator 16.0.0, SVG Export Plug-In . SVG Version: 6.00 Build 0)  -->
<!DOCTYPE svg PUBLIC "-//W3C//DTD SVG 1.1//EN" "http://www.w3.org/Graphics/SVG/1.1/DTD/svg11.dtd">
<svg version="1.1" id="Layer_1" xmlns="http://www.w3.org/2000/svg" xmlns:xlink="http://www.w3.org/1999/xlink" x="0px" y="0px"
	 width="402px" height="214px" viewBox="0 0 402 214" enable-background="new 0 0 402 214" xml:space="preserve">
<rect x="210.041" y="2.729" fill="#FFFFFF" stroke="#E4E4E4" stroke-width="3.1586" stroke-miterlimit="10" width="187.959" height="208.355"/>
<rect x="4.558" y="2.729" fill="#FFFFFF" stroke="#E4E4E4" stroke-width="3.1586" stroke-miterlimit="10" width="187.958" height="208.355"/>
<g>
	<g>
		<polyline fill="#4399D4" points="95.389,115.982 149.291,84.464 149.291,146.986 95.389,178.334 95.389,115.982 		"/>
		<path fill="#4399D4" d="M112.733,134.568"/>
		<polyline fill="#67AACE" points="41.488,84.464 95.389,53.631 149.291,84.464 95.389,115.98 41.488,84.464 		"/>
		<polyline fill="#367FA8" points="95.389,115.982 41.488,84.464 41.488,146.986 95.389,178.334 95.389,115.982 		"/>
	</g>
</g>
<g>
	<g>
		<polyline fill="#4399D4" points="294.253,115.982 348.154,84.464 348.154,146.986 294.253,178.334 294.253,115.982 		"/>
		<path fill="#4399D4" d="M311.597,134.568"/>
		<polyline fill="#67AACE" points="240.353,84.464 294.253,53.631 348.154,84.464 294.253,115.98 240.353,84.464 		"/>
		<polyline fill="#367FA8" points="294.253,115.982 240.353,84.464 240.353,146.986 294.253,178.334 294.253,115.982 		"/>
	</g>
</g>
<g>
	<g>
		<polyline fill="#4399D4" points="293.12,70.832 316.19,57.345 316.19,84.104 293.12,97.521 293.12,70.832 		"/>
		<path fill="#4399D4" d="M300.545,78.788"/>
		<polyline fill="#67AACE" points="270.053,57.345 293.12,44.146 316.19,57.345 293.12,70.832 270.053,57.345 		"/>
		<polyline fill="#367FA8" points="293.12,70.832 270.053,57.345 270.053,84.104 293.12,97.521 293.12,70.832 		"/>
	</g>
</g>
<g>
	<g>
		<polyline fill="#4399D4" points="333.37,139.082 356.44,125.595 356.44,152.354 333.37,165.771 333.37,139.082 		"/>
		<path fill="#4399D4" d="M340.795,147.038"/>
		<polyline fill="#67AACE" points="310.303,125.595 333.37,112.396 356.44,125.595 333.37,139.082 310.303,125.595 		"/>
		<polyline fill="#367FA8" points="333.37,139.082 310.303,125.595 310.303,152.354 333.37,165.771 333.37,139.082 		"/>
	</g>
</g>
<g>
	<g>
		
			<line fill="none" stroke="#8C8C8C" stroke-width="4.0555" stroke-miterlimit="10" stroke-dasharray="4.0555,4.0555" x1="170.917" y1="117.25" x2="224.853" y2="117.25"/>
		<g>
			<polygon fill="#8C8C8C" points="223.861,109.86 223.861,124.64 231.25,117.25 			"/>
		</g>
	</g>
</g>
</svg>
