<?xml version="1.0" encoding="utf-8"?>
<!-- Generator: Adobe Illustrator 17.1.0, SVG Export Plug-In . SVG Version: 6.00 Build 0)  -->
<!DOCTYPE svg PUBLIC "-//W3C//DTD SVG 1.1//EN" "http://www.w3.org/Graphics/SVG/1.1/DTD/svg11.dtd">
<svg version="1.1" id="Layer_1" xmlns="http://www.w3.org/2000/svg" xmlns:xlink="http://www.w3.org/1999/xlink" x="0px" y="0px"
	 width="702px" height="702px" viewBox="0 0 702 702" enable-background="new 0 0 702 702" xml:space="preserve">
<radialGradient id="SVGID_1_" cx="351" cy="351" r="351" gradientUnits="userSpaceOnUse">
	<stop  offset="0" style="stop-color:#27AAE1;stop-opacity:0.8"/>
	<stop  offset="9.492586e-02" style="stop-color:#05AAE2;stop-opacity:0.65"/>
	<stop  offset="0.4799" style="stop-color:#00ABE8;stop-opacity:0.3735"/>
	<stop  offset="0.8025" style="stop-color:#00ACED;stop-opacity:0.1418"/>
	<stop  offset="1" style="stop-color:#00AEEF;stop-opacity:0"/>
</radialGradient>
<circle opacity="0.7" fill="url(#SVGID_1_)" cx="351" cy="351" r="351"/>
<circle opacity="6.000000e-02" fill="#4DC4D2" cx="351" cy="351" r="253"/>
<circle opacity="6.000000e-02" fill="#4DC4D2" cx="351" cy="351" r="216"/>
<circle fill="#4DC4D2" cx="351" cy="351" r="184.7"/>
<path fill="#FFFFFF" d="M351,166.1c-6.1,0-12.1,0.3-18,0.9l34.5,12.5l0.8,15.7l37.7,24.4l1.6-22.8l20.4-13.9
	C404.6,172.1,378.5,166.1,351,166.1z"/>
<path fill="#4DAC47" d="M528.6,299.9c-4.4-15.4-10.8-29.9-18.8-43.3l-25.2-7l-8.6,7.1l3.1,8.6l-13.4,6.3l-1.6,20.4l33.8-13.4
	L528.6,299.9z"/>
<path fill="#4DAC47" d="M534.9,333.1l-17.2-26.9l-11,5.5l-11-20.4l-39.3,28.3l7.9,53.5l35.4,18.1l9.4,55.7
	c17-27.9,26.8-60.7,26.8-95.8C535.7,345,535.4,339,534.9,333.1z"/>
<polygon fill="#4DAC47" points="276.3,193 277.9,212.6 297.5,206.3 304.6,194.6 296,182 "/>
<polygon fill="#4DAC47" points="315.6,205.6 318,194.6 329,192.2 333.7,202.4 "/>
<polygon fill="#4DAC47" points="494.1,244.9 482.3,241.7 475.2,225.2 "/>
<path fill="#4DAC47" d="M285.6,382.4l103.8,51.9l-68.5,99l-9.5-1.8l-9.2-2.3l6.6-47l-30.2-47.1l3.9-40.1L229,365.9l-39.3-62.1
	l1.5-45.5c0,0,6.2-11.3,14.2-21.3c8.1-10.1,15.9-17.5,15.9-17.5l45.6-10.8l-4.1,18.1l-9.1,4l23.9,25.2l18.9-13.4l8.6-25.9l44.8,10.2
	l9.4,22l-42.7,41.7L299,307.7l-6.2,31.7l-18.3-12.8l-22,4.7l-1.7,25.6l19-8.3L285.6,382.4z"/>
</svg>
