<?xml version="1.0" encoding="utf-8"?>
<!-- Generator: Adobe Illustrator 16.0.0, SVG Export Plug-In . SVG Version: 6.00 Build 0)  -->
<!DOCTYPE svg PUBLIC "-//W3C//DTD SVG 1.1//EN" "http://www.w3.org/Graphics/SVG/1.1/DTD/svg11.dtd">
<svg version="1.1" id="Layer_1" xmlns="http://www.w3.org/2000/svg" xmlns:xlink="http://www.w3.org/1999/xlink" x="0px" y="0px"
	 width="32px" height="32px" viewBox="0 0 32 32" enable-background="new 0 0 32 32" xml:space="preserve">
<g>
	<path d="M29.048,7.322l-0.47,0.149l-2.504,0.223l-0.707,1.129L24.855,8.66l-1.992-1.796l-0.29-0.934l-0.386-0.996l-1.252-1.123
		l-1.477-0.289l-0.034,0.676l1.447,1.412l0.708,0.834L20.782,6.86l-0.648-0.191l-0.971-0.405l0.033-0.783l-1.274-0.524l-0.423,1.841
		l-1.284,0.291l0.127,1.027l1.672,0.322l0.289-1.641l1.381,0.204l0.642,0.376h1.03l0.706,1.412l1.869,1.896l-0.137,0.737
		l-1.507-0.192l-2.604,1.315l-1.876,2.249l-0.244,0.996H16.89l-1.254-0.578l-1.218,0.578l0.303,1.285l0.53-0.611l0.932-0.03
		l-0.065,1.155l0.772,0.225l0.771,0.866l1.259-0.354l1.439,0.227l1.669,0.45l0.835,0.097l1.413,1.605l2.729,1.606l-1.765,3.372
		l-1.863,0.866l-0.707,1.927l-2.696,1.8l-0.287,1.038c6.891-1.66,12.018-7.85,12.018-15.253
		C31.705,12.828,30.726,9.819,29.048,7.322z"/>
	<path d="M17.808,24.271l-1.144-2.121l1.05-2.188l-1.05-0.315l-1.179-1.184l-2.612-0.585l-0.867-1.815v1.077h-0.382l-2.251-3.052
		v-2.507L7.722,8.899l-2.62,0.467H3.338L2.449,8.784l1.133-0.898l-1.13,0.261c-1.362,2.326-2.156,5.025-2.156,7.916
		c0,8.673,7.031,15.707,15.705,15.707c0.668,0,1.323-0.058,1.971-0.137l-0.164-1.903c0,0,0.721-2.826,0.721-2.922
		C18.528,26.711,17.808,24.271,17.808,24.271z"/>
	<path d="M6.133,5.419l2.79-0.389l1.286-0.705l1.447,0.417l2.312-0.128l0.792-1.245l1.155,0.19l2.805-0.263l0.772-0.852l1.09-0.728
		l1.542,0.232l0.563-0.085c-2.032-0.956-4.292-1.509-6.686-1.509c-4.876,0-9.235,2.222-12.113,5.711h0.008L6.133,5.419z
		 M16.664,1.916l1.605-0.883l1.03,0.595l-1.492,1.135l-1.423,0.143L15.743,2.49L16.664,1.916z M11.913,2.045l0.708,0.295
		l0.927-0.295l0.505,0.875l-2.14,0.562L10.884,2.88C10.884,2.88,11.89,2.232,11.913,2.045z"/>
</g>
</svg>
