<?xml version="1.0" encoding="utf-8"?>
<!-- Generator: Adobe Illustrator 16.0.0, SVG Export Plug-In . SVG Version: 6.00 Build 0)  -->
<!DOCTYPE svg PUBLIC "-//W3C//DTD SVG 1.1//EN" "http://www.w3.org/Graphics/SVG/1.1/DTD/svg11.dtd">
<svg version="1.1" id="Layer_1" xmlns="http://www.w3.org/2000/svg" xmlns:xlink="http://www.w3.org/1999/xlink" x="0px" y="0px"
	 width="1366.432px" height="1150.366px" viewBox="0 0 1366.432 1150.366" enable-background="new 0 0 1366.432 1150.366"
	 xml:space="preserve">
<g>
	<g>
		<g>
			<g>
				<path fill="#2C3134" d="M-1430.319,1093.397c-27.522,0-49.879-22.356-49.879-49.879V220.933
					c0-27.52,22.356-49.878,49.879-49.878h1090.472c27.522,0,49.879,22.358,49.879,49.878v822.585
					c0,27.522-22.356,49.879-49.879,49.879H-1430.319z"/>
				<path fill="#A5A5A5" d="M-338.564,174.073c24.944,0,45.579,20.211,45.579,45.58v822.585c0,24.944-20.207,45.58-45.579,45.58
					h-1090.473c-24.944,0-45.579-20.208-45.579-45.58V219.653c0-24.939,20.207-45.58,45.579-45.58H-338.564 M-338.564,165.474
					h-1090.473c-29.672,0-54.179,24.079-54.179,54.179v822.585c0,29.673,24.079,54.18,54.179,54.18h1090.473
					c29.672,0,54.179-24.079,54.179-54.18V219.653C-284.814,189.984-308.893,165.474-338.564,165.474L-338.564,165.474z"/>
			</g>
			<path fill="#C9C9C9" d="M-165.704,1117.489c0,4.728-3.867,8.171-8.167,8.171h-1423.727c-4.733,0-8.167-3.87-8.167-8.171v-53.322
				c0-4.729,3.867-8.166,8.167-8.166h1424.155c4.729,0,8.172,3.868,8.172,8.166v53.322H-165.704z"/>
			<path fill="#9B9B9B" d="M-1007.21,1066.75c0,5.589,4.728,10.317,10.322,10.317H-772c5.588,0,10.317-4.729,10.317-10.317l0,0
				c0-5.588-4.729-10.316-10.317-10.316h-224.888C-1002.482,1056.434-1007.21,1060.731-1007.21,1066.75L-1007.21,1066.75z"/>
		</g>
		<path fill="#3E3E3E" d="M-867.889,205.896c0,7.309-6.022,13.757-13.763,13.757l0,0c-7.31,0-13.76-6.019-13.76-13.757l0,0
			c0-7.311,6.021-13.762,13.76-13.762l0,0C-874.34,192.564-867.889,198.584-867.889,205.896L-867.889,205.896z"/>
	</g>
</g>
<g>
	<g>
		<path fill="#E1E1E1" d="M-342.405,997.201c0,8.272-6.989,15.247-15.294,15.247h-1047.94c-8.304,0-15.295-6.975-15.295-15.247
			V253.118c0-8.275,6.991-15.248,15.295-15.248h1048.38c8.299,0,15.294,6.972,15.294,15.248v744.083H-342.405z"/>

			<rect x="-1427.57" y="233.866" fill="#FFFFFF" stroke="#B3B3B3" stroke-width="3" stroke-miterlimit="10" width="1082" height="101"/>
		<rect x="-1272.07" y="270.366" fill="#E1E1E1" width="193" height="35"/>
		<rect x="-1078.981" y="270.252" fill="#8DC63F" width="34.325" height="34.325"/>
		<rect x="-575.117" y="270.252" fill="#8DC63F" width="34.325" height="34.325"/>
		<rect x="-533.667" y="270.252" fill="#FFBA00" width="34.325" height="34.325"/>
		<g>

				<rect x="-707.57" y="391.866" fill="#FFFFFF" stroke="#B3B3B3" stroke-width="3" stroke-miterlimit="10" width="213" height="92"/>

				<rect x="-705.57" y="510.866" fill="#FFFFFF" stroke="#B3B3B3" stroke-width="3" stroke-miterlimit="10" width="212" height="140"/>
			<circle fill="#4FB4E6" cx="-670.32" cy="436.696" r="18.782"/>
			<rect x="-684.07" y="537.366" fill="#E1E1E1" width="169" height="24"/>
			<g>
				<rect x="-1273.07" y="402.366" fill="#FFFFFF" width="494" height="523"/>
				<path fill="#B3B3B3" d="M-780.07,403.366v521h-492v-521H-780.07 M-777.07,401.366h-497v526h497V401.366L-777.07,401.366z"/>
			</g>
			<g>
				<rect x="-1273.07" y="391.366" fill="#4FB4E6" width="494" height="277"/>
				<path fill="#B3B3B3" d="M-780.07,392.366v275h-491v-275H-780.07 M-778.07,390.366h-496v279h496V390.366L-778.07,390.366z"/>
			</g>
			<g>
				<polygon fill="#C5C5C5" points="-1081.908,609.669 -1028.458,564.44 -1050.25,552.927 				"/>
				<polyline fill="#E7E7E7" points="-1083.965,547.584 -1055.595,562.385 -950.747,632.283 -884.961,438.212 -1192.102,495.775
									"/>
				<path fill="#7CC242" d="M-1081.908,609.669"/>
				<polygon fill="#DCDCDC" points="-1055.595,562.385 -1081.498,609.155 -1082.884,547.172 -885.094,438.396 				"/>
			</g>
			<rect x="-683.92" y="603.14" fill="#8DC63F" width="35.405" height="16.838"/>
			<rect x="-641.176" y="603.14" fill="#8DC63F" width="56.994" height="16.838"/>
			<rect x="-576.412" y="603.14" fill="#8DC63F" width="59.152" height="16.838"/>

				<rect x="-704.57" y="679.866" fill="#FFFFFF" stroke="#B3B3B3" stroke-width="3" stroke-miterlimit="10" width="212" height="243"/>
			<rect x="-1247.07" y="703.366" fill="#E1E1E1" width="93" height="24"/>
			<rect x="-1247.07" y="744.366" fill="#E1E1E1" width="432" height="25"/>
			<rect x="-1247.07" y="785.366" fill="#E1E1E1" width="432" height="25"/>
			<rect x="-1247.07" y="826.366" fill="#E1E1E1" width="432" height="24"/>
			<rect x="-1247.07" y="867.366" fill="#E1E1E1" width="219" height="25"/>
			<linearGradient id="SVGID_1_" gradientUnits="userSpaceOnUse" x1="-671.0703" y1="746.8662" x2="-526.0703" y2="746.8662">
				<stop  offset="0" style="stop-color:#FFFFFF"/>
				<stop  offset="1" style="stop-color:#FFFFFF;stop-opacity:0.6"/>
			</linearGradient>
			<rect x="-671.07" y="706.366" opacity="0.22" fill="url(#SVGID_1_)" enable-background="new    " width="145" height="81"/>
		</g>
		<path fill="#2C3134" d="M-1460.07,1024.105l1150,9.067V227.508l-1150-9.067V1024.105z M-1413.07,255.42
			c0-8.169,7.121-15.054,15.292-15.054h1031.565c8.166,0,14.143,6.885,14.143,15.054v734.946h0.475c0,8-6.879,16-15.05,16h-1031.133
			c-8.171,0-15.292-8.343-15.292-16.51V255.42z"/>
	</g>
	<rect x="-670.967" y="814.271" fill="#FFBA00" width="145.071" height="80.308"/>
	<rect x="-671.07" y="709.366" fill="#D43231" width="145" height="80"/>
</g>
<g>
	<rect x="533.575" y="996.261" fill="#D1D1D1" width="314.499" height="93.275"/>
	<rect x="533.575" y="946.112" fill="#BABABA" width="314.499" height="58.172"/>
	<path fill="#EAEAEA" d="M961.441,1124.64c0,5.539-4.092,10.029-9.143,10.029H429.352c-5.051,0-9.143-4.49-9.143-10.029v-26.076
		c0-5.539,4.092-10.03,9.143-10.03h522.947c5.051,0,9.143,4.491,9.143,10.03V1124.64z"/>
	<path fill="#2C3134" d="M1283.908,23.387H82.201c-35.49,0-64.262,33.425-64.262,74.656v727.714h1329.314V98.042
		C1347.254,56.812,1319.396,23.387,1283.908,23.387z"/>
</g>
<linearGradient id="SVGID_2_" gradientUnits="userSpaceOnUse" x1="-1341.0049" y1="605.8662" x2="-287.0703" y2="605.8662">
	<stop  offset="0" style="stop-color:#FFFFFF"/>
	<stop  offset="1" style="stop-color:#FFFFFF;stop-opacity:0.6"/>
</linearGradient>
<path opacity="0.22" fill="url(#SVGID_2_)" enable-background="new    " d="M-289.511,1046.366c1.298-4,2.44-8.896,2.44-13.566
	V210.366h-0.871c0-24-20.211-45-45.582-45h-1007.481l896.065,881H-289.511z"/>
<g>
	<path fill="#E1E1E1" d="M1211.595,832.201c0,8.272-6.989,15.247-15.294,15.247H148.36c-8.304,0-15.296-6.975-15.296-15.247V88.118
		c0-8.275,6.992-15.248,15.296-15.248h1048.38c8.299,0,15.294,6.972,15.294,15.248v744.083H1211.595z"/>
	<path fill="#E1E1E1" d="M1316.412,832.201c0,8.272-8.246,15.247-18.044,15.247H61.977c-9.797,0-18.047-6.975-18.047-15.247V88.118
		c0-8.275,8.25-15.248,18.047-15.248h1236.91c9.791,0,18.043,6.972,18.043,15.248v744.083H1316.412z"/>
	<rect x="40.93" y="306.366" fill="#FFFFFF" stroke="#B3B3B3" stroke-width="2" stroke-miterlimit="10" width="1276" height="283"/>
	<g>
		<rect x="45.93" y="145.366" fill="#4FB4E6" width="1276" height="166"/>
		<path fill="#B3B3B3" d="M1320.93,147.366v162h-1274v-162H1320.93 M1323.93,144.366h-1280v168h1280V144.366L1323.93,144.366z"/>
	</g>
	<g>
		<g>

				<rect x="45.43" y="68.866" fill="#FFFFFF" stroke="#B3B3B3" stroke-width="3" stroke-miterlimit="10" width="1271" height="101"/>
			<rect x="281.93" y="105.366" fill="#E1E1E1" width="193" height="35"/>
			<rect x="475.02" y="105.252" fill="#8DC63F" width="34.324" height="34.325"/>
			<rect x="978.883" y="105.252" fill="#8DC63F" width="34.326" height="34.325"/>
			<rect x="1020.332" y="105.252" fill="#FFBA00" width="34.325" height="34.325"/>
		</g>
	</g>
	<rect x="291.93" y="637.366" fill="#8DC63F" width="226" height="156"/>
	<rect x="566.93" y="637.366" fill="#FFBA00" width="227" height="156"/>
	<rect x="842.93" y="637.366" fill="#D43231" width="226" height="155"/>
	<rect x="629.93" y="392.366" fill="#E1E1E1" width="93" height="24"/>
	<rect x="567.93" y="429.366" fill="#E1E1E1" width="218" height="24"/>
	<rect x="629.93" y="465.366" fill="#E1E1E1" width="93" height="24"/>
	<rect x="558.93" y="540.366" fill="#8DC63F" width="235" height="8"/>
	<rect x="629.93" y="499.366" fill="#E1E1E1" width="93" height="24"/>
	<g>
		<circle fill="#FFFFFF" stroke="#B3B3B3" stroke-width="3.0968" stroke-miterlimit="10" cx="674.967" cy="305.976" r="51.998"/>
		<path fill="#CCCCCC" d="M659.206,336.988c-5.397,1.924-10.813,3.866-16.04,6.212c-0.637,0.286-1.22,0.559-1.776,0.827
			c9.087,7.832,20.878,12.572,33.772,12.572c13.289,0,25.406-5.029,34.598-13.293c-0.1-0.045-0.188-0.087-0.29-0.132
			c-5.105-2.268-10.349-4.24-15.612-6.109c-6.842-2.43-8.832-8.05-5.219-14.529c1.488-2.669,2.287-5.721,3.524-8.541
			c2.838-6.464,2.998-13.272,3.419-20.207c0.635-10.396-5.096-18.273-15.774-19.919c-11.097-1.709-21.154,4.371-22.546,14.243
			c-0.71,5.041-1.007,10.47,0.093,15.363c1.503,6.686,4.109,13.217,6.986,19.467C667.208,329.163,665.459,334.758,659.206,336.988z"
			/>
	</g>
</g>
<rect x="20.93" y="779.961" fill="#2C3134" width="1326.5" height="45.405"/>
<rect x="1290.93" y="46.366" fill="#2C3134" width="36" height="762"/>
<rect x="42.597" y="41.367" fill="#2C3134" width="1277.333" height="36"/>
<rect x="36.93" y="62.366" fill="#2C3134" width="36" height="762"/>
<circle fill="#3E3E3E" cx="664.263" cy="51.699" r="15"/>
<linearGradient id="SVGID_3_" gradientUnits="userSpaceOnUse" x1="235.9297" y1="425.8662" x2="1348.2539" y2="425.8662">
	<stop  offset="0" style="stop-color:#FFFFFF"/>
	<stop  offset="1" style="stop-color:#FFFFFF;stop-opacity:0.6"/>
</linearGradient>
<path opacity="0.22" fill="url(#SVGID_3_)" enable-background="new    " d="M235.93,25.366l1055-1c0,0,56,8,56,66l1.324,736.391
	l-323.324,0.609L235.93,25.366z"/>
<path fill="#EAEAEA" d="M17.939,825.757v48.709c0,41.23,28.771,75.658,64.262,75.658h1201.707c35.488,0,63.346-34.428,63.346-75.658
	v-48.709H17.939z"/>
<rect x="-629.07" y="425.366" fill="#E1E1E1" width="105" height="24"/>
</svg>
