<?xml version="1.0" encoding="utf-8"?>
<!-- Generator: Adobe Illustrator 17.1.0, SVG Export Plug-In . SVG Version: 6.00 Build 0)  -->
<!DOCTYPE svg PUBLIC "-//W3C//DTD SVG 1.1//EN" "http://www.w3.org/Graphics/SVG/1.1/DTD/svg11.dtd">
<svg version="1.1" id="Layer_1" xmlns="http://www.w3.org/2000/svg" xmlns:xlink="http://www.w3.org/1999/xlink" x="0px" y="0px"
	 width="1674px" height="511px" viewBox="0 0 1674 511" enable-background="new 0 0 1674 511" xml:space="preserve">
<g id="Layer_3" display="none">
	<rect x="-27" y="-92" display="inline" stroke="#FFFFFF" stroke-miterlimit="10" width="1912" height="667"/>
</g>
<g id="Layer_1_1_">
</g>
<g id="Layer_2" opacity="0.6">
	<circle fill="#FFFFFF" cx="547.3" cy="405.6" r="1.8"/>
	<circle fill="#FFFFFF" cx="747.2" cy="361.2" r="1.2"/>
	<circle fill="#FFFFFF" cx="648.9" cy="342.2" r="1.5"/>
	<circle fill="#FFFFFF" cx="601.2" cy="341.6" r="2"/>
	<circle fill="#FFFFFF" cx="576.4" cy="255.4" r="1.6"/>
	<circle fill="#FFFFFF" cx="631.2" cy="241.7" r="1.6"/>
	<circle fill="#FFFFFF" cx="570.5" cy="190.7" r="1.2"/>
	<circle fill="#FFFFFF" cx="460.1" cy="293.3" r="1.2"/>
	<circle fill="#FFFFFF" cx="468" cy="365.1" r="1.2"/>
	<circle fill="#FFFFFF" cx="470.6" cy="486.6" r="1.2"/>
	<circle fill="#FFFFFF" cx="565.9" cy="465.7" r="1.2"/>
	<circle fill="#FFFFFF" cx="347.9" cy="483.1" r="1.2"/>
	<circle fill="#FFFFFF" cx="145.5" cy="455.4" r="1.6"/>
	<circle fill="#FFFFFF" cx="74.3" cy="430.6" r="1.6"/>
	<circle fill="#FFFFFF" cx="81.5" cy="449.6" r="1.1"/>
	<circle fill="#FFFFFF" cx="35.1" cy="363.4" r="1.1"/>
	<circle fill="#FFFFFF" cx="142.2" cy="359.4" r="1.1"/>
	<circle fill="#FFFFFF" cx="104.3" cy="291.5" r="1.5"/>
	<circle fill="#FFFFFF" cx="76.2" cy="290.9" r="1.1"/>
	<circle fill="#FFFFFF" cx="91.9" cy="217.1" r="1.1"/>
	<circle fill="#FFFFFF" cx="157.2" cy="228.8" r="1.1"/>
	<circle fill="#FFFFFF" cx="47.5" cy="223.6" r="1.1"/>
	<circle fill="#FFFFFF" cx="223.8" cy="360.7" r="1.1"/>
	<circle fill="#FFFFFF" cx="302.2" cy="269.3" r="1.1"/>
	<circle fill="#FFFFFF" cx="315.3" cy="251" r="1.1"/>
	<circle fill="#FFFFFF" cx="387.1" cy="198.8" r="1.1"/>
	<circle fill="#FFFFFF" cx="485.1" cy="258.2" r="1.1"/>
	<circle fill="#FFFFFF" cx="929.7" cy="51.6" r="1.2"/>
	<circle fill="#FFFFFF" cx="937.5" cy="123.4" r="1.2"/>
	<circle fill="#FFFFFF" cx="940.1" cy="244.9" r="1.2"/>
	<circle fill="#FFFFFF" cx="817.4" cy="241.4" r="1.2"/>
	<circle fill="#FFFFFF" cx="615" cy="213.8" r="1.6"/>
	<circle fill="#FFFFFF" cx="543.8" cy="188.9" r="1.6"/>
	<circle fill="#FFFFFF" cx="551" cy="207.9" r="1.1"/>
	<circle fill="#FFFFFF" cx="611.7" cy="117.8" r="1.1"/>
	<circle fill="#FFFFFF" cx="573.8" cy="49.8" r="1.5"/>
	<circle fill="#FFFFFF" cx="545.8" cy="49.2" r="1.1"/>
	<circle fill="#FFFFFF" cx="693.4" cy="119.1" r="1.1"/>
	<circle fill="#FFFFFF" cx="771.7" cy="27.6" r="1.1"/>
	<circle fill="#FFFFFF" cx="954.6" cy="16.5" r="1.1"/>
	<circle fill="#FFFFFF" cx="557.6" cy="300.7" r="1.1"/>
	<circle fill="#FFFFFF" cx="674.3" cy="468.9" r="1.2"/>
	<circle fill="#FFFFFF" cx="750.1" cy="476.8" r="1.2"/>
	<circle fill="#FFFFFF" cx="837.6" cy="480.7" r="1.2"/>
	<circle fill="#FFFFFF" cx="833.7" cy="450.7" r="1.2"/>
	<circle fill="#FFFFFF" cx="858.5" cy="435" r="1.2"/>
	<circle fill="#FFFFFF" cx="919.2" cy="333.1" r="1"/>
	<circle fill="#FFFFFF" cx="1027" cy="394.5" r="2.1"/>
	<circle fill="#FFFFFF" cx="1032.9" cy="382.7" r="0.8"/>
	<circle fill="#FFFFFF" cx="1036.1" cy="282.2" r="0.8"/>
	<circle fill="#FFFFFF" cx="1079.9" cy="209" r="0.8"/>
	<circle fill="#FFFFFF" cx="1003.5" cy="214.2" r="0.8"/>
	<circle fill="#FFFFFF" cx="1072.2" cy="479.4" r="1"/>
	<circle fill="#FFFFFF" cx="999.7" cy="457.8" r="1"/>
	<circle fill="#FFFFFF" cx="982.7" cy="503.5" r="1"/>
	<circle fill="#FFFFFF" cx="953.9" cy="330.8" r="1"/>
	<circle fill="#FFFFFF" cx="950.3" cy="286.7" r="1"/>
	<circle fill="#FFFFFF" cx="837.3" cy="279.2" r="1"/>
	<circle fill="#FFFFFF" cx="876.5" cy="243.3" r="1"/>
	<circle fill="#FFFFFF" cx="728.9" cy="238.1" r="1"/>
	<circle fill="#FFFFFF" cx="669.1" cy="447.4" r="1.2"/>
	<circle fill="#FFFFFF" cx="1161.5" cy="207.1" r="1.2"/>
	<circle fill="#FFFFFF" cx="1063.2" cy="188.2" r="1.5"/>
	<circle fill="#FFFFFF" cx="1045.5" cy="87.6" r="1.6"/>
	<circle fill="#FFFFFF" cx="1427.8" cy="340.8" r="1.2"/>
	<circle fill="#FFFFFF" cx="1435.6" cy="412.7" r="1.2"/>
	<circle fill="#FFFFFF" cx="1354.4" cy="90.8" r="1.2"/>
	<circle fill="#FFFFFF" cx="1231.7" cy="87.3" r="1.2"/>
	<circle fill="#FFFFFF" cx="1029.3" cy="59.7" r="1.6"/>
	<circle fill="#FFFFFF" cx="1109.9" cy="407" r="1.1"/>
	<circle fill="#FFFFFF" cx="1191.5" cy="408.3" r="1.1"/>
	<circle fill="#FFFFFF" cx="1598.4" cy="393.1" r="1.2"/>
	<circle fill="#FFFFFF" cx="180.3" cy="282.6" r="1.2"/>
	<circle fill="#FFFFFF" cx="1280.4" cy="459.2" r="1.1"/>
	<circle fill="#FFFFFF" cx="1362.1" cy="460.5" r="1.1"/>
	<circle fill="#FFFFFF" cx="1088.6" cy="314.9" r="1.2"/>
	<circle fill="#FFFFFF" cx="1164.4" cy="322.7" r="1.2"/>
	<circle fill="#FFFFFF" cx="1251.9" cy="326.6" r="1.2"/>
	<circle fill="#FFFFFF" cx="1248" cy="296.6" r="1.2"/>
	<circle fill="#FFFFFF" cx="1272.8" cy="280.9" r="1.2"/>
	<circle fill="#FFFFFF" cx="1333.5" cy="179" r="1"/>
	<circle fill="#FFFFFF" cx="1441.3" cy="240.4" r="2.1"/>
	<circle fill="#FFFFFF" cx="1447.2" cy="228.7" r="0.8"/>
	<circle fill="#FFFFFF" cx="1450.4" cy="128.1" r="0.8"/>
	<circle fill="#FFFFFF" cx="1494.2" cy="54.9" r="0.8"/>
	<circle fill="#FFFFFF" cx="1417.8" cy="60.2" r="0.8"/>
	<circle fill="#FFFFFF" cx="1486.5" cy="325.3" r="1"/>
	<circle fill="#FFFFFF" cx="1414" cy="303.8" r="1"/>
	<circle fill="#FFFFFF" cx="1397" cy="349.5" r="1"/>
	<circle fill="#FFFFFF" cx="1368.2" cy="176.7" r="1"/>
	<circle fill="#FFFFFF" cx="1364.6" cy="132.7" r="1"/>
	<circle fill="#FFFFFF" cx="1251.6" cy="125.2" r="1"/>
	<circle fill="#FFFFFF" cx="1290.8" cy="89.2" r="1"/>
	<circle fill="#FFFFFF" cx="1143.2" cy="84" r="1"/>
	<circle fill="#FFFFFF" cx="1083.4" cy="293.3" r="1.2"/>
	<circle fill="#FFFFFF" cx="148.5" cy="55.8" r="1.2"/>
	<circle fill="#FFFFFF" cx="50.1" cy="36.8" r="1.5"/>
	<circle fill="#FFFFFF" cx="75.6" cy="163.5" r="1.2"/>
	<circle fill="#FFFFFF" cx="151.3" cy="171.4" r="1.2"/>
	<circle fill="#FFFFFF" cx="238.8" cy="175.3" r="1.2"/>
	<circle fill="#FFFFFF" cx="234.9" cy="145.2" r="1.2"/>
	<circle fill="#FFFFFF" cx="259.7" cy="129.6" r="1.2"/>
	<circle fill="#FFFFFF" cx="320.5" cy="27.7" r="1"/>
	<circle fill="#FFFFFF" cx="428.2" cy="89.1" r="2.1"/>
	<circle fill="#FFFFFF" cx="434.1" cy="77.3" r="0.8"/>
	<circle fill="#FFFFFF" cx="473.4" cy="174" r="1"/>
	<circle fill="#FFFFFF" cx="400.9" cy="152.4" r="1"/>
	<circle fill="#FFFFFF" cx="342.9" cy="453.8" r="1.6"/>
	<circle fill="#FFFFFF" cx="397.7" cy="440.1" r="1.6"/>
	<circle fill="#FFFFFF" cx="337" cy="389.2" r="1.2"/>
	<circle fill="#FFFFFF" cx="153.6" cy="397.2" r="1.1"/>
	<circle fill="#FFFFFF" cx="251.6" cy="456.7" r="1.1"/>
	<circle fill="#FFFFFF" cx="381.5" cy="412.2" r="1.6"/>
	<circle fill="#FFFFFF" cx="310.3" cy="387.4" r="1.6"/>
	<circle fill="#FFFFFF" cx="317.5" cy="406.3" r="1.1"/>
	<circle fill="#FFFFFF" cx="239.9" cy="372.4" r="1"/>
	<circle fill="#FFFFFF" cx="167.4" cy="350.9" r="1"/>
	<circle fill="#FFFFFF" cx="1500" cy="498.2" r="1.5"/>
	<circle fill="#FFFFFF" cx="1500.7" cy="450.5" r="2"/>
	<circle fill="#FFFFFF" cx="1586.9" cy="425.7" r="1.6"/>
	<circle fill="#FFFFFF" cx="1600.6" cy="480.6" r="1.6"/>
	<circle fill="#FFFFFF" cx="1651.6" cy="419.8" r="1.2"/>
	<circle fill="#FFFFFF" cx="1549" cy="309.5" r="1.2"/>
	<circle fill="#FFFFFF" cx="1477.2" cy="317.3" r="1.2"/>
	<circle fill="#FFFFFF" cx="134.6" cy="109.5" r="1.1"/>
	<circle fill="#FFFFFF" cx="202.5" cy="71.7" r="1.5"/>
	<circle fill="#FFFFFF" cx="203.2" cy="43.6" r="1.1"/>
	<circle fill="#FFFFFF" cx="277" cy="59.3" r="1.1"/>
	<circle fill="#FFFFFF" cx="724.6" cy="173.8" r="1.1"/>
	<circle fill="#FFFFFF" cx="792.5" cy="135.9" r="1.5"/>
	<circle fill="#FFFFFF" cx="793.2" cy="107.8" r="1.1"/>
	<circle fill="#FFFFFF" cx="867" cy="123.5" r="1.1"/>
	<circle fill="#FFFFFF" cx="1613.5" cy="6.6" r="1.1"/>
	<circle fill="#FFFFFF" cx="1481.5" cy="73.2" r="1.1"/>
	<circle fill="#FFFFFF" cx="1573" cy="151.5" r="1.1"/>
	<circle fill="#FFFFFF" cx="1591.3" cy="164.6" r="1.1"/>
	<circle fill="#FFFFFF" cx="1643.5" cy="236.4" r="1.1"/>
	<circle fill="#FFFFFF" cx="1584.1" cy="334.4" r="1.1"/>
	<circle fill="#FFFFFF" cx="202.6" cy="282" r="1.6"/>
	<circle fill="#FFFFFF" cx="1653.3" cy="393.1" r="1.6"/>
	<circle fill="#FFFFFF" cx="1634.4" cy="400.3" r="1.1"/>
	<circle fill="#FFFFFF" cx="1541.6" cy="406.9" r="1.1"/>
	<circle fill="#FFFFFF" cx="1469.9" cy="89.2" r="1"/>
	<circle fill="#FFFFFF" cx="1491.4" cy="16.7" r="1"/>
	<circle fill="#FFFFFF" cx="355.1" cy="25.4" r="1"/>
	<circle fill="#FFFFFF" cx="70.3" cy="142" r="1.2"/>
</g>
</svg>
