<?xml version="1.0" encoding="utf-8"?>
<!-- Generator: Adobe Illustrator 16.0.0, SVG Export Plug-In . SVG Version: 6.00 Build 0)  -->
<!DOCTYPE svg PUBLIC "-//W3C//DTD SVG 1.1//EN" "http://www.w3.org/Graphics/SVG/1.1/DTD/svg11.dtd">
<svg version="1.1" id="Layer_1" xmlns="http://www.w3.org/2000/svg" xmlns:xlink="http://www.w3.org/1999/xlink" x="0px" y="0px"
	 width="801px" height="44px" viewBox="0 0 801 44" enable-background="new 0 0 801 44" xml:space="preserve">
<path fill="#CCCCCC" d="M801,23H0V5c0-2.761,2.262-5,5.051-5h790.898C798.74,0,801,2.239,801,5V23z"/>
<circle opacity="0.71" fill="#E74C3C" enable-background="new    " cx="13.089" cy="12.5" r="4.709"/>
<circle opacity="0.71" fill="#F1C40F" enable-background="new    " cx="28.5" cy="12.5" r="4.709"/>
<circle opacity="0.71" fill="#2ECC71" enable-background="new    " cx="43.912" cy="12.5" r="4.709"/>
<path fill="#E6E6E6" d="M167,9.043C166.605,7.854,165.657,7,164,7H73c-1.657,0-2.604,0.896-3,2.043L66,21.47
	C65.657,22.469,64,23,64,23h109c0,0-1.656-0.438-2-1.529L167,9.043z"/>
<rect y="23" fill="#E6E6E6" width="801" height="21"/>
</svg>
