<?xml version="1.0" encoding="utf-8"?>
<!-- Generator: Adobe Illustrator 16.0.4, SVG Export Plug-In . SVG Version: 6.00 Build 0)  -->
<!DOCTYPE svg PUBLIC "-//W3C//DTD SVG 1.1//EN" "http://www.w3.org/Graphics/SVG/1.1/DTD/svg11.dtd">
<svg version="1.1" id="Capa_1" xmlns="http://www.w3.org/2000/svg" xmlns:xlink="http://www.w3.org/1999/xlink" x="0px" y="0px"
	 width="100px" height="100px" viewBox="0 0 100 100" enable-background="new 0 0 100 100" xml:space="preserve">
<g id="Layer_8">
	<path d="M75.5,17.137h3.167V9.5H21.333v7.637H24.5v1.982c0,12.442,4.258,23.853,11.271,30.623
		C28.758,56.514,24.5,67.924,24.5,80.366v2.497h-3.167V90.5h57.334v-7.637H75.5v-2.497c0-12.442-4.259-23.853-11.271-30.624
		C71.241,42.972,75.5,31.563,75.5,19.119V17.137z M58.887,47.75l-2.629,1.992l2.629,1.992c6.563,4.977,10.967,15.053,11.549,26.132
		H29.565c0.581-11.078,4.984-21.154,11.548-26.132l2.628-1.992l-2.628-1.992c-6.563-4.977-10.967-15.052-11.548-26.131h40.869
		C69.854,32.698,65.45,42.773,58.887,47.75z M34.834,25.592h30.332c-0.439,8.412-3.784,16.063-8.77,19.842
		c0,0-0.854,0.369-1.994,1.512c-2.359,3.369-2.485,15.682-2.489,16.225c1.694,0.181,3.524,0.896,5.337,2.552
		c6.398,5.846,8.254,6.535,8.477,10.778H35.728c0.223-4.242,3.863-7.278,8.477-10.778c0,0,2.195-1.927,5.274-2.461
		C49.423,63.165,49.39,63.1,49.39,63.1c0-11.599-3.792-16.572-3.792-16.572l-2.695-1.512C37.918,41.235,35.274,34.004,34.834,25.592
		z"/>
</g>
</svg>
