<svg width="1022" height="447" xmlns="http://www.w3.org/2000/svg"><g><path d="M-44,-103L-119,21L88,87Z" fill="#e9171c" stroke="#e9171c"/><path d="M-44,-103L88,87L113,-110Z" fill="#f02017" stroke="#f02017"/><path d="M113,-110L88,87L192,-55Z" fill="#f73c2a" stroke="#f73c2a"/><path d="M113,-110L192,-55L363,-65Z" fill="#fe5b35" stroke="#fe5b35"/><path d="M113,-110L363,-65L709,-85Z" fill="#ff7d5d" stroke="#ff7d5d"/><path d="M113,-110L709,-85L776,-92Z" fill="#e47446" stroke="#e47446"/><path d="M113,-110L776,-92L1083,-115Z" fill="#c46631" stroke="#c46631"/><path d="M192,-55L88,87L274,130Z" fill="#fc9657" stroke="#fc9657"/><path d="M192,-55L274,130L381,33Z" fill="#ff9b64" stroke="#ff9b64"/><path d="M192,-55L381,33L363,-65Z" fill="#ff6d4e" stroke="#ff6d4e"/><path d="M363,-65L381,33L481,-47Z" fill="#ff8065" stroke="#ff8065"/><path d="M363,-65L481,-47L709,-85Z" fill="#e87649" stroke="#e87649"/><path d="M481,-47L381,33L477,27Z" fill="#f7926b" stroke="#f7926b"/><path d="M481,-47L477,27L640,89Z" fill="#e49c62" stroke="#e49c62"/><path d="M481,-47L640,89L709,-85Z" fill="#d37141" stroke="#d37141"/><path d="M709,-85L640,89L777,115Z" fill="#b2954f" stroke="#b2954f"/><path d="M709,-85L777,115L776,-92Z" fill="#a35630" stroke="#a35630"/><path d="M776,-92L777,115L993,90Z" fill="#827c40" stroke="#827c40"/><path d="M776,-92L993,90L1005,-63Z" fill="#803a1e" stroke="#803a1e"/><path d="M776,-92L1005,-63L1083,-115Z" fill="#803513" stroke="#803513"/><path d="M1005,-63L993,90L1109,129Z" fill="#806b34" stroke="#806b34"/><path d="M1005,-63L1109,129L1083,-115Z" fill="#802512" stroke="#802512"/><path d="M-119,21L-112,343L-84,256Z" fill="#d88062" stroke="#d88062"/><path d="M-119,21L-84,256L63,198Z" fill="#e77a6b" stroke="#e77a6b"/><path d="M-119,21L63,198L88,87Z" fill="#ec7c52" stroke="#ec7c52"/><path d="M88,87L63,198L274,130Z" fill="#f8b57f" stroke="#f8b57f"/><path d="M274,130L63,198L262,279Z" fill="#f6d594" stroke="#f6d594"/><path d="M274,130L262,279L341,256Z" fill="#f1e89e" stroke="#f1e89e"/><path d="M274,130L341,256L381,33Z" fill="#ffe6a8" stroke="#ffe6a8"/><path d="M381,33L341,256L562,171Z" fill="#fbf6be" stroke="#fbf6be"/><path d="M381,33L562,171L477,27Z" fill="#f1d586" stroke="#f1d586"/><path d="M477,27L562,171L640,89Z" fill="#dedb7e" stroke="#dedb7e"/><path d="M640,89L562,171L628,240Z" fill="#d3e9a0" stroke="#d3e9a0"/><path d="M640,89L628,240L777,115Z" fill="#bbd98d" stroke="#bbd98d"/><path d="M777,115L628,240L838,210Z" fill="#a2d694" stroke="#a2d694"/><path d="M777,115L838,210L993,90Z" fill="#80b774" stroke="#80b774"/><path d="M993,90L838,210L1022,228Z" fill="#80b483" stroke="#80b483"/><path d="M993,90L1022,228L1109,129Z" fill="#809e69" stroke="#809e69"/><path d="M1109,129L1022,228L1070,223Z" fill="#7ba271" stroke="#7ba271"/><path d="M1109,129L1070,223L1100,332Z" fill="#709e5b" stroke="#709e5b"/><path d="M1109,129L1100,332L1110,489Z" fill="#378735" stroke="#378735"/><path d="M-84,256L-112,343L48,392Z" fill="#926534" stroke="#926534"/><path d="M-84,256L48,392L63,198Z" fill="#c38a4b" stroke="#c38a4b"/><path d="M63,198L48,392L232,327Z" fill="#b7a656" stroke="#b7a656"/><path d="M63,198L232,327L262,279Z" fill="#e0d06d" stroke="#e0d06d"/><path d="M262,279L232,327L405,357Z" fill="#b2d377" stroke="#b2d377"/><path d="M262,279L405,357L341,256Z" fill="#c8e486" stroke="#c8e486"/><path d="M341,256L405,357L562,171Z" fill="#dffd9d" stroke="#dffd9d"/><path d="M562,171L405,357L503,405Z" fill="#aae682" stroke="#aae682"/><path d="M562,171L503,405L628,240Z" fill="#bdef7d" stroke="#bdef7d"/><path d="M628,240L503,405L667,316Z" fill="#8ad869" stroke="#8ad869"/><path d="M628,240L667,316L838,210Z" fill="#99dc72" stroke="#99dc72"/><path d="M838,210L667,316L817,327Z" fill="#71cb60" stroke="#71cb60"/><path d="M838,210L817,327L1022,228Z" fill="#67bf60" stroke="#67bf60"/><path d="M1022,228L817,327L1016,413Z" fill="#329e43" stroke="#329e43"/><path d="M1022,228L1016,413L1100,332Z" fill="#308d39" stroke="#308d39"/><path d="M1022,228L1100,332L1070,223Z" fill="#66a24b" stroke="#66a24b"/><path d="M-112,343L-40,581L48,392Z" fill="#693719" stroke="#693719"/><path d="M48,392L-40,581L118,561Z" fill="#703415" stroke="#703415"/><path d="M48,392L118,561L204,507Z" fill="#775c26" stroke="#775c26"/><path d="M48,392L204,507L232,327Z" fill="#7b8c42" stroke="#7b8c42"/><path d="M232,327L204,507L405,357Z" fill="#7faf5e" stroke="#7faf5e"/><path d="M405,357L204,507L366,540Z" fill="#7f9a54" stroke="#7f9a54"/><path d="M405,357L366,540L503,405Z" fill="#7cb76e" stroke="#7cb76e"/><path d="M503,405L366,540L533,498Z" fill="#739f58" stroke="#739f58"/><path d="M503,405L533,498L667,316Z" fill="#5db658" stroke="#5db658"/><path d="M667,316L533,498L670,526Z" fill="#509f42" stroke="#509f42"/><path d="M667,316L670,526L817,327Z" fill="#2fa848" stroke="#2fa848"/><path d="M817,327L670,526L850,537Z" fill="#1a7e2e" stroke="#1a7e2e"/><path d="M817,327L850,537L1016,413Z" fill="#007b2d" stroke="#007b2d"/><path d="M1016,413L850,537L984,520Z" fill="#005715" stroke="#005715"/><path d="M1016,413L984,520L1110,489Z" fill="#004f11" stroke="#004f11"/><path d="M1016,413L1110,489L1100,332Z" fill="#00641f" stroke="#00641f"/><path d="M-40,581L850,537L118,561Z" fill="#7f7049" stroke="#7f7049"/><path d="M118,561L850,537L366,540Z" fill="#788658" stroke="#788658"/><path d="M118,561L366,540L204,507Z" fill="#7f6a36" stroke="#7f6a36"/><path d="M366,540L850,537L670,526Z" fill="#4e7934" stroke="#4e7934"/><path d="M366,540L670,526L533,498Z" fill="#678948" stroke="#678948"/></g></svg>
