<?xml version="1.0" encoding="utf-8"?>
<!-- Generator: Adobe Illustrator 16.0.0, SVG Export Plug-In . SVG Version: 6.00 Build 0)  -->
<!DOCTYPE svg PUBLIC "-//W3C//DTD SVG 1.1//EN" "http://www.w3.org/Graphics/SVG/1.1/DTD/svg11.dtd">
<svg version="1.1" id="Layer_1" xmlns="http://www.w3.org/2000/svg" xmlns:xlink="http://www.w3.org/1999/xlink" x="0px" y="0px"
	 width="24px" height="24px" viewBox="0 0 24 24" enable-background="new 0 0 24 24" xml:space="preserve">
<g>
	<path d="M0.271,12.705c0.649-0.486,1.298-0.969,1.945-1.456
		c0.957-0.72,1.911-1.443,2.866-2.165c0.024-0.019,0.047-0.039,0.091-0.075C3.541,7.781,1.921,6.56,0.277,5.322
		c0.3-0.196,0.58-0.379,0.86-0.562C2.285,4.02,3.432,3.279,4.58,2.54C5.477,1.962,6.375,1.387,7.27,0.807
		C7.366,0.744,7.425,0.75,7.511,0.825c0.732,0.632,1.468,1.258,2.202,1.887c0.715,0.613,1.428,1.227,2.144,1.84
		c0.041,0.036,0.094,0.06,0.169,0.105C9.716,6.127,7.463,7.56,5.179,9.013c0.347,0.223,0.664,0.427,0.982,0.629
		c1.378,0.878,2.757,1.755,4.136,2.633c0.531,0.338,1.061,0.678,1.597,1.008c0.052,0.033,0.158,0.035,0.209,0.004
		c1.124-0.695,2.244-1.399,3.364-2.1c1.146-0.718,2.296-1.434,3.442-2.152c0.084-0.052,0.166-0.11,0.273-0.183
		c-2.391-1.391-4.766-2.772-7.171-4.172c0.125-0.106,0.233-0.203,0.345-0.295c1.363-1.12,2.727-2.241,4.092-3.359
		c0.362-0.297,0.363-0.292,0.754-0.045c1.46,0.923,2.922,1.843,4.382,2.765c0.659,0.417,1.317,0.834,1.976,1.252
		c0.051,0.033,0.1,0.07,0.162,0.113c-1.518,1.253-3.022,2.496-4.535,3.744c1.518,1.288,3.021,2.566,4.542,3.858
		c-0.527,0.313-1.03,0.609-1.532,0.908c-0.873,0.52-1.746,1.041-2.62,1.561c-0.928,0.553-1.855,1.104-2.787,1.648
		c-0.044,0.023-0.136,0.018-0.177-0.012c-0.851-0.633-1.697-1.271-2.543-1.91c-0.648-0.486-1.296-0.975-1.94-1.467
		c-0.097-0.074-0.167-0.068-0.26,0.004c-1.208,0.936-2.419,1.869-3.629,2.801c-0.247,0.189-0.493,0.383-0.748,0.561
		c-0.05,0.035-0.157,0.043-0.208,0.014c-0.972-0.564-1.938-1.135-2.906-1.703c-1.291-0.758-2.582-1.516-3.873-2.271
		c-0.073-0.043-0.156-0.071-0.234-0.104C0.271,12.73,0.271,12.717,0.271,12.705z"/>
	<path d="M11.997,23.236c-1.4-0.93-2.786-1.852-4.174-2.77
		c-0.962-0.637-1.928-1.27-2.889-1.908c-0.053-0.035-0.113-0.109-0.114-0.166c-0.009-0.514-0.005-1.025-0.005-1.582
		c0.216,0.123,0.41,0.229,0.599,0.34c0.64,0.375,1.28,0.75,1.917,1.131c0.098,0.061,0.168,0.047,0.252-0.018
		c1.201-0.926,2.401-1.85,3.602-2.775c0.266-0.205,0.536-0.406,0.816-0.619c0.381,0.285,0.759,0.568,1.137,0.852
		c0.902,0.678,1.806,1.355,2.708,2.035c0.224,0.168,0.449,0.336,0.668,0.51c0.086,0.07,0.157,0.076,0.252,0.02
		c0.743-0.449,1.487-0.893,2.231-1.336c0.056-0.033,0.117-0.061,0.199-0.102c0,0.553,0.002,1.076-0.003,1.6
		c-0.001,0.043-0.043,0.1-0.082,0.125c-0.927,0.613-1.855,1.221-2.784,1.828c-1.226,0.805-2.451,1.605-3.678,2.408
		C12.438,22.949,12.223,23.088,11.997,23.236z"/>
</g>
</svg>
