<?xml version="1.0" encoding="utf-8"?>
<!-- Generator: Adobe Illustrator 16.0.0, SVG Export Plug-In . SVG Version: 6.00 Build 0)  -->
<!DOCTYPE svg PUBLIC "-//W3C//DTD SVG 1.1//EN" "http://www.w3.org/Graphics/SVG/1.1/DTD/svg11.dtd">
<svg version="1.1" id="Layer_1" xmlns="http://www.w3.org/2000/svg" xmlns:xlink="http://www.w3.org/1999/xlink" x="0px" y="0px"
	 width="402px" height="214px" viewBox="0 0 402 214" enable-background="new 0 0 402 214" xml:space="preserve">
<rect x="2.813" y="2.594" fill="#FFFFFF" stroke="#E4E4E4" stroke-width="3" stroke-miterlimit="10" width="183.458" height="209"/>
<rect x="13.656" y="124.5" fill="#F9F9F9" stroke="#E4E4E4" stroke-width="3" stroke-miterlimit="10" width="159.927" height="19.75"/>
<g>
	
		<rect x="14.761" y="14.862" fill="none" stroke="#449AD3" stroke-width="2" stroke-linecap="round" stroke-miterlimit="10" width="12.833" height="12.833"/>
</g>
<g>
	
		<rect x="14.761" y="35.522" fill="none" stroke="#449AD3" stroke-width="2" stroke-linecap="round" stroke-miterlimit="10" width="12.833" height="12.833"/>
	<g>
		
			<line fill="none" stroke="#449AD3" stroke-width="2" stroke-linecap="round" stroke-miterlimit="10" x1="17.615" y1="43.334" x2="19.177" y2="44.896"/>
		
			<line fill="none" stroke="#449AD3" stroke-width="2" stroke-linecap="round" stroke-miterlimit="10" x1="19.385" y1="44.896" x2="24.948" y2="39.334"/>
	</g>
</g>
<g>
	
		<rect x="14.761" y="56.182" fill="none" stroke="#449AD3" stroke-width="2" stroke-linecap="round" stroke-miterlimit="10" width="12.833" height="12.833"/>
	<g>
		
			<line fill="none" stroke="#449AD3" stroke-width="2" stroke-linecap="round" stroke-miterlimit="10" x1="17.615" y1="63.993" x2="19.177" y2="65.556"/>
		
			<line fill="none" stroke="#449AD3" stroke-width="2" stroke-linecap="round" stroke-miterlimit="10" x1="19.385" y1="65.556" x2="24.948" y2="59.993"/>
	</g>
</g>
<line fill="none" stroke="#B4B4B4" stroke-width="5" stroke-linecap="round" stroke-miterlimit="10" x1="42.25" y1="21.279" x2="69.771" y2="21.279"/>
<line fill="none" stroke="#B4B4B4" stroke-width="5" stroke-linecap="round" stroke-miterlimit="10" x1="42.25" y1="61.828" x2="75.893" y2="61.828"/>
<line fill="none" stroke="#B4B4B4" stroke-width="5" stroke-linecap="round" stroke-miterlimit="10" x1="79.25" y1="21.279" x2="90.75" y2="21.279"/>
<g>
	
		<line fill="none" stroke="#B4B4B4" stroke-width="5" stroke-linecap="round" stroke-miterlimit="10" x1="42.406" y1="41.334" x2="87.531" y2="41.334"/>
	
		<line fill="none" stroke="#B4B4B4" stroke-width="5" stroke-linecap="round" stroke-miterlimit="10" x1="96.771" y1="41.334" x2="117.406" y2="41.334"/>
</g>
<g>
	
		<rect x="14.761" y="76.841" fill="none" stroke="#449AD3" stroke-width="2" stroke-linecap="round" stroke-miterlimit="10" width="12.833" height="12.833"/>
</g>
<line fill="none" stroke="#B4B4B4" stroke-width="5" stroke-linecap="round" stroke-miterlimit="10" x1="42.25" y1="82.668" x2="87.375" y2="82.668"/>
<line fill="none" stroke="#B4B4B4" stroke-width="5" stroke-linecap="round" stroke-miterlimit="10" x1="96.615" y1="82.668" x2="117.25" y2="82.668"/>
<g>
	
		<rect x="14.761" y="97.5" fill="none" stroke="#449AD3" stroke-width="2" stroke-linecap="round" stroke-miterlimit="10" width="12.833" height="12.833"/>
	<g>
		
			<line fill="none" stroke="#449AD3" stroke-width="2" stroke-linecap="round" stroke-miterlimit="10" x1="17.615" y1="105.313" x2="19.177" y2="106.875"/>
		
			<line fill="none" stroke="#449AD3" stroke-width="2" stroke-linecap="round" stroke-miterlimit="10" x1="19.385" y1="106.875" x2="24.948" y2="101.313"/>
	</g>
</g>
<line fill="none" stroke="#B4B4B4" stroke-width="5" stroke-linecap="round" stroke-miterlimit="10" x1="41.678" y1="103.917" x2="56.917" y2="103.917"/>
<line fill="none" stroke="#B4B4B4" stroke-width="5" stroke-linecap="round" stroke-miterlimit="10" x1="65.678" y1="103.917" x2="80.917" y2="103.917"/>
<line fill="none" stroke="#B4B4B4" stroke-width="5" stroke-linecap="round" stroke-miterlimit="10" x1="90.042" y1="103.917" x2="110.678" y2="103.917"/>
<rect x="13.656" y="156" fill="#F9F9F9" stroke="#E4E4E4" stroke-width="3" stroke-miterlimit="10" width="159.927" height="45.25"/>
<line fill="none" stroke="#B4B4B4" stroke-width="5" stroke-linecap="round" stroke-miterlimit="10" x1="25.047" y1="134.375" x2="52.568" y2="134.375"/>
<line fill="none" stroke="#B4B4B4" stroke-width="5" stroke-linecap="round" stroke-miterlimit="10" x1="62.047" y1="134.375" x2="73.547" y2="134.375"/>
<line fill="none" stroke="#B4B4B4" stroke-width="5" stroke-linecap="round" stroke-miterlimit="10" x1="24.542" y1="168.5" x2="39.781" y2="168.5"/>
<line fill="none" stroke="#B4B4B4" stroke-width="5" stroke-linecap="round" stroke-miterlimit="10" x1="48.542" y1="168.5" x2="63.781" y2="168.5"/>
<line fill="none" stroke="#B4B4B4" stroke-width="5" stroke-linecap="round" stroke-miterlimit="10" x1="72.906" y1="168.5" x2="93.542" y2="168.5"/>
<g>
	
		<line fill="none" stroke="#B4B4B4" stroke-width="5" stroke-linecap="round" stroke-miterlimit="10" x1="23.385" y1="181.625" x2="68.51" y2="181.625"/>
	
		<line fill="none" stroke="#B4B4B4" stroke-width="5" stroke-linecap="round" stroke-miterlimit="10" x1="77.75" y1="181.625" x2="98.385" y2="181.625"/>
</g>
<line fill="none" stroke="#4399D4" stroke-width="5" stroke-linecap="round" stroke-miterlimit="10" x1="102.906" y1="168.5" x2="133.667" y2="168.5"/>
<g>
	
		<rect x="205.172" y="66.009" fill="#F9F9F9" stroke="#E3E4E3" stroke-width="2.3588" stroke-miterlimit="10" width="180" height="73.982"/>
	
		<line fill="none" stroke="#B4B4B4" stroke-width="4.7176" stroke-linecap="round" stroke-miterlimit="10" x1="242.751" y1="79.309" x2="294.378" y2="79.309"/>
	
		<line fill="none" stroke="#B4B4B4" stroke-width="4.5851" stroke-linecap="round" stroke-miterlimit="10" x1="304.316" y1="79.309" x2="353.082" y2="79.309"/>
	
		<line fill="none" stroke="#B4B4B4" stroke-width="4.7176" stroke-linecap="round" stroke-miterlimit="10" x1="242.751" y1="92.894" x2="270.423" y2="92.894"/>
	
		<line fill="none" stroke="#B4B4B4" stroke-width="4.7176" stroke-linecap="round" stroke-miterlimit="10" x1="281.077" y1="92.894" x2="329.057" y2="92.894"/>
	
		<line fill="#B4B4B4" stroke="#D7D7D7" stroke-width="4.7176" stroke-linecap="round" stroke-miterlimit="10" x1="351.288" y1="127.216" x2="370.666" y2="127.216"/>
	
		<circle fill="none" stroke="#4399D4" stroke-width="3.1451" stroke-linecap="round" stroke-miterlimit="10" cx="224.412" cy="85.953" r="7.982"/>
</g>
<g>
	
		<line fill="none" stroke="#4399D4" stroke-width="2.3588" stroke-linecap="round" stroke-miterlimit="10" x1="220.521" y1="86.771" x2="222.921" y2="89.172"/>
	
		<line fill="none" stroke="#4399D4" stroke-width="2.3588" stroke-linecap="round" stroke-miterlimit="10" x1="222.921" y1="89.172" x2="228.303" y2="83.79"/>
</g>
<circle fill="#EE473B" cx="220.594" cy="127.338" r="3.187"/>
<circle fill="#F58525" cx="232.451" cy="127.338" r="3.187"/>
<circle fill="#3D9871" cx="244.246" cy="127.338" r="3.187"/>
<g>
	<g>
		<path fill="none" stroke="#8C8C8C" stroke-width="4.263" stroke-miterlimit="10" stroke-dasharray="4.263,4.263" d="
			M148.417,168.5c0,0,50.299-15.824,67.005-63.325"/>
		<g>
			<polygon fill="#8C8C8C" points="207.654,103.785 222.455,108.512 217.417,98.75 			"/>
		</g>
	</g>
</g>
</svg>
