<?xml version="1.0" encoding="utf-8"?>
<!-- Generator: Adobe Illustrator 16.0.0, SVG Export Plug-In . SVG Version: 6.00 Build 0)  -->
<!DOCTYPE svg PUBLIC "-//W3C//DTD SVG 1.1//EN" "http://www.w3.org/Graphics/SVG/1.1/DTD/svg11.dtd">
<svg version="1.1" id="Space" xmlns="http://www.w3.org/2000/svg" xmlns:xlink="http://www.w3.org/1999/xlink" x="0px" y="0px"
	 width="128px" height="120.881px" viewBox="0 0 128 120.881" enable-background="new 0 0 128 120.881" xml:space="preserve">
<g>
	<polygon fill="#148C66" points="58.481,98.956 56.586,98.956 56.586,85.222 60.559,85.222 	"/>
	<path fill="#177A57" d="M59.966,100.548c0-2.338-1.895-4.232-4.232-4.232v4.232H59.966z"/>
	<path fill="#39BD7A" d="M55.734,96.313c-2.338,0-4.233,1.896-4.233,4.234h4.233V96.313z"/>
	<polygon fill="#148C66" points="61.736,69.175 63.626,69.175 63.626,62.993 61.957,62.993 	"/>
	<path fill="#39BD7A" d="M63.626,63.995c-5.998,0-9.889-2.252-11.997-7.184c-2.107-4.93-6.484-16.115-6.484-23.896
		s8.43-12.826,18.481-12.826C63.626,35.106,63.626,63.995,63.626,63.995z"/>
	<path fill="#39BD7A" d="M63.626,67.917c-5.683,0-10.29,6.686-10.29,12.367c0,5.684,4.607,8.213,10.29,8.213V67.917z"/>
	<path fill="#292D36" d="M53.415,36.856c-1.705-1.252-6.17-2.637-8.181-2.021c0.436,5.506,2.571,12.172,4.458,17.162
		c3.875-0.219,10.424-1.285,10.424-5.924C60.116,41.921,57.44,39.813,53.415,36.856z"/>
	<path fill="#39BD7A" d="M51.027,85.063c-0.135,0-0.277-0.006-0.423-0.02c-0.38-0.037-0.661-0.373-0.625-0.756
		c0.036-0.381,0.379-0.66,0.754-0.625c1.536,0.15,1.962-0.932,2.068-1.395l-3.776-7.322c-0.087-0.168-0.101-0.365-0.039-0.543
		c0.062-0.18,0.194-0.326,0.366-0.404l9.912-4.533c0.349-0.16,0.759-0.006,0.917,0.342c0.159,0.348,0.006,0.758-0.341,0.916
		l-9.251,4.234l3.549,6.881c0.062,0.121,0.088,0.258,0.073,0.393C54.1,83.249,53.288,85.063,51.027,85.063z"/>
	<polygon fill="#177A57" points="68.771,98.956 70.667,98.956 70.667,85.222 66.693,85.222 	"/>
	<path fill="#39BD7A" d="M67.286,100.548c0-2.338,1.896-4.232,4.233-4.232v4.232H67.286z"/>
	<path fill="#148C66" d="M71.52,96.313c2.338,0,4.232,1.896,4.232,4.234H71.52V96.313z"/>
	<polygon fill="#177A57" points="65.518,69.175 63.626,69.175 63.626,62.993 65.297,62.993 	"/>
	<path fill="#148C66" d="M63.626,63.995c5.998,0,9.89-2.252,11.997-7.184c2.107-4.93,6.484-16.115,6.484-23.896
		s-8.431-12.826-18.481-12.826C63.626,35.106,63.626,63.995,63.626,63.995z"/>
	<path fill="#148C66" d="M63.626,67.917c5.685,0,10.291,6.686,10.291,12.367c0,5.684-4.606,8.213-10.291,8.213V67.917z"/>
	<path fill="#292D36" d="M73.838,36.856c1.705-1.252,6.17-2.637,8.182-2.021c-0.437,5.506-2.571,12.172-4.459,17.162
		c-3.873-0.219-10.424-1.285-10.424-5.924C67.137,41.921,69.813,39.813,73.838,36.856z"/>
	<path fill="#148C66" d="M76.225,85.063c0.137,0,0.277-0.006,0.424-0.02c0.379-0.037,0.66-0.373,0.625-0.756
		c-0.037-0.381-0.381-0.66-0.754-0.625c-1.537,0.15-1.963-0.932-2.068-1.395l3.775-7.322c0.088-0.168,0.102-0.365,0.039-0.543
		c-0.062-0.18-0.192-0.326-0.365-0.404l-9.912-4.533c-0.35-0.16-0.758-0.006-0.918,0.342c-0.158,0.348-0.006,0.758,0.343,0.916
		l9.251,4.234l-3.551,6.881c-0.062,0.121-0.086,0.258-0.071,0.393C73.152,83.249,73.965,85.063,76.225,85.063z"/>
	<path fill="#292D36" d="M63.626,60.364c-2.313,0-3.936-1.248-4.697-1.992c-0.321-0.313-0.328-0.828-0.014-1.148
		s0.83-0.326,1.15-0.014c0.584,0.57,1.824,1.527,3.561,1.527c2.166,0,3.222-1.111,3.493-1.453c0.279-0.352,0.791-0.408,1.143-0.129
		s0.408,0.791,0.129,1.143C67.359,59.593,65.579,60.364,63.626,60.364z"/>
	<circle opacity="0.3" fill="#FFFFFF" enable-background="new    " cx="60.559" cy="74.431" r="1.83"/>
	<circle opacity="0.3" fill="#FFFFFF" enable-background="new    " cx="59.475" cy="81.096" r="2.888"/>
	<circle fill="#FFFFFF" cx="51.772" cy="41.099" r="2.824"/>
	<circle fill="#FFFFFF" cx="55.486" cy="46.131" r="1.101"/>
	<circle fill="#FFFFFF" cx="75.77" cy="41.099" r="1.885"/>
</g>
</svg>
