<?xml version="1.0" encoding="utf-8"?>
<!-- Generator: Adobe Illustrator 16.0.0, SVG Export Plug-In . SVG Version: 6.00 Build 0)  -->
<!DOCTYPE svg PUBLIC "-//W3C//DTD SVG 1.1//EN" "http://www.w3.org/Graphics/SVG/1.1/DTD/svg11.dtd">
<svg version="1.1" id="Layer_1" xmlns="http://www.w3.org/2000/svg" xmlns:xlink="http://www.w3.org/1999/xlink" x="0px" y="0px"
	 width="402px" height="214px" viewBox="0 0 402 214" enable-background="new 0 0 402 214" xml:space="preserve">
<rect x="2.532" y="2.5" fill="#FFFFFF" stroke="#E4E4E4" stroke-width="3" stroke-miterlimit="10" width="189" height="209"/>
<rect x="210.917" y="2.5" fill="#FFFFFF" stroke="#E4E4E4" stroke-width="3" stroke-miterlimit="10" width="189" height="209"/>
<rect x="17.75" y="99" fill="#F9F9F9" stroke="#E4E4E4" stroke-width="3" stroke-miterlimit="10" width="157.334" height="64.666"/>
<rect x="17.75" y="20.5" fill="#F9F9F9" stroke="#E4E4E4" stroke-width="3" stroke-miterlimit="10" width="157.334" height="64.666"/>
<rect x="225.833" y="20.25" fill="#F9F9F9" stroke="#E4E4E4" stroke-width="3" stroke-miterlimit="10" width="157.334" height="64.666"/>
<line fill="none" stroke="#B4B4B4" stroke-width="6" stroke-linecap="round" stroke-miterlimit="10" x1="29.979" y1="32.125" x2="75.104" y2="32.125"/>
<line fill="none" stroke="#B4B4B4" stroke-width="5.8314" stroke-linecap="round" stroke-miterlimit="10" x1="83.792" y1="32.125" x2="126.417" y2="32.125"/>
<line fill="none" stroke="#B4B4B4" stroke-width="6" stroke-linecap="round" stroke-miterlimit="10" x1="29.979" y1="44" x2="54.167" y2="44"/>
<line fill="none" stroke="#B4B4B4" stroke-width="6" stroke-linecap="round" stroke-miterlimit="10" x1="63.479" y1="44" x2="105.417" y2="44"/>
<line fill="none" stroke="#B4B4B4" stroke-width="6" stroke-linecap="round" stroke-miterlimit="10" x1="135.479" y1="32.125" x2="156.667" y2="32.125"/>
<line fill="#B4B4B4" stroke="#D8D8D8" stroke-width="6" stroke-linecap="round" stroke-miterlimit="10" x1="29.979" y1="74" x2="75.104" y2="74"/>
<line fill="#B4B4B4" stroke="#D8D8D8" stroke-width="6" stroke-linecap="round" stroke-miterlimit="10" x1="83.729" y1="74" x2="100.667" y2="74"/>
<line fill="#B4B4B4" stroke="#D8D8D8" stroke-width="6" stroke-linecap="round" stroke-miterlimit="10" x1="145.729" y1="74" x2="162.667" y2="74"/>
<line fill="none" stroke="#449AD3" stroke-width="6" stroke-linecap="round" stroke-miterlimit="10" x1="28.479" y1="110.125" x2="73.604" y2="110.125"/>
<line fill="none" stroke="#449AD3" stroke-width="6" stroke-linecap="round" stroke-miterlimit="10" x1="112.375" y1="110.125" x2="155" y2="110.125"/>
<line fill="none" stroke="#449AD3" stroke-width="6" stroke-linecap="round" stroke-miterlimit="10" x1="28.479" y1="122" x2="70.417" y2="122"/>
<line fill="none" stroke="#449AD3" stroke-width="6" stroke-linecap="round" stroke-miterlimit="10" x1="82.438" y1="110.125" x2="103.625" y2="110.125"/>
<line fill="#B4B4B4" stroke="#D8D8D8" stroke-width="6" stroke-linecap="round" stroke-miterlimit="10" x1="28.979" y1="152.249" x2="74.104" y2="152.249"/>
<line fill="#B4B4B4" stroke="#D8D8D8" stroke-width="6" stroke-linecap="round" stroke-miterlimit="10" x1="144.729" y1="152.249" x2="161.667" y2="152.249"/>
<line fill="none" stroke="#B4B4B4" stroke-width="6" stroke-linecap="round" stroke-miterlimit="10" x1="238.729" y1="32" x2="262.917" y2="32"/>
<line fill="none" stroke="#B4B4B4" stroke-width="6" stroke-linecap="round" stroke-miterlimit="10" x1="272.229" y1="32" x2="314.167" y2="32"/>
<line fill="#B4B4B4" stroke="#D8D8D8" stroke-width="6" stroke-linecap="round" stroke-miterlimit="10" x1="238.729" y1="74" x2="283.854" y2="74"/>
<line fill="#B4B4B4" stroke="#D8D8D8" stroke-width="6" stroke-linecap="round" stroke-miterlimit="10" x1="292.479" y1="74" x2="309.417" y2="74"/>
<line fill="#B4B4B4" stroke="#D8D8D8" stroke-width="6" stroke-linecap="round" stroke-miterlimit="10" x1="353.479" y1="74" x2="370.417" y2="74"/>
<line fill="none" stroke="#B4B4B4" stroke-width="6" stroke-linecap="round" stroke-miterlimit="10" x1="238.729" y1="45.125" x2="283.854" y2="45.125"/>
<line fill="none" stroke="#B4B4B4" stroke-width="5.8314" stroke-linecap="round" stroke-miterlimit="10" x1="292.542" y1="45.125" x2="335.167" y2="45.125"/>
<g>
	<rect x="225.833" y="98.75" fill="#FFFFFF" width="157.334" height="64.666"/>
	<g>
		<polyline fill="none" stroke="#E4E4E4" stroke-width="3" stroke-miterlimit="10" points="383.167,161.416 383.167,163.416 
			381.167,163.416 		"/>
		
			<line fill="none" stroke="#E4E4E4" stroke-width="3" stroke-miterlimit="10" stroke-dasharray="3.9316,3.9316" x1="377.235" y1="163.416" x2="229.799" y2="163.416"/>
		<polyline fill="none" stroke="#E4E4E4" stroke-width="3" stroke-miterlimit="10" points="227.833,163.416 225.833,163.416 
			225.833,161.416 		"/>
		
			<line fill="none" stroke="#E4E4E4" stroke-width="3" stroke-miterlimit="10" stroke-dasharray="4.0444,4.0444" x1="225.833" y1="157.372" x2="225.833" y2="102.772"/>
		<polyline fill="none" stroke="#E4E4E4" stroke-width="3" stroke-miterlimit="10" points="225.833,100.75 225.833,98.75 
			227.833,98.75 		"/>
		
			<line fill="none" stroke="#E4E4E4" stroke-width="3" stroke-miterlimit="10" stroke-dasharray="3.9316,3.9316" x1="231.765" y1="98.75" x2="379.201" y2="98.75"/>
		<polyline fill="none" stroke="#E4E4E4" stroke-width="3" stroke-miterlimit="10" points="381.167,98.75 383.167,98.75 
			383.167,100.75 		"/>
		
			<line fill="none" stroke="#E4E4E4" stroke-width="3" stroke-miterlimit="10" stroke-dasharray="4.0444,4.0444" x1="383.167" y1="104.794" x2="383.167" y2="159.394"/>
	</g>
</g>
<g>
	<defs>
		<rect id="SVGID_1_" x="1.917" y="2.5" width="189" height="207.75"/>
	</defs>
	<clipPath id="SVGID_2_">
		<use xlink:href="#SVGID_1_"  overflow="visible"/>
	</clipPath>
	<g clip-path="url(#SVGID_2_)">
		
			<rect x="17.75" y="180.057" fill="#F9F9F9" stroke="#E4E4E4" stroke-width="3" stroke-miterlimit="10" width="157.334" height="64.279"/>
		
			<line fill="none" stroke="#B4B4B4" stroke-width="6" stroke-linecap="round" stroke-miterlimit="10" x1="28.979" y1="191.115" x2="74.104" y2="191.115"/>
		
			<line fill="none" stroke="#B4B4B4" stroke-width="6" stroke-linecap="round" stroke-miterlimit="10" x1="82.438" y1="191.115" x2="103.626" y2="191.115"/>
	</g>
</g>
<line fill="none" stroke="#B4B4B4" stroke-width="6" stroke-linecap="round" stroke-miterlimit="10" x1="29.479" y1="204.25" x2="50.667" y2="204.25"/>
<g>
	<g>
		<path fill="none" stroke="#8C8C8C" stroke-width="4" stroke-miterlimit="10" stroke-dasharray="4,4" d="M156.667,124.334
			c0,0,28.966,31.787,83.541,11.963"/>
		<g>
			<polygon fill="#8C8C8C" points="240.993,144.483 250.823,131.917 235.025,129.685 			"/>
		</g>
	</g>
</g>
</svg>
