<?xml version="1.0" encoding="utf-8"?>
<!-- Generator: Adobe Illustrator 16.0.0, SVG Export Plug-In . SVG Version: 6.00 Build 0)  -->
<!DOCTYPE svg PUBLIC "-//W3C//DTD SVG 1.1//EN" "http://www.w3.org/Graphics/SVG/1.1/DTD/svg11.dtd">
<svg version="1.1" id="Layer_1" xmlns="http://www.w3.org/2000/svg" xmlns:xlink="http://www.w3.org/1999/xlink" x="0px" y="0px"
	 width="402px" height="214px" viewBox="0 0 402 214" enable-background="new 0 0 402 214" xml:space="preserve">
<g>
	
		<rect x="34.599" y="3" fill="#F9F9FA" stroke="#E4E4E4" stroke-width="3" stroke-miterlimit="10" width="228.931" height="94.093"/>
	
		<line fill="none" stroke="#B5B5B5" stroke-width="6" stroke-linecap="round" stroke-miterlimit="10" x1="82.393" y1="19.915" x2="148.053" y2="19.915"/>
	
		<line fill="none" stroke="#B5B5B5" stroke-width="5.8314" stroke-linecap="round" stroke-miterlimit="10" x1="160.694" y1="19.915" x2="222.715" y2="19.915"/>
	
		<line fill="none" stroke="#B5B5B5" stroke-width="6" stroke-linecap="round" stroke-miterlimit="10" x1="82.393" y1="37.193" x2="117.587" y2="37.193"/>
	
		<line fill="none" stroke="#B5B5B5" stroke-width="6" stroke-linecap="round" stroke-miterlimit="10" x1="131.137" y1="37.193" x2="192.16" y2="37.193"/>
	
		<circle fill="none" stroke="#459AD5" stroke-width="4" stroke-linecap="round" stroke-miterlimit="10" cx="59.068" cy="28.365" r="10.151"/>
</g>
<g>
	
		<rect x="88.406" y="58.25" fill="#F9F9FA" stroke="#E4E4E4" stroke-width="3" stroke-miterlimit="10" width="228.93" height="94.093"/>
	
		<line fill="none" stroke="#B5B5B5" stroke-width="6" stroke-linecap="round" stroke-miterlimit="10" x1="136.2" y1="75.165" x2="201.86" y2="75.165"/>
	
		<line fill="none" stroke="#B5B5B5" stroke-width="5.8314" stroke-linecap="round" stroke-miterlimit="10" x1="214.501" y1="75.165" x2="276.522" y2="75.165"/>
	
		<line fill="none" stroke="#B5B5B5" stroke-width="6" stroke-linecap="round" stroke-miterlimit="10" x1="136.2" y1="92.443" x2="171.395" y2="92.443"/>
	
		<line fill="none" stroke="#B5B5B5" stroke-width="6" stroke-linecap="round" stroke-miterlimit="10" x1="184.944" y1="92.443" x2="245.967" y2="92.443"/>
	
		<line fill="#B5B5B5" stroke="#D8D9D8" stroke-width="6" stroke-linecap="round" stroke-miterlimit="10" x1="274.241" y1="136.096" x2="298.887" y2="136.096"/>
	
		<circle fill="none" stroke="#459AD5" stroke-width="4" stroke-linecap="round" stroke-miterlimit="10" cx="112.875" cy="83.615" r="10.151"/>
	<circle fill="#FEDC00" cx="107.856" cy="134.224" r="4.053"/>
	<circle fill="#3E9971" cx="122.856" cy="134.224" r="4.053"/>
</g>
<g>
	
		<rect x="137.479" y="116.343" fill="#F9F9FA" stroke="#E4E4E4" stroke-width="3" stroke-miterlimit="10" width="228.93" height="94.093"/>
	
		<line fill="none" stroke="#B5B5B5" stroke-width="6" stroke-linecap="round" stroke-miterlimit="10" x1="185.273" y1="133.258" x2="250.934" y2="133.258"/>
	
		<line fill="none" stroke="#B5B5B5" stroke-width="5.8314" stroke-linecap="round" stroke-miterlimit="10" x1="263.574" y1="133.258" x2="325.596" y2="133.258"/>
	
		<line fill="none" stroke="#B5B5B5" stroke-width="6" stroke-linecap="round" stroke-miterlimit="10" x1="185.273" y1="150.536" x2="220.468" y2="150.536"/>
	
		<line fill="none" stroke="#B5B5B5" stroke-width="6" stroke-linecap="round" stroke-miterlimit="10" x1="234.018" y1="150.536" x2="295.04" y2="150.536"/>
	
		<line fill="#B5B5B5" stroke="#D8D9D8" stroke-width="6" stroke-linecap="round" stroke-miterlimit="10" x1="323.314" y1="194.188" x2="347.96" y2="194.188"/>
	
		<circle fill="none" stroke="#459AD5" stroke-width="4" stroke-linecap="round" stroke-miterlimit="10" cx="161.948" cy="141.708" r="10.151"/>
</g>
<g>
	
		<line fill="none" stroke="#459AD5" stroke-width="3" stroke-linecap="round" stroke-miterlimit="10" x1="157" y1="142.75" x2="160.052" y2="145.803"/>
	
		<line fill="none" stroke="#459AD5" stroke-width="3" stroke-linecap="round" stroke-miterlimit="10" x1="160.052" y1="145.803" x2="166.897" y2="138.958"/>
</g>
<g>
	
		<line fill="none" stroke="#459AD5" stroke-width="3" stroke-linecap="round" stroke-miterlimit="10" x1="107.927" y1="84.697" x2="110.979" y2="87.75"/>
	
		<line fill="none" stroke="#459AD5" stroke-width="3" stroke-linecap="round" stroke-miterlimit="10" x1="110.979" y1="87.75" x2="117.823" y2="80.905"/>
</g>
<circle fill="#EF463C" cx="157.093" cy="194.344" r="4.053"/>
<circle fill="#F68525" cx="172.174" cy="194.344" r="4.053"/>
<circle fill="#3E9971" cx="187.174" cy="194.344" r="4.053"/>
<circle fill="#EF463C" cx="54.594" cy="81.275" r="4.053"/>
<circle fill="#F68525" cx="69.219" cy="81.275" r="4.053"/>
</svg>
