<?xml version="1.0" encoding="utf-8"?>
<!-- Generator: Adobe Illustrator 16.0.0, SVG Export Plug-In . SVG Version: 6.00 Build 0)  -->
<!DOCTYPE svg PUBLIC "-//W3C//DTD SVG 1.1//EN" "http://www.w3.org/Graphics/SVG/1.1/DTD/svg11.dtd">
<svg version="1.1" id="Layer_1" xmlns="http://www.w3.org/2000/svg" xmlns:xlink="http://www.w3.org/1999/xlink" x="0px" y="0px"
	 width="24px" height="24px" viewBox="0 0 24 24" enable-background="new 0 0 24 24" xml:space="preserve">
<path d="M7,18.75v2h10v-2H7z M3,16.75h18v-10H3V16.75z M7,2.75v2h10v-2H7z M-23,18.75v2h10v-2H-23z M-23,2.75v2h10v-2H-23z
	 M-23,6.75v10h10v-10H-23z"/>
<rect x="7" y="-11.25" width="10" height="2"/>
<rect x="3" y="-21.287" width="18" height="6.167"/>
<rect x="7" y="-27.25" width="10" height="2"/>
<rect x="6.958" y="-13.829" width="10" height="2"/>
<rect x="7.041" y="-24.704" width="10" height="2"/>
<rect x="27.896" y="-11.204" width="10" height="2"/>
<rect x="27.896" y="-21.241" width="6.313" height="6.167"/>
<rect x="27.896" y="-27.204" width="10" height="2"/>
<rect x="27.896" y="-13.782" width="10" height="2"/>
<rect x="27.896" y="-24.657" width="10" height="2"/>
<rect x="40.979" y="-27.204" width="10" height="2"/>
<rect x="44.667" y="-21.333" width="6.313" height="6.167"/>
<rect x="40.979" y="-11.204" width="10" height="2"/>
<rect x="40.979" y="-24.625" width="10" height="2"/>
<rect x="40.979" y="-13.75" width="10" height="2"/>
<rect x="-9.469" y="-11.157" width="10" height="2"/>
<rect x="-7.625" y="-21.194" width="6.313" height="6.167"/>
<rect x="-9.469" y="-27.157" width="10" height="2"/>
<rect x="-9.469" y="-13.736" width="10" height="2"/>
<rect x="-9.469" y="-24.611" width="10" height="2"/>
</svg>
