<?xml version="1.0" encoding="utf-8"?>
<svg xmlns="http://www.w3.org/2000/svg">
    <path d="M21.725 5.338c-.744.47-1.605.804-2.513 1.006-.74-.804-1.785-1.293-2.942-1.293-2.22 0-4.02 1.807-4.02 4.02 0 .32.034.63.07.94-3.31-.183-6.27-1.783-8.255-4.236-.346.613-.543 1.304-.574 2.01.036 1.427.74 2.658 1.8 3.374-.636-.015-1.255-.196-1.793-.502-.005.024-.005.04 0 .072-.005 1.934 1.382 3.56 3.228 3.95-.344.07-.698.12-1.076.144-.25-.022-.5-.046-.72-.072.485 1.576 1.968 2.738 3.734 2.8-1.384 1.05-3.118 1.692-5.026 1.72-.3-.028-.62-.047-.934-.073 1.78 1.13 3.895 1.795 6.174 1.795 7.387 0 11.43-6.13 11.415-11.413.015-.21.01-.38 0-.578.788-.547 1.47-1.257 2.01-2.08-.723.34-1.496.556-2.297.645.817-.493 1.453-1.28 1.722-2.228"></path>
</svg>
