<?xml version="1.0" encoding="utf-8"?>
<!-- Generator: Adobe Illustrator 16.0.0, SVG Export Plug-In . SVG Version: 6.00 Build 0)  -->
<!DOCTYPE svg PUBLIC "-//W3C//DTD SVG 1.1//EN" "http://www.w3.org/Graphics/SVG/1.1/DTD/svg11.dtd">
<svg version="1.1" id="Space" xmlns="http://www.w3.org/2000/svg" xmlns:xlink="http://www.w3.org/1999/xlink" x="0px" y="0px"
	 width="128px" height="120.881px" viewBox="0 0 128 120.881" enable-background="new 0 0 128 120.881" xml:space="preserve">
<g>
	<rect x="64.229" y="44.351" fill="#C5C5C5" width="10.785" height="18.339"/>
	<rect x="46.714" y="25.919" fill="#A5A5A5" width="1.564" height="13.857"/>
	<path fill="#C5C5C5" d="M49.2,32.798v1.544h5.271v-1.544v-5.271C51.559,27.527,49.2,29.887,49.2,32.798z"/>
	<path fill="#C5C5C5" d="M45.643,42.279v2.073h5.271v-2.073v-7.076C48.003,35.203,45.643,38.371,45.643,42.279z"/>
	<rect x="49.2" y="34.342" fill="#A5A5A5" width="5.271" height="10.009"/>
	<polygon fill="#FFFFFF" points="64.229,66.206 64.229,75.036 62.556,84.688 52.755,84.688 54.706,66.206 	"/>
	<rect x="53.678" y="23.176" fill="#FFFFFF" width="21.103" height="21.175"/>
	<rect x="64.229" y="23.176" fill="#C5C5C5" width="10.552" height="21.175"/>
	<path fill="#1F2347" d="M73.152,33.764c0-4.929-3.995-8.923-8.924-8.923v8.923H73.152z"/>
	<path fill="#333860" d="M64.229,24.839c-4.929,0-8.924,3.996-8.924,8.924h8.924V24.839z"/>
	<path fill="#1F2347" d="M55.305,33.764c0,4.928,3.995,8.924,8.924,8.924v-8.924H55.305z"/>
	<path fill="#000121" d="M64.229,33.764v8.924c4.929,0,8.924-3.996,8.924-8.924H64.229z"/>
	<rect x="53.443" y="44.351" fill="#FFFFFF" width="10.785" height="18.339"/>
	<path fill="#C5C5C5" d="M53.678,62.69V44.423c0-2.219-1.799-4.018-4.018-4.018V62.69H53.678z"/>
	<path fill="#FFFFFF" d="M49.661,62.69V40.406c-2.22,0-4.019,1.799-4.019,4.018V62.69H49.661z"/>
	<rect x="45.643" y="62.69" fill="#C5C5C5" width="4.019" height="10.486"/>
	<rect x="49.661" y="62.69" fill="#A5A5A5" width="4.018" height="10.486"/>
	<path fill="#C5C5C5" d="M55.096,75.036c0-3.002-2.434-5.436-5.436-5.436v5.436H55.096z"/>
	<path fill="#FFFFFF" d="M49.661,69.601c-3.002,0-5.438,2.434-5.438,5.436h5.438V69.601z"/>
	<path fill="#C5C5C5" d="M44.224,75.036c0,3.002,2.436,5.438,5.438,5.438v-5.438H44.224z"/>
	<path fill="#A5A5A5" d="M49.661,75.036v5.438c3.002,0,5.436-2.436,5.436-5.438H49.661z"/>
	<rect x="53.678" y="48.017" fill="#3469D3" width="6.889" height="5.503"/>
	<rect x="53.678" y="53.521" fill="#57A6FF" width="6.889" height="5.503"/>
	<polygon fill="#57A6FF" points="54.706,66.206 64.229,66.206 64.229,62.69 53.678,62.69 	"/>
	<polygon opacity="0.1" enable-background="new    " points="53.093,81.478 52.755,84.688 62.556,84.688 63.112,81.478 	"/>
	<rect x="52.755" y="84.688" fill="#C5C5C5" width="9.802" height="14.234"/>
	<path fill="#A5A5A5" d="M63.379,102.22c0-4.797-3.89-8.688-8.688-8.688v8.688H63.379z"/>
	<path fill="#FFFFFF" d="M54.691,93.534c-4.797,0-8.687,3.889-8.687,8.688h8.687V93.534z"/>
	<path fill="#FFFFFF" d="M49.896,24.975c0,0.522-0.424,0.944-0.944,0.944h-7.564c-0.521,0-0.945-0.422-0.945-0.944v-5.371
		c0-0.522,0.425-0.944,0.945-0.944h7.564c0.521,0,0.944,0.422,0.944,0.944V24.975z"/>
	<circle opacity="0.3" enable-background="new    " cx="43.473" cy="22.289" r="2.32"/>
	<path fill="#3469D3" d="M68.739,49.539c0,0.31-0.25,0.56-0.56,0.56h-1.063c-0.309,0-0.56-0.25-0.56-0.56v-1.978
		c0-0.31,0.251-0.56,0.56-0.56h1.063c0.31,0,0.56,0.25,0.56,0.56V49.539z"/>
	<path fill="#57A6FF" d="M71.684,49.539c0,0.31-0.25,0.56-0.559,0.56h-1.063c-0.309,0-0.559-0.25-0.559-0.56v-1.978
		c0-0.31,0.25-0.56,0.559-0.56h1.063c0.309,0,0.559,0.25,0.559,0.56V49.539z"/>
	<path fill="#FFFFFF" d="M68.45,60.774c-1.043,0-1.893-0.849-1.893-1.892v-5.219c0-1.043,0.85-1.893,1.893-1.893h1.063
		c1.043,0,1.893,0.85,1.893,1.893v5.219c0,1.043-0.85,1.892-1.893,1.892H68.45z"/>
	<path fill="#57A6FF" d="M70.071,58.882c0,0.309-0.25,0.559-0.559,0.559H68.45c-0.309,0-0.559-0.25-0.559-0.559v-5.219
		c0-0.31,0.25-0.56,0.559-0.56h1.063c0.309,0,0.559,0.25,0.559,0.56V58.882z"/>
	<circle fill="#FFFFFF" cx="63.703" cy="28.557" r="1.03"/>
	<circle fill="#FFFFFF" cx="60.28" cy="32.707" r="2.756"/>
	<rect x="45.643" y="62.69" opacity="0.1" enable-background="new    " width="8.035" height="1.697"/>
	<rect x="53.678" y="44.351" opacity="0.1" enable-background="new    " width="10.551" height="1.697"/>
	<circle fill="#A73935" cx="43.473" cy="22.289" r="1.875"/>
	<path fill="#EF4F4D" d="M43.473,20.414c-1.035,0-1.875,0.84-1.875,1.875h3.75C45.348,21.253,44.509,20.414,43.473,20.414z"/>
	<g>
		<circle opacity="0.3" enable-background="new    " cx="48.207" cy="20.962" r="0.993"/>
		<circle opacity="0.3" enable-background="new    " cx="48.207" cy="23.616" r="0.993"/>
	</g>
	<rect x="80.18" y="25.919" fill="#A5A5A5" width="1.564" height="13.857"/>
	<path fill="#FFFFFF" d="M79.259,32.798v1.544h-5.271v-1.544v-5.271C76.898,27.527,79.259,29.887,79.259,32.798z"/>
	<path fill="#FFFFFF" d="M82.814,42.279v2.073h-5.271v-2.073v-7.076C80.456,35.203,82.814,38.371,82.814,42.279z"/>
	<rect x="73.987" y="34.342" fill="#A5A5A5" width="5.271" height="10.009"/>
	<polygon fill="#C5C5C5" points="64.229,66.206 64.229,75.036 65.9,84.688 75.704,84.688 73.753,66.206 	"/>
	<path fill="#C5C5C5" d="M82.814,62.69V44.423c0-2.219-1.799-4.018-4.018-4.018V62.69H82.814z"/>
	<path fill="#FFFFFF" d="M78.798,62.69V40.406c-2.219,0-4.018,1.799-4.018,4.018V62.69H78.798z"/>
	<rect x="74.78" y="62.69" fill="#C5C5C5" width="4.018" height="10.486"/>
	<rect x="78.798" y="62.69" fill="#A5A5A5" width="4.018" height="10.486"/>
	<path fill="#C5C5C5" d="M84.232,75.036c0-3.002-2.434-5.436-5.436-5.436v5.436H84.232z"/>
	<path fill="#FFFFFF" d="M78.798,69.601c-3.002,0-5.436,2.434-5.436,5.436h5.436V69.601z"/>
	<path fill="#A5A5A5" d="M73.362,75.036c0,3.002,2.434,5.438,5.436,5.438v-5.438H73.362z"/>
	<path fill="#D6D6D6" d="M78.798,75.036v5.438c3.002,0,5.436-2.436,5.436-5.438H78.798z"/>
	<polygon fill="#3469D3" points="73.753,66.206 64.229,66.206 64.229,62.69 74.78,62.69 	"/>
	<polygon opacity="0.1" enable-background="new    " points="75.364,81.478 75.704,84.688 65.9,84.688 65.344,81.478 	"/>
	<rect x="65.9" y="84.688" fill="#A5A5A5" width="9.804" height="14.234"/>
	<path fill="#FFFFFF" d="M65.079,102.22c0-4.797,3.89-8.688,8.688-8.688v8.688H65.079z"/>
	<path fill="#C5C5C5" d="M73.766,93.534c4.797,0,8.687,3.889,8.687,8.688h-8.687V93.534z"/>
	<path fill="#FFFFFF" d="M78.561,24.975c0,0.522,0.424,0.944,0.945,0.944h7.563c0.523,0,0.946-0.422,0.946-0.944v-5.371
		c0-0.522-0.423-0.944-0.946-0.944h-7.563c-0.521,0-0.945,0.422-0.945,0.944V24.975z"/>
	<rect x="74.78" y="62.69" opacity="0.1" enable-background="new    " width="8.034" height="1.697"/>
	<path fill="#C5C5C5" d="M87.068,18.66h-3.78v7.26h3.78c0.523,0,0.946-0.422,0.946-0.944v-5.371
		C88.015,19.082,87.592,18.66,87.068,18.66z"/>
	<rect x="64.229" y="44.351" opacity="0.1" enable-background="new    " width="10.552" height="1.697"/>
	<g>
		<g>
			<circle opacity="0.3" enable-background="new    " cx="81.277" cy="23.834" r="1.186"/>
			<circle fill="#A73935" cx="81.276" cy="23.834" r="0.958"/>
			<path fill="#EF4F4D" d="M81.277,22.876c0.528,0,0.957,0.429,0.957,0.957h-1.916C80.318,23.305,80.748,22.876,81.277,22.876z"/>
		</g>
		<g>
			<circle opacity="0.3" enable-background="new    " cx="81.277" cy="20.744" r="1.186"/>
			<circle fill="#A73935" cx="81.276" cy="20.745" r="0.958"/>
			<path fill="#EF4F4D" d="M81.277,19.787c0.528,0,0.957,0.428,0.957,0.957h-1.916C80.318,20.214,80.748,19.787,81.277,19.787z"/>
		</g>
	</g>
	<circle opacity="0.3" enable-background="new    " cx="85.3" cy="23.834" r="1.186"/>
	<circle fill="#3469D3" cx="85.299" cy="23.834" r="0.958"/>
	<path fill="#57A6FF" d="M85.3,22.876c0.529,0,0.958,0.429,0.958,0.957h-1.917C84.341,23.305,84.77,22.876,85.3,22.876z"/>
	<circle opacity="0.3" enable-background="new    " cx="85.3" cy="20.744" r="1.186"/>
	<circle fill="#3469D3" cx="85.299" cy="20.745" r="0.958"/>
	<path fill="#57A6FF" d="M85.3,19.787c0.529,0,0.958,0.428,0.958,0.957h-1.917C84.341,20.214,84.77,19.787,85.3,19.787z"/>
	<rect x="79.771" y="47.314" opacity="0.1" enable-background="new    " width="3.043" height="6.408"/>
</g>
</svg>
