<?xml version="1.0" encoding="utf-8"?>
<!-- Generator: Adobe Illustrator 16.0.0, SVG Export Plug-In . SVG Version: 6.00 Build 0)  -->
<!DOCTYPE svg PUBLIC "-//W3C//DTD SVG 1.1//EN" "http://www.w3.org/Graphics/SVG/1.1/DTD/svg11.dtd">
<svg version="1.1" id="Space" xmlns="http://www.w3.org/2000/svg" xmlns:xlink="http://www.w3.org/1999/xlink" x="0px" y="0px"
	 width="128px" height="120.881px" viewBox="0 0 128 120.881" enable-background="new 0 0 128 120.881" xml:space="preserve">
<g>
	<circle opacity="0.1" fill="#FFFFFF" enable-background="new    " cx="63.345" cy="60.573" r="46.635"/>
	<circle opacity="0.1" fill="#FFFFFF" enable-background="new    " cx="63.345" cy="60.573" r="39.23"/>
	<g>
		<g>
			<path fill="#DE7FFF" d="M94.362,57.204c1.487,10.412-2.78,20.768-10.895,27.441c-7.994,6.574-19.448,9.307-29.393,5.99
				c-11.379-3.795-19.355-14.578-19.61-26.582c-0.166-7.781,3.378-15.293,9.653-19.973c5.822-4.342,13.779-5.961,20.703-3.539
				c8.083,2.826,14.022,11.719,12.229,20.348c-0.74,3.559-2.602,6.695-5.582,8.844c-1.879,1.354-4.073,2.178-6.383,2.381
				c-0.938,0.082-1.852,0.018-2.782-0.09c-0.469-0.053-0.529-0.588-0.007-0.619c9.687-0.568,14.404-10.625,10.079-18.912
				c-3.786-7.254-12.349-9.609-19.696-6.904c-10.754,3.961-14.639,16.064-10.646,26.25c4.018,10.248,14.184,15.621,24.848,14.84
				c11.374-1.121,20.951-8.795,25.04-19.373c0.771-2.301,1.38-4.596,1.65-7.016C93.625,59.837,93.672,56.099,94.362,57.204z"/>
			<path fill="#57A6FF" d="M32.328,63.942c-1.488-10.412,2.78-20.768,10.895-27.441c7.993-6.574,19.448-9.307,29.393-5.99
				c11.38,3.795,19.354,14.578,19.611,26.584c0.164,7.777-3.38,15.291-9.653,19.971c-5.823,4.342-13.78,5.961-20.704,3.539
				c-8.083-2.826-14.022-11.717-12.229-20.348c0.74-3.559,2.602-6.695,5.582-8.844c1.88-1.354,4.073-2.178,6.384-2.381
				c0.938-0.082,1.852-0.018,2.78,0.088c0.47,0.055,0.531,0.59,0.009,0.621c-9.688,0.568-14.404,10.625-10.08,18.912
				c3.786,7.252,12.35,9.609,19.696,6.904c10.754-3.961,14.64-16.066,10.646-26.248c-4.019-10.25-14.186-15.623-24.849-14.842
				c-11.375,1.123-20.951,8.797-25.039,19.375c-0.771,2.299-1.381,4.596-1.651,7.014C33.066,61.312,33.018,65.05,32.328,63.942z"/>
		</g>
		<polygon fill="#FFFFFF" points="41.66,64.55 43.75,65.649 43.351,63.321 45.042,61.673 42.706,61.333 41.66,59.216 40.615,61.333
			38.277,61.673 39.968,63.321 39.569,65.649 		"/>
		<polygon fill="#FFFFFF" points="82.035,46.987 84.125,48.087 83.726,45.761 85.417,44.11 83.08,43.771 82.035,41.651
			80.989,43.771 78.652,44.11 80.343,45.761 79.943,48.087 		"/>
		<polygon fill="#FFFFFF" points="68.248,64.704 70.52,65.946 68.248,67.19 67.004,69.464 65.761,67.19 63.489,65.946
			65.761,64.704 67.004,62.433 		"/>
		<polygon fill="#FFFFFF" points="62.754,33.962 63.89,34.583 62.754,35.204 62.132,36.341 61.511,35.204 60.375,34.583
			61.511,33.962 62.132,32.825 		"/>
		<polygon fill="#FFFFFF" points="75.756,80.542 76.894,81.163 75.756,81.784 75.135,82.923 74.513,81.784 73.377,81.163
			74.513,80.542 75.135,79.405 		"/>
		<polygon fill="#FFFFFF" points="82.656,59.952 83.792,60.573 82.656,61.194 82.035,62.331 81.413,61.194 80.277,60.573
			81.413,59.952 82.035,58.815 		"/>
		<polygon fill="#FFFFFF" points="53.751,79.403 54.888,80.024 53.751,80.647 53.13,81.782 52.509,80.647 51.373,80.024
			52.509,79.403 53.13,78.269 		"/>
		<polygon fill="#FFFFFF" points="47.422,74.306 48.558,74.927 47.422,75.548 46.8,76.685 46.179,75.548 45.042,74.927
			46.179,74.306 46.8,73.169 		"/>
		<polygon fill="#FFFFFF" points="50.237,46.671 51.373,47.292 50.237,47.913 49.616,49.05 48.994,47.913 47.857,47.292
			48.994,46.671 49.616,45.534 		"/>
		<polygon fill="#FFFFFF" points="74,57.604 75.135,58.226 74,58.847 73.377,59.983 72.755,58.847 71.62,58.226 72.755,57.604
			73.377,56.468 		"/>
	</g>
</g>
</svg>
