<?xml version="1.0" encoding="utf-8"?>
<!-- Generator: Adobe Illustrator 16.0.0, SVG Export Plug-In . SVG Version: 6.00 Build 0)  -->
<!DOCTYPE svg PUBLIC "-//W3C//DTD SVG 1.1//EN" "http://www.w3.org/Graphics/SVG/1.1/DTD/svg11.dtd">
<svg version="1.1" id="Space" xmlns="http://www.w3.org/2000/svg" xmlns:xlink="http://www.w3.org/1999/xlink" x="0px" y="0px"
	 width="128px" height="120.881px" viewBox="0 0 128 120.881" enable-background="new 0 0 128 120.881" xml:space="preserve">
<g>
	<path fill="#299CB9" d="M52.723,54.289c0-9.238,7.139-16.793,16.198-17.49c-1.362-0.242-2.757-0.391-4.188-0.391
		c-13.153,0-23.816,10.662-23.816,23.816c0,6.549,2.646,12.48,6.925,16.785l10.173-10.172
		C54.752,63.648,52.723,59.209,52.723,54.289z"/>
	<path fill="#43CEE2" d="M52.723,54.289c0,4.92,2.029,9.359,5.289,12.549l23.481-23.48c-0.158-0.156-0.308-0.32-0.47-0.473
		c-0.01-0.01-0.021-0.021-0.032-0.029c-1.188-1.115-2.496-2.105-3.896-2.959c-0.076-0.047-0.152-0.094-0.229-0.139
		c-0.453-0.27-0.914-0.527-1.385-0.766c-0.012-0.008-0.024-0.012-0.037-0.018c-1.465-0.74-3.021-1.33-4.641-1.756
		c-0.107-0.029-0.214-0.057-0.32-0.084c-0.516-0.127-1.034-0.242-1.563-0.336l0,0C59.861,37.496,52.723,45.051,52.723,54.289z"/>
	<path fill="#1A8199" d="M64.732,84.043c13.154,0,23.817-10.664,23.817-23.816c0-1.975-0.267-3.883-0.72-5.717
		c-0.119,9.596-7.926,17.34-17.548,17.34c-4.778,0-9.105-1.916-12.271-5.012L47.839,77.01
		C52.154,81.352,58.129,84.043,64.732,84.043z"/>
	<path fill="#299CB9" d="M58.012,66.838c3.165,3.096,7.492,5.012,12.271,5.012c9.623,0,17.429-7.744,17.548-17.34v-0.002
		c-0.972-3.936-2.918-7.48-5.567-10.367c-0.033-0.033-0.063-0.068-0.093-0.102c-0.219-0.234-0.45-0.455-0.677-0.684L58.012,66.838z"
		/>
	<path opacity="0.3" fill="#FFFFFF" enable-background="new    " d="M81.479,15.857c-2.09-0.76-7.224,7.699-13.092,20.855
		c0.178,0.027,0.357,0.053,0.534,0.086c0.364,0.063,0.722,0.148,1.078,0.23c2.624-4.846,4.792-7.623,5.92-7.213
		c2.353,0.854-0.694,15.188-6.806,32.016c-6.112,16.824-12.975,29.773-15.326,28.92c-1.13-0.41-1.01-3.939,0.093-9.352
		c-0.487-0.25-0.971-0.51-1.438-0.793c-3.947,13.867-5.44,23.656-3.351,24.416c3.093,1.123,12.853-17.926,21.794-42.549
		C79.831,37.854,84.573,16.98,81.479,15.857z"/>
</g>
</svg>
