<?xml version="1.0" encoding="utf-8"?>
<!-- Generator: Adobe Illustrator 16.0.0, SVG Export Plug-In . SVG Version: 6.00 Build 0)  -->
<!DOCTYPE svg PUBLIC "-//W3C//DTD SVG 1.1//EN" "http://www.w3.org/Graphics/SVG/1.1/DTD/svg11.dtd">
<svg version="1.1" id="Layer_1" xmlns="http://www.w3.org/2000/svg" xmlns:xlink="http://www.w3.org/1999/xlink" x="0px" y="0px"
	 width="1005px" height="1005px" viewBox="0 0 1005 1005" enable-background="new 0 0 1005 1005" xml:space="preserve">
<g id="star5_1_">
	<path fill="#FFFFFF" d="M705.272,156.5c0.667,0,1.333,0.667,0.667,2l-2,2l-0.667,0.667l0.667,2.667
		c0,0.667-0.667,1.333-1.334,0.667l-2.666-1.333h-0.667l-2.667,1.333c-0.666,0.667-1.333-0.667-1.333-0.667l0.667-2.667
		l-0.667-0.667l-2-2c-0.667-0.667-0.667-1.333,0.667-2l2.666-0.667l0.667-0.667l1.333-2.667c0.667-0.667,1.334-0.667,2,0
		l1.334,2.667"/>
</g>
<g id="star7_1_">
	<circle fill="#FFFFFF" cx="461.272" cy="121.833" r="3.333"/>
</g>
<g id="star6_1_">
	<circle fill="#FFFFFF" cx="271.272" cy="193.833" r="5.333"/>
</g>
<g>
	<path fill="#FFFFFF" d="M744.153,132c0.667,0,1.334,0.667,0.667,2l-2,2l-0.667,0.667l0.667,2.667c0,0.667-0.667,1.333-1.333,0.667
		l-2.667-1.333h-0.667L735.487,140c-0.667,0.667-1.334-0.667-1.334-0.667l0.667-2.667L734.153,136l-2-2
		c-0.666-0.667-0.666-1.333,0.667-2l2.667-0.667l0.666-0.667l1.334-2.667c0.666-0.667,1.333-0.667,2,0l1.333,2.667"/>
	<circle fill="#FFFFFF" cx="500.153" cy="97.333" r="3.333"/>
	<circle fill="#FFFFFF" cx="310.153" cy="169.333" r="5.333"/>
	<g>
		<g>
			<defs>
				<circle id="SVGID_1_" cx="503.487" cy="502" r="500"/>
			</defs>
			<clipPath id="SVGID_2_">
				<use xlink:href="#SVGID_1_"  overflow="visible"/>
			</clipPath>
			<circle clip-path="url(#SVGID_2_)" fill="#1D2A47" cx="503.487" cy="502" r="500"/>
		</g>
	</g>
	<g>
		<g>
			<defs>
				<circle id="SVGID_3_" cx="503.487" cy="502" r="500"/>
			</defs>
			<clipPath id="SVGID_4_">
				<use xlink:href="#SVGID_3_"  overflow="visible"/>
			</clipPath>
			<path clip-path="url(#SVGID_4_)" fill="#273856" d="M1037.487,654H916.82c-10,0-18.667-10.666-18.667-20.666
				s8.667-20.668,18.667-20.668h53.333c12,0,17.334-7.333,17.334-19.332v-2c0-12-5.334-20.668-17.334-20.668h-168
				c-12,0-24,8.668-24,20.668v2c0,11.999,12,19.332,24,19.332h20c12,0,21.334,9.334,21.334,20.668
				c0,11.332-9.334,20.666-21.334,20.666H389.487c-12,0-22,12.666-22,24v4c0,12,10.666,22,22,22h166.666
				c12,0,21.334,9.333,21.334,20.667c0,11.333-9.334,20.666-21.334,20.666h-56c-12,0-21.333,9.334-21.333,20.667
				s9.333,20.667,21.333,20.667H830.82c12,0,21.333-9.334,21.333-20.667s-9.333-20.667-21.333-20.667h-94
				c-10,0-18.667-10.666-18.667-20.666S726.82,704,736.82,704h300c12,0,20.667-9.333,20.667-22v-4
				C1058.82,666,1049.487,654,1037.487,654z"/>
		</g>
	</g>
	<g>
		<g>
			<defs>
				<circle id="SVGID_5_" cx="503.487" cy="502" r="500"/>
			</defs>
			<clipPath id="SVGID_6_">
				<use xlink:href="#SVGID_5_"  overflow="visible"/>
			</clipPath>
			<path clip-path="url(#SVGID_6_)" fill="#273856" d="M616.153,216.667H495.487c-10,0-18.667-10.667-18.667-20.667
				s8.667-20.667,18.667-20.667h53.333c12,0,17.333-7.333,17.333-19.333v-2c0-12-5.333-20.667-17.333-20.667h-168
				c-12,0-24,8.667-24,20.667v1.333c0,12,12,19.333,24,19.333h20c12,0,21.333,9.333,21.333,20.667c0,12-9.333,20.667-21.333,20.667
				H-31.847c-12,0-22,12.667-22,24v4c0,12,10.667,22,22,22H134.82c12,0,21.333,9.333,21.333,20.667c0,12-9.333,20.667-21.333,20.667
				h-56c-12,0-21.333,9.333-21.333,20.667c0,12,9.333,20.667,21.333,20.667h331.333c12,0,21.333-9.333,21.333-20.667
				c0-12-9.333-20.667-21.333-20.667h-94c-10,0-18.666-10.667-18.666-20.667S306.153,266,316.153,266h300
				c12,0,20.667-9.333,20.667-22v-4C637.487,228.667,628.153,216.667,616.153,216.667z"/>
		</g>
	</g>
	<g>
		<g>
			<defs>
				<circle id="SVGID_7_" cx="503.487" cy="502" r="500"/>
			</defs>
			<clipPath id="SVGID_8_">
				<use xlink:href="#SVGID_7_"  overflow="visible"/>
			</clipPath>
			<circle clip-path="url(#SVGID_8_)" fill="#FFFFFF" cx="806.82" cy="508" r="3.334"/>
		</g>
	</g>
	<g>
		<g>
			<defs>
				<circle id="SVGID_9_" cx="503.487" cy="502" r="500"/>
			</defs>
			<clipPath id="SVGID_10_">
				<use xlink:href="#SVGID_9_"  overflow="visible"/>
			</clipPath>
			<circle clip-path="url(#SVGID_10_)" fill="#FFFFFF" cx="340.82" cy="433.333" r="3.333"/>
		</g>
	</g>
	<g>
		<g>
			<defs>
				<circle id="SVGID_11_" cx="503.487" cy="502" r="500"/>
			</defs>
			<clipPath id="SVGID_12_">
				<use xlink:href="#SVGID_11_"  overflow="visible"/>
			</clipPath>
			<circle clip-path="url(#SVGID_12_)" fill="#FFFFFF" cx="168.153" cy="557.333" r="5.333"/>
		</g>
	</g>
	<g>
		<g>
			<defs>
				<circle id="SVGID_13_" cx="503.487" cy="502" r="500"/>
			</defs>
			<clipPath id="SVGID_14_">
				<use xlink:href="#SVGID_13_"  overflow="visible"/>
			</clipPath>
			<circle clip-path="url(#SVGID_14_)" fill="#FFFFFF" cx="854.82" cy="308" r="5.333"/>
		</g>
	</g>
	<g>
		<g>
			<defs>
				<circle id="SVGID_15_" cx="503.487" cy="502" r="500"/>
			</defs>
			<clipPath id="SVGID_16_">
				<use xlink:href="#SVGID_15_"  overflow="visible"/>
			</clipPath>
			<circle clip-path="url(#SVGID_16_)" fill="#FFFFFF" cx="562.82" cy="919.333" r="5.333"/>
		</g>
	</g>
	<g>
		<g>
			<defs>
				<circle id="SVGID_17_" cx="503.487" cy="502" r="500"/>
			</defs>
			<clipPath id="SVGID_18_">
				<use xlink:href="#SVGID_17_"  overflow="visible"/>
			</clipPath>
			<circle clip-path="url(#SVGID_18_)" fill="#FFFFFF" cx="358.153" cy="856" r="3.333"/>
		</g>
	</g>
	<g>
		<g>
			<defs>
				<circle id="SVGID_19_" cx="503.487" cy="502" r="500"/>
			</defs>
			<clipPath id="SVGID_20_">
				<use xlink:href="#SVGID_19_"  overflow="visible"/>
			</clipPath>
			<circle clip-path="url(#SVGID_20_)" fill="#FFFFFF" cx="104.82" cy="676.667" r="5.333"/>
		</g>
	</g>
	<g>
		<g>
			<defs>
				<circle id="SVGID_21_" cx="503.487" cy="502" r="500"/>
			</defs>
			<clipPath id="SVGID_22_">
				<use xlink:href="#SVGID_21_"  overflow="visible"/>
			</clipPath>
			<circle clip-path="url(#SVGID_22_)" fill="#FFFFFF" cx="637.487" cy="100.667" r="5.333"/>
		</g>
	</g>
	<g>
		<g>
			<defs>
				<circle id="SVGID_23_" cx="503.487" cy="502" r="500"/>
			</defs>
			<clipPath id="SVGID_24_">
				<use xlink:href="#SVGID_23_"  overflow="visible"/>
			</clipPath>
			<circle clip-path="url(#SVGID_24_)" fill="#FFFFFF" cx="535.487" cy="518" r="3.334"/>
		</g>
	</g>
	<g>
		<g>
			<defs>
				<circle id="SVGID_25_" cx="503.487" cy="502" r="500"/>
			</defs>
			<clipPath id="SVGID_26_">
				<use xlink:href="#SVGID_25_"  overflow="visible"/>
			</clipPath>
			<g clip-path="url(#SVGID_26_)">
				<path fill="#1D2A47" d="M596.987,443.167c4.5-5.167,10-8.833,16-11c-9.334,1.167-18.167,5.5-24.834,13.167
					c-14.666,16-14.666,41.333,0.667,56.667c4.167,3,13.5,4.666,17,1.666c-1.333-0.332-6.833-2.832-8.167-3.832
					C582.32,484.5,582.32,459.167,596.987,443.167z"/>
			</g>
		</g>
	</g>
	<g>
		<g>
			<defs>
				<circle id="SVGID_27_" cx="503.487" cy="502" r="500"/>
			</defs>
			<clipPath id="SVGID_28_">
				<use xlink:href="#SVGID_27_"  overflow="visible"/>
			</clipPath>
			<g clip-path="url(#SVGID_28_)">
				<path fill="#CDCCCC" d="M788.82,666.666"/>
			</g>
		</g>
	</g>
</g>
<g id="XMLID_8_">
	<g>
		<defs>
			<circle id="SVGID_29_" cx="501.552" cy="501.544" r="498.544"/>
		</defs>
		<clipPath id="SVGID_30_">
			<use xlink:href="#SVGID_29_"  overflow="visible"/>
		</clipPath>
		<g id="XMLID_9_" clip-path="url(#SVGID_30_)">
			<g id="XMLID_220_">
				<path id="XMLID_222_" fill="#263342" d="M663.601,950.322H347.946c-15.63,0-28.385-12.754-28.385-28.385V772.465
					c0-15.631,12.755-28.385,28.385-28.385h315.654c15.63,0,28.387,12.754,28.387,28.385v149.473
					C691.987,937.568,679.23,950.322,663.601,950.322z"/>
			</g>
			<g id="XMLID_216_">
				<g id="XMLID_217_">
					<path id="XMLID_218_" fill="#F5BE4B" d="M538.56,892.475c1.976,0,1.976-3.055,0-3.055
						C536.764,889.42,536.764,892.475,538.56,892.475L538.56,892.475z"/>
				</g>
			</g>
			<g id="XMLID_214_">
				<path id="XMLID_215_" fill="#2E3D4D" d="M662.344,981.402h-313.32c-16.349,0-29.462-13.293-29.462-29.461V804.803
					c0-16.348,13.293-29.463,29.462-29.463h313.32c16.348,0,29.462,13.293,29.462,29.463v147.139
					C691.987,968.109,678.691,981.402,662.344,981.402z"/>
			</g>
			<g id="XMLID_212_">
				<rect id="XMLID_213_" x="372.379" y="813.246" fill="#3D4F5B" width="271.459" height="129.174"/>
			</g>
			<g id="XMLID_210_">
				<path id="XMLID_211_" fill="#FFFFFF" d="M585.271,867.504H434.001c-4.492,0-8.085-3.594-8.085-8.086v-8.084
					c0-4.492,3.593-8.086,8.085-8.086h151.271c4.491,0,8.084,3.594,8.084,8.086v8.084
					C593.534,863.729,589.763,867.504,585.271,867.504z"/>
			</g>
			<g id="XMLID_208_">
				<path id="XMLID_209_" fill="#FFFFFF" d="M557.603,910.439h-96.114c-4.49,0-8.084-3.594-8.084-8.084v-8.264
					c0-4.492,3.594-8.086,8.084-8.086h96.114c4.491,0,8.085,3.594,8.085,8.086v8.084
					C565.868,906.846,562.274,910.439,557.603,910.439z"/>
			</g>
			<g id="XMLID_202_">
				<circle id="XMLID_207_" fill="#29394C" cx="634.676" cy="825.464" r="4.671"/>
			</g>
			<g id="XMLID_203_">
				<circle id="XMLID_200_" fill="#29394C" cx="634.676" cy="932.358" r="4.671"/>
			</g>
			<g id="XMLID_201_">
				<path id="XMLID_198_" fill="#2E3D4D" d="M698.813,1009.609H305.728c-6.47,0-11.858-5.389-11.858-11.857v-11.857
					c0-6.467,5.389-11.857,11.858-11.857h393.265c6.469,0,11.858,5.391,11.858,11.857v11.857
					C710.669,1004.221,705.461,1009.609,698.813,1009.609z"/>
			</g>
			<g id="XMLID_199_">
				<circle id="XMLID_196_" fill="#29394C" cx="384.416" cy="825.464" r="4.671"/>
			</g>
			<g id="XMLID_197_">
				<circle id="XMLID_194_" fill="#29394C" cx="384.416" cy="932.358" r="4.671"/>
			</g>
			<g id="XMLID_195_">
				<path id="XMLID_192_" fill="#FEC554" d="M507.84,709.406h-19.224c-10.6,0-19.224-8.623-19.224-19.225v-72.76h57.85v72.76
					C527.063,700.783,518.438,709.406,507.84,709.406z"/>
			</g>
			<g id="XMLID_190_">
				<g id="XMLID_193_">
					<path id="XMLID_189_" fill="#E8B446" d="M494.544,672.576c0,0,3.233,0.719,0.36,0.898
						c42.937,4.311,76.533,40.602,76.533,84.617v8.266h25.151v-8.266C596.589,711.203,541.434,672.576,494.544,672.576z"/>
				</g>
				<g id="XMLID_191_">
					<path id="XMLID_186_" fill="#F5BE4B" d="M496.88,673.475c-42.938,4.311-74.558,40.602-74.558,84.617v8.266h149.115v-8.266
						C571.438,714.076,539.818,677.785,496.88,673.475z"/>
				</g>
			</g>
			<g id="XMLID_53_" opacity="0.1">
				<g id="XMLID_187_">
					<g id="XMLID_188_">
						<path id="XMLID_183_" fill="#29394C" d="M571.796,510.705c-8.084,0-14.731-6.645-14.731-14.73
							c0-8.085,6.647-14.732,14.731-14.732c52.64,0,93.421-17.965,121.628-47.43c33.774-35.033,41.32-82.642,43.116-109.589H563.892
							c-8.085,0-14.733-2.695-14.733-10.779c0-8.085,6.648-10.78,14.733-10.78h187.56c7.907,0,14.374,5.39,14.553,13.295
							c0.18,3.414,3.235,84.258-51.381,141.389C680.847,493.1,632.699,510.705,571.796,510.705z"/>
					</g>
				</g>
				<g id="XMLID_184_">
					<g id="XMLID_185_">
						<path id="XMLID_180_" fill="#29394C" d="M406.154,510.705c-60.902,0-109.05-17.963-143.006-53.537
							c-54.616-57.13-51.562-137.615-51.38-141.029c0.357-7.905,6.826-13.294,14.551-13.294h187.562
							c8.085,0,14.73,2.694,14.73,10.779s-6.646,10.779-14.73,10.779h-172.47c1.616,26.949,9.341,74.377,43.116,109.59
							c28.205,29.285,69.168,45.813,121.627,45.813c8.084,0,14.731,7.365,14.731,15.45
							C420.886,503.34,414.238,510.705,406.154,510.705z"/>
					</g>
				</g>
				<g id="XMLID_181_">
					<g id="XMLID_182_">
						<path id="XMLID_176_" fill="#29394C" d="M610.244,960.742h-234.99c-37.908,0-68.809-30.721-68.809-68.807v-68.809
							c0-37.906,30.721-68.807,68.809-68.807h234.99c37.906,0,68.807,30.721,68.807,68.807v68.809
							C679.051,930.021,648.328,960.742,610.244,960.742z"/>
					</g>
				</g>
				<g id="XMLID_177_">
					<g id="XMLID_178_">
						<g id="XMLID_179_">
							<path id="XMLID_173_" fill="#29394C" d="M525.267,902.895c0,0,2.336-3.053,0-3.053
								C524.188,900.02,524.188,902.895,525.267,902.895C525.267,902.895,524.188,902.895,525.267,902.895z"/>
						</g>
					</g>
				</g>
				<g id="XMLID_174_">
					<g id="XMLID_175_">
						<path id="XMLID_170_" fill="#29394C" d="M610.244,992.004h-234.99c-37.908,0-68.809-30.721-68.809-68.809v-68.807
							c0-37.908,30.721-68.811,68.809-68.811h234.99c37.906,0,68.807,30.723,68.807,68.811v68.807
							C679.051,961.102,648.328,992.004,610.244,992.004z"/>
					</g>
				</g>
				<g id="XMLID_171_">
					<g id="XMLID_172_">
						<rect id="XMLID_167_" x="359.443" y="823.848" fill="#29394C" width="271.46" height="129.17"/>
					</g>
				</g>
				<g id="XMLID_168_">
					<g id="XMLID_169_">
						<path id="XMLID_164_" fill="#29394C" d="M572.336,877.922h-151.27c-4.492,0-8.084-3.592-8.084-8.084v-8.084
							c0-4.492,3.592-8.084,8.084-8.084h151.27c4.49,0,8.084,3.592,8.084,8.084v8.084C580.6,874.33,576.826,877.922,572.336,877.922
							z"/>
					</g>
				</g>
				<g id="XMLID_165_">
					<g id="XMLID_166_">
						<path id="XMLID_161_" fill="#29394C" d="M544.849,921.041h-96.116c-4.492,0-8.085-3.594-8.085-8.086v-8.084
							c0-4.492,3.593-8.086,8.085-8.086h96.116c4.491,0,8.084,3.594,8.084,8.086v8.084
							C552.933,917.268,549.34,921.041,544.849,921.041z"/>
					</g>
				</g>
				<g id="XMLID_162_">
					<g id="XMLID_163_">
						<circle id="XMLID_158_" fill="#29394C" cx="621.74" cy="836.063" r="4.672"/>
					</g>
				</g>
				<g id="XMLID_159_">
					<g id="XMLID_160_">
						<circle id="XMLID_155_" fill="#29394C" cx="621.74" cy="942.957" r="4.672"/>
					</g>
				</g>
				<g id="XMLID_143_">
					<g id="XMLID_156_">
						<g id="XMLID_157_">
							<path id="XMLID_152_" fill="#29394C" d="M619.943,225.593v223.671c0,61.083-37.727,114.621-85.693,145.162
								c7.365,2.875,9.34,9.162,11.137,17.068c66.653-23.715,110.487-87.314,110.487-162.23V225.593H619.943z"/>
						</g>
					</g>
					<g id="XMLID_153_">
						<g id="XMLID_154_">
							<path id="XMLID_149_" fill="#29394C" d="M528.32,594.426c-20.121,12.756-43.118,21.559-67.73,25.152
								c8.086,1.258,16.349,1.797,24.793,1.797c20.301,0,39.703-3.594,57.848-9.881C541.256,603.588,535.687,597.301,528.32,594.426
								z"/>
						</g>
					</g>
					<g id="XMLID_150_">
						<g id="XMLID_151_">
							<path id="XMLID_146_" fill="#29394C" d="M485.383,621.375L485.383,621.375L485.383,621.375z"/>
						</g>
					</g>
					<g id="XMLID_147_">
						<g id="XMLID_148_">
							<path id="XMLID_142_" fill="#29394C" d="M455.559,592.092h64.318c3.053,0,11.857,0.898,14.373,1.975
								c47.967-30.541,85.693-83.719,85.693-144.802V225.593H323.513v223.671c0,76.355,44.734,140.671,113.542,163.128
								C438.852,601.074,443.703,592.092,455.559,592.092z"/>
						</g>
					</g>
					<g id="XMLID_144_">
						<g id="XMLID_145_">
							<path id="XMLID_139_" fill="#29394C" d="M528.32,594.066c-2.696-1.076-5.569-1.975-8.443-1.975h-64.318
								c-11.855,0-21.737,9.162-23.713,20.479c9.162,3.055,18.863,5.211,28.744,6.648
								C485.202,615.625,508.199,606.822,528.32,594.066z"/>
						</g>
					</g>
				</g>
				<g id="XMLID_136_">
					<g id="XMLID_140_">
						<g id="XMLID_141_">
							<path id="XMLID_135_" fill="#29394C" d="M619.943,225.593v215.766c0,86.594-70.064,160.971-153.246,173.008
								c8.086,1.258,10.42,4.492,18.865,4.492l0,0c95.037,0,170.312-82.641,170.312-177.679V225.593H619.943z"/>
						</g>
					</g>
					<g id="XMLID_137_">
						<g id="XMLID_138_">
							<path id="XMLID_132_" fill="#29394C" d="M619.943,441.359V225.593H323.513v215.766c0,86.594,64.855,158.275,148.216,170.313
								C554.908,599.635,619.943,527.953,619.943,441.359z"/>
						</g>
					</g>
				</g>
				<g id="XMLID_133_">
					<g id="XMLID_134_">
						<path id="XMLID_130_" fill="#29394C" d="M489.515,352.61l10.601,24.074c0.718,1.797,2.514,2.695,4.311,2.515l26.05-2.875
							c3.774-0.359,6.108,3.773,3.952,6.828l-15.449,21.199c-1.079,1.438-1.079,3.594,0,5.031l15.449,21.199
							c2.156,3.054-0.178,7.186-3.952,6.827l-26.05-2.875c-1.797-0.179-3.593,0.899-4.311,2.516l-10.601,24.074
							c-1.438,3.413-6.288,3.413-7.906,0l-10.598-24.074c-0.72-1.796-2.516-2.695-4.313-2.516l-26.05,2.875
							c-3.772,0.359-6.106-3.773-3.952-6.827l15.451-21.199c1.077-1.438,1.077-3.593,0-5.031l-15.451-21.199
							c-2.154-3.055,0.18-7.187,3.952-6.828l26.05,2.875c1.798,0.18,3.594-0.898,4.313-2.515l10.598-24.074
							C483.047,349.196,487.896,349.196,489.515,352.61z"/>
					</g>
				</g>
				<g id="XMLID_126_">
					<g id="XMLID_131_">
						<ellipse id="XMLID_129_" fill="#29394C" cx="485.563" cy="238.169" rx="172.109" ry="15.271"/>
					</g>
					<g id="XMLID_127_">
						<path id="XMLID_128_" fill="#29394C" d="M485.563,264.039c-46.352,0-89.829-1.617-122.705-4.491
							c-16.17-1.437-29.105-3.234-38.087-5.03c-7.726-1.617-21.919-4.672-21.919-16.349c0-11.857,14.373-14.731,21.919-16.349
							c9.163-1.976,21.917-3.593,38.087-5.03c32.876-2.875,76.354-4.491,122.705-4.491c46.35,0,89.827,1.616,122.703,4.491
							c16.17,1.437,29.105,3.233,38.088,5.03c7.725,1.617,21.918,4.671,21.918,16.349c0,11.857-14.372,14.732-21.918,16.349
							c-9.161,1.976-21.918,3.593-38.088,5.03C575.39,262.422,531.912,264.039,485.563,264.039z M362.679,238.169
							c28.745,2.695,70.964,4.671,122.884,4.671c51.921,0,94.14-1.977,122.884-4.671c-28.744-2.695-70.963-4.671-122.884-4.671
							C433.643,233.498,391.424,235.474,362.679,238.169z"/>
					</g>
				</g>
				<g id="XMLID_123_">
					<g id="XMLID_124_">
						<path id="XMLID_125_" fill="#29394C" d="M685.878,1020.209H292.792c-6.467,0-11.856-5.389-11.856-11.857v-11.857
							c0-6.465,5.39-11.855,11.856-11.855h393.266c6.468,0,11.857,5.391,11.857,11.855v11.857
							C697.734,1014.82,692.525,1020.209,685.878,1020.209z"/>
					</g>
				</g>
				<g id="XMLID_120_">
					<g id="XMLID_121_">
						<circle id="XMLID_122_" fill="#29394C" cx="371.48" cy="836.063" r="4.672"/>
					</g>
				</g>
				<g id="XMLID_54_">
					<g id="XMLID_55_">
						<circle id="XMLID_119_" fill="#29394C" cx="371.48" cy="942.957" r="4.672"/>
					</g>
				</g>
			</g>
			<g id="XMLID_28_">
				<g id="XMLID_39_">
					<path id="XMLID_42_" fill="#E6B345" d="M628.927,225.593v213.251c0,61.083-35.75,114.621-83.72,145.162
						c7.365,2.875,7.365,10.24,9.162,18.145c66.653-23.715,123.063-88.391,123.063-163.306V225.593H628.927z"/>
				</g>
				<g id="XMLID_38_">
					<path id="XMLID_51_" fill="#E6B345" d="M541.256,583.826c-20.123,12.758-43.118,21.559-67.731,25.152
						c8.084,1.258,16.35,1.795,24.794,1.795c20.301,0,39.703-3.592,57.848-9.881C554.19,592.99,548.621,586.701,541.256,583.826z"/>
				</g>
				<g id="XMLID_37_">
					<path id="XMLID_50_" fill="#E6B345" d="M498.318,610.955L498.318,610.955L498.318,610.955z"/>
				</g>
				<g id="XMLID_35_">
					<path id="XMLID_36_" fill="#E6B345" d="M468.495,592.092h64.315c3.055,0,9.881-4.313,12.576-3.236
						c47.969-30.541,83.721-88.928,83.721-150.011V225.593H329.082v213.251c0,76.353,48.508,145.88,117.314,168.519
						C448.015,595.863,456.457,592.092,468.495,592.092z"/>
				</g>
				<g id="XMLID_29_">
					<path id="XMLID_30_" fill="#E6B345" d="M541.256,588.678c-2.696-1.078-5.569,3.232-8.445,3.232h-64.315
						c-11.857,0-21.738,3.773-23.715,15.092c9.162,3.055,18.863,5.209,28.744,6.648
						C517.361,615.266,521.133,601.613,541.256,588.678z"/>
				</g>
			</g>
			<g id="XMLID_26_">
				<path id="XMLID_27_" fill="#F5BE4B" d="M524.906,645.988h-53.357c-21.021,0-38.266-17.068-38.266-38.268v-19.043h129.891v19.043
					C563.174,628.92,546.105,645.988,524.906,645.988z"/>
			</g>
			<g id="XMLID_24_">
				<path id="XMLID_25_" fill="#F5BE4B" d="M584.372,494.538c-6.826,0-12.396-5.569-12.396-12.396s5.57-12.397,12.396-12.397
					c53.358,0,94.858-12.935,123.425-42.937c35.391-37.009,42.578-91.625,43.835-107.793H576.108
					c-6.828,0-12.396-6.646-12.396-13.474c0-6.826,5.568-13.474,12.396-13.474h188.279c6.647,0,12.217,4.132,12.396,10.779
					c0.18,3.413,3.054,83.181-51.021,139.592C692.344,477.47,644.736,494.538,584.372,494.538z"/>
			</g>
			<g id="XMLID_22_">
				<path id="XMLID_23_" fill="#F5BE4B" d="M419.09,494.538c-60.364,0-107.973-17.786-141.391-52.818
					c-53.896-56.592-51.02-135.64-50.842-139.054c0.36-6.647,5.75-10.779,12.397-10.779h187.38c6.826,0,12.396,6.648,12.396,13.474
					c0,6.827-5.57,13.475-12.396,13.475H252.009c1.438,16.168,8.445,71.144,43.838,107.973
					c28.563,29.823,70.064,43.835,123.243,43.835c6.826,0,12.396,5.032,12.396,11.858
					C431.486,489.507,425.916,494.538,419.09,494.538z"/>
			</g>
			<g id="XMLID_17_">
				<g id="XMLID_20_">
					<path id="XMLID_21_" fill="#F5BE4B" d="M628.927,218.407V430.94c0,86.593-68.089,156.48-151.269,168.517
						c8.084,1.258,12.396,0,20.84,0l0,0c95.036,0,178.935-73.301,178.935-168.339V218.407H628.927z"/>
				</g>
				<g id="XMLID_18_">
					<path id="XMLID_19_" fill="#FEC554" d="M628.927,430.759V218.407H328.902V430.94c0,86.593,66.652,158.275,150.012,170.314
						C562.094,589.037,628.927,517.533,628.927,430.759z"/>
				</g>
			</g>
			<g id="XMLID_14_">
				<ellipse id="XMLID_16_" fill="#FAA71A" cx="498.498" cy="227.57" rx="172.109" ry="15.271"/>
				<path id="XMLID_15_" fill="#FFCF7C" d="M498.498,253.619c-182.889,0-182.889-17.605-182.889-26.05
					c0-8.444,0-26.05,182.709-26.05s182.709,17.606,182.709,26.05C681.208,236.014,681.208,253.619,498.498,253.619z
					 M375.612,227.569c28.744,2.695,70.964,4.671,122.886,4.671c51.919,0,94.137-1.977,122.883-4.671
					c-28.746-2.695-70.964-4.671-122.883-4.671C446.396,222.898,404.356,224.875,375.612,227.569z"/>
			</g>
			<g id="XMLID_11_">
				<path id="XMLID_12_" fill="#E6B345" d="M426.814,586.881c0,0,71.684,33.057,144.981-1.258c73.12-34.314-2.874,9.701-2.874,9.701
					s-52.639,31.08-138.875,4.133L426.814,586.881z"/>
			</g>
		</g>
	</g>
</g>
</svg>
