<?xml version="1.0" encoding="utf-8"?>
<!-- Generator: Adobe Illustrator 18.1.0, SVG Export Plug-In . SVG Version: 6.00 Build 0)  -->
<!DOCTYPE svg PUBLIC "-//W3C//DTD SVG 1.1//EN" "http://www.w3.org/Graphics/SVG/1.1/DTD/svg11.dtd">
<svg version="1.1" id="Layer_1" xmlns="http://www.w3.org/2000/svg" xmlns:xlink="http://www.w3.org/1999/xlink" x="0px" y="0px"
	 viewBox="0 0 150 150" enable-background="new 0 0 150 150" xml:space="preserve">
<g id="star5_1_">
	<path fill="#FFFFFF" d="M111.1,19.5c0.1,0,0.2,0.1,0.1,0.3l-0.3,0.3l-0.1,0.1l0.1,0.4c0,0.1-0.1,0.2-0.2,0.1l-0.4-0.2h-0.1
		l-0.4,0.2c-0.1,0.1-0.2-0.1-0.2-0.1l0.1-0.4l-0.1-0.1l-0.3-0.3c-0.1-0.1-0.1-0.2,0.1-0.3l0.4-0.1l0.1-0.1l0.2-0.4
		c0.1-0.1,0.2-0.1,0.3,0l0.2,0.4"/>
</g>
<g id="star7_1_">
	<circle fill="#FFFFFF" cx="74.5" cy="14.3" r="0.5"/>
</g>
<g id="star6_1_">
	<circle fill="#FFFFFF" cx="46" cy="25.1" r="0.8"/>
</g>
<g>
	<g>
		<defs>
			<circle id="SVGID_1_" cx="75" cy="75" r="75"/>
		</defs>
		<clipPath id="SVGID_2_">
			<use xlink:href="#SVGID_1_"  overflow="visible"/>
		</clipPath>
		<circle clip-path="url(#SVGID_2_)" fill="#1D2947" cx="75" cy="75" r="75"/>
		<path clip-path="url(#SVGID_2_)" fill="#273756" d="M155.1,103.8H137c-1.5,0-2.8-1.6-2.8-3.1s1.3-3.1,2.8-3.1h8
			c1.8,0,2.6-1.1,2.6-2.9v-0.3c0-1.8-0.8-3.1-2.6-3.1h-25.2c-1.8,0-3.6,1.3-3.6,3.1v0.3c0,1.8,1.8,2.9,3.6,2.9h3
			c1.8,0,3.2,1.4,3.2,3.1s-1.4,3.1-3.2,3.1H57.9c-1.8,0-3.3,1.9-3.3,3.6v0.6c0,1.8,1.6,3.3,3.3,3.3h25c1.8,0,3.2,1.4,3.2,3.1
			s-1.4,3.1-3.2,3.1h-8.4c-1.8,0-3.2,1.4-3.2,3.1s1.4,3.1,3.2,3.1h49.6c1.8,0,3.2-1.4,3.2-3.1s-1.4-3.1-3.2-3.1h-14.1
			c-1.5,0-2.8-1.6-2.8-3.1s1.3-3.1,2.8-3.1h45c1.8,0,3.1-1.4,3.1-3.3v-0.6C158.3,105.6,156.9,103.8,155.1,103.8z"/>
		<path clip-path="url(#SVGID_2_)" fill="#273756" d="M91.9,32.2H73.8c-1.5,0-2.8-1.6-2.8-3.1c0-1.5,1.3-3.1,2.8-3.1h8
			c1.8,0,2.6-1.1,2.6-2.9v-0.3c0-1.8-0.8-3.1-2.6-3.1H56.6c-1.8,0-3.6,1.3-3.6,3.1V23c0,1.8,1.8,2.9,3.6,2.9h3
			c1.8,0,3.2,1.4,3.2,3.1c0,1.8-1.4,3.1-3.2,3.1H-5.3c-1.8,0-3.3,1.9-3.3,3.6v0.6c0,1.8,1.6,3.3,3.3,3.3h25c1.8,0,3.2,1.4,3.2,3.1
			c0,1.8-1.4,3.1-3.2,3.1h-8.4c-1.8,0-3.2,1.4-3.2,3.1c0,1.8,1.4,3.1,3.2,3.1H61c1.8,0,3.2-1.4,3.2-3.1c0-1.8-1.4-3.1-3.2-3.1H46.9
			c-1.5,0-2.8-1.6-2.8-3.1c0-1.5,1.3-3.1,2.8-3.1h45c1.8,0,3.1-1.4,3.1-3.3v-0.6C95.1,34,93.7,32.2,91.9,32.2z"/>
		<circle clip-path="url(#SVGID_2_)" fill="#FFFFFF" cx="120.5" cy="75.9" r="0.5"/>
		<circle clip-path="url(#SVGID_2_)" fill="#FFFFFF" cx="50.6" cy="64.7" r="0.5"/>
		<circle clip-path="url(#SVGID_2_)" fill="#FFFFFF" cx="24.7" cy="83.3" r="0.8"/>
		<circle clip-path="url(#SVGID_2_)" fill="#FFFFFF" cx="127.7" cy="45.9" r="0.8"/>
		<circle clip-path="url(#SVGID_2_)" fill="#FFFFFF" cx="83.9" cy="137.6" r="0.8"/>
		<circle clip-path="url(#SVGID_2_)" fill="#FFFFFF" cx="53.2" cy="128.1" r="0.5"/>
		<circle clip-path="url(#SVGID_2_)" fill="#FFFFFF" cx="15.2" cy="101.2" r="0.8"/>
		<circle clip-path="url(#SVGID_2_)" fill="#FFFFFF" cx="95.1" cy="14.8" r="0.8"/>
		<line clip-path="url(#SVGID_2_)" fill="#8689CA" x1="52.6" y1="96.9" x2="53.1" y2="96.8"/>
		<path clip-path="url(#SVGID_2_)" fill="#28353D" d="M54.9,93.7c0.1,0,0.2-0.1,0.3-0.1c-1.3,0.4-2.2,1.8-1.9,3.2l-0.6,0.1
			C52.4,95.6,53.4,94,54.9,93.7z"/>
		<path clip-path="url(#SVGID_2_)" fill="#3C4E5A" d="M55.2,93.6c1.4-0.1,2.7,0.8,3,2.1l-4.9,1C53,95.4,53.9,94,55.2,93.6z"/>
		<line clip-path="url(#SVGID_2_)" fill="#8689CA" x1="53.1" y1="96.8" x2="58.2" y2="95.7"/>
		<circle clip-path="url(#SVGID_2_)" fill="#F2F2F2" cx="76.3" cy="177.9" r="90.1"/>
		<path clip-path="url(#SVGID_2_)" fill="#E6E6E6" d="M76.3,87.8c-5.5,0-10.9,0.5-16.2,1.4c42.1,7.6,74,44.4,74,88.7
			s-31.9,81.1-74,88.7c5.2,0.9,10.6,1.4,16.2,1.4c49.8,0,90.1-40.4,90.1-90.1S126.1,87.8,76.3,87.8z"/>
		<path clip-path="url(#SVGID_2_)" fill="#CCCCCC" d="M40,102.7c0-1.5,1.1-2.8,2.6-3.1c-0.2,0-0.3,0-0.5,0c-1.7,0-3.1,1.4-3.1,3.1
			s1.4,3.1,3.1,3.1c0.2,0,0.4,0,0.5,0C41.1,105.5,40,104.3,40,102.7z"/>
		<path clip-path="url(#SVGID_2_)" fill="#E6E6E6" d="M45.2,102.7c0-1.5-1.1-2.8-2.6-3.1c-1.5,0.2-2.6,1.5-2.6,3.1s1.1,2.8,2.6,3.1
			C44,105.5,45.2,104.3,45.2,102.7z"/>
		<path clip-path="url(#SVGID_2_)" fill="#CCCCCC" d="M25.4,113.5c0-0.5,0.4-0.9,0.9-1l-0.2,0c-0.6,0-1,0.5-1,1s0.5,1,1,1l0.2,0
			C25.8,114.4,25.4,114,25.4,113.5z"/>
		<path clip-path="url(#SVGID_2_)" fill="#E6E6E6" d="M27.1,113.5c0-0.5-0.4-0.9-0.9-1c-0.5,0.1-0.9,0.5-0.9,1s0.4,0.9,0.9,1
			C26.7,114.4,27.1,114,27.1,113.5z"/>
		<path clip-path="url(#SVGID_2_)" fill="#CCCCCC" d="M100.7,114.5c0-0.5,0.4-0.9,0.9-1l-0.2,0c-0.6,0-1,0.5-1,1c0,0.6,0.5,1,1,1
			l0.2,0C101.1,115.4,100.7,115,100.7,114.5z"/>
		<path clip-path="url(#SVGID_2_)" fill="#E6E6E6" d="M102.4,114.5c0-0.5-0.4-0.9-0.9-1c-0.5,0.1-0.9,0.5-0.9,1c0,0.5,0.4,0.9,0.9,1
			C102.1,115.4,102.4,115,102.4,114.5z"/>
		<path clip-path="url(#SVGID_2_)" fill="#CCCCCC" d="M74.9,109.4c0-0.9,0.6-1.6,1.5-1.7c-0.1,0-0.2,0-0.3,0c-1,0-1.8,0.8-1.8,1.8
			s0.8,1.8,1.8,1.8c0.1,0,0.2,0,0.3,0C75.5,111,74.9,110.3,74.9,109.4z"/>
		<path clip-path="url(#SVGID_2_)" fill="#E6E6E6" d="M77.8,109.4c0-0.9-0.6-1.6-1.5-1.7c-0.8,0.1-1.5,0.9-1.5,1.7
			c0,0.9,0.6,1.6,1.5,1.7C77.2,111,77.8,110.3,77.8,109.4z"/>
		<path clip-path="url(#SVGID_2_)" fill="#CCCCCC" d="M51.6,119.1c0-0.9,0.6-1.6,1.5-1.7c-0.1,0-0.2,0-0.3,0c-1,0-1.8,0.8-1.8,1.8
			s0.8,1.8,1.8,1.8c0.1,0,0.2,0,0.3,0C52.2,120.7,51.6,120,51.6,119.1z"/>
		<path clip-path="url(#SVGID_2_)" fill="#E6E6E6" d="M54.5,119.1c0-0.9-0.6-1.6-1.5-1.7c-0.8,0.1-1.5,0.9-1.5,1.7
			c0,0.9,0.6,1.6,1.5,1.7C53.9,120.7,54.5,120,54.5,119.1z"/>
		<path clip-path="url(#SVGID_2_)" fill="#AFAFAF" d="M117.4,112c0-1.3,0.9-2.3,2.1-2.5c-0.1,0-0.3,0-0.4,0c-1.4,0-2.5,1.1-2.5,2.5
			c0,1.4,1.1,2.5,2.5,2.5c0.1,0,0.3,0,0.4,0C118.4,114.3,117.4,113.2,117.4,112z"/>
		<path clip-path="url(#SVGID_2_)" fill="#C6C6C6" d="M121.4,112c0-1.3-0.9-2.3-2.1-2.5c-1.2,0.2-2.1,1.2-2.1,2.5
			c0,1.3,0.9,2.3,2.1,2.5C120.5,114.3,121.4,113.2,121.4,112z"/>
		<path clip-path="url(#SVGID_2_)" fill="#AFAFAF" d="M90,95.3c0-0.5,0.4-1,0.9-1l-0.2,0c-0.6,0-1.1,0.5-1.1,1.1s0.5,1.1,1.1,1.1
			l0.2,0C90.4,96.3,90,95.9,90,95.3z"/>
		<path clip-path="url(#SVGID_2_)" fill="#C6C6C6" d="M91.7,95.3c0-0.5-0.4-1-0.9-1c-0.5,0.1-0.9,0.5-0.9,1s0.4,1,0.9,1
			C91.3,96.3,91.7,95.9,91.7,95.3z"/>
		<path clip-path="url(#SVGID_2_)" fill="#DA7962" d="M80.1,33c-2.5,0-4.5,1-4.5,2.3v36.3c0,1.3,2,2.3,4.5,2.3
			c0.4,0,31.7-2.3,31.7-2.3V30.7L80.1,33z"/>
		<path clip-path="url(#SVGID_2_)" fill-rule="evenodd" clip-rule="evenodd" fill="#E6E6E6" d="M75.5,67c0,1.3,2,2.3,4.5,2.3
			c0.4,0,31.7-2.3,31.7-2.3v-4.5l-31.7,2.3C77.5,64.7,75.5,65.7,75.5,67z M75.5,57.9c0,1.3,2,2.3,4.5,2.3c0.4,0,31.7-2.3,31.7-2.3
			v-4.5l-31.7,2.3C77.5,55.6,75.5,56.6,75.5,57.9z M75.5,48.8c0,1.3,2,2.3,4.5,2.3c0.4,0,31.7-2.3,31.7-2.3v-4.5l-31.7,2.3
			C77.5,46.6,75.5,47.6,75.5,48.8z M80.1,37.5c-2.5,0-4.5,1-4.5,2.3c0,1.3,2,2.3,4.5,2.3c0.4,0,31.7-2.3,31.7-2.3v-4.5L80.1,37.5z"
			/>
		<path clip-path="url(#SVGID_2_)" fill="#B66451" d="M75.5,57.9v13.6c0-1.3,2-2.3,4.5-2.3c2.5,0,4.5-1,4.5-2.3v-9.1H75.5z"/>
		<path clip-path="url(#SVGID_2_)" fill="#F9886C" d="M80.1,46.6c-0.6,0-22.7,2.3-22.7,2.3V67c0,0,22-2.3,22.7-2.3
			c2.5,0,4.5,1,4.5,2.3V48.8C84.6,47.6,82.6,46.6,80.1,46.6z"/>
		<path clip-path="url(#SVGID_2_)" fill-rule="evenodd" clip-rule="evenodd" fill="#FFFFFF" d="M80.1,55.6c-0.6,0-22.7,2.3-22.7,2.3
			v4.5c0,0,22-2.3,22.7-2.3c2.5,0,4.5,1,4.5,2.3v-4.5C84.6,56.6,82.6,55.6,80.1,55.6z M80.1,46.6c-0.6,0-22.7,2.3-22.7,2.3v4.5
			c0,0,22-2.3,22.7-2.3c2.5,0,4.5,1,4.5,2.3v-4.5C84.6,47.6,82.6,46.6,80.1,46.6z"/>
		<path clip-path="url(#SVGID_2_)" fill="#F9886C" d="M80.1,23.9c-0.6,0-22.7,2.3-22.7,2.3v22.7c0,0,22-2.3,22.7-2.3
			c2.5,0,4.5,1,4.5,2.3V26.2C84.6,24.9,82.6,23.9,80.1,23.9z"/>
		<path clip-path="url(#SVGID_2_)" fill-rule="evenodd" clip-rule="evenodd" fill="#CCCCCC" d="M59.7,21.6c0-2.5-2-4.5-4.5-4.5
			c-2.5,0-4.5,2-4.5,4.5c0,1.7,0.9,3.1,2.3,3.9v72.3c0,1.3,1,2.3,2.3,2.3s2.3-1,2.3-2.3V25.5C58.7,24.8,59.7,23.3,59.7,21.6z"/>
		<path clip-path="url(#SVGID_2_)" fill-rule="evenodd" clip-rule="evenodd" fill="#FFFFFF" d="M80.1,37.9c-0.6,0-22.7,2.3-22.7,2.3
			v4.5c0,0,22-2.3,22.7-2.3c2.5,0,4.5,1,4.5,2.3v-4.5C84.6,38.9,82.6,37.9,80.1,37.9z M80.1,28.8c-0.6,0-22.7,2.3-22.7,2.3v4.5
			c0,0,22-2.3,22.7-2.3c2.5,0,4.5,1,4.5,2.3v-4.5C84.6,29.8,82.6,28.8,80.1,28.8z"/>
	</g>
</g>
</svg>
