<?xml version="1.0" encoding="utf-8"?>
<!-- Generator: Adobe Illustrator 16.0.0, SVG Export Plug-In . SVG Version: 6.00 Build 0)  -->
<!DOCTYPE svg PUBLIC "-//W3C//DTD SVG 1.1//EN" "http://www.w3.org/Graphics/SVG/1.1/DTD/svg11.dtd">
<svg version="1.1" id="Layer_1" xmlns="http://www.w3.org/2000/svg" xmlns:xlink="http://www.w3.org/1999/xlink" x="0px" y="0px"
	 width="1005px" height="1005px" viewBox="0 0 1005 1005" enable-background="new 0 0 1005 1005" xml:space="preserve">
<g>
	<defs>
		<circle id="SVGID_1_" cx="502.5" cy="503" r="500"/>
	</defs>
	<clipPath id="SVGID_2_">
		<use xlink:href="#SVGID_1_"  overflow="visible"/>
	</clipPath>
	<g clip-path="url(#SVGID_2_)">
		<g>
			<path fill="#FFFFFF" d="M743.666,131.5c0.667,0,1.334,0.667,0.667,2l-2,2l-0.667,0.667l0.667,2.667
				c0,0.667-0.667,1.333-1.333,0.667l-2.667-1.333h-0.667L735,139.5c-0.667,0.667-1.334-0.667-1.334-0.667l0.667-2.667l-0.667-0.667
				l-2-2c-0.666-0.667-0.666-1.333,0.667-2l2.667-0.667l0.666-0.667L737,127.5c0.666-0.667,1.333-0.667,2,0l1.333,2.667"/>
			<circle fill="#FFFFFF" cx="499.666" cy="96.833" r="3.333"/>
			<circle fill="#FFFFFF" cx="309.666" cy="168.833" r="5.333"/>
			<g>
				<g>
					<defs>
						<circle id="SVGID_3_" cx="503" cy="501.5" r="500"/>
					</defs>
					<clipPath id="SVGID_4_">
						<use xlink:href="#SVGID_3_"  overflow="visible"/>
					</clipPath>
					<circle clip-path="url(#SVGID_4_)" fill="#1D2A47" cx="503" cy="501.5" r="500"/>
				</g>
			</g>
			<g>
				<g>
					<defs>
						<circle id="SVGID_5_" cx="503" cy="501.5" r="500"/>
					</defs>
					<clipPath id="SVGID_6_">
						<use xlink:href="#SVGID_5_"  overflow="visible"/>
					</clipPath>
					<path clip-path="url(#SVGID_6_)" fill="#273856" d="M1037,653.5H916.333c-10,0-18.667-10.666-18.667-20.666
						s8.667-20.668,18.667-20.668h53.333c12,0,17.334-7.333,17.334-19.332v-2c0-12-5.334-20.668-17.334-20.668h-168
						c-12,0-24,8.668-24,20.668v2c0,11.999,12,19.332,24,19.332h20c12,0,21.334,9.334,21.334,20.668
						c0,11.332-9.334,20.666-21.334,20.666H389c-12,0-22,12.666-22,24v4c0,12,10.666,22,22,22h166.666
						c12,0,21.334,9.333,21.334,20.667c0,11.333-9.334,20.666-21.334,20.666h-56c-12,0-21.333,9.334-21.333,20.667
						s9.333,20.667,21.333,20.667h330.667c12,0,21.333-9.334,21.333-20.667s-9.333-20.667-21.333-20.667h-94
						c-10,0-18.667-10.666-18.667-20.666s8.667-20.667,18.667-20.667h300c12,0,20.667-9.333,20.667-22v-4
						C1058.333,665.5,1049,653.5,1037,653.5z"/>
				</g>
			</g>
			<g>
				<g>
					<defs>
						<circle id="SVGID_7_" cx="503" cy="501.5" r="500"/>
					</defs>
					<clipPath id="SVGID_8_">
						<use xlink:href="#SVGID_7_"  overflow="visible"/>
					</clipPath>
					<path clip-path="url(#SVGID_8_)" fill="#273856" d="M615.666,216.167H495c-10,0-18.667-10.667-18.667-20.667
						S485,174.833,495,174.833h53.333c12,0,17.333-7.333,17.333-19.333v-2c0-12-5.333-20.667-17.333-20.667h-168
						c-12,0-24,8.667-24,20.667v1.333c0,12,12,19.333,24,19.333h20c12,0,21.333,9.333,21.333,20.667
						c0,12-9.333,20.667-21.333,20.667H-32.334c-12,0-22,12.667-22,24v4c0,12,10.667,22,22,22h166.667
						c12,0,21.333,9.333,21.333,20.667c0,12-9.333,20.667-21.333,20.667h-56c-12,0-21.333,9.333-21.333,20.667
						c0,12,9.333,20.667,21.333,20.667h331.333c12,0,21.333-9.333,21.333-20.667c0-12-9.333-20.667-21.333-20.667h-94
						c-10,0-18.666-10.667-18.666-20.667s8.666-20.667,18.666-20.667h300c12,0,20.667-9.333,20.667-22v-4
						C637,228.167,627.666,216.167,615.666,216.167z"/>
				</g>
			</g>
			<g>
				<g>
					<defs>
						<circle id="SVGID_9_" cx="503" cy="501.5" r="500"/>
					</defs>
					<clipPath id="SVGID_10_">
						<use xlink:href="#SVGID_9_"  overflow="visible"/>
					</clipPath>
					<circle clip-path="url(#SVGID_10_)" fill="#FFFFFF" cx="806.333" cy="507.5" r="3.334"/>
				</g>
			</g>
			<g>
				<g>
					<defs>
						<circle id="SVGID_11_" cx="503" cy="501.5" r="500"/>
					</defs>
					<clipPath id="SVGID_12_">
						<use xlink:href="#SVGID_11_"  overflow="visible"/>
					</clipPath>
					<circle clip-path="url(#SVGID_12_)" fill="#FFFFFF" cx="340.333" cy="432.833" r="3.333"/>
				</g>
			</g>
			<g>
				<g>
					<defs>
						<circle id="SVGID_13_" cx="503" cy="501.5" r="500"/>
					</defs>
					<clipPath id="SVGID_14_">
						<use xlink:href="#SVGID_13_"  overflow="visible"/>
					</clipPath>
					<circle clip-path="url(#SVGID_14_)" fill="#FFFFFF" cx="167.666" cy="556.833" r="5.333"/>
				</g>
			</g>
			<g>
				<g>
					<defs>
						<circle id="SVGID_15_" cx="503" cy="501.5" r="500"/>
					</defs>
					<clipPath id="SVGID_16_">
						<use xlink:href="#SVGID_15_"  overflow="visible"/>
					</clipPath>
					<circle clip-path="url(#SVGID_16_)" fill="#FFFFFF" cx="854.333" cy="307.5" r="5.333"/>
				</g>
			</g>
			<g>
				<g>
					<defs>
						<circle id="SVGID_17_" cx="503" cy="501.5" r="500"/>
					</defs>
					<clipPath id="SVGID_18_">
						<use xlink:href="#SVGID_17_"  overflow="visible"/>
					</clipPath>
					<circle clip-path="url(#SVGID_18_)" fill="#FFFFFF" cx="562.333" cy="918.833" r="5.333"/>
				</g>
			</g>
			<g>
				<g>
					<defs>
						<circle id="SVGID_19_" cx="503" cy="501.5" r="500"/>
					</defs>
					<clipPath id="SVGID_20_">
						<use xlink:href="#SVGID_19_"  overflow="visible"/>
					</clipPath>
					<circle clip-path="url(#SVGID_20_)" fill="#FFFFFF" cx="357.666" cy="855.5" r="3.333"/>
				</g>
			</g>
			<g>
				<g>
					<defs>
						<circle id="SVGID_21_" cx="503" cy="501.5" r="500"/>
					</defs>
					<clipPath id="SVGID_22_">
						<use xlink:href="#SVGID_21_"  overflow="visible"/>
					</clipPath>
					<circle clip-path="url(#SVGID_22_)" fill="#FFFFFF" cx="104.333" cy="676.167" r="5.333"/>
				</g>
			</g>
			<g>
				<g>
					<defs>
						<circle id="SVGID_23_" cx="503" cy="501.5" r="500"/>
					</defs>
					<clipPath id="SVGID_24_">
						<use xlink:href="#SVGID_23_"  overflow="visible"/>
					</clipPath>
					<circle clip-path="url(#SVGID_24_)" fill="#FFFFFF" cx="637" cy="100.167" r="5.333"/>
				</g>
			</g>
			<g>
				<g>
					<defs>
						<circle id="SVGID_25_" cx="503" cy="501.5" r="500"/>
					</defs>
					<clipPath id="SVGID_26_">
						<use xlink:href="#SVGID_25_"  overflow="visible"/>
					</clipPath>
					<circle clip-path="url(#SVGID_26_)" fill="#FFFFFF" cx="535" cy="517.5" r="3.334"/>
				</g>
			</g>
			<g>
				<g>
					<defs>
						<circle id="SVGID_27_" cx="503" cy="501.5" r="500"/>
					</defs>
					<clipPath id="SVGID_28_">
						<use xlink:href="#SVGID_27_"  overflow="visible"/>
					</clipPath>
					<g clip-path="url(#SVGID_28_)">
						<path fill="#1D2A47" d="M596.5,442.667c4.5-5.167,10-8.833,16-11c-9.334,1.167-18.167,5.5-24.834,13.167
							c-14.666,16-14.666,41.333,0.667,56.667c4.167,3,13.5,4.666,17,1.666c-1.333-0.332-6.833-2.833-8.167-3.833
							C581.833,484,581.833,458.667,596.5,442.667z"/>
					</g>
				</g>
			</g>
			<g>
				<g>
					<defs>
						<circle id="SVGID_29_" cx="503" cy="501.5" r="500"/>
					</defs>
					<clipPath id="SVGID_30_">
						<use xlink:href="#SVGID_29_"  overflow="visible"/>
					</clipPath>
					<g clip-path="url(#SVGID_30_)">
						<path fill="#CDCCCC" d="M788.333,666.166"/>
					</g>
				</g>
			</g>
		</g>
		<g>
			<path fill-rule="evenodd" clip-rule="evenodd" fill="#878787" d="M602.55,403.988c-0.786-16.761-1.371-33.536-2.483-50.275
				c-0.333-5.026,1.413-6.934,5.995-8.443c99.708-32.832,199.372-65.798,299.004-98.863c4.135-1.371,5.982-1.163,7.491,3.464
				c13.377,41.033,26.897,82.02,40.697,122.912c2.283,6.766-2.228,6.985-6.13,8.277c-56.657,18.751-113.331,37.452-169.982,56.219
				c-41.485,13.741-83.011,27.371-124.351,41.535c-6.769,2.318-9.907,0.525-13.547-4.829c-9.131-13.427-17.288-27.547-27.839-39.987
				C601.412,426.322,598.472,416.358,602.55,403.988z"/>
			<path fill-rule="evenodd" clip-rule="evenodd" fill="#878787" d="M368.113,515.414c0.812,17.036,1.45,34.081,2.535,51.1
				c0.361,5.684-3.317,6.396-7.177,7.675c-52.355,17.335-104.692,34.728-157.043,52.079
				c-46.263,15.332-92.578,30.511-138.762,46.076c-6.22,2.098-8.546,0.989-10.568-5.296
				c-12.807-39.808-25.885-79.531-39.267-119.148c-2.018-5.973-0.366-7.787,4.999-9.555c98.928-32.599,197.823-65.3,296.647-98.212
				c5.46-1.818,7.976-0.572,11.009,3.906c9.399,13.878,18.148,28.224,28.735,41.276C369.149,493.3,371.97,502.848,368.113,515.414z"
				/>
			<path fill-rule="evenodd" clip-rule="evenodd" fill="#C7D9E4" d="M596.702,439.391c-2.965,3.002-0.834,6.033,0.119,8.913
				c6.184,18.682,12.509,37.316,18.724,55.987c4.457,13.386-0.544,23.721-13.942,28.204c-26.721,8.944-53.509,17.687-80.269,26.51
				c-3.179-1.213-4.02-4.154-4.861-6.93c-10.549-34.727-22.727-68.918-33.961-103.42c-0.661-2.03-1.271-4.084-0.991-6.271
				c0.149-0.851,0.488-1.623,0.995-2.32c11.21-5.779,23.584-8.33,35.327-12.652c5.259-1.936,10.69-3.398,15.9-5.469
				c12.503-4.966,16.583-12.917,13.286-26.049c-1.365-5.435-3.283-10.722-5.208-15.984c-5.212-14.248-13.615-18.667-28.156-14.314
				c-13.806,4.134-27.371,9.046-41.063,13.55c-3.498,1.152-6.996,2.906-10.848,1.202c-4.789-6.417-8.625-13.109-6.157-21.594
				c22.635-9.294,46.443-15.228,69.245-23.976c24.472-9.388,34.894-3.789,41.718,20.912c5.093,18.437,11.563,36.49,17.42,54.714
				c3.43,1.38,3.916,4.713,4.921,7.621C591.377,425.191,593.525,432.478,596.702,439.391z"/>
			<path fill-rule="evenodd" clip-rule="evenodd" fill="#D5EBF9" d="M482.795,441.89c12.846,39.039,25.691,78.078,38.539,117.116
				c-26.995,8.926-53.896,18.152-81.027,26.645c-12.261,3.838-21.489-2.106-26.166-15.742
				c-6.125-17.855-11.921-35.824-17.896-53.731c-1.008-3.023-2.201-5.985-3.308-8.975c-6.099-9.173-7.673-19.997-11.009-30.179
				c1.702-3.03-0.183-5.634-1.067-8.306c-5.926-17.878-11.839-35.761-17.902-53.595c-4.406-12.96-2.172-26.343,15.433-31.58
				c23.379-6.955,46.346-15.301,69.511-22.983c2.491-0.826,5.126-1.214,7.694-1.807c0.971,7.347,3.971,14.063,6.496,20.928
				c0.475,0.825,0.38,1.577-0.281,2.26c-13.549,6.395-28.095,9.985-42.197,14.822c-23.365,8.016-26.692,14.462-18.872,38.041
				c7.783,23.467,14.375,26.755,37.949,18.93c11.394-3.781,22.772-7.609,34.185-11.334
				C476.082,441.354,479.362,439.494,482.795,441.89z"/>
			<path fill-rule="evenodd" clip-rule="evenodd" fill="#4384AC" d="M523.079,565.791c29.885-10.928,63.376,3.96,75.562,33.106
				c3.714,8.884,2.157,16.034-4.216,22.55c-12.264,12.541-27.529,19.735-44.163,24.415c-2.95-1.004-3.714-3.685-4.551-6.184
				c-7.371-22.026-14.831-44.022-22.062-66.096C522.821,571.054,521.917,568.486,523.079,565.791z"/>
			<path fill-rule="evenodd" clip-rule="evenodd" fill="#3E92C5" d="M523.079,565.791c9.062,26.69,18.121,53.38,27.183,80.07
				c-15.868,5.912-32.055,9.143-49.075,6.317c-9.163-1.52-14.625-6.391-16.735-15.654
				C477.499,605.989,493.455,576.54,523.079,565.791z"/>
			<path fill-rule="evenodd" clip-rule="evenodd" fill="#FFFFFF" d="M553.803,789.606c-22.755-0.525-45.695-5.142-66.119-18.78
				c-1.771-1.181-3.469-2.472-5.205-3.709c-2.729-1.947-4.129-4.54-2.012-7.479c2.276-3.161,5.115-1.936,7.632,0.056
				c11.95,9.457,25.724,14.768,40.452,18.01c55.729,12.264,117.095-18.328,137.436-68.586c1.092-2.697,1.988-5.479,2.85-8.259
				c0.982-3.166,1.96-6.687,6.239-5.589c4.927,1.266,3.537,5.187,2.592,8.497c-3.857,13.52-10.798,25.422-19.55,36.298
				C632.95,771.335,595.026,789.539,553.803,789.606z"/>
			<path fill-rule="evenodd" clip-rule="evenodd" fill="#FFFFFF" d="M551.91,743.285c-17.669-0.527-34.15-4.893-48.8-15.149
				c-1.089-0.761-2.161-1.552-3.208-2.372c-2.799-2.194-4.595-4.904-1.877-8.093c2.615-3.068,5.238-1.011,7.643,0.835
				c15.74,12.079,33.649,16.305,53.227,15.185c31.847-1.824,61.835-24.942,71.272-55.341c1.032-3.323,1.737-7.583,6.347-6.273
				c5.082,1.444,3.429,5.616,2.328,9.299C628.076,717.385,591.717,743.302,551.91,743.285z"/>
			<path fill-rule="evenodd" clip-rule="evenodd" fill="#FFFFFF" d="M548.269,696.523c-9.222-0.41-19.497-3.491-28.586-10.209
				c-2.789-2.063-5.255-4.479-2.921-7.926c2.482-3.668,5.348-1.588,8.208,0.266c26.628,17.262,54.906,7.906,66.394-22.065
				c1.318-3.439,2.623-6.174,6.612-4.804c4.289,1.471,2.882,4.925,2.005,8.049C593.986,681.199,573.146,696.586,548.269,696.523z"/>
			<path fill-rule="evenodd" clip-rule="evenodd" fill="#666766" d="M381.928,477.023c6.458,9.044,7.873,19.928,11.01,30.18
				c-8.277,2.74-16.555,5.482-24.828,8.219c0.682-11.115-2.305-21.141-8.886-30.106C366.79,482.551,374.359,479.788,381.928,477.023
				z"/>
			<path fill-rule="evenodd" clip-rule="evenodd" fill="#666766" d="M596.702,439.391c-3.677-0.617-3.998-3.783-4.933-6.485
				c-2.597-7.502-5.195-15.004-7.791-22.504c6.192-2.141,12.386-4.281,18.574-6.417c-0.902,11.142,2.282,21.076,8.849,30.014
				C606.504,435.795,601.603,437.592,596.702,439.391z"/>
			<path fill-rule="evenodd" clip-rule="evenodd" fill="#F8FBFC" d="M682.951,397.232c4.895,14.55,9.634,29.154,14.779,43.615
				c1.554,4.366,0.192,5.841-3.776,7.252c-16.612,5.905-16.629,6.037-22.017-10.524c-3.843-11.812-7.508-23.681-11.251-35.525
				C667.377,395.144,677.568,392.939,682.951,397.232z"/>
			<path fill-rule="evenodd" clip-rule="evenodd" fill="#F8FBFC" d="M894.366,325.198c5.156,15.118,10.215,30.27,15.535,45.329
				c1.375,3.894,0.425,5.71-3.351,7.238c-16.794,6.798-16.822,6.91-22.461-10.17c-3.584-10.859-6.942-21.793-10.401-32.694
				c-1.269-1.942-0.59-4.104,0.914-4.925C880.711,326.64,886.682,322.179,894.366,325.198z"/>
			<path fill-rule="evenodd" clip-rule="evenodd" fill="#F8FBFC" d="M867.36,333.163c6.767,15.64,10.708,32.238,16.381,48.249
				c0.439,1.242,1.205,2.904-0.388,3.492c-6.226,2.3-12.521,4.44-18.862,6.394c-2.164,0.666-2.512-1.649-2.94-2.971
				c-5.085-15.678-10.063-31.391-15.069-47.094C851.691,334.018,859.427,333.333,867.36,333.163z"/>
			<path fill-rule="evenodd" clip-rule="evenodd" fill="#D5EAF9" d="M819.55,349.224c-5.227-15.295-10.475-30.586-15.663-45.895
				c-0.674-1.994-1.508-4.404,1.265-5.444c5.706-2.142,11.435-4.298,17.306-5.896c3.59-0.976,3.332,2.789,3.981,4.738
				c5.105,15.332,10.031,30.725,15.012,46.1C834.699,346.835,827.899,350.684,819.55,349.224z"/>
			<path fill-rule="evenodd" clip-rule="evenodd" fill="#F8FBFC" d="M708.578,386.114c5.315,15.557,10.606,31.124,15.968,46.665
				c1.152,3.336,0.617,4.949-3.166,6.381c-17.371,6.574-17.392,6.774-23.093-10.622c-3.714-11.332-7.136-22.76-10.689-34.145
				C692.675,386.779,700.578,386.323,708.578,386.114z"/>
			<path fill-rule="evenodd" clip-rule="evenodd" fill="#D5EAF9" d="M867.36,333.163c-6.713,3.33-14.49,3.901-20.879,8.07
				c-6.609-15.387-10.582-31.666-16.049-47.438c-0.174-0.502-0.578-1.15-0.407-1.512c3.257-6.973,10.98-5.309,16.325-8.311
				c2.44-1.372,5.065-1.655,6.156,2.142C857.045,301.926,863.616,317.097,867.36,333.163z"/>
			<path fill-rule="evenodd" clip-rule="evenodd" fill="#F8FBFC" d="M735.555,378.111c5.052,15.081,9.957,30.212,15.253,45.207
				c1.367,3.87,0.791,5.561-3.083,7.104c-17.047,6.787-17.056,6.91-22.74-10.464c-3.864-11.812-7.558-23.68-11.327-35.522
				C720.203,379.723,726.943,375.677,735.555,378.111z"/>
			<path fill-rule="evenodd" clip-rule="evenodd" fill="#F8FBFC" d="M788.511,360.472c5.051,15.083,9.887,30.242,15.276,45.201
				c1.658,4.604,0.111,5.969-3.796,7.404c-16.469,6.051-16.491,6.157-22.026-10.706c-3.882-11.82-7.592-23.696-11.378-35.546
				C773.112,362.005,779.904,358.104,788.511,360.472z"/>
			<path fill-rule="evenodd" clip-rule="evenodd" fill="#F8FBFC" d="M819.55,349.224c7.41-1.758,14.225-5.554,21.901-6.398
				c5.053,15.085,9.889,30.25,15.289,45.209c1.653,4.577,0.217,5.999-3.727,7.459c-16.497,6.106-16.521,6.215-22.079-10.689
				C827.046,372.976,823.339,361.087,819.55,349.224z"/>
			<path fill-rule="evenodd" clip-rule="evenodd" fill="#F8FBFC" d="M761.509,368.465c5.335,15.612,10.626,31.241,16.037,46.827
				c1.218,3.502,0.383,4.964-3.297,6.31c-17.122,6.266-17.133,6.439-22.789-10.721c-3.748-11.365-7.272-22.806-10.897-34.211
				C745.69,369.205,753.526,368.646,761.509,368.465z"/>
			<path fill-rule="evenodd" clip-rule="evenodd" fill="#F8FBFC" d="M814.409,350.828c5.392,15.79,10.783,31.581,16.169,47.372
				c0.171,0.502,0.558,1.157,0.384,1.516c-3.498,7.172-11.537,5.406-17.099,8.582c-3.223,1.842-4.702-0.189-5.635-3.14
				c-4.868-15.411-9.804-30.801-14.716-46.199C798.676,351.617,806.453,350.994,814.409,350.828z"/>
			<path fill-rule="evenodd" clip-rule="evenodd" fill="#D5EBF9" d="M894.366,325.198c-6.127,0.341-11.451,3.485-17.256,4.958
				c-2.371,0.601-3.196,2.5-3.422,4.745c-5.604-16.576-11.207-33.154-16.822-49.726c-0.521-1.536-1.316-3.66,0.346-4.324
				c6.154-2.461,12.417-4.723,18.788-6.533c2.359-0.669,2.556,2.22,3.098,3.875C884.218,293.852,889.284,309.527,894.366,325.198z"
				/>
			<path fill-rule="evenodd" clip-rule="evenodd" fill="#D5EBF9" d="M814.409,350.828c-6.725,3.33-14.548,3.835-20.896,8.13
				c-5.405-15.843-10.811-31.686-16.214-47.529c-0.503-1.474-1.613-3.479,0.316-4.221c6.192-2.381,12.485-4.549,18.855-6.401
				c2.522-0.734,2.779,2.119,3.277,3.666C804.715,319.898,809.542,335.37,814.409,350.828z"/>
			<path fill-rule="evenodd" clip-rule="evenodd" fill="#D5EBF9" d="M735.555,378.111c-7.691,0.751-14.444,4.75-21.897,6.324
				c-5.329-15.586-10.686-31.165-15.939-46.777c-0.449-1.334-1.704-3.493,0.269-4.228c6.216-2.319,12.49-4.661,18.94-6.087
				c2.968-0.657,2.921,3.231,3.622,5.323C725.615,347.793,730.566,362.959,735.555,378.111z"/>
			<path fill-rule="evenodd" clip-rule="evenodd" fill="#D5EBF9" d="M761.509,368.465c-6.748,3.332-14.61,3.819-20.944,8.204
				c-5.404-15.855-10.75-31.73-16.261-47.549c-0.995-2.857-0.634-4.524,2.382-5.476c4.825-1.523,9.666-3.027,14.385-4.845
				c3.549-1.368,4.651,0.427,5.565,3.306C751.552,337.571,756.543,353.013,761.509,368.465z"/>
			<path fill-rule="evenodd" clip-rule="evenodd" fill="#D5EBF9" d="M708.578,386.114c-6.755,3.359-14.688,3.739-20.978,8.279
				c-5.36-15.787-10.704-31.581-16.091-47.358c-0.705-2.068-1.763-4.308,1.114-5.333c5.737-2.045,11.568-3.831,17.377-5.678
				c2.953-0.938,2.863,1.677,3.366,3.208C698.485,354.844,703.521,370.483,708.578,386.114z"/>
			<path fill-rule="evenodd" clip-rule="evenodd" fill="#D5EBF9" d="M788.511,360.472c-7.694,0.783-14.478,4.708-21.924,6.353
				c-5.155-15.112-10.229-30.253-15.52-45.317c-1.376-3.914-0.221-5.718,3.486-7.232c16.444-6.717,16.432-6.812,21.964,9.813
				C780.549,336.203,784.516,348.343,788.511,360.472z"/>
			<path fill-rule="evenodd" clip-rule="evenodd" fill="#D5EBF9" d="M682.951,397.232c-8.382-2.831-14.875,3.064-22.265,4.818
				c-5.317-15.589-10.639-31.178-15.944-46.771c-0.257-0.755-0.825-1.857-0.522-2.282c4.417-6.213,12.185-4.865,18.107-7.814
				c3.844-1.913,4.209,1.802,5.003,4.222C672.555,365.341,677.748,381.288,682.951,397.232z"/>
			<path fill-rule="evenodd" clip-rule="evenodd" fill="#F8FBFC" d="M918.696,317.102c5.351,15.537,10.661,31.088,16.09,46.598
				c0.951,2.722,0.692,3.954-2.322,5.321c-15.711,7.123-16.395,7.015-21.563-9.052c-4.06-12.622-7.857-25.327-11.771-37.994
				C905.11,318.174,911.095,314.394,918.696,317.102z"/>
			<path fill-rule="evenodd" clip-rule="evenodd" fill="#F8FBFC" d="M655.64,403.713c5.266,15.622,10.509,31.251,15.817,46.859
				c1.097,3.222,0.113,5.022-3.146,5.958c-3.833,1.102-7.71,2.188-11.354,3.772c-3.526,1.534-4.804,0.022-5.755-3.003
				c-4.944-15.727-9.944-31.433-14.925-47.148C641.646,404.743,647.987,402.256,655.64,403.713z"/>
			<path fill-rule="evenodd" clip-rule="evenodd" fill="#D5EAF9" d="M655.64,403.713c-6.453,2.146-12.906,4.292-19.36,6.439
				c-5.288-15.538-10.464-31.115-15.945-46.583c-1.212-3.421-0.297-4.924,2.836-5.786c0.255-0.071,0.496-0.188,0.743-0.284
				c14.773-5.807,14.81-5.819,19.731,9.168C647.693,378.999,651.646,391.363,655.64,403.713z"/>
			<path fill-rule="evenodd" clip-rule="evenodd" fill="#D5EAF9" d="M918.696,317.102c-6.521,1.624-13.044,3.249-19.566,4.873
				c-6.395-14.898-10.313-30.648-15.82-45.851c-1.244-3.433,0.059-4.806,3.275-5.597c3.863-0.95,7.732-2.016,11.418-3.485
				c2.856-1.137,4.502-0.764,5.429,2.244C908.35,285.279,914.791,300.786,918.696,317.102z"/>
			<path fill-rule="evenodd" clip-rule="evenodd" fill="#F8FBFC" d="M283.965,527.068c5.35,15.613,10.701,31.226,16.043,46.84
				c0.171,0.503,0.497,1.146,0.328,1.542c-3.277,7.656-11.622,5.283-17.165,8.551c-3.027,1.784-4.671,0.039-5.68-3.181
				c-4.611-14.724-9.446-29.378-14.201-44.057c-1.02-1.555-0.829-3.351,0.557-4.152
				C270.039,529.023,276.177,524.951,283.965,527.068z"/>
			<path fill-rule="evenodd" clip-rule="evenodd" fill="#F8FBFC" d="M98.161,587.988c5.386,15.808,10.773,31.612,16.152,47.421
				c0.17,0.5,0.524,1.159,0.345,1.527c-3.489,7.231-11.561,5.354-17.136,8.511c-2.988,1.692-4.656,0.338-5.675-2.98
				c-4.747-15.447-9.732-30.822-14.632-46.224C82.29,588.654,90.173,588.188,98.161,587.988z"/>
			<path fill-rule="evenodd" clip-rule="evenodd" fill="#F8FBFC" d="M311.014,519.091c4.96,14.866,9.793,29.776,14.968,44.568
				c1.409,4.029,1.17,5.857-3.357,7.477c-17.046,6.1-17.013,6.309-22.534-10.848c-3.736-11.607-7.35-23.255-11.018-34.885
				C295.344,519.68,302.269,516.222,311.014,519.091z"/>
			<path fill-rule="evenodd" clip-rule="evenodd" fill="#D5EAF9" d="M236.098,543.049c-6.634-15.376-10.628-31.646-16.065-47.429
				c-0.172-0.501-0.577-1.183-0.393-1.512c3.694-6.606,11.345-5.021,16.823-8.013c3.654-1.995,5.147,0.404,6.19,3.658
				c5.183,16.174,10.483,32.313,15.742,48.462C250.811,539.123,244.102,544.073,236.098,543.049z"/>
			<path fill-rule="evenodd" clip-rule="evenodd" fill="#D5EAF9" d="M209.152,551.092c-5.143-15.1-10.174-30.24-15.505-45.273
				c-1.471-4.146-0.13-5.982,3.728-6.842c0.257-0.057,0.493-0.201,0.743-0.293c16.127-5.921,16.191-5.942,21.53,10.304
				c3.902,11.87,7.606,23.805,11.399,35.71C224.516,549.458,217.729,553.336,209.152,551.092z"/>
			<path fill-rule="evenodd" clip-rule="evenodd" fill="#F8FBFC" d="M236.098,543.049c7.39-1.81,13.897-7.692,22.298-4.833
				c4.939,14.848,9.878,29.696,14.819,44.543c0.167,0.504,0.642,1.145,0.479,1.485c-3.435,7.162-11.361,5.508-16.911,8.553
				c-3.207,1.76-4.782,0.359-5.762-2.753C246.083,574.367,241.079,558.712,236.098,543.049z"/>
			<path fill-rule="evenodd" clip-rule="evenodd" fill="#F8FBFC" d="M178.104,562.339c5.065,15.108,9.933,30.288,15.311,45.286
				c1.62,4.518,0.265,6-3.749,7.477c-16.411,6.032-16.432,6.157-21.782-10.057c-3.989-12.088-7.797-24.234-11.687-36.356
				C162.717,563.871,169.5,559.966,178.104,562.339z"/>
			<path fill-rule="evenodd" clip-rule="evenodd" fill="#F8FBFC" d="M209.152,551.092c7.299-2.131,14.597-4.264,21.895-6.395
				c5.074,15.123,9.984,30.304,15.325,45.33c1.542,4.336,0.652,6.024-3.608,7.598c-16.467,6.077-16.472,6.242-21.902-10.188
				C216.866,575.354,213.049,563.21,209.152,551.092z"/>
			<path fill-rule="evenodd" clip-rule="evenodd" fill="#F8FBFC" d="M151.093,570.338c5.389,15.808,10.778,31.615,16.162,47.425
				c0.17,0.501,0.553,1.159,0.376,1.518c-3.522,7.138-11.506,5.511-17.109,8.608c-3.275,1.812-4.697-0.269-5.615-3.168
				c-4.88-15.41-9.811-30.805-14.724-46.204C135.311,571.083,143.124,570.509,151.093,570.338z"/>
			<path fill-rule="evenodd" clip-rule="evenodd" fill="#F8FBFC" d="M125.145,579.979c4.992,14.852,9.756,29.785,15.103,44.508
				c1.866,5.139,0.407,6.834-4.353,8.429c-15.825,5.301-15.834,5.493-21.012-10.272c-3.969-12.078-7.742-24.224-11.602-36.34
				C109.812,581.579,116.543,577.546,125.145,579.979z"/>
			<path fill-rule="evenodd" clip-rule="evenodd" fill="#F8FBFC" d="M204.553,553.998c5.195,15.281,10.416,30.553,15.547,45.854
				c0.62,1.851,2.044,4.254-1.074,5.33c-5.756,1.986-11.567,3.815-17.367,5.676c-2.878,0.925-3.016-1.692-3.495-3.159
				c-5.092-15.604-10.042-31.255-15.031-46.893C186.736,554.911,196.19,551.906,204.553,553.998z"/>
			<path fill-rule="evenodd" clip-rule="evenodd" fill="#D5EBF9" d="M283.965,527.068c-5.051,1.595-10.106,3.176-15.151,4.788
				c-2.552,0.816-5.193,1.57-5.521,4.907c-5.583-16.525-11.128-33.062-16.786-49.561c-0.966-2.816-0.614-4.435,2.508-5.342
				c4.832-1.406,9.661-2.911,14.316-4.804c3.572-1.451,4.549,0.126,5.503,3.136C273.792,495.846,278.906,511.449,283.965,527.068z"
				/>
			<path fill-rule="evenodd" clip-rule="evenodd" fill="#D5EBF9" d="M311.014,519.091c-7.881,0.131-14.723,3.875-21.942,6.313
				c-5.307-15.542-10.645-31.077-15.882-46.643c-0.615-1.828-1.995-4.183,1.179-5.259c5.522-1.872,10.998-3.945,16.624-5.434
				c3.774-0.999,3.989,2.505,4.793,4.938C300.865,488.366,305.938,503.729,311.014,519.091z"/>
			<path fill-rule="evenodd" clip-rule="evenodd" fill="#D5EBF9" d="M178.104,562.339c-7.69,0.779-14.463,4.724-21.906,6.349
				c-5.145-15.08-10.198-30.192-15.496-45.219c-1.4-3.971-0.125-5.697,3.521-7.191c16.43-6.726,16.421-6.814,21.929,9.744
				C170.175,538.115,174.123,550.231,178.104,562.339z"/>
			<path fill-rule="evenodd" clip-rule="evenodd" fill="#D5EBF9" d="M151.093,570.338c-6.736,3.323-14.575,3.826-20.91,8.179
				c-5.406-15.842-10.811-31.683-16.213-47.526c-0.502-1.475-1.584-3.375,0.362-4.221c6.076-2.638,12.25-5.192,18.879-5.99
				c2.285-0.275,2.708,2.355,3.244,4C141.4,539.943,146.229,555.146,151.093,570.338z"/>
			<path fill-rule="evenodd" clip-rule="evenodd" fill="#D5EBF9" d="M125.145,579.979c-7.68,0.757-14.42,4.755-21.864,6.324
				c-5.249-15.32-10.512-30.636-15.731-45.967c-0.843-2.475-0.884-4.741,2.245-5.775c5.045-1.668,10.069-3.406,15.109-5.091
				c4.077-1.363,4.216,1.901,5.02,4.335C115.001,549.194,120.071,564.586,125.145,579.979z"/>
			<path fill-rule="evenodd" clip-rule="evenodd" fill="#D5EBF9" d="M98.161,587.988c-6.747,3.346-14.648,3.763-20.944,8.254
				c-5.359-15.773-10.633-31.576-16.145-47.297c-1.148-3.274-0.417-4.568,2.73-5.919c17.404-7.473,17.409-7.575,23.226,10.18
				C90.816,564.774,94.455,576.393,98.161,587.988z"/>
			<path fill-rule="evenodd" clip-rule="evenodd" fill="#D5EBF9" d="M204.553,553.998c-7.385,1.498-14.876,2.657-21.417,6.808
				c-5.394-15.787-10.695-31.606-16.254-47.335c-1.125-3.188,0.095-4.397,2.688-5.266c4.525-1.517,9.122-2.844,13.572-4.553
				c3.67-1.41,5.391-0.067,6.473,3.373C194.545,522.698,199.566,538.344,204.553,553.998z"/>
			<path fill-rule="evenodd" clip-rule="evenodd" fill="#F8FBFC" d="M72.557,599.097c4.845,14.299,9.507,28.665,14.63,42.864
				c1.955,5.416,0.145,7.148-4.908,8.724c-13.409,4.181-13.401,4.462-17.822-9.128c-3.846-11.828-7.503-23.719-11.244-35.581
				C54.53,598.369,65.828,594.352,72.557,599.097z"/>
			<path fill-rule="evenodd" clip-rule="evenodd" fill="#F8FBFC" d="M335.278,511.031c5.12,15.067,10.179,30.159,15.41,45.189
				c1.184,3.4,0.802,5.002-2.97,6.494c-15.274,6.04-15.244,6.226-20.35-9.361c-3.879-11.84-7.648-23.715-11.467-35.573
				C319.215,511.188,327.518,508.295,335.278,511.031z"/>
			<path fill-rule="evenodd" clip-rule="evenodd" fill="#D5EBF9" d="M335.278,511.031c-7.069,0.495-13.737,2.14-19.375,6.748
				c-5.357-15.8-10.612-31.635-16.144-47.373c-1.23-3.5-0.849-4.949,2.871-6.428c15.308-6.085,15.289-6.259,20.397,9.244
				C327.175,485.805,331.199,498.427,335.278,511.031z"/>
			<path fill-rule="evenodd" clip-rule="evenodd" fill="#D5EBF9" d="M72.557,599.097c-7.571-0.869-14.337,0.526-19.344,6.877
				c-5.477-16.09-10.848-32.219-16.501-48.248c-1.468-4.163,0.031-5.548,3.731-6.947c14.612-5.526,14.604-5.662,19.356,8.847
				C64.103,572.764,68.308,585.938,72.557,599.097z"/>
			<path fill-rule="evenodd" clip-rule="evenodd" fill="#4384AC" d="M461.86,380.871c0.048-0.403,0.125-0.8,0.232-1.19
				c16.658-3.646,32.398-10.206,48.567-15.394c18.623-5.976,27.378-1.834,33.546,16.492c1.781,5.291,3.786,10.517,5.314,15.879
				c3.412,11.969-0.767,22.096-11.979,26.115c-17.997,6.453-36.331,11.965-54.523,17.875c-3.421,0.48-3.853-2.415-4.553-4.457
				c-5.694-16.585-11.282-33.206-16.67-49.893C461.218,384.511,460.937,382.668,461.86,380.871z"/>
			<path fill-rule="evenodd" clip-rule="evenodd" fill="#3E92C5" d="M461.86,380.871c5.893,17.307,11.761,34.622,17.699,51.914
				c0.929,2.704,1.131,5.762,3.459,7.862c-0.108,0.41-0.183,0.824-0.224,1.244c-16.762,4.233-32.899,10.414-49.292,15.798
				c-17.515,5.755-26.722,1.264-32.529-16.005c-1.864-5.541-3.97-11.012-5.567-16.627c-3.489-12.276,1.055-22.33,12.703-26.433
				C425.904,392.355,443.932,386.755,461.86,380.871z"/>
		</g>
	</g>
</g>
</svg>
