<?xml version="1.0" encoding="utf-8"?>
<!-- Generator: Adobe Illustrator 16.0.0, SVG Export Plug-In . SVG Version: 6.00 Build 0)  -->
<!DOCTYPE svg PUBLIC "-//W3C//DTD SVG 1.1//EN" "http://www.w3.org/Graphics/SVG/1.1/DTD/svg11.dtd">
<svg version="1.1" id="Space" xmlns="http://www.w3.org/2000/svg" xmlns:xlink="http://www.w3.org/1999/xlink" x="0px" y="0px"
	 width="128px" height="120.881px" viewBox="0 0 128 120.881" enable-background="new 0 0 128 120.881" xml:space="preserve">
<g>
	<path fill="#C96811" d="M55.877,55.531c0,0.576-0.469,1.045-1.046,1.045l0,0c-0.577,0-1.045-0.469-1.045-1.045V45.324
		c0-0.576,0.468-1.045,1.045-1.045l0,0c0.577,0,1.046,0.469,1.046,1.045V55.531z"/>
	<path fill="#C96811" d="M60.657,55.531c0,0.576-0.469,1.045-1.046,1.045l0,0c-0.576,0-1.045-0.469-1.045-1.045V45.324
		c0-0.576,0.469-1.045,1.045-1.045l0,0c0.577,0,1.046,0.469,1.046,1.045V55.531z"/>
	<path fill="#C96811" d="M65.434,58.49c0,0.578-0.467,1.045-1.044,1.045l0,0c-0.578,0-1.045-0.469-1.045-1.045V41.766
		c0-0.578,0.467-1.045,1.045-1.045l0,0c0.578,0,1.044,0.467,1.044,1.045V58.49z"/>
	<path fill="#C96811" d="M65.434,94.445c0,0.576-0.467,1.045-1.044,1.045l0,0c-0.578,0-1.045-0.469-1.045-1.045V85.77
		c0-0.576,0.467-1.045,1.045-1.045l0,0c0.578,0,1.044,0.469,1.044,1.045V94.445z"/>
	<path fill="#C96811" d="M70.213,55.531c0,0.576-0.469,1.045-1.045,1.045l0,0c-0.578,0-1.047-0.469-1.047-1.045V45.324
		c0-0.576,0.469-1.045,1.047-1.045l0,0c0.576,0,1.045,0.469,1.045,1.045V55.531z"/>
	<path fill="#C96811" d="M74.992,55.531c0,0.576-0.467,1.045-1.045,1.045l0,0c-0.576,0-1.045-0.469-1.045-1.045V45.324
		c0-0.576,0.469-1.045,1.045-1.045l0,0c0.578,0,1.045,0.469,1.045,1.045V55.531z"/>
	<circle fill="#C96811" cx="64.389" cy="72.109" r="7.205"/>
	<path fill="#C96811" d="M64.389,93.994c-3.332,0-6.033,2.701-6.033,6.033s2.701,6.031,6.033,6.031c3.332,0,6.033-2.699,6.033-6.031
		S67.721,93.994,64.389,93.994z M64.389,104.412c-2.422,0-4.385-1.963-4.385-4.385c0-2.424,1.963-4.387,4.385-4.387
		c2.421,0,4.386,1.963,4.386,4.387C68.775,102.449,66.811,104.412,64.389,104.412z"/>
	<circle fill="#C96811" cx="64.389" cy="100.026" r="2.534"/>
	<path fill="#C96811" d="M64.389,24.41c-2.328,0-4.222,1.893-4.222,4.221s1.894,4.223,4.222,4.223c2.328,0,4.222-1.895,4.222-4.223
		S66.717,24.41,64.389,24.41z"/>
	<path fill="#C96811" d="M64.389,19.086c-5.264,0-9.545,4.281-9.545,9.545s4.281,9.545,9.545,9.545c5.265,0,9.544-4.281,9.544-9.545
		S69.654,19.086,64.389,19.086z M64.389,35.178c-3.608,0-6.547-2.938-6.547-6.547c0-3.611,2.938-6.547,6.547-6.547
		c3.609,0,6.546,2.936,6.546,6.547C70.936,32.24,68,35.178,64.389,35.178z"/>
	<path fill="#C96811" d="M64.389,14.822c-7.627,0-13.811,6.182-13.811,13.809s6.184,13.811,13.811,13.811
		c7.626,0,13.812-6.184,13.812-13.811S72.016,14.822,64.389,14.822z M64.389,39.543c-6.017,0-10.912-4.896-10.912-10.912
		s4.896-10.91,10.912-10.91c6.017,0,10.912,4.895,10.912,10.91S70.406,39.543,64.389,39.543z"/>
	<path fill="#C96811" d="M64.389,61.566c-5.813,0-10.544,4.729-10.544,10.543s4.729,10.545,10.544,10.545
		c5.816,0,10.542-4.73,10.542-10.545C74.932,66.297,70.205,61.566,64.389,61.566z M64.389,81.139c-4.985,0-9.028-4.043-9.028-9.029
		s4.043-9.027,9.028-9.027c4.986,0,9.029,4.041,9.029,9.027S69.377,81.139,64.389,81.139z"/>
	<path fill="#C96811" d="M64.389,58.299c-7.627,0-13.811,6.184-13.811,13.811S56.762,85.92,64.389,85.92
		c7.626,0,13.812-6.184,13.812-13.811S72.016,58.299,64.389,58.299z M64.389,84.549c-6.858,0-12.438-5.58-12.438-12.439
		c0-6.857,5.58-12.439,12.438-12.439c6.859,0,12.439,5.582,12.439,12.439C76.83,78.969,71.25,84.549,64.389,84.549z"/>
</g>
</svg>
