<?xml version="1.0" encoding="utf-8"?>
<!-- Generator: Adobe Illustrator 16.0.0, SVG Export Plug-In . SVG Version: 6.00 Build 0)  -->
<!DOCTYPE svg PUBLIC "-//W3C//DTD SVG 1.1//EN" "http://www.w3.org/Graphics/SVG/1.1/DTD/svg11.dtd">
<svg version="1.1" id="Space" xmlns="http://www.w3.org/2000/svg" xmlns:xlink="http://www.w3.org/1999/xlink" x="0px" y="0px"
	 width="128px" height="120.881px" viewBox="0 0 128 120.881" enable-background="new 0 0 128 120.881" xml:space="preserve">
<g>
	<g>
		<path fill="#EC8B2C" d="M45.841,52.465c0-13.971,10.794-25.395,24.492-26.449c-2.06-0.365-4.168-0.59-6.333-0.59
			c-19.89,0-36.016,16.123-36.016,36.016c0,9.902,4.002,18.869,10.472,25.381l15.383-15.383
			C48.907,66.619,45.841,59.904,45.841,52.465z"/>
		<path fill="#FFAF3B" d="M45.841,52.465c0,7.439,3.066,14.154,7.998,18.975l35.507-35.506c-0.239-0.236-0.466-0.484-0.71-0.717
			c-0.019-0.014-0.033-0.029-0.051-0.045c-1.799-1.684-3.773-3.182-5.892-4.473c-0.115-0.07-0.229-0.143-0.346-0.209
			c-0.685-0.408-1.381-0.797-2.095-1.158c-0.019-0.01-0.036-0.018-0.055-0.025c-2.216-1.119-4.566-2.01-7.019-2.654
			c-0.162-0.043-0.322-0.086-0.484-0.125c-0.779-0.193-1.563-0.369-2.363-0.512l0,0C56.635,27.07,45.841,38.494,45.841,52.465z"/>
		<path fill="#C96811" d="M64,97.455c19.892,0,36.016-16.123,36.016-36.016c0-2.984-0.402-5.869-1.087-8.643
			c-0.183,14.51-11.983,26.219-26.535,26.219c-7.227,0-13.77-2.895-18.555-7.576L38.456,86.82C44.98,93.387,54.015,97.455,64,97.455
			z"/>
		<path fill="#EC8B2C" d="M53.839,71.439c4.785,4.682,11.327,7.576,18.555,7.576c14.552,0,26.354-11.709,26.535-26.219
			c0-0.002-0.002-0.002-0.002-0.004c-1.468-5.949-4.412-11.311-8.42-15.676c-0.048-0.053-0.093-0.104-0.14-0.152
			c-0.33-0.355-0.68-0.691-1.021-1.033L53.839,71.439z"/>
	</g>
	<path fill="#C96811" d="M66.858,43.281c0,1.705-1.382,3.086-3.086,3.086h-23.61c-1.704,0-3.086-1.381-3.086-3.086l0,0
		c0-1.705,1.382-3.086,3.086-3.086h23.61C65.477,40.195,66.858,41.576,66.858,43.281L66.858,43.281z"/>
	<path fill="#EC8B2C" d="M61.252,81.861c0,1.305-1.058,2.361-2.36,2.361H40.818c-1.304,0-2.361-1.057-2.361-2.361l0,0
		c0-1.305,1.059-2.361,2.361-2.361h18.073C60.194,79.5,61.252,80.557,61.252,81.861L61.252,81.861z"/>
	<path fill="#FFAF3B" d="M56.964,57.279c0,1.703-1.382,3.084-3.086,3.084H35.593c-1.705,0-3.086-1.381-3.086-3.084l0,0
		c0-1.705,1.381-3.086,3.086-3.086h18.285C55.582,54.193,56.964,55.574,56.964,57.279L56.964,57.279z"/>
	<path fill="#EC8B2C" d="M76.591,52.797c0,1.357-1.101,2.457-2.455,2.457H59.58c-1.355,0-2.456-1.1-2.456-2.457l0,0
		c0-1.355,1.101-2.455,2.456-2.455h14.556C75.49,50.34,76.591,51.439,76.591,52.797L76.591,52.797z"/>
	<path fill="#C96811" d="M97.582,67.232c0,1.213-0.982,2.195-2.195,2.195H78.579c-1.214,0-2.195-0.982-2.195-2.195l0,0
		c0-1.213,0.981-2.195,2.195-2.195h16.808C96.6,65.037,97.582,66.02,97.582,67.232L97.582,67.232z"/>
</g>
</svg>
