<?xml version="1.0" encoding="utf-8"?>
<!-- Generator: Adobe Illustrator 16.0.0, SVG Export Plug-In . SVG Version: 6.00 Build 0)  -->
<!DOCTYPE svg PUBLIC "-//W3C//DTD SVG 1.1//EN" "http://www.w3.org/Graphics/SVG/1.1/DTD/svg11.dtd">
<svg version="1.1" id="Space" xmlns="http://www.w3.org/2000/svg" xmlns:xlink="http://www.w3.org/1999/xlink" x="0px" y="0px"
	 width="128px" height="120.881px" viewBox="0 0 128 120.881" enable-background="new 0 0 128 120.881" xml:space="preserve">
<g>
	<polygon fill="#F8AB1F" points="31.148,50.306 34.298,51.962 33.697,48.453 36.246,45.968 32.723,45.456 31.148,42.263
		29.572,45.456 26.048,45.968 28.598,48.453 27.996,51.962 	"/>
	<polygon fill="#F8AB1F" points="72.167,14.763 74.578,16.03 74.118,13.345 76.069,11.442 73.373,11.051 72.167,8.608 70.96,11.051
		68.264,11.442 70.215,13.345 69.755,16.03 	"/>
	<polygon fill="#F8AB1F" points="90.584,67.347 92.996,68.614 92.536,65.929 94.486,64.026 91.79,63.635 90.584,61.19
		89.378,63.635 86.682,64.026 88.633,65.929 88.172,68.614 	"/>
	<g>
		<path fill="#FFFFFF" d="M54.598,23.377v44.556c0,0.959,0.776,1.734,1.734,1.734V21.642C55.375,21.644,54.598,22.419,54.598,23.377
			z"/>
		<path fill="#C5C5C5" d="M56.333,69.667c0.958,0,1.735-0.775,1.735-1.734V23.377c0-0.958-0.777-1.733-1.735-1.733V69.667z"/>
		<path fill="#3469D3" d="M56.333,64.903v13.873v4.063h13.874v-4.063C70.207,71.114,63.995,64.903,56.333,64.903z"/>
		<path fill="#57A6FF" d="M42.459,78.776v4.063h13.873v-4.063V64.903C48.67,64.903,42.459,71.114,42.459,78.776z"/>
		<rect x="58.068" y="25.132" fill="#EF4F4D" width="32.949" height="23.012"/>
		<polygon fill="#A73935" points="91.018,25.132 58.068,48.144 91.018,48.144 		"/>
		<circle fill="#FFFFFF" cx="66.188" cy="31.31" r="2.756"/>
		<circle fill="#FFFFFF" cx="75.498" cy="32.097" r="4.541"/>
	</g>
	<path fill="#D2E0B6" d="M110.38,88.394c-13.061-6.166-28.791-9.775-45.738-9.775s-32.678,3.609-45.737,9.775
		c10.44,13.869,27.041,22.838,45.737,22.838l0,0C83.339,111.231,99.939,102.261,110.38,88.394z"/>
	<ellipse opacity="0.2" fill="#9C9F9B" enable-background="new    " cx="60.669" cy="89.86" rx="10.864" ry="7.021"/>
	<path opacity="0.3" fill="#9C9F9B" enable-background="new    " d="M26.724,93.64c-0.837,0.27-1.624,0.601-2.363,0.973
		c3.63,3.604,7.734,6.724,12.224,9.255c2.262-2.063,3.358-4.613,2.633-6.87C38.029,93.306,32.438,91.802,26.724,93.64z"/>
	<path opacity="0.3" fill="#9C9F9B" enable-background="new    " d="M106.433,93.077c-2.247-1.477-5.016-2.656-8.12-3.326
		c-8.82-1.902-16.926,0.979-18.103,6.432c-0.815,3.787,1.925,7.815,6.625,10.563C94.31,103.597,100.976,98.913,106.433,93.077z"/>
	<path opacity="0.2" fill="#9C9F9B" enable-background="new    " d="M64.642,111.231c4.601,0,9.072-0.549,13.357-1.576
		c-2.379-1.754-5.461-3.158-8.969-3.916c-7.435-1.602-14.341,0.199-17.039,4.066C56.064,110.728,60.292,111.231,64.642,111.231z"/>
	<ellipse opacity="0.4" fill="#9C9F9B" enable-background="new    " cx="76.872" cy="85.376" rx="3.196" ry="2.536"/>

		<ellipse transform="matrix(-0.2734 -0.9619 0.9619 -0.2734 -39.5994 174.0792)" opacity="0.4" fill="#9C9F9B" enable-background="new    " cx="45.945" cy="101.995" rx="3.495" ry="4.721"/>
</g>
</svg>
