<?xml version="1.0" encoding="utf-8"?>
<!-- Generator: Adobe Illustrator 16.0.0, SVG Export Plug-In . SVG Version: 6.00 Build 0)  -->
<!DOCTYPE svg PUBLIC "-//W3C//DTD SVG 1.1//EN" "http://www.w3.org/Graphics/SVG/1.1/DTD/svg11.dtd">
<svg version="1.1" id="Layer_1" xmlns="http://www.w3.org/2000/svg" xmlns:xlink="http://www.w3.org/1999/xlink" x="0px" y="0px"
	 width="50px" height="50px" viewBox="0 0 50 50" enable-background="new 0 0 50 50" xml:space="preserve">
<g>
	<path d="M22.443,28.999c0.009-1.528,0.143-2.586,0.396-3.175c0.252-0.59,0.916-1.369,1.987-2.339
		c1.045-1.231,1.786-2.18,2.23-2.843c0.441-0.665,0.664-1.463,0.664-2.399c0-1.117-0.3-1.977-0.892-2.577
		c-0.596-0.597-1.447-0.898-2.554-0.898c-0.956,0-1.773,0.258-2.449,0.781c-0.672,0.523-1.01,1.288-1.01,2.298h-2.972l-0.046-0.094
		c-0.032-1.696,0.566-3.054,1.793-4.076c1.226-1.023,2.788-1.533,4.684-1.533c2.074,0,3.687,0.528,4.833,1.585
		c1.148,1.061,1.724,2.538,1.724,4.433c0,1.36-0.37,2.601-1.114,3.73c-0.742,1.129-1.726,2.282-2.947,3.46
		c-0.569,0.568-0.913,1.079-1.035,1.533c-0.121,0.452-0.183,1.157-0.183,2.115h-3.109V28.999z M25.665,35.478h-3.256v-3.284h3.256
		V35.478z"/>
</g>
<path d="M42.269,48.283c-3.377,0-6.603-1.003-9.586-2.977c-0.674-0.438-1.31-0.924-1.907-1.41c-2.09,0.569-4.261,0.866-6.458,0.866
	c-12.673,0-22.958-9.498-22.958-21.167C1.361,11.872,11.648,2.372,24.319,2.372c12.652,0,22.952,9.5,22.952,21.174
	c0,5.585-2.306,10.812-6.521,14.787c0.062,0.46,0.162,0.946,0.32,1.494c0.521,1.871,1.457,3.745,2.785,5.536
	c0.405,0.571,0.467,1.301,0.156,1.899c-0.313,0.624-0.949,1.032-1.665,1.032h-0.078V48.283z M42.269,45.569v1.356l0.062-1.356
	H42.269z M31.611,41.132l0.581,0.544c0.652,0.612,1.385,1.185,2.174,1.707c2.089,1.38,4.302,2.209,6.601,2.475
	c-1.018-1.643-1.771-3.321-2.242-5.016c-0.212-0.748-0.344-1.429-0.424-2.022c-0.047-0.379-0.057-0.651-0.057-0.786v-0.624
	l0.49-0.406c4.015-3.556,6.24-8.357,6.24-13.46c0-10.367-9.252-18.807-20.623-18.807c-11.372,0-20.627,8.44-20.627,18.807
	c0,10.393,9.255,18.833,20.627,18.833c2.249,0,4.447-0.325,6.539-0.949l0.761-0.214L31.611,41.132z"/>
</svg>
