<?xml version="1.0" encoding="utf-8"?>
<!-- Generator: Adobe Illustrator 16.0.0, SVG Export Plug-In . SVG Version: 6.00 Build 0)  -->
<!DOCTYPE svg PUBLIC "-//W3C//DTD SVG 1.1//EN" "http://www.w3.org/Graphics/SVG/1.1/DTD/svg11.dtd">
<svg version="1.1" id="Layer_1" xmlns="http://www.w3.org/2000/svg" xmlns:xlink="http://www.w3.org/1999/xlink" x="0px" y="0px"
	 width="24px" height="24px" viewBox="0 0 24 24" enable-background="new 0 0 24 24" xml:space="preserve">
<g>
	<g>
		<path d="M19.39,21.699L4.513,21.657l-0.174-0.07c-0.156-0.06-0.311-0.12-0.45-0.206c-0.476-0.297-0.641-0.769-0.724-1.097
			l-0.015-0.12l0.015-14.75c0.084-0.331,0.249-0.803,0.723-1.094C4.03,4.231,4.191,4.166,4.354,4.104L4.71,4l14.775,0.041
			l0.166,0.067c0.17,0.066,0.338,0.136,0.487,0.231c0.451,0.285,0.613,0.749,0.695,1.072l0.016,0.122l-0.016,14.753
			c-0.085,0.329-0.251,0.799-0.711,1.083c-0.147,0.092-0.313,0.158-0.479,0.224L19.39,21.699z M4.809,20.716l14.478-0.038
			c0.109-0.042,0.221-0.082,0.318-0.144c0.116-0.071,0.195-0.203,0.262-0.436v-14.5c-0.064-0.228-0.142-0.357-0.254-0.429
			c-0.099-0.063-0.21-0.103-0.319-0.146l-0.1-0.04L4.704,5.022c-0.103,0.04-0.207,0.076-0.299,0.133
			C4.281,5.232,4.198,5.365,4.134,5.597V20.1c0.064,0.232,0.147,0.367,0.271,0.444c0.085,0.053,0.186,0.087,0.285,0.125
			L4.809,20.716z M17.671,18.98l-1.119-0.004L15.44,18.98c-0.398,0-0.649-0.256-0.649-0.65c0.004-1.271,0.004-2.538,0.001-3.804
			c0-0.273-0.013-0.561-0.106-0.821c-0.114-0.323-0.318-0.472-0.643-0.472c-0.536,0.021-0.897,0.379-0.906,0.852
			c-0.014,0.821-0.013,1.644-0.012,2.465v0.796c-0.002,0.339-0.002,0.676,0,1.013c0.001,0.066,0.004,0.278-0.165,0.449l-0.145,0.146
			l-0.287,0.024l-2.506-0.022l-0.376-0.091l-0.022-0.392v-7.994l0.619-0.036l1.171,0.001l1.068-0.003
			c0.204,0,0.363,0.061,0.479,0.183l0.118,0.183c0.59-0.414,1.321-0.586,2.168-0.523c0.538,0.042,1.027,0.194,1.452,0.451
			c0.633,0.38,1.087,0.966,1.351,1.74c0.173,0.505,0.258,1.074,0.259,1.732l0.004,4.124c0.001,0.07,0.002,0.294-0.175,0.473
			C18.022,18.921,17.865,18.98,17.671,18.98z M12.18,12.605l-0.038-0.933l-0.001-0.247l-0.727,0.002h-0.807v6.563l1.533,0.003
			c-0.001-0.219,0-0.435,0.001-0.651v-0.792c-0.001-0.827-0.002-1.656,0.012-2.482c0.019-0.994,0.794-1.774,1.803-1.816h0.005
			c0.828,0,1.398,0.409,1.65,1.124c0.145,0.402,0.163,0.807,0.163,1.149c0.003,1.154,0.003,2.313,0,3.471l0.777-0.003l0.778,0.003
			l-0.004-3.787c-0.001-0.558-0.065-1.008-0.206-1.417c-0.189-0.556-0.492-0.953-0.928-1.216c-0.298-0.18-0.632-0.281-1.021-0.312
			c-0.905-0.068-1.678,0.066-2.276,0.588 M8.558,18.98L8.558,18.98l-1.112-0.004L6.341,18.98c-0.401,0-0.655-0.259-0.655-0.658
			l0.002-7.868h3.493l0.025,0.636c0,2.411,0,4.822,0.004,7.234c0,0.074,0,0.296-0.174,0.474C8.918,18.919,8.757,18.98,8.558,18.98z
			 M7.445,17.993l0.78,0.003c-0.003-2.188-0.003-4.374-0.003-6.558H6.671l-0.002,6.558L7.445,17.993z M7.46,10.412L7.46,10.412
			c-0.358,0-0.715-0.098-1.063-0.293C5.862,9.82,5.559,9.284,5.542,8.609c0.001-0.92,0.665-1.662,1.58-1.778
			c0.586-0.076,1.127,0.043,1.56,0.366c0.44,0.331,0.694,0.87,0.683,1.443c-0.011,0.563-0.281,1.081-0.722,1.385
			C8.271,10.282,7.873,10.412,7.46,10.412z M7.471,7.792L7.246,7.807C6.828,7.86,6.525,8.193,6.524,8.599
			c0.012,0.472,0.27,0.615,0.354,0.663C7.3,9.498,7.696,9.484,8.083,9.216c0.185-0.127,0.293-0.344,0.299-0.596
			c0.005-0.258-0.104-0.496-0.29-0.637C7.917,7.854,7.719,7.792,7.471,7.792z M12.175,12.498l-0.033-0.825"/>
	</g>
</g>
</svg>
